<svg id="mermaid-1783935115057" width="3850.671875" xmlns="http://www.w3.org/2000/svg" xmlns:xlink="http://www.w3.org/1999/xlink" height="2256.26904296875" viewBox="-8 -23.416000366210938 3850.671875 2256.26904296875" role="graphics-document document" aria-roledescription="flowchart-v2">
<rect x="-100000" y="-100000" width="200000" height="200000" fill="#000000"/>
<style>#mermaid-1783935115057{font-family:"trebuchet ms",verdana,arial,sans-serif;font-size:16px;fill:#ccc;}#mermaid-1783935115057 .error-icon{fill:#a44141;}#mermaid-1783935115057 .error-text{fill:#ddd;stroke:#ddd;}#mermaid-1783935115057 .edge-thickness-normal{stroke-width:2px;}#mermaid-1783935115057 .edge-thickness-thick{stroke-width:3.5px;}#mermaid-1783935115057 .edge-pattern-solid{stroke-dasharray:0;}#mermaid-1783935115057 .edge-pattern-dashed{stroke-dasharray:3;}#mermaid-1783935115057 .edge-pattern-dotted{stroke-dasharray:2;}#mermaid-1783935115057 .marker{fill:lightgrey;stroke:lightgrey;}#mermaid-1783935115057 .marker.cross{stroke:lightgrey;}#mermaid-1783935115057 svg{font-family:"trebuchet ms",verdana,arial,sans-serif;font-size:16px;}#mermaid-1783935115057 .label{font-family:"trebuchet ms",verdana,arial,sans-serif;color:#ccc;}#mermaid-1783935115057 .cluster-label text{fill:#F9FFFE;}#mermaid-1783935115057 .cluster-label span,#mermaid-1783935115057 p{color:#F9FFFE;}#mermaid-1783935115057 .label text,#mermaid-1783935115057 span,#mermaid-1783935115057 p{fill:#ccc;color:#ccc;}#mermaid-1783935115057 .node rect,#mermaid-1783935115057 .node circle,#mermaid-1783935115057 .node ellipse,#mermaid-1783935115057 .node polygon,#mermaid-1783935115057 .node path{fill:#1f2020;stroke:#81B1DB;stroke-width:1px;}#mermaid-1783935115057 .flowchart-label text{text-anchor:middle;}#mermaid-1783935115057 .node .katex path{fill:#000;stroke:#000;stroke-width:1px;}#mermaid-1783935115057 .node .label{text-align:center;}#mermaid-1783935115057 .node.clickable{cursor:pointer;}#mermaid-1783935115057 .arrowheadPath{fill:lightgrey;}#mermaid-1783935115057 .edgePath .path{stroke:lightgrey;stroke-width:2.0px;}#mermaid-1783935115057 .flowchart-link{stroke:lightgrey;fill:none;}#mermaid-1783935115057 .edgeLabel{background-color:hsl(0, 0%, 34.4117647059%);text-align:center;}#mermaid-1783935115057 .edgeLabel rect{opacity:0.5;background-color:hsl(0, 0%, 34.4117647059%);fill:hsl(0, 0%, 34.4117647059%);}#mermaid-1783935115057 .labelBkg{background-color:rgba(87.75, 87.75, 87.75, 0.5);}#mermaid-1783935115057 .cluster rect{fill:hsl(180, 1.5873015873%, 28.3529411765%);stroke:rgba(255, 255, 255, 0.25);stroke-width:1px;}#mermaid-1783935115057 .cluster text{fill:#F9FFFE;}#mermaid-1783935115057 .cluster span,#mermaid-1783935115057 p{color:#F9FFFE;}#mermaid-1783935115057 div.mermaidTooltip{position:absolute;text-align:center;max-width:200px;padding:2px;font-family:"trebuchet ms",verdana,arial,sans-serif;font-size:12px;background:hsl(20, 1.5873015873%, 12.3529411765%);border:1px solid rgba(255, 255, 255, 0.25);border-radius:2px;pointer-events:none;z-index:100;}#mermaid-1783935115057 .flowchartTitleText{text-anchor:middle;font-size:18px;fill:#ccc;}#mermaid-1783935115057 :root{--mermaid-font-family:"trebuchet ms",verdana,arial,sans-serif;}#mermaid-1783935115057 .note rect{fill:#1f2020!important;stroke:#8CA6DB!important;color:#d4d4d4!important;stroke-dasharray:5 5!important;}#mermaid-1783935115057 .note polygon{fill:#1f2020!important;stroke:#8CA6DB!important;color:#d4d4d4!important;stroke-dasharray:5 5!important;}#mermaid-1783935115057 .note ellipse{fill:#1f2020!important;stroke:#8CA6DB!important;color:#d4d4d4!important;stroke-dasharray:5 5!important;}#mermaid-1783935115057 .note circle{fill:#1f2020!important;stroke:#8CA6DB!important;color:#d4d4d4!important;stroke-dasharray:5 5!important;}#mermaid-1783935115057 .note path{fill:#1f2020!important;stroke:#8CA6DB!important;color:#d4d4d4!important;stroke-dasharray:5 5!important;}#mermaid-1783935115057 .note tspan{fill:#d4d4d4!important;}</style><g><marker id="mermaid-1783935115057_flowchart-pointEnd" class="marker flowchart" viewBox="0 0 10 10" refX="6" refY="5" markerUnits="userSpaceOnUse" markerWidth="12" markerHeight="12" orient="auto"><path d="M 0 0 L 10 5 L 0 10 z" class="arrowMarkerPath" style="stroke-width: 1; stroke-dasharray: 1, 0;"></path></marker><marker id="mermaid-1783935115057_flowchart-pointStart" class="marker flowchart" viewBox="0 0 10 10" refX="4.5" refY="5" markerUnits="userSpaceOnUse" markerWidth="12" markerHeight="12" orient="auto"><path d="M 0 5 L 10 10 L 10 0 z" class="arrowMarkerPath" style="stroke-width: 1; stroke-dasharray: 1, 0;"></path></marker><marker id="mermaid-1783935115057_flowchart-circleEnd" class="marker flowchart" viewBox="0 0 10 10" refX="11" refY="5" markerUnits="userSpaceOnUse" markerWidth="11" markerHeight="11" orient="auto"><circle cx="5" cy="5" r="5" class="arrowMarkerPath" style="stroke-width: 1; stroke-dasharray: 1, 0;"></circle></marker><marker id="mermaid-1783935115057_flowchart-circleStart" class="marker flowchart" viewBox="0 0 10 10" refX="-1" refY="5" markerUnits="userSpaceOnUse" markerWidth="11" markerHeight="11" orient="auto"><circle cx="5" cy="5" r="5" class="arrowMarkerPath" style="stroke-width: 1; stroke-dasharray: 1, 0;"></circle></marker><marker id="mermaid-1783935115057_flowchart-crossEnd" class="marker cross flowchart" viewBox="0 0 11 11" refX="12" refY="5.2" markerUnits="userSpaceOnUse" markerWidth="11" markerHeight="11" orient="auto"><path d="M 1,1 l 9,9 M 10,1 l -9,9" class="arrowMarkerPath" style="stroke-width: 2; stroke-dasharray: 1, 0;"></path></marker><marker id="mermaid-1783935115057_flowchart-crossStart" class="marker cross flowchart" viewBox="0 0 11 11" refX="-1" refY="5.2" markerUnits="userSpaceOnUse" markerWidth="11" markerHeight="11" orient="auto"><path d="M 1,1 l 9,9 M 10,1 l -9,9" class="arrowMarkerPath" style="stroke-width: 2; stroke-dasharray: 1, 0;"></path></marker><g class="root"><g class="clusters"></g><g class="edgePaths"><path d="M272.291,1091.008L340.853,922.665C409.415,754.323,546.54,417.638,667.877,249.296C789.215,80.953,894.766,80.953,1011.249,80.953C1127.733,80.953,1255.15,80.953,1365.533,80.953C1475.917,80.953,1569.267,80.953,1662.73,80.953C1756.193,80.953,1849.768,80.953,1949.523,84.559C2049.277,88.166,2155.21,95.378,2208.177,98.984L2261.143,102.59" id="L-super_admin-p1-0" class=" edge-thickness-normal edge-pattern-solid flowchart-link LS-super_admin LE-p1" style="fill:none;" marker-end="url(#mermaid-1783935115057_flowchart-pointEnd)"></path><path d="M1667.253,1231.15L1713.268,1062.417C1759.283,893.684,1851.314,556.218,1950.826,374.113C2050.339,192.008,2157.335,165.265,2210.833,151.893L2264.33,138.522" id="L-program_admin-p1-0" class=" edge-thickness-normal edge-pattern-solid flowchart-link LS-program_admin LE-p1" style="fill:none;" marker-end="url(#mermaid-1783935115057_flowchart-pointEnd)"></path><path d="M2489.476,84.678L2531.036,75.185C2572.597,65.692,2655.718,46.707,2736.483,40.466C2817.247,34.225,2895.655,40.729,2934.858,43.981L2974.062,47.233" id="L-p1-d1-0" class=" edge-thickness-normal edge-pattern-solid flowchart-link LS-p1 LE-d1" style="fill:none;" marker-start="url(#mermaid-1783935115057_flowchart-pointStart)" marker-end="url(#mermaid-1783935115057_flowchart-pointEnd)"></path><path d="M2492.316,114.359L2533.403,115.746C2574.491,117.133,2656.665,119.907,2721.572,125.72C2786.479,131.533,2834.119,140.385,2857.938,144.811L2881.758,149.237" id="L-p1-d2-0" class=" edge-thickness-normal edge-pattern-solid flowchart-link LS-p1 LE-d2" style="fill:none;" marker-start="url(#mermaid-1783935115057_flowchart-pointStart)" marker-end="url(#mermaid-1783935115057_flowchart-pointEnd)"></path><path d="M2411.946,215.108L2466.428,376.557C2520.91,538.007,2629.875,860.906,2721.423,1048.239C2812.97,1235.573,2887.1,1287.341,2924.165,1313.226L2961.23,1339.11" id="L-p1-d7-0" class=" edge-thickness-normal edge-pattern-solid flowchart-link LS-p1 LE-d7" style="fill:none;" marker-end="url(#mermaid-1783935115057_flowchart-pointEnd)"></path><path d="M276.058,1091.008L343.992,982.977C411.926,874.947,547.795,658.885,668.505,550.855C789.215,442.824,894.766,442.824,1011.249,442.824C1127.733,442.824,1255.15,442.824,1365.533,442.824C1475.917,442.824,1569.267,442.824,1662.73,442.824C1756.193,442.824,1849.768,442.824,1939.234,442.824C2028.699,442.824,2114.055,442.824,2156.733,442.824L2199.411,442.824" id="L-super_admin-p2-0" class=" edge-thickness-normal edge-pattern-solid flowchart-link LS-super_admin LE-p2" style="fill:none;" marker-end="url(#mermaid-1783935115057_flowchart-pointEnd)"></path><path d="M2505.815,321.509L2544.652,285.038C2583.49,248.567,2661.165,175.624,2739.218,131.867C2817.271,88.109,2895.702,73.536,2934.917,66.249L2974.133,58.963" id="L-p2-d1-0" class=" edge-thickness-normal edge-pattern-solid flowchart-link LS-p2 LE-d1" style="fill:none;" marker-start="url(#mermaid-1783935115057_flowchart-pointStart)" marker-end="url(#mermaid-1783935115057_flowchart-pointEnd)"></path><path d="M2541.317,377.371L2574.237,364.287C2607.158,351.203,2672.999,325.035,2735.768,297.783C2798.537,270.531,2858.234,242.194,2888.082,228.026L2917.931,213.858" id="L-p2-d2-0" class=" edge-thickness-normal edge-pattern-solid flowchart-link LS-p2 LE-d2" style="fill:none;" marker-start="url(#mermaid-1783935115057_flowchart-pointStart)" marker-end="url(#mermaid-1783935115057_flowchart-pointEnd)"></path><path d="M2523.541,541.935L2559.424,566.143C2595.307,590.351,2667.074,638.766,2740.04,687.038C2813.006,735.31,2887.173,783.438,2924.256,807.502L2961.339,831.566" id="L-p2-d3-0" class=" edge-thickness-normal edge-pattern-solid flowchart-link LS-p2 LE-d3" style="fill:none;" marker-start="url(#mermaid-1783935115057_flowchart-pointStart)" marker-end="url(#mermaid-1783935115057_flowchart-pointEnd)"></path><path d="M2450.516,598.055L2498.57,699.013C2546.624,799.971,2642.732,1001.888,2727.223,1126.385C2811.714,1250.883,2884.588,1297.961,2921.025,1321.5L2957.462,1345.039" id="L-p2-d7-0" class=" edge-thickness-normal edge-pattern-solid flowchart-link LS-p2 LE-d7" style="fill:none;" marker-end="url(#mermaid-1783935115057_flowchart-pointEnd)"></path><path d="M278.516,1091.008L346.041,1003.705C413.565,916.402,548.615,741.797,668.915,654.494C789.215,567.191,894.766,567.191,1011.249,567.191C1127.733,567.191,1255.15,567.191,1365.533,567.191C1475.917,567.191,1569.267,567.191,1662.73,567.191C1756.193,567.191,1849.768,567.191,1956.469,590.925C2063.169,614.659,2182.994,662.126,2242.907,685.86L2302.819,709.593" id="L-super_admin-p3-0" class=" edge-thickness-normal edge-pattern-solid flowchart-link LS-super_admin LE-p3" style="fill:none;" marker-end="url(#mermaid-1783935115057_flowchart-pointEnd)"></path><path d="M1674.176,1231.15L1719.037,1165.172C1763.899,1099.194,1853.621,967.237,1957.781,888.059C2061.941,808.881,2180.538,782.482,2239.837,769.282L2299.136,756.082" id="L-program_admin-p3-0" class=" edge-thickness-normal edge-pattern-solid flowchart-link LS-program_admin LE-p3" style="fill:none;" marker-end="url(#mermaid-1783935115057_flowchart-pointEnd)"></path><path d="M2439.275,690.065L2489.203,651.2C2539.13,612.334,2638.985,534.603,2727.802,456.22C2816.62,377.837,2894.4,298.802,2933.29,259.285L2972.18,219.768" id="L-p3-d2-0" class=" edge-thickness-normal edge-pattern-solid flowchart-link LS-p3 LE-d2" style="fill:none;" marker-start="url(#mermaid-1783935115057_flowchart-pointStart)" marker-end="url(#mermaid-1783935115057_flowchart-pointEnd)"></path><path d="M2452.803,761.199L2500.476,775.196C2548.149,789.194,2643.494,817.19,2728.108,832.385C2812.723,847.58,2886.605,849.975,2923.547,851.172L2960.488,852.369" id="L-p3-d3-0" class=" edge-thickness-normal edge-pattern-solid flowchart-link LS-p3 LE-d3" style="fill:none;" marker-start="url(#mermaid-1783935115057_flowchart-pointStart)" marker-end="url(#mermaid-1783935115057_flowchart-pointEnd)"></path><path d="M2410.997,667.267L2465.637,553.486C2520.278,439.706,2629.559,212.145,2730.685,98.364C2831.811,-15.416,2924.783,-15.416,3017.105,-15.416C3109.427,-15.416,3201.1,-15.416,3292.844,-15.416C3384.589,-15.416,3476.404,-15.416,3548.346,-15.416C3620.289,-15.416,3672.359,-15.416,3709.458,318.663C3746.556,652.741,3768.682,1320.899,3779.746,1654.977L3790.809,1989.056" id="L-p3-d4-0" class=" edge-thickness-normal edge-pattern-solid flowchart-link LS-p3 LE-d4" style="fill:none;" marker-start="url(#mermaid-1783935115057_flowchart-pointStart)" marker-end="url(#mermaid-1783935115057_flowchart-pointEnd)"></path><path d="M2420.964,798.193L2473.943,869.128C2526.922,940.064,2632.881,1081.934,2722.274,1173.782C2811.666,1265.63,2884.492,1307.455,2920.905,1328.367L2957.318,1349.28" id="L-p3-d7-0" class=" edge-thickness-normal edge-pattern-solid flowchart-link LS-p3 LE-d7" style="fill:none;" marker-end="url(#mermaid-1783935115057_flowchart-pointEnd)"></path><path d="M317.582,1122.474L378.596,1139.379C439.609,1156.283,561.637,1190.091,648.81,1216.066C735.983,1242.04,788.302,1260.18,814.461,1269.25L840.621,1278.32" id="L-super_admin-p4-0" class=" edge-thickness-normal edge-pattern-solid flowchart-link LS-super_admin LE-p4" style="fill:none;" marker-end="url(#mermaid-1783935115057_flowchart-pointEnd)"></path><path d="M1601.094,1252.434L1564.673,1254.97C1528.251,1257.506,1455.409,1262.578,1383.038,1271.325C1310.668,1280.072,1238.77,1292.493,1202.821,1298.704L1166.872,1304.915" id="L-program_admin-p4-0" class=" edge-thickness-normal edge-pattern-solid flowchart-link LS-program_admin LE-p4" style="fill:none;" marker-end="url(#mermaid-1783935115057_flowchart-pointEnd)"></path><path d="M1098.124,1471.54L1145.531,1538.355C1192.938,1605.17,1287.752,1738.801,1381.834,1805.616C1475.917,1872.431,1569.267,1872.431,1662.73,1872.431C1756.193,1872.431,1849.768,1872.431,1968.77,1872.431C2087.772,1872.431,2232.201,1872.431,2364.783,1872.431C2497.366,1872.431,2618.103,1872.431,2724.957,1872.431C2831.811,1872.431,2924.783,1872.431,3017.105,1872.431C3109.427,1872.431,3201.1,1872.431,3292.844,1872.431C3384.589,1872.431,3476.404,1872.431,3548.346,1872.431C3620.289,1872.431,3672.359,1872.431,3706.956,1892.037C3741.553,1911.643,3758.677,1950.854,3767.238,1970.46L3775.8,1990.066" id="L-p4-d4-0" class=" edge-thickness-normal edge-pattern-solid flowchart-link LS-p4 LE-d4" style="fill:none;" marker-start="url(#mermaid-1783935115057_flowchart-pointStart)" marker-end="url(#mermaid-1783935115057_flowchart-pointEnd)"></path><path d="M1163.386,1348.302L1199.916,1351.575C1236.446,1354.848,1309.506,1361.395,1392.711,1364.668C1475.917,1367.941,1569.267,1367.941,1662.73,1367.941C1756.193,1367.941,1849.768,1367.941,1968.77,1367.941C2087.772,1367.941,2232.201,1367.941,2364.783,1367.941C2497.366,1367.941,2618.103,1367.941,2714.767,1368.11C2811.431,1368.279,2884.023,1368.617,2920.318,1368.786L2956.614,1368.955" id="L-p4-d7-0" class=" edge-thickness-normal edge-pattern-solid flowchart-link LS-p4 LE-d7" style="fill:none;" marker-end="url(#mermaid-1783935115057_flowchart-pointEnd)"></path><path d="M847.101,1391.398L819.861,1401.657C792.622,1411.917,738.143,1432.436,645.305,1388.599C552.466,1344.763,421.269,1236.571,355.67,1182.476L290.071,1128.38" id="L-p4-super_admin-0" class=" edge-thickness-normal edge-pattern-solid flowchart-link LS-p4 LE-super_admin" style="fill:none;" marker-end="url(#mermaid-1783935115057_flowchart-pointEnd)"></path><path d="M1158.187,1290.309L1195.583,1280.032C1232.98,1269.756,1307.773,1249.203,1380.71,1241.401C1453.646,1233.599,1524.727,1238.548,1560.267,1241.023L1595.807,1243.498" id="L-p4-program_admin-0" class=" edge-thickness-normal edge-pattern-solid flowchart-link LS-p4 LE-program_admin" style="fill:none;" marker-end="url(#mermaid-1783935115057_flowchart-pointEnd)"></path><path d="M3090.211,1969.449L3123.971,1969.449C3157.732,1969.449,3225.253,1969.449,3282.854,1975.438C3340.456,1981.427,3388.139,1993.405,3411.98,1999.394L3435.821,2005.383" id="L-attendee-p5-0" class=" edge-thickness-normal edge-pattern-solid flowchart-link LS-attendee LE-p5" style="fill:none;" marker-end="url(#mermaid-1783935115057_flowchart-pointEnd)"></path><path d="M3704.73,2038.642L3708.013,2038.642C3711.296,2038.642,3717.863,2038.642,3724.443,2038.053C3731.024,2037.463,3737.618,2036.285,3740.915,2035.695L3744.212,2035.106" id="L-p5-d4-0" class=" edge-thickness-normal edge-pattern-solid flowchart-link LS-p5 LE-d4" style="fill:none;" marker-start="url(#mermaid-1783935115057_flowchart-pointStart)" marker-end="url(#mermaid-1783935115057_flowchart-pointEnd)"></path><path d="M3439.663,2064.903L3415.181,2069.904C3390.7,2074.905,3341.737,2084.908,3271.418,2089.909C3201.1,2094.91,3109.427,2094.91,3017.105,2094.91C2924.783,2094.91,2831.811,2094.91,2744.873,2040.9C2657.934,1986.891,2577.029,1878.873,2536.576,1824.864L2496.123,1770.854" id="L-p5-p6-0" class=" edge-thickness-normal edge-pattern-solid flowchart-link LS-p5 LE-p6" style="fill:none;" marker-end="url(#mermaid-1783935115057_flowchart-pointEnd)"></path><path d="M2480.462,1781.463L2523.525,1852.028C2566.588,1922.593,2652.714,2063.723,2742.263,2134.288C2831.811,2204.853,2924.783,2204.853,3017.105,2204.853C3109.427,2204.853,3201.1,2204.853,3292.844,2204.853C3384.589,2204.853,3476.404,2204.853,3548.346,2204.853C3620.289,2204.853,3672.359,2204.853,3707.317,2181.259C3742.274,2157.666,3760.118,2110.478,3769.04,2086.884L3777.962,2063.291" id="L-p6-d4-0" class=" edge-thickness-normal edge-pattern-solid flowchart-link LS-p6 LE-d4" style="fill:none;" marker-start="url(#mermaid-1783935115057_flowchart-pointStart)" marker-end="url(#mermaid-1783935115057_flowchart-pointEnd)"></path><path d="M2469.75,1435.078L2514.599,1350.2C2559.447,1265.322,2649.143,1095.566,2724.584,1016.347C2800.025,937.127,2861.209,948.443,2891.802,954.101L2922.394,959.759" id="L-p6-d5-0" class=" edge-thickness-normal edge-pattern-solid flowchart-link LS-p6 LE-d5" style="fill:none;" marker-start="url(#mermaid-1783935115057_flowchart-pointStart)" marker-end="url(#mermaid-1783935115057_flowchart-pointEnd)"></path><path d="M2439.993,1422.328L2489.801,1273.773C2539.609,1125.217,2639.224,828.107,2729.448,627.803C2819.673,427.499,2900.506,324.002,2940.922,272.253L2981.339,220.504" id="L-p6-d2-0" class=" edge-thickness-normal edge-pattern-solid flowchart-link LS-p6 LE-d2" style="fill:none;" marker-start="url(#mermaid-1783935115057_flowchart-pointStart)" marker-end="url(#mermaid-1783935115057_flowchart-pointEnd)"></path><path d="M2570.656,1611.316L2598.687,1611.316C2626.717,1611.316,2682.779,1611.316,2749.971,1576.743C2817.164,1542.17,2895.487,1473.025,2934.649,1438.452L2973.811,1403.879" id="L-p6-d7-0" class=" edge-thickness-normal edge-pattern-solid flowchart-link LS-p6 LE-d7" style="fill:none;" marker-end="url(#mermaid-1783935115057_flowchart-pointEnd)"></path><path d="M2514.601,1747.735L2551.975,1784.687C2589.348,1821.64,2664.094,1895.544,2734.993,1932.496C2805.892,1969.449,2872.945,1969.449,2906.471,1969.449L2939.997,1969.449" id="L-p6-attendee-0" class=" edge-thickness-normal edge-pattern-solid flowchart-link LS-p6 LE-attendee" style="fill:none;" marker-end="url(#mermaid-1783935115057_flowchart-pointEnd)"></path><path d="M280.858,1125.008L347.992,1198.684C415.126,1272.361,549.395,1419.713,669.305,1493.39C789.215,1567.066,894.766,1567.066,1011.249,1567.066C1127.733,1567.066,1255.15,1567.066,1365.533,1567.066C1475.917,1567.066,1569.267,1567.066,1662.73,1567.066C1756.193,1567.066,1849.768,1567.066,1935.721,1571.066C2021.673,1575.065,2100.003,1583.065,2139.168,1587.065L2178.333,1591.065" id="L-super_admin-p6-0" class=" edge-thickness-normal edge-pattern-solid flowchart-link LS-super_admin LE-p6" style="fill:none;" marker-end="url(#mermaid-1783935115057_flowchart-pointEnd)"></path><path d="M1676.314,1265.15L1720.819,1320.386C1765.324,1375.622,1854.334,1486.094,1937.851,1542.658C2021.368,1599.222,2099.393,1601.878,2138.405,1603.206L2177.417,1604.534" id="L-program_admin-p6-0" class=" edge-thickness-normal edge-pattern-solid flowchart-link LS-program_admin LE-p6" style="fill:none;" marker-end="url(#mermaid-1783935115057_flowchart-pointEnd)"></path><path d="M2184.06,1635.063L2143.941,1640.01C2103.821,1644.958,2023.583,1654.853,1936.675,1659.8C1849.768,1664.748,1756.193,1664.748,1662.73,1664.748C1569.267,1664.748,1475.917,1664.748,1365.533,1664.748C1255.15,1664.748,1127.733,1664.748,1011.249,1664.748C894.766,1664.748,789.215,1664.748,669.383,1575.497C549.551,1486.247,415.437,1307.746,348.38,1218.496L281.323,1129.245" id="L-p6-super_admin-0" class=" edge-thickness-normal edge-pattern-solid flowchart-link LS-p6 LE-super_admin" style="fill:none;" marker-end="url(#mermaid-1783935115057_flowchart-pointEnd)"></path><path d="M2189.042,1660.893L2148.093,1671.716C2107.143,1682.539,2025.243,1704.184,1939.618,1638.988C1853.994,1573.793,1764.643,1421.756,1719.968,1345.738L1675.293,1269.719" id="L-p6-program_admin-0" class=" edge-thickness-normal edge-pattern-solid flowchart-link LS-p6 LE-program_admin" style="fill:none;" marker-end="url(#mermaid-1783935115057_flowchart-pointEnd)"></path><path d="M294.603,1091.008L359.447,1053.303C424.29,1015.599,553.977,940.19,671.596,902.486C789.215,864.781,894.766,864.781,1011.249,864.781C1127.733,864.781,1255.15,864.781,1365.533,864.781C1475.917,864.781,1569.267,864.781,1662.73,864.781C1756.193,864.781,1849.768,864.781,1935.934,884.068C2022.099,903.355,2100.855,941.93,2140.233,961.217L2179.61,980.504" id="L-super_admin-p7-0" class=" edge-thickness-normal edge-pattern-solid flowchart-link LS-super_admin LE-p7" style="fill:none;" marker-end="url(#mermaid-1783935115057_flowchart-pointEnd)"></path><path d="M1676.103,1231.15L1720.643,1175.005C1765.184,1118.86,1854.264,1006.571,1937.327,966.672C2020.391,926.773,2097.439,959.265,2135.963,975.511L2174.487,991.757" id="L-program_admin-p7-0" class=" edge-thickness-normal edge-pattern-solid flowchart-link LS-program_admin LE-p7" style="fill:none;" marker-end="url(#mermaid-1783935115057_flowchart-pointEnd)"></path><path d="M2502.97,897.654L2542.282,841.848C2581.593,786.043,2660.217,674.431,2740.426,561.61C2820.636,448.788,2902.432,334.755,2943.331,277.738L2984.229,220.722" id="L-p7-d2-0" class=" edge-thickness-normal edge-pattern-solid flowchart-link LS-p7 LE-d2" style="fill:none;" marker-start="url(#mermaid-1783935115057_flowchart-pointStart)" marker-end="url(#mermaid-1783935115057_flowchart-pointEnd)"></path><path d="M2574.973,983.26L2602.284,970.351C2629.595,957.443,2684.218,931.627,2748.484,911.884C2812.751,892.141,2886.662,878.471,2923.618,871.636L2960.574,864.801" id="L-p7-d3-0" class=" edge-thickness-normal edge-pattern-solid flowchart-link LS-p7 LE-d3" style="fill:none;" marker-start="url(#mermaid-1783935115057_flowchart-pointStart)" marker-end="url(#mermaid-1783935115057_flowchart-pointEnd)"></path><path d="M2442.647,1286.217L2492.013,1442.656C2541.378,1599.096,2640.109,1911.974,2735.96,2068.414C2831.811,2224.853,2924.783,2224.853,3017.105,2224.853C3109.427,2224.853,3201.1,2224.853,3292.844,2224.853C3384.589,2224.853,3476.404,2224.853,3548.346,2224.853C3620.289,2224.853,3672.359,2224.853,3707.55,2197.95C3742.74,2171.047,3761.051,2117.24,3770.206,2090.337L3779.361,2063.434" id="L-p7-d4-0" class=" edge-thickness-normal edge-pattern-solid flowchart-link LS-p7 LE-d4" style="fill:none;" marker-start="url(#mermaid-1783935115057_flowchart-pointStart)" marker-end="url(#mermaid-1783935115057_flowchart-pointEnd)"></path><path d="M2590.173,1026.731L2614.951,1020.898C2639.729,1015.065,2689.284,1003.399,2744.641,995.994C2799.997,988.589,2861.155,985.445,2891.734,983.874L2922.312,982.302" id="L-p7-d5-0" class=" edge-thickness-normal edge-pattern-solid flowchart-link LS-p7 LE-d5" style="fill:none;" marker-start="url(#mermaid-1783935115057_flowchart-pointStart)" marker-end="url(#mermaid-1783935115057_flowchart-pointEnd)"></path><path d="M2587.546,1113.678L2612.762,1118.062C2637.977,1122.446,2688.409,1131.215,2740.646,1135.6C2792.883,1139.984,2846.926,1139.984,2873.948,1139.984L2900.97,1139.984" id="L-p7-d6-0" class=" edge-thickness-normal edge-pattern-solid flowchart-link LS-p7 LE-d6" style="fill:none;" marker-end="url(#mermaid-1783935115057_flowchart-pointEnd)"></path><path d="M2480.982,1263.931L2523.958,1340.914C2566.935,1417.897,2652.887,1571.863,2737.284,1595.646C2821.681,1619.428,2904.523,1513.027,2945.943,1459.827L2987.364,1406.626" id="L-p7-d7-0" class=" edge-thickness-normal edge-pattern-solid flowchart-link LS-p7 LE-d7" style="fill:none;" marker-end="url(#mermaid-1783935115057_flowchart-pointEnd)"></path><path d="M2163.157,1093.156L2126.522,1095.928C2089.886,1098.7,2016.615,1104.244,1933.192,1107.016C1849.768,1109.789,1756.193,1109.789,1662.73,1109.789C1569.267,1109.789,1475.917,1109.789,1365.533,1109.789C1255.15,1109.789,1127.733,1109.789,1011.249,1109.789C894.766,1109.789,789.215,1109.789,676.309,1109.533C563.403,1109.277,443.143,1108.765,383.012,1108.509L322.882,1108.253" id="L-p7-super_admin-0" class=" edge-thickness-normal edge-pattern-solid flowchart-link LS-p7 LE-super_admin" style="fill:none;" marker-end="url(#mermaid-1783935115057_flowchart-pointEnd)"></path><path d="M2177.517,1155.652L2138.488,1171.069C2099.459,1186.485,2021.402,1217.317,1946.722,1232.734C1872.043,1248.15,1800.742,1248.15,1765.091,1248.15L1729.441,1248.15" id="L-p7-program_admin-0" class=" edge-thickness-normal edge-pattern-solid flowchart-link LS-p7 LE-program_admin" style="fill:none;" marker-end="url(#mermaid-1783935115057_flowchart-pointEnd)"></path><path d="M276.609,1125.008L344.451,1227.603C412.294,1330.198,547.979,1535.389,653.898,1649.981C759.818,1764.572,835.972,1788.565,874.049,1800.562L912.126,1812.558" id="L-super_admin-p8-0" class=" edge-thickness-normal edge-pattern-solid flowchart-link LS-super_admin LE-p8" style="fill:none;" marker-end="url(#mermaid-1783935115057_flowchart-pointEnd)"></path><path d="M1092.78,1840.343L1141.078,1840.343C1189.376,1840.343,1285.971,1840.343,1380.944,1840.343C1475.917,1840.343,1569.267,1840.343,1662.73,1840.343C1756.193,1840.343,1849.768,1840.343,1968.77,1840.343C2087.772,1840.343,2232.201,1840.343,2364.783,1840.343C2497.366,1840.343,2618.103,1840.343,2721.085,1768.23C2824.066,1696.118,2909.293,1551.892,2951.906,1479.779L2994.519,1407.666" id="L-p8-d7-0" class=" edge-thickness-normal edge-pattern-solid flowchart-link LS-p8 LE-d7" style="fill:none;" marker-start="url(#mermaid-1783935115057_flowchart-pointStart)" marker-end="url(#mermaid-1783935115057_flowchart-pointEnd)"></path><path d="M913.317,1845.701L875.042,1848.058C836.766,1850.415,760.215,1855.129,654.229,1735.785C548.243,1616.442,412.823,1373.041,345.113,1251.34L277.402,1129.639" id="L-p8-super_admin-0" class=" edge-thickness-normal edge-pattern-solid flowchart-link LS-p8 LE-super_admin" style="fill:none;" marker-end="url(#mermaid-1783935115057_flowchart-pointEnd)"></path></g><g class="edgeLabels"><g class="edgeLabel" transform="translate(1382.56640625, 80.953125)"><g class="label" transform="translate(-61.5625, -9.5)"><rect rx="0" ry="0" width="123.05249786376953" height="19.000028610229492"></rect><text style=""><tspan xml:space="preserve" dy="1em" x="0" class="row">Login credentials</tspan></text></g></g><g class="edgeLabel" transform="translate(1943.34375, 218.75172424316406)"><g class="label" transform="translate(-61.5625, -9.5)"><rect rx="0" ry="0" width="123.05249786376953" height="19.000028610229492"></rect><text style=""><tspan xml:space="preserve" dy="1em" x="0" class="row">Login credentials</tspan></text></g></g><g class="edgeLabel"><g class="label" transform="translate(0, 0)"><rect rx="0" ry="0" width="0" height="0"></rect><text style=""><tspan xml:space="preserve" dy="1em" x="0" class="row"></tspan></text></g></g><g class="edgeLabel"><g class="label" transform="translate(0, 0)"><rect rx="0" ry="0" width="0" height="0"></rect><text style=""><tspan xml:space="preserve" dy="1em" x="0" class="row"></tspan></text></g></g><g class="edgeLabel"><g class="label" transform="translate(0, 0)"><rect rx="0" ry="0" width="0" height="0"></rect><text style=""><tspan xml:space="preserve" dy="1em" x="0" class="row"></tspan></text></g></g><g class="edgeLabel" transform="translate(1382.56640625, 442.82421875)"><g class="label" transform="translate(-128.16015625, -9.5)"><rect rx="0" ry="0" width="256.1646423339844" height="19.000028610229492"></rect><text style=""><tspan xml:space="preserve" dy="1em" x="0" class="row">User, program, assignment requests</tspan></text></g></g><g class="edgeLabel"><g class="label" transform="translate(0, 0)"><rect rx="0" ry="0" width="0" height="0"></rect><text style=""><tspan xml:space="preserve" dy="1em" x="0" class="row"></tspan></text></g></g><g class="edgeLabel"><g class="label" transform="translate(0, 0)"><rect rx="0" ry="0" width="0" height="0"></rect><text style=""><tspan xml:space="preserve" dy="1em" x="0" class="row"></tspan></text></g></g><g class="edgeLabel"><g class="label" transform="translate(0, 0)"><rect rx="0" ry="0" width="0" height="0"></rect><text style=""><tspan xml:space="preserve" dy="1em" x="0" class="row"></tspan></text></g></g><g class="edgeLabel"><g class="label" transform="translate(0, 0)"><rect rx="0" ry="0" width="0" height="0"></rect><text style=""><tspan xml:space="preserve" dy="1em" x="0" class="row"></tspan></text></g></g><g class="edgeLabel" transform="translate(1382.56640625, 567.1911773681641)"><g class="label" transform="translate(-103.37890625, -9.5)"><rect rx="0" ry="0" width="206.633056640625" height="19.000028610229492"></rect><text style=""><tspan xml:space="preserve" dy="1em" x="0" class="row">Event details/status changes</tspan></text></g></g><g class="edgeLabel" transform="translate(1943.34375, 835.2810211181641)"><g class="label" transform="translate(-166.953125, -9.5)"><rect rx="0" ry="0" width="333.7036437988281" height="19.000028610229492"></rect><text style=""><tspan xml:space="preserve" dy="1em" x="0" class="row">Create/update events under assigned program</tspan></text></g></g><g class="edgeLabel"><g class="label" transform="translate(0, 0)"><rect rx="0" ry="0" width="0" height="0"></rect><text style=""><tspan xml:space="preserve" dy="1em" x="0" class="row"></tspan></text></g></g><g class="edgeLabel"><g class="label" transform="translate(0, 0)"><rect rx="0" ry="0" width="0" height="0"></rect><text style=""><tspan xml:space="preserve" dy="1em" x="0" class="row"></tspan></text></g></g><g class="edgeLabel"><g class="label" transform="translate(0, 0)"><rect rx="0" ry="0" width="0" height="0"></rect><text style=""><tspan xml:space="preserve" dy="1em" x="0" class="row"></tspan></text></g></g><g class="edgeLabel"><g class="label" transform="translate(0, 0)"><rect rx="0" ry="0" width="0" height="0"></rect><text style=""><tspan xml:space="preserve" dy="1em" x="0" class="row"></tspan></text></g></g><g class="edgeLabel" transform="translate(683.6640625, 1223.899845123291)"><g class="label" transform="translate(-57.1171875, -9.5)"><rect rx="0" ry="0" width="114.16741180419922" height="19.000028610229492"></rect><text style=""><tspan xml:space="preserve" dy="1em" x="0" class="row">QR/link request</tspan></text></g></g><g class="edgeLabel" transform="translate(1382.56640625, 1267.649845123291)"><g class="label" transform="translate(-124.72265625, -9.5)"><rect rx="0" ry="0" width="249.29393005371094" height="19.000028610229492"></rect><text style=""><tspan xml:space="preserve" dy="1em" x="0" class="row">QR/link request for program event</tspan></text></g></g><g class="edgeLabel"><g class="label" transform="translate(0, 0)"><rect rx="0" ry="0" width="0" height="0"></rect><text style=""><tspan xml:space="preserve" dy="1em" x="0" class="row"></tspan></text></g></g><g class="edgeLabel"><g class="label" transform="translate(0, 0)"><rect rx="0" ry="0" width="0" height="0"></rect><text style=""><tspan xml:space="preserve" dy="1em" x="0" class="row"></tspan></text></g></g><g class="edgeLabel" transform="translate(683.6640625, 1452.954532623291)"><g class="label" transform="translate(-127.9296875, -9.5)"><rect rx="0" ry="0" width="255.70518493652344" height="19.000028610229492"></rect><text style=""><tspan xml:space="preserve" dy="1em" x="0" class="row">Public attendance link and QR code</tspan></text></g></g><g class="edgeLabel" transform="translate(1382.56640625, 1228.649845123291)"><g class="label" transform="translate(-193.52734375, -9.5)"><rect rx="0" ry="0" width="386.81732177734375" height="19.000028610229492"></rect><text style=""><tspan xml:space="preserve" dy="1em" x="0" class="row">Public attendance link and QR code for created event</tspan></text></g></g><g class="edgeLabel" transform="translate(3292.7734375, 1969.448673248291)"><g class="label" transform="translate(-119.234375, -9.5)"><rect rx="0" ry="0" width="238.32542419433594" height="19.000028610229492"></rect><text style=""><tspan xml:space="preserve" dy="1em" x="0" class="row">Open link and submit attendance</tspan></text></g></g><g class="edgeLabel"><g class="label" transform="translate(0, 0)"><rect rx="0" ry="0" width="0" height="0"></rect><text style=""><tspan xml:space="preserve" dy="1em" x="0" class="row"></tspan></text></g></g><g class="edgeLabel" transform="translate(3017.75390625, 2094.909610748291)"><g class="label" transform="translate(-98.55078125, -9.5)"><rect rx="0" ry="0" width="196.98410034179688" height="19.000028610229492"></rect><text style=""><tspan xml:space="preserve" dy="1em" x="0" class="row">Submitted attendance data</tspan></text></g></g><g class="edgeLabel"><g class="label" transform="translate(0, 0)"><rect rx="0" ry="0" width="0" height="0"></rect><text style=""><tspan xml:space="preserve" dy="1em" x="0" class="row"></tspan></text></g></g><g class="edgeLabel"><g class="label" transform="translate(0, 0)"><rect rx="0" ry="0" width="0" height="0"></rect><text style=""><tspan xml:space="preserve" dy="1em" x="0" class="row"></tspan></text></g></g><g class="edgeLabel"><g class="label" transform="translate(0, 0)"><rect rx="0" ry="0" width="0" height="0"></rect><text style=""><tspan xml:space="preserve" dy="1em" x="0" class="row"></tspan></text></g></g><g class="edgeLabel"><g class="label" transform="translate(0, 0)"><rect rx="0" ry="0" width="0" height="0"></rect><text style=""><tspan xml:space="preserve" dy="1em" x="0" class="row"></tspan></text></g></g><g class="edgeLabel" transform="translate(2738.83984375, 1969.448673248291)"><g class="label" transform="translate(-123.12890625, -9.5)"><rect rx="0" ry="0" width="246.11029052734375" height="19.000028610229492"></rect><text style=""><tspan xml:space="preserve" dy="1em" x="0" class="row">Validation result and confirmation</tspan></text></g></g><g class="edgeLabel" transform="translate(1382.56640625, 1567.065860748291)"><g class="label" transform="translate(-150.42578125, -9.5)"><rect rx="0" ry="0" width="300.6723937988281" height="19.000028610229492"></rect><text style=""><tspan xml:space="preserve" dy="1em" x="0" class="row">Attendance list, detail, and status review</tspan></text></g></g><g class="edgeLabel" transform="translate(1943.34375, 1596.565860748291)"><g class="label" transform="translate(-156.15625, -9.5)"><rect rx="0" ry="0" width="312.12548828125" height="19.000028610229492"></rect><text style=""><tspan xml:space="preserve" dy="1em" x="0" class="row">Review attendance under assigned program</tspan></text></g></g><g class="edgeLabel" transform="translate(1382.56640625, 1664.747501373291)"><g class="label" transform="translate(-133.19140625, -9.5)"><rect rx="0" ry="0" width="266.221435546875" height="19.000028610229492"></rect><text style=""><tspan xml:space="preserve" dy="1em" x="0" class="row">Attendance records and status result</tspan></text></g></g><g class="edgeLabel" transform="translate(1943.34375, 1725.829532623291)"><g class="label" transform="translate(-155.48828125, -9.5)"><rect rx="0" ry="0" width="310.787353515625" height="19.000028610229492"></rect><text style=""><tspan xml:space="preserve" dy="1em" x="0" class="row">Assigned-program records and status result</tspan></text></g></g><g class="edgeLabel" transform="translate(1382.56640625, 864.7810211181641)"><g class="label" transform="translate(-117.453125, -9.5)"><rect rx="0" ry="0" width="234.76393127441406" height="19.000028610229492"></rect><text style=""><tspan xml:space="preserve" dy="1em" x="0" class="row">Dashboard/report/sheet request</tspan></text></g></g><g class="edgeLabel" transform="translate(1943.34375, 894.2810211181641)"><g class="label" transform="translate(-154.5, -9.5)"><rect rx="0" ry="0" width="308.81298828125" height="19.000028610229492"></rect><text style=""><tspan xml:space="preserve" dy="1em" x="0" class="row">Report/sheet request for assigned program</tspan></text></g></g><g class="edgeLabel"><g class="label" transform="translate(0, 0)"><rect rx="0" ry="0" width="0" height="0"></rect><text style=""><tspan xml:space="preserve" dy="1em" x="0" class="row"></tspan></text></g></g><g class="edgeLabel"><g class="label" transform="translate(0, 0)"><rect rx="0" ry="0" width="0" height="0"></rect><text style=""><tspan xml:space="preserve" dy="1em" x="0" class="row"></tspan></text></g></g><g class="edgeLabel"><g class="label" transform="translate(0, 0)"><rect rx="0" ry="0" width="0" height="0"></rect><text style=""><tspan xml:space="preserve" dy="1em" x="0" class="row"></tspan></text></g></g><g class="edgeLabel"><g class="label" transform="translate(0, 0)"><rect rx="0" ry="0" width="0" height="0"></rect><text style=""><tspan xml:space="preserve" dy="1em" x="0" class="row"></tspan></text></g></g><g class="edgeLabel"><g class="label" transform="translate(0, 0)"><rect rx="0" ry="0" width="0" height="0"></rect><text style=""><tspan xml:space="preserve" dy="1em" x="0" class="row"></tspan></text></g></g><g class="edgeLabel"><g class="label" transform="translate(0, 0)"><rect rx="0" ry="0" width="0" height="0"></rect><text style=""><tspan xml:space="preserve" dy="1em" x="0" class="row"></tspan></text></g></g><g class="edgeLabel" transform="translate(1382.56640625, 1109.788516998291)"><g class="label" transform="translate(-139.73046875, -9.5)"><rect rx="0" ry="0" width="279.290771484375" height="19.000028610229492"></rect><text style=""><tspan xml:space="preserve" dy="1em" x="0" class="row">Dashboard, reports, attendance sheets</tspan></text></g></g><g class="edgeLabel" transform="translate(1943.34375, 1248.149845123291)"><g class="label" transform="translate(-194.203125, -9.5)"><rect rx="0" ry="0" width="388.1693420410156" height="19.000028610229492"></rect><text style=""><tspan xml:space="preserve" dy="1em" x="0" class="row">Reports and sheets for assigned program, if permitted</tspan></text></g></g><g class="edgeLabel" transform="translate(683.6640625, 1740.579532623291)"><g class="label" transform="translate(-62.390625, -9.5)"><rect rx="0" ry="0" width="124.70832061767578" height="19.000028610229492"></rect><text style=""><tspan xml:space="preserve" dy="1em" x="0" class="row">Audit log request</tspan></text></g></g><g class="edgeLabel"><g class="label" transform="translate(0, 0)"><rect rx="0" ry="0" width="0" height="0"></rect><text style=""><tspan xml:space="preserve" dy="1em" x="0" class="row"></tspan></text></g></g><g class="edgeLabel" transform="translate(683.6640625, 1859.843204498291)"><g class="label" transform="translate(-36.078125, -9.5)"><rect rx="0" ry="0" width="72.11620330810547" height="19.000028610229492"></rect><text style=""><tspan xml:space="preserve" dy="1em" x="0" class="row">Audit logs</tspan></text></g></g></g><g class="nodes"><g class="node default default flowchart-label" id="flowchart-super_admin-0" data-node="true" data-id="super_admin" transform="translate(265.3671875, 1108.0079708099365)"><rect class="basic label-container" style="" rx="0" ry="0" x="-52.21484375" y="-17" width="104.4296875" height="34"></rect><g class="label" style="" transform="translate(0, -9.5)"><rect></rect><text style=""><tspan xml:space="preserve" dy="1em" x="0" class="row">Super Admin</tspan></text></g></g><g class="node default default flowchart-label" id="flowchart-program_admin-1" data-node="true" data-id="program_admin" transform="translate(1662.6171875, 1248.149845123291)"><rect class="basic label-container" style="" rx="0" ry="0" x="-61.5234375" y="-17" width="123.046875" height="34"></rect><g class="label" style="" transform="translate(0, -9.5)"><rect></rect><text style=""><tspan xml:space="preserve" dy="1em" x="0" class="row">Program Admin</tspan></text></g></g><g class="node default default flowchart-label" id="flowchart-attendee-2" data-node="true" data-id="attendee" transform="translate(3017.75390625, 1969.448673248291)"><rect class="basic label-container" style="" rx="0" ry="0" x="-72.45703125" y="-17" width="144.9140625" height="34"></rect><g class="label" style="" transform="translate(0, -9.5)"><rect></rect><text style=""><tspan xml:space="preserve" dy="1em" x="0" class="row">External Attendee</tspan></text></g></g><g class="node default note flowchart-label" id="flowchart-note_template-3" data-node="true" data-id="note_template" transform="translate(265.3671875, 1192.0079708099365)"><rect class="basic label-container" style="" rx="0" ry="0" x="-265.3671875" y="-17" width="530.734375" height="34"></rect><g class="label" style="" transform="translate(0, -9.5)"><rect></rect><text style=""><tspan xml:space="preserve" dy="1em" x="0" class="row">Note: Attendance Sheet Generation follows fixed DICT template layout.</tspan></text></g></g><g class="node default default flowchart-label" id="flowchart-p1-4" data-node="true" data-id="p1" transform="translate(2376.62890625, 110.453125)"><circle style="" rx="0" ry="0" r="110.453125" width="220.90625" height="34"></circle><g class="label" style="" transform="translate(0, -9.5)"><rect></rect><text style=""><tspan xml:space="preserve" dy="1em" x="0" class="row">1.0 Authenticate Admin User</tspan></text></g></g><g class="node default default flowchart-label" id="flowchart-p2-5" data-node="true" data-id="p2" transform="translate(2376.62890625, 442.82421875)"><circle style="" rx="0" ry="0" r="171.91796875" width="343.8359375" height="34"></circle><g class="label" style="" transform="translate(0, -9.5)"><rect></rect><text style=""><tspan xml:space="preserve" dy="1em" x="0" class="row">2.0 Manage Users, Programs, and Assignments</tspan></text></g></g><g class="node default default flowchart-label" id="flowchart-p3-6" data-node="true" data-id="p3" transform="translate(2376.62890625, 738.83203125)"><circle style="" rx="0" ry="0" r="74.08984375" width="148.1796875" height="34"></circle><g class="label" style="" transform="translate(0, -9.5)"><rect></rect><text style=""><tspan xml:space="preserve" dy="1em" x="0" class="row">3.0 Manage Events</tspan></text></g></g><g class="node default default flowchart-label" id="flowchart-p4-7" data-node="true" data-id="p4" transform="translate(1000.31640625, 1333.690860748291)"><circle style="" rx="0" ry="0" r="163.72265625" width="327.4453125" height="34"></circle><g class="label" style="" transform="translate(0, -9.5)"><rect></rect><text style=""><tspan xml:space="preserve" dy="1em" x="0" class="row">4.0 Generate Attendance Link and QR Code</tspan></text></g></g><g class="node default default flowchart-label" id="flowchart-p5-8" data-node="true" data-id="p5" transform="translate(3568.21875, 2038.6422138214111)"><circle style="" rx="0" ry="0" r="131.2109375" width="262.421875" height="34"></circle><g class="label" style="" transform="translate(0, -9.5)"><rect></rect><text style=""><tspan xml:space="preserve" dy="1em" x="0" class="row">5.0 Collect Attendance Submission</tspan></text></g></g><g class="node default default flowchart-label" id="flowchart-p6-9" data-node="true" data-id="p6" transform="translate(2376.62890625, 1611.315860748291)"><circle style="" rx="0" ry="0" r="194.02734375" width="388.0546875" height="34"></circle><g class="label" style="" transform="translate(0, -9.5)"><rect></rect><text style=""><tspan xml:space="preserve" dy="1em" x="0" class="row">6.0 Validate, Store, and Review Attendance Records</tspan></text></g></g><g class="node default default flowchart-label" id="flowchart-p7-10" data-node="true" data-id="p7" transform="translate(2376.62890625, 1077.00390625)"><circle style="" rx="0" ry="0" r="214.08203125" width="428.1640625" height="34"></circle><g class="label" style="" transform="translate(0, -9.5)"><rect></rect><text style=""><tspan xml:space="preserve" dy="1em" x="0" class="row">7.0 Generate Dashboard, Reports, and Attendance Sheets</tspan></text></g></g><g class="node default default flowchart-label" id="flowchart-p8-11" data-node="true" data-id="p8" transform="translate(1000.31640625, 1840.343204498291)"><circle style="" rx="0" ry="0" r="87.1640625" width="174.328125" height="34"></circle><g class="label" style="" transform="translate(0, -9.5)"><rect></rect><text style=""><tspan xml:space="preserve" dy="1em" x="0" class="row">8.0 Manage Audit Trail</tspan></text></g></g><g class="node default default flowchart-label" id="flowchart-d1-12" label-offset-y="9.515929237796618" data-node="true" data-id="d1" transform="translate(3017.75390625, 50.85778617858887)"><path style="" d="M 0,9.515929237796618 a 38.41015625,9.515929237796618 0,0,0 76.8203125 0 a 38.41015625,9.515929237796618 0,0,0 -76.8203125 0 l 0,43.51592923779662 a 38.41015625,9.515929237796618 0,0,0 76.8203125 0 l 0,-43.51592923779662" transform="translate(-38.41015625,-31.273893856694926)"></path><g class="label" style="" transform="translate(0, -9.5)"><rect></rect><text style=""><tspan xml:space="preserve" dy="1em" x="0" class="row">D1 Users</tspan></text></g></g><g class="node default default flowchart-label" id="flowchart-d2-13" label-offset-y="16.91608900386007" data-node="true" data-id="d2" transform="translate(3017.75390625, 174.50581169128418)"><path style="" d="M 0,16.91608900386007 a 130.78515625,16.91608900386007 0,0,0 261.5703125 0 a 130.78515625,16.91608900386007 0,0,0 -261.5703125 0 l 0,50.916089003860066 a 130.78515625,16.91608900386007 0,0,0 261.5703125 0 l 0,-50.916089003860066" transform="translate(-130.78515625,-42.3741335057901)"></path><g class="label" style="" transform="translate(0, -9.5)"><rect></rect><text style=""><tspan xml:space="preserve" dy="1em" x="0" class="row">D2 Roles and Program Assignments</tspan></text></g></g><g class="node default default flowchart-label" id="flowchart-d3-14" label-offset-y="11.349986349986352" data-node="true" data-id="d3" transform="translate(3017.75390625, 854.2250843048096)"><path style="" d="M 0,11.349986349986352 a 51.96875,11.349986349986352 0,0,0 103.9375 0 a 51.96875,11.349986349986352 0,0,0 -103.9375 0 l 0,45.34998634998635 a 51.96875,11.349986349986352 0,0,0 103.9375 0 l 0,-45.34998634998635" transform="translate(-51.96875,-34.02497952497953)"></path><g class="label" style="" transform="translate(0, -9.5)"><rect></rect><text style=""><tspan xml:space="preserve" dy="1em" x="0" class="row">D3 Programs</tspan></text></g></g><g class="node default default flowchart-label" id="flowchart-d4-15" label-offset-y="10.136189662219909" data-node="true" data-id="d4" transform="translate(3792.05078125, 2026.554141998291)"><path style="" d="M 0,10.136189662219909 a 42.62109375,10.136189662219909 0,0,0 85.2421875 0 a 42.62109375,10.136189662219909 0,0,0 -85.2421875 0 l 0,44.136189662219905 a 42.62109375,10.136189662219909 0,0,0 85.2421875 0 l 0,-44.136189662219905" transform="translate(-42.62109375,-32.204284493329865)"></path><g class="label" style="" transform="translate(0, -9.5)"><rect></rect><text style=""><tspan xml:space="preserve" dy="1em" x="0" class="row">D4 Events</tspan></text></g></g><g class="node default default flowchart-label" id="flowchart-d5-16" label-offset-y="14.764061620349047" data-node="true" data-id="d5" transform="translate(3017.75390625, 977.3961582183838)"><path style="" d="M 0,14.764061620349047 a 90.1484375,14.764061620349047 0,0,0 180.296875 0 a 90.1484375,14.764061620349047 0,0,0 -180.296875 0 l 0,48.76406162034905 a 90.1484375,14.764061620349047 0,0,0 180.296875 0 l 0,-48.76406162034905" transform="translate(-90.1484375,-39.14609243052357)"></path><g class="label" style="" transform="translate(0, -9.5)"><rect></rect><text style=""><tspan xml:space="preserve" dy="1em" x="0" class="row">D5 Attendance Records</tspan></text></g></g><g class="node default default flowchart-label" id="flowchart-d6-17" label-offset-y="16.01930848675348" data-node="true" data-id="d6" transform="translate(3017.75390625, 1139.9840869903564)"><path style="" d="M 0,16.01930848675348 a 111.484375,16.01930848675348 0,0,0 222.96875 0 a 111.484375,16.01930848675348 0,0,0 -222.96875 0 l 0,50.01930848675348 a 111.484375,16.01930848675348 0,0,0 222.96875 0 l 0,-50.01930848675348" transform="translate(-111.484375,-41.02896273013022)"></path><g class="label" style="" transform="translate(0, -9.5)"><rect></rect><text style=""><tspan xml:space="preserve" dy="1em" x="0" class="row">D6 Attendance Sheet Exports</tspan></text></g></g><g class="node default default flowchart-label" id="flowchart-d7-18" label-offset-y="11.796501072784288" data-node="true" data-id="d7" transform="translate(3017.75390625, 1369.2398471832275)"><path style="" d="M 0,11.796501072784288 a 55.83984375,11.796501072784288 0,0,0 111.6796875 0 a 55.83984375,11.796501072784288 0,0,0 -111.6796875 0 l 0,45.79650107278429 a 55.83984375,11.796501072784288 0,0,0 111.6796875 0 l 0,-45.79650107278429" transform="translate(-55.83984375,-34.694751609176436)"></path><g class="label" style="" transform="translate(0, -9.5)"><rect></rect><text style=""><tspan xml:space="preserve" dy="1em" x="0" class="row">D7 Audit Logs</tspan></text></g></g></g></g></g></svg>