<svg id="mermaid-1782975344670" width="2906.4296875" xmlns="http://www.w3.org/2000/svg" xmlns:xlink="http://www.w3.org/1999/xlink" height="2557.56787109375" viewBox="-8 -8 2906.4296875 2557.56787109375" role="graphics-document document" aria-roledescription="flowchart-v2">
<rect x="-100000" y="-100000" width="200000" height="200000" fill="#000000"/>
<style>#mermaid-1782975344670{font-family:"trebuchet ms",verdana,arial,sans-serif;font-size:16px;fill:#ccc;}#mermaid-1782975344670 .error-icon{fill:#a44141;}#mermaid-1782975344670 .error-text{fill:#ddd;stroke:#ddd;}#mermaid-1782975344670 .edge-thickness-normal{stroke-width:2px;}#mermaid-1782975344670 .edge-thickness-thick{stroke-width:3.5px;}#mermaid-1782975344670 .edge-pattern-solid{stroke-dasharray:0;}#mermaid-1782975344670 .edge-pattern-dashed{stroke-dasharray:3;}#mermaid-1782975344670 .edge-pattern-dotted{stroke-dasharray:2;}#mermaid-1782975344670 .marker{fill:lightgrey;stroke:lightgrey;}#mermaid-1782975344670 .marker.cross{stroke:lightgrey;}#mermaid-1782975344670 svg{font-family:"trebuchet ms",verdana,arial,sans-serif;font-size:16px;}#mermaid-1782975344670 .label{font-family:"trebuchet ms",verdana,arial,sans-serif;color:#ccc;}#mermaid-1782975344670 .cluster-label text{fill:#F9FFFE;}#mermaid-1782975344670 .cluster-label span,#mermaid-1782975344670 p{color:#F9FFFE;}#mermaid-1782975344670 .label text,#mermaid-1782975344670 span,#mermaid-1782975344670 p{fill:#ccc;color:#ccc;}#mermaid-1782975344670 .node rect,#mermaid-1782975344670 .node circle,#mermaid-1782975344670 .node ellipse,#mermaid-1782975344670 .node polygon,#mermaid-1782975344670 .node path{fill:#1f2020;stroke:#81B1DB;stroke-width:1px;}#mermaid-1782975344670 .flowchart-label text{text-anchor:middle;}#mermaid-1782975344670 .node .katex path{fill:#000;stroke:#000;stroke-width:1px;}#mermaid-1782975344670 .node .label{text-align:center;}#mermaid-1782975344670 .node.clickable{cursor:pointer;}#mermaid-1782975344670 .arrowheadPath{fill:lightgrey;}#mermaid-1782975344670 .edgePath .path{stroke:lightgrey;stroke-width:2.0px;}#mermaid-1782975344670 .flowchart-link{stroke:lightgrey;fill:none;}#mermaid-1782975344670 .edgeLabel{background-color:hsl(0, 0%, 34.4117647059%);text-align:center;}#mermaid-1782975344670 .edgeLabel rect{opacity:0.5;background-color:hsl(0, 0%, 34.4117647059%);fill:hsl(0, 0%, 34.4117647059%);}#mermaid-1782975344670 .labelBkg{background-color:rgba(87.75, 87.75, 87.75, 0.5);}#mermaid-1782975344670 .cluster rect{fill:hsl(180, 1.5873015873%, 28.3529411765%);stroke:rgba(255, 255, 255, 0.25);stroke-width:1px;}#mermaid-1782975344670 .cluster text{fill:#F9FFFE;}#mermaid-1782975344670 .cluster span,#mermaid-1782975344670 p{color:#F9FFFE;}#mermaid-1782975344670 div.mermaidTooltip{position:absolute;text-align:center;max-width:200px;padding:2px;font-family:"trebuchet ms",verdana,arial,sans-serif;font-size:12px;background:hsl(20, 1.5873015873%, 12.3529411765%);border:1px solid rgba(255, 255, 255, 0.25);border-radius:2px;pointer-events:none;z-index:100;}#mermaid-1782975344670 .flowchartTitleText{text-anchor:middle;font-size:18px;fill:#ccc;}#mermaid-1782975344670 :root{--mermaid-font-family:"trebuchet ms",verdana,arial,sans-serif;}#mermaid-1782975344670 .note rect{fill:#1f2020!important;stroke:#8CA6DB!important;color:#d4d4d4!important;stroke-dasharray:5 5!important;}#mermaid-1782975344670 .note polygon{fill:#1f2020!important;stroke:#8CA6DB!important;color:#d4d4d4!important;stroke-dasharray:5 5!important;}#mermaid-1782975344670 .note ellipse{fill:#1f2020!important;stroke:#8CA6DB!important;color:#d4d4d4!important;stroke-dasharray:5 5!important;}#mermaid-1782975344670 .note circle{fill:#1f2020!important;stroke:#8CA6DB!important;color:#d4d4d4!important;stroke-dasharray:5 5!important;}#mermaid-1782975344670 .note path{fill:#1f2020!important;stroke:#8CA6DB!important;color:#d4d4d4!important;stroke-dasharray:5 5!important;}#mermaid-1782975344670 .note tspan{fill:#d4d4d4!important;}</style><g><marker id="mermaid-1782975344670_flowchart-pointEnd" class="marker flowchart" viewBox="0 0 10 10" refX="6" refY="5" markerUnits="userSpaceOnUse" markerWidth="12" markerHeight="12" orient="auto"><path d="M 0 0 L 10 5 L 0 10 z" class="arrowMarkerPath" style="stroke-width: 1; stroke-dasharray: 1, 0;"></path></marker><marker id="mermaid-1782975344670_flowchart-pointStart" class="marker flowchart" viewBox="0 0 10 10" refX="4.5" refY="5" markerUnits="userSpaceOnUse" markerWidth="12" markerHeight="12" orient="auto"><path d="M 0 5 L 10 10 L 10 0 z" class="arrowMarkerPath" style="stroke-width: 1; stroke-dasharray: 1, 0;"></path></marker><marker id="mermaid-1782975344670_flowchart-circleEnd" class="marker flowchart" viewBox="0 0 10 10" refX="11" refY="5" markerUnits="userSpaceOnUse" markerWidth="11" markerHeight="11" orient="auto"><circle cx="5" cy="5" r="5" class="arrowMarkerPath" style="stroke-width: 1; stroke-dasharray: 1, 0;"></circle></marker><marker id="mermaid-1782975344670_flowchart-circleStart" class="marker flowchart" viewBox="0 0 10 10" refX="-1" refY="5" markerUnits="userSpaceOnUse" markerWidth="11" markerHeight="11" orient="auto"><circle cx="5" cy="5" r="5" class="arrowMarkerPath" style="stroke-width: 1; stroke-dasharray: 1, 0;"></circle></marker><marker id="mermaid-1782975344670_flowchart-crossEnd" class="marker cross flowchart" viewBox="0 0 11 11" refX="12" refY="5.2" markerUnits="userSpaceOnUse" markerWidth="11" markerHeight="11" orient="auto"><path d="M 1,1 l 9,9 M 10,1 l -9,9" class="arrowMarkerPath" style="stroke-width: 2; stroke-dasharray: 1, 0;"></path></marker><marker id="mermaid-1782975344670_flowchart-crossStart" class="marker cross flowchart" viewBox="0 0 11 11" refX="-1" refY="5.2" markerUnits="userSpaceOnUse" markerWidth="11" markerHeight="11" orient="auto"><path d="M 1,1 l 9,9 M 10,1 l -9,9" class="arrowMarkerPath" style="stroke-width: 2; stroke-dasharray: 1, 0;"></path></marker><g class="root"><g class="clusters"></g><g class="edgePaths"><path d="M273.465,942.084L341.832,798.562C410.198,655.04,546.931,367.997,668.073,224.475C789.215,80.953,894.766,80.953,1005.915,80.953C1117.064,80.953,1233.811,80.953,1345.14,80.953C1456.469,80.953,1562.379,80.953,1666.469,80.953C1770.559,80.953,1872.828,80.953,1969.672,84.413C2066.517,87.874,2157.936,94.795,2203.645,98.255L2249.354,101.715" id="L-super_admin-p1-0" class=" edge-thickness-normal edge-pattern-solid flowchart-link LS-super_admin LE-p1" style="fill:none;" marker-end="url(#mermaid-1782975344670_flowchart-pointEnd)"></path><path d="M1676.241,880.76L1726.051,774.281C1775.86,667.803,1875.479,454.846,1971.955,332.627C2068.43,210.408,2161.763,178.928,2208.429,163.188L2255.095,147.448" id="L-program_admin-p1-0" class=" edge-thickness-normal edge-pattern-solid flowchart-link LS-program_admin LE-p1" style="fill:none;" marker-end="url(#mermaid-1782975344670_flowchart-pointEnd)"></path><path d="M2477.049,82.277L2498.184,76.973C2519.319,71.669,2561.589,61.061,2601.403,55.757C2641.218,50.453,2678.576,50.453,2697.255,50.453L2715.934,50.453" id="L-p1-d1-0" class=" edge-thickness-normal edge-pattern-solid flowchart-link LS-p1 LE-d1" style="fill:none;" marker-start="url(#mermaid-1782975344670_flowchart-pointStart)" marker-end="url(#mermaid-1782975344670_flowchart-pointEnd)"></path><path d="M2480.051,120.976L2500.686,122.859C2521.321,124.743,2562.59,128.51,2587.267,133.6C2611.944,138.689,2620.029,145.102,2624.071,148.308L2628.114,151.514" id="L-p1-d2-0" class=" edge-thickness-normal edge-pattern-solid flowchart-link LS-p1 LE-d2" style="fill:none;" marker-start="url(#mermaid-1782975344670_flowchart-pointStart)" marker-end="url(#mermaid-1782975344670_flowchart-pointEnd)"></path><path d="M2439.312,191.967L2466.737,221.959C2494.161,251.952,2549.01,311.937,2598.872,383.756C2648.733,455.575,2693.607,539.229,2716.044,581.056L2738.481,622.883" id="L-p1-d7-0" class=" edge-thickness-normal edge-pattern-solid flowchart-link LS-p1 LE-d7" style="fill:none;" marker-end="url(#mermaid-1782975344670_flowchart-pointEnd)"></path><path d="M279.141,942.084L346.562,858.874C413.982,775.664,548.823,609.244,669.019,526.034C789.215,442.824,894.766,442.824,1005.915,442.824C1117.064,442.824,1233.811,442.824,1345.14,442.824C1456.469,442.824,1562.379,442.824,1666.469,442.824C1770.559,442.824,1872.828,442.824,1959.373,442.824C2045.918,442.824,2116.739,442.824,2152.149,442.824L2187.559,442.824" id="L-super_admin-p2-0" class=" edge-thickness-normal edge-pattern-solid flowchart-link LS-super_admin LE-p2" style="fill:none;" marker-end="url(#mermaid-1782975344670_flowchart-pointEnd)"></path><path d="M2468.638,299.23L2491.175,268.071C2513.712,236.913,2558.785,174.595,2600.064,135.998C2641.342,97.402,2678.825,82.527,2697.567,75.089L2716.308,67.651" id="L-p2-d1-0" class=" edge-thickness-normal edge-pattern-solid flowchart-link LS-p2 LE-d1" style="fill:none;" marker-start="url(#mermaid-1782975344670_flowchart-pointStart)" marker-end="url(#mermaid-1782975344670_flowchart-pointEnd)"></path><path d="M2513.122,345.87L2528.245,335.986C2543.367,326.101,2573.613,306.333,2603.233,286.566C2632.853,266.799,2661.847,247.032,2676.343,237.149L2690.84,227.266" id="L-p2-d2-0" class=" edge-thickness-normal edge-pattern-solid flowchart-link LS-p2 LE-d2" style="fill:none;" marker-start="url(#mermaid-1782975344670_flowchart-pointStart)" marker-end="url(#mermaid-1782975344670_flowchart-pointEnd)"></path><path d="M2411.719,613.712L2443.742,730.291C2475.766,846.871,2539.813,1080.029,2588.645,1209.305C2637.477,1338.582,2671.094,1363.976,2687.903,1376.673L2704.712,1389.37" id="L-p2-d3-0" class=" edge-thickness-normal edge-pattern-solid flowchart-link LS-p2 LE-d3" style="fill:none;" marker-start="url(#mermaid-1782975344670_flowchart-pointStart)" marker-end="url(#mermaid-1782975344670_flowchart-pointEnd)"></path><path d="M2530.942,486.929L2543.095,490.155C2555.248,493.38,2579.553,499.832,2611.251,522.955C2642.949,546.077,2682.038,585.872,2701.583,605.769L2721.128,625.666" id="L-p2-d7-0" class=" edge-thickness-normal edge-pattern-solid flowchart-link LS-p2 LE-d7" style="fill:none;" marker-end="url(#mermaid-1782975344670_flowchart-pointEnd)"></path><path d="M292.712,942.084L357.871,901.576C423.03,861.068,553.347,780.053,671.281,739.545C789.215,699.037,894.766,699.037,1005.915,699.037C1117.064,699.037,1233.811,699.037,1345.14,699.037C1456.469,699.037,1562.379,699.037,1666.469,699.037C1770.559,699.037,1872.828,699.037,1976.469,718.061C2080.11,737.084,2185.123,775.132,2237.629,794.155L2290.136,813.179" id="L-super_admin-p3-0" class=" edge-thickness-normal edge-pattern-solid flowchart-link LS-super_admin LE-p3" style="fill:none;" marker-end="url(#mermaid-1782975344670_flowchart-pointEnd)"></path><path d="M1729.813,897.76L1770.693,897.76C1811.574,897.76,1893.336,897.76,1986.074,890.103C2078.811,882.446,2182.525,867.132,2234.382,859.476L2286.239,851.819" id="L-program_admin-p3-0" class=" edge-thickness-normal edge-pattern-solid flowchart-link LS-program_admin LE-p3" style="fill:none;" marker-end="url(#mermaid-1782975344670_flowchart-pointEnd)"></path><path d="M2397.416,767.852L2431.823,691.56C2466.23,615.267,2535.045,462.682,2586.002,372.778C2636.959,282.874,2670.059,255.649,2686.609,242.037L2703.159,228.425" id="L-p3-d2-0" class=" edge-thickness-normal edge-pattern-solid flowchart-link LS-p3 LE-d2" style="fill:none;" marker-start="url(#mermaid-1782975344670_flowchart-pointStart)" marker-end="url(#mermaid-1782975344670_flowchart-pointEnd)"></path><path d="M2399.421,911.655L2433.494,981.91C2467.567,1052.166,2535.713,1192.677,2586.349,1273.731C2636.985,1354.786,2670.111,1376.384,2686.673,1387.183L2703.236,1397.982" id="L-p3-d3-0" class=" edge-thickness-normal edge-pattern-solid flowchart-link LS-p3 LE-d3" style="fill:none;" marker-start="url(#mermaid-1782975344670_flowchart-pointStart)" marker-end="url(#mermaid-1782975344670_flowchart-pointEnd)"></path><path d="M2383.142,917.459L2419.928,1072.174C2456.714,1226.888,2530.287,1536.317,2590.646,1752.125C2651.005,1967.933,2698.15,2090.119,2721.723,2151.213L2745.296,2212.306" id="L-p3-d4-0" class=" edge-thickness-normal edge-pattern-solid flowchart-link LS-p3 LE-d4" style="fill:none;" marker-start="url(#mermaid-1782975344670_flowchart-pointStart)" marker-end="url(#mermaid-1782975344670_flowchart-pointEnd)"></path><path d="M2409.666,781.279L2442.032,738.78C2474.397,696.28,2539.128,611.282,2590.143,585.55C2641.158,559.818,2678.457,593.352,2697.106,610.119L2715.755,626.886" id="L-p3-d7-0" class=" edge-thickness-normal edge-pattern-solid flowchart-link LS-p3 LE-d7" style="fill:none;" marker-end="url(#mermaid-1782975344670_flowchart-pointEnd)"></path><path d="M314.095,942.084L375.689,920.595C437.284,899.105,560.474,856.127,647.629,841.467C734.784,826.808,785.903,840.467,811.463,847.297L837.023,854.127" id="L-super_admin-p4-0" class=" edge-thickness-normal edge-pattern-solid flowchart-link LS-super_admin LE-p4" style="fill:none;" marker-end="url(#mermaid-1782975344670_flowchart-pointEnd)"></path><path d="M1628.483,914.76L1582.162,934.542C1535.842,954.324,1443.2,993.889,1364.774,1001.232C1286.347,1008.576,1222.136,983.699,1190.03,971.26L1157.924,958.821" id="L-program_admin-p4-0" class=" edge-thickness-normal edge-pattern-solid flowchart-link LS-program_admin LE-p4" style="fill:none;" marker-end="url(#mermaid-1782975344670_flowchart-pointEnd)"></path><path d="M1043.321,1061.22L1094.528,1255.852C1145.734,1450.485,1248.146,1839.749,1352.307,2034.381C1456.469,2229.014,1562.379,2229.014,1666.469,2229.014C1770.559,2229.014,1872.828,2229.014,1988.91,2229.014C2104.991,2229.014,2234.884,2229.014,2339.678,2229.014C2444.471,2229.014,2524.165,2229.014,2581.997,2231.323C2639.828,2233.631,2675.798,2238.249,2693.782,2240.558L2711.767,2242.867" id="L-p4-d4-0" class=" edge-thickness-normal edge-pattern-solid flowchart-link LS-p4 LE-d4" style="fill:none;" marker-start="url(#mermaid-1782975344670_flowchart-pointStart)" marker-end="url(#mermaid-1782975344670_flowchart-pointEnd)"></path><path d="M1133.931,803.143L1170.035,777.576C1206.14,752.01,1278.349,700.876,1367.409,675.309C1456.469,649.742,1562.379,649.742,1666.469,649.742C1770.559,649.742,1872.828,649.742,1988.91,649.742C2104.991,649.742,2234.884,649.742,2339.678,649.742C2444.471,649.742,2524.165,649.742,2579.789,650.94C2635.413,652.137,2666.966,654.532,2682.743,655.729L2698.52,656.927" id="L-p4-d7-0" class=" edge-thickness-normal edge-pattern-solid flowchart-link LS-p4 LE-d7" style="fill:none;" marker-end="url(#mermaid-1782975344670_flowchart-pointEnd)"></path><path d="M841.74,938.486L815.394,945.252C789.048,952.019,736.356,965.551,649.879,969.442C563.401,973.334,443.139,967.584,383.007,964.708L322.876,961.833" id="L-p4-super_admin-0" class=" edge-thickness-normal edge-pattern-solid flowchart-link LS-p4 LE-super_admin" style="fill:none;" marker-end="url(#mermaid-1782975344670_flowchart-pointEnd)"></path><path d="M1159.942,861.362L1191.711,854.118C1223.481,846.874,1287.02,832.386,1360.634,835.66C1434.248,838.934,1517.937,859.969,1559.781,870.486L1601.626,881.004" id="L-p4-program_admin-0" class=" edge-thickness-normal edge-pattern-solid flowchart-link LS-p4 LE-program_admin" style="fill:none;" marker-end="url(#mermaid-1782975344670_flowchart-pointEnd)"></path><path d="M1072.773,2026.294L1119.071,2032.379C1165.368,2038.464,1257.964,2050.633,1334.464,2056.718C1410.965,2062.803,1471.372,2062.803,1501.575,2062.803L1531.778,2062.803" id="L-attendee-p5-0" class=" edge-thickness-normal edge-pattern-solid flowchart-link LS-attendee LE-p5" style="fill:none;" marker-end="url(#mermaid-1782975344670_flowchart-pointEnd)"></path><path d="M1784.988,2133.631L1816.673,2152.861C1848.358,2172.092,1911.728,2210.553,2008.359,2229.783C2104.991,2249.014,2234.884,2249.014,2339.678,2249.014C2444.471,2249.014,2524.165,2249.014,2581.99,2249.014C2639.814,2249.014,2675.769,2249.014,2693.746,2249.014L2711.723,2249.014" id="L-p5-d4-0" class=" edge-thickness-normal edge-pattern-solid flowchart-link LS-p5 LE-d4" style="fill:none;" marker-start="url(#mermaid-1782975344670_flowchart-pointStart)" marker-end="url(#mermaid-1782975344670_flowchart-pointEnd)"></path><path d="M1752.242,1961.965L1789.384,1917.351C1826.527,1872.738,1900.812,1783.512,1977.763,1757.088C2054.714,1730.664,2134.33,1767.043,2174.138,1785.233L2213.946,1803.422" id="L-p5-p6-0" class=" edge-thickness-normal edge-pattern-solid flowchart-link LS-p5 LE-p6" style="fill:none;" marker-end="url(#mermaid-1782975344670_flowchart-pointEnd)"></path><path d="M2445.743,2017.064L2472.096,2064.168C2498.449,2111.272,2551.154,2205.481,2595.527,2246.723C2639.901,2287.965,2675.942,2276.241,2693.963,2270.379L2711.983,2264.517" id="L-p6-d4-0" class=" edge-thickness-normal edge-pattern-solid flowchart-link LS-p6 LE-d4" style="fill:none;" marker-start="url(#mermaid-1782975344670_flowchart-pointStart)" marker-end="url(#mermaid-1782975344670_flowchart-pointEnd)"></path><path d="M2440.303,2019.976L2467.562,2073.262C2494.822,2126.547,2549.341,2233.118,2586.673,2288.387C2624.005,2343.656,2644.15,2347.622,2654.223,2349.606L2664.296,2351.589" id="L-p6-d5-0" class=" edge-thickness-normal edge-pattern-solid flowchart-link LS-p6 LE-d5" style="fill:none;" marker-start="url(#mermaid-1782975344670_flowchart-pointStart)" marker-end="url(#mermaid-1782975344670_flowchart-pointEnd)"></path><path d="M2404.024,1716.682L2437.33,1584.584C2470.636,1452.485,2537.248,1188.289,2592.637,1018.84C2648.027,849.391,2692.194,774.689,2714.278,737.339L2736.361,699.988" id="L-p6-d7-0" class=" edge-thickness-normal edge-pattern-solid flowchart-link LS-p6 LE-d7" style="fill:none;" marker-end="url(#mermaid-1782975344670_flowchart-pointEnd)"></path><path d="M2204.361,1878.414L2166.15,1879.86C2127.94,1881.306,2051.519,1884.199,1962.173,1885.645C1872.828,1887.092,1770.559,1887.092,1666.469,1887.092C1562.379,1887.092,1456.469,1887.092,1353.621,1905.565C1250.773,1924.038,1150.987,1960.985,1101.094,1979.458L1051.201,1997.931" id="L-p6-attendee-0" class=" edge-thickness-normal edge-pattern-solid flowchart-link LS-p6 LE-attendee" style="fill:none;" marker-end="url(#mermaid-1782975344670_flowchart-pointEnd)"></path><path d="M282.693,976.084L349.521,1041.656C416.35,1107.229,550.007,1238.374,669.611,1303.947C789.215,1369.52,894.766,1369.52,1005.915,1369.52C1117.064,1369.52,1233.811,1369.52,1345.14,1369.52C1456.469,1369.52,1562.379,1369.52,1666.469,1369.52C1770.559,1369.52,1872.828,1369.52,1953.061,1375.359C2033.293,1381.199,2091.489,1392.879,2120.587,1398.719L2149.685,1404.559" id="L-super_admin-p7-0" class=" edge-thickness-normal edge-pattern-solid flowchart-link LS-super_admin LE-p7" style="fill:none;" marker-end="url(#mermaid-1782975344670_flowchart-pointEnd)"></path><path d="M1678.694,914.76L1728.095,995.47C1777.495,1076.18,1876.297,1237.6,1954.362,1321.893C2032.428,1406.186,2089.759,1413.352,2118.424,1416.935L2147.089,1420.518" id="L-program_admin-p7-0" class=" edge-thickness-normal edge-pattern-solid flowchart-link LS-program_admin LE-p7" style="fill:none;" marker-end="url(#mermaid-1782975344670_flowchart-pointEnd)"></path><path d="M2411.542,1233.389L2443.595,1086.478C2475.648,939.566,2539.754,645.744,2590.616,478.444C2641.478,311.144,2679.097,270.366,2697.906,249.977L2716.716,229.588" id="L-p7-d2-0" class=" edge-thickness-normal edge-pattern-solid flowchart-link LS-p7 LE-d2" style="fill:none;" marker-start="url(#mermaid-1782975344670_flowchart-pointStart)" marker-end="url(#mermaid-1782975344670_flowchart-pointEnd)"></path><path d="M2584.159,1447.729L2587.443,1447.729C2590.726,1447.729,2597.293,1447.729,2617.011,1444.564C2636.73,1441.399,2669.601,1435.069,2686.036,1431.904L2702.471,1428.739" id="L-p7-d3-0" class=" edge-thickness-normal edge-pattern-solid flowchart-link LS-p7 LE-d3" style="fill:none;" marker-start="url(#mermaid-1782975344670_flowchart-pointStart)" marker-end="url(#mermaid-1782975344670_flowchart-pointEnd)"></path><path d="M2422.788,1659.302L2452.967,1769.366C2483.145,1879.431,2543.502,2099.56,2591.737,2201.433C2639.972,2303.306,2676.084,2286.922,2694.141,2278.731L2712.197,2270.539" id="L-p7-d4-0" class=" edge-thickness-normal edge-pattern-solid flowchart-link LS-p7 LE-d4" style="fill:none;" marker-start="url(#mermaid-1782975344670_flowchart-pointStart)" marker-end="url(#mermaid-1782975344670_flowchart-pointEnd)"></path><path d="M2416.887,1660.832L2448.049,1788.268C2479.211,1915.705,2541.535,2170.578,2582.872,2292.128C2624.209,2413.678,2644.559,2401.905,2654.734,2396.018L2664.909,2390.132" id="L-p7-d5-0" class=" edge-thickness-normal edge-pattern-solid flowchart-link LS-p7 LE-d5" style="fill:none;" marker-start="url(#mermaid-1782975344670_flowchart-pointStart)" marker-end="url(#mermaid-1782975344670_flowchart-pointEnd)"></path><path d="M2412.186,1656.495L2444.132,1797.169C2476.077,1937.843,2539.968,2219.191,2578.414,2359.865C2616.86,2500.539,2629.86,2500.539,2636.36,2500.539L2642.86,2500.539" id="L-p7-d6-0" class=" edge-thickness-normal edge-pattern-solid flowchart-link LS-p7 LE-d6" style="fill:none;" marker-end="url(#mermaid-1782975344670_flowchart-pointEnd)"></path><path d="M2456.585,1254.331L2481.131,1202.625C2505.677,1150.918,2554.768,1047.505,2601.664,955.148C2648.56,862.79,2693.261,781.489,2715.612,740.838L2737.963,700.187" id="L-p7-d7-0" class=" edge-thickness-normal edge-pattern-solid flowchart-link LS-p7 LE-d7" style="fill:none;" marker-end="url(#mermaid-1782975344670_flowchart-pointEnd)"></path><path d="M2170.06,1536.701L2137.566,1551.548C2105.072,1566.396,2040.085,1596.09,1956.457,1610.938C1872.828,1625.785,1770.559,1625.785,1666.469,1625.785C1562.379,1625.785,1456.469,1625.785,1345.14,1625.785C1233.811,1625.785,1117.064,1625.785,1005.915,1625.785C894.766,1625.785,789.215,1625.785,668.97,1518.25C548.726,1410.715,413.788,1195.644,346.319,1088.109L278.85,980.573" id="L-p7-super_admin-0" class=" edge-thickness-normal edge-pattern-solid flowchart-link LS-p7 LE-super_admin" style="fill:none;" marker-end="url(#mermaid-1782975344670_flowchart-pointEnd)"></path><path d="M2175.827,1548.37L2142.372,1566.189C2108.917,1584.008,2042.007,1619.647,1958.897,1514.864C1875.786,1410.081,1776.475,1164.876,1726.82,1042.274L1677.164,919.672" id="L-p7-program_admin-0" class=" edge-thickness-normal edge-pattern-solid flowchart-link LS-p7 LE-program_admin" style="fill:none;" marker-end="url(#mermaid-1782975344670_flowchart-pointEnd)"></path><path d="M317.582,972.642L378.596,988.486C439.609,1004.329,561.637,1036.016,661.185,1067.795C760.733,1099.573,837.801,1131.443,876.336,1147.377L914.87,1163.312" id="L-super_admin-p8-0" class=" edge-thickness-normal edge-pattern-solid flowchart-link LS-super_admin LE-p8" style="fill:none;" marker-end="url(#mermaid-1782975344670_flowchart-pointEnd)"></path><path d="M1092.78,1198.646L1135.743,1198.646C1178.707,1198.646,1264.633,1198.646,1360.551,1198.646C1456.469,1198.646,1562.379,1198.646,1666.469,1198.646C1770.559,1198.646,1872.828,1198.646,1988.91,1198.646C2104.991,1198.646,2234.884,1198.646,2339.678,1198.646C2444.471,1198.646,2524.165,1198.646,2588.054,1115.731C2651.942,1032.816,2700.024,866.985,2724.065,784.07L2748.106,701.154" id="L-p8-d7-0" class=" edge-thickness-normal edge-pattern-solid flowchart-link LS-p8 LE-d7" style="fill:none;" marker-start="url(#mermaid-1782975344670_flowchart-pointStart)" marker-end="url(#mermaid-1782975344670_flowchart-pointEnd)"></path><path d="M916.832,1223.704L877.97,1235.368C839.109,1247.032,761.387,1270.36,657.041,1229.641C552.695,1188.923,421.727,1084.159,356.242,1031.777L290.758,979.394" id="L-p8-super_admin-0" class=" edge-thickness-normal edge-pattern-solid flowchart-link LS-p8 LE-super_admin" style="fill:none;" marker-end="url(#mermaid-1782975344670_flowchart-pointEnd)"></path></g><g class="edgeLabels"><g class="edgeLabel" transform="translate(1350.55859375, 80.953125)"><g class="label" transform="translate(-61.5625, -9.5)"><rect rx="0" ry="0" width="123.05264282226562" height="19.000051498413086"></rect><text style=""><tspan xml:space="preserve" dy="1em" x="0" class="row">Login credentials</tspan></text></g></g><g class="edgeLabel" transform="translate(1975.09765625, 241.888671875)"><g class="label" transform="translate(-61.5625, -9.5)"><rect rx="0" ry="0" width="123.05264282226562" height="19.000051498413086"></rect><text style=""><tspan xml:space="preserve" dy="1em" x="0" class="row">Login credentials</tspan></text></g></g><g class="edgeLabel"><g class="label" transform="translate(0, 0)"><rect rx="0" ry="0" width="0" height="0"></rect><text style=""><tspan xml:space="preserve" dy="1em" x="0" class="row"></tspan></text></g></g><g class="edgeLabel"><g class="label" transform="translate(0, 0)"><rect rx="0" ry="0" width="0" height="0"></rect><text style=""><tspan xml:space="preserve" dy="1em" x="0" class="row"></tspan></text></g></g><g class="edgeLabel"><g class="label" transform="translate(0, 0)"><rect rx="0" ry="0" width="0" height="0"></rect><text style=""><tspan xml:space="preserve" dy="1em" x="0" class="row"></tspan></text></g></g><g class="edgeLabel" transform="translate(1350.55859375, 442.82421875)"><g class="label" transform="translate(-128.16015625, -9.5)"><rect rx="0" ry="0" width="256.1649475097656" height="19.000051498413086"></rect><text style=""><tspan xml:space="preserve" dy="1em" x="0" class="row">User, program, assignment requests</tspan></text></g></g><g class="edgeLabel"><g class="label" transform="translate(0, 0)"><rect rx="0" ry="0" width="0" height="0"></rect><text style=""><tspan xml:space="preserve" dy="1em" x="0" class="row"></tspan></text></g></g><g class="edgeLabel"><g class="label" transform="translate(0, 0)"><rect rx="0" ry="0" width="0" height="0"></rect><text style=""><tspan xml:space="preserve" dy="1em" x="0" class="row"></tspan></text></g></g><g class="edgeLabel"><g class="label" transform="translate(0, 0)"><rect rx="0" ry="0" width="0" height="0"></rect><text style=""><tspan xml:space="preserve" dy="1em" x="0" class="row"></tspan></text></g></g><g class="edgeLabel"><g class="label" transform="translate(0, 0)"><rect rx="0" ry="0" width="0" height="0"></rect><text style=""><tspan xml:space="preserve" dy="1em" x="0" class="row"></tspan></text></g></g><g class="edgeLabel" transform="translate(1350.55859375, 699.037109375)"><g class="label" transform="translate(-103.37890625, -9.5)"><rect rx="0" ry="0" width="206.63330078125" height="19.000051498413086"></rect><text style=""><tspan xml:space="preserve" dy="1em" x="0" class="row">Event details/status changes</tspan></text></g></g><g class="edgeLabel" transform="translate(1975.09765625, 897.759765625)"><g class="label" transform="translate(-137.05078125, -9.5)"><rect rx="0" ry="0" width="273.9356994628906" height="19.000051498413086"></rect><text style=""><tspan xml:space="preserve" dy="1em" x="0" class="row">Assigned event details/status changes</tspan></text></g></g><g class="edgeLabel"><g class="label" transform="translate(0, 0)"><rect rx="0" ry="0" width="0" height="0"></rect><text style=""><tspan xml:space="preserve" dy="1em" x="0" class="row"></tspan></text></g></g><g class="edgeLabel"><g class="label" transform="translate(0, 0)"><rect rx="0" ry="0" width="0" height="0"></rect><text style=""><tspan xml:space="preserve" dy="1em" x="0" class="row"></tspan></text></g></g><g class="edgeLabel"><g class="label" transform="translate(0, 0)"><rect rx="0" ry="0" width="0" height="0"></rect><text style=""><tspan xml:space="preserve" dy="1em" x="0" class="row"></tspan></text></g></g><g class="edgeLabel"><g class="label" transform="translate(0, 0)"><rect rx="0" ry="0" width="0" height="0"></rect><text style=""><tspan xml:space="preserve" dy="1em" x="0" class="row"></tspan></text></g></g><g class="edgeLabel" transform="translate(683.6640625, 813.1484375)"><g class="label" transform="translate(-57.1171875, -9.5)"><rect rx="0" ry="0" width="114.16754913330078" height="19.000051498413086"></rect><text style=""><tspan xml:space="preserve" dy="1em" x="0" class="row">QR/link request</tspan></text></g></g><g class="edgeLabel" transform="translate(1350.55859375, 1033.453125)"><g class="label" transform="translate(-90.7109375, -9.5)"><rect rx="0" ry="0" width="181.3137969970703" height="19.000051498413086"></rect><text style=""><tspan xml:space="preserve" dy="1em" x="0" class="row">Assigned QR/link request</tspan></text></g></g><g class="edgeLabel"><g class="label" transform="translate(0, 0)"><rect rx="0" ry="0" width="0" height="0"></rect><text style=""><tspan xml:space="preserve" dy="1em" x="0" class="row"></tspan></text></g></g><g class="edgeLabel"><g class="label" transform="translate(0, 0)"><rect rx="0" ry="0" width="0" height="0"></rect><text style=""><tspan xml:space="preserve" dy="1em" x="0" class="row"></tspan></text></g></g><g class="edgeLabel" transform="translate(683.6640625, 979.0837783813477)"><g class="label" transform="translate(-127.9296875, -9.5)"><rect rx="0" ry="0" width="255.7054901123047" height="19.000051498413086"></rect><text style=""><tspan xml:space="preserve" dy="1em" x="0" class="row">Public attendance link and QR code</tspan></text></g></g><g class="edgeLabel" transform="translate(1350.55859375, 817.8984375)"><g class="label" transform="translate(-161.51953125, -9.5)"><rect rx="0" ry="0" width="322.8439025878906" height="19.000051498413086"></rect><text style=""><tspan xml:space="preserve" dy="1em" x="0" class="row">Assigned public attendance link and QR code</tspan></text></g></g><g class="edgeLabel" transform="translate(1350.55859375, 2062.802734375)"><g class="label" transform="translate(-119.234375, -9.5)"><rect rx="0" ry="0" width="238.32571411132812" height="19.000051498413086"></rect><text style=""><tspan xml:space="preserve" dy="1em" x="0" class="row">Open link and submit attendance</tspan></text></g></g><g class="edgeLabel"><g class="label" transform="translate(0, 0)"><rect rx="0" ry="0" width="0" height="0"></rect><text style=""><tspan xml:space="preserve" dy="1em" x="0" class="row"></tspan></text></g></g><g class="edgeLabel" transform="translate(1975.09765625, 1694.28515625)"><g class="label" transform="translate(-98.55078125, -9.5)"><rect rx="0" ry="0" width="196.9843292236328" height="19.000051498413086"></rect><text style=""><tspan xml:space="preserve" dy="1em" x="0" class="row">Submitted attendance data</tspan></text></g></g><g class="edgeLabel"><g class="label" transform="translate(0, 0)"><rect rx="0" ry="0" width="0" height="0"></rect><text style=""><tspan xml:space="preserve" dy="1em" x="0" class="row"></tspan></text></g></g><g class="edgeLabel"><g class="label" transform="translate(0, 0)"><rect rx="0" ry="0" width="0" height="0"></rect><text style=""><tspan xml:space="preserve" dy="1em" x="0" class="row"></tspan></text></g></g><g class="edgeLabel"><g class="label" transform="translate(0, 0)"><rect rx="0" ry="0" width="0" height="0"></rect><text style=""><tspan xml:space="preserve" dy="1em" x="0" class="row"></tspan></text></g></g><g class="edgeLabel" transform="translate(1668.2890625, 1887.091796875)"><g class="label" transform="translate(-123.12890625, -9.5)"><rect rx="0" ry="0" width="246.11058044433594" height="19.000051498413086"></rect><text style=""><tspan xml:space="preserve" dy="1em" x="0" class="row">Validation result and confirmation</tspan></text></g></g><g class="edgeLabel" transform="translate(1350.55859375, 1369.51953125)"><g class="label" transform="translate(-117.453125, -9.5)"><rect rx="0" ry="0" width="234.7642059326172" height="19.000051498413086"></rect><text style=""><tspan xml:space="preserve" dy="1em" x="0" class="row">Dashboard/report/sheet request</tspan></text></g></g><g class="edgeLabel" transform="translate(1975.09765625, 1399.01953125)"><g class="label" transform="translate(-150.59765625, -9.5)"><rect rx="0" ry="0" width="301.0125427246094" height="19.000051498413086"></rect><text style=""><tspan xml:space="preserve" dy="1em" x="0" class="row">Assigned dashboard/report/sheet request</tspan></text></g></g><g class="edgeLabel"><g class="label" transform="translate(0, 0)"><rect rx="0" ry="0" width="0" height="0"></rect><text style=""><tspan xml:space="preserve" dy="1em" x="0" class="row"></tspan></text></g></g><g class="edgeLabel"><g class="label" transform="translate(0, 0)"><rect rx="0" ry="0" width="0" height="0"></rect><text style=""><tspan xml:space="preserve" dy="1em" x="0" class="row"></tspan></text></g></g><g class="edgeLabel"><g class="label" transform="translate(0, 0)"><rect rx="0" ry="0" width="0" height="0"></rect><text style=""><tspan xml:space="preserve" dy="1em" x="0" class="row"></tspan></text></g></g><g class="edgeLabel"><g class="label" transform="translate(0, 0)"><rect rx="0" ry="0" width="0" height="0"></rect><text style=""><tspan xml:space="preserve" dy="1em" x="0" class="row"></tspan></text></g></g><g class="edgeLabel"><g class="label" transform="translate(0, 0)"><rect rx="0" ry="0" width="0" height="0"></rect><text style=""><tspan xml:space="preserve" dy="1em" x="0" class="row"></tspan></text></g></g><g class="edgeLabel"><g class="label" transform="translate(0, 0)"><rect rx="0" ry="0" width="0" height="0"></rect><text style=""><tspan xml:space="preserve" dy="1em" x="0" class="row"></tspan></text></g></g><g class="edgeLabel" transform="translate(1350.55859375, 1625.78515625)"><g class="label" transform="translate(-139.73046875, -9.5)"><rect rx="0" ry="0" width="279.2911071777344" height="19.000051498413086"></rect><text style=""><tspan xml:space="preserve" dy="1em" x="0" class="row">Dashboard, reports, attendance sheets</tspan></text></g></g><g class="edgeLabel" transform="translate(1975.09765625, 1655.28515625)"><g class="label" transform="translate(-140.9609375, -9.5)"><rect rx="0" ry="0" width="281.7523498535156" height="19.000051498413086"></rect><text style=""><tspan xml:space="preserve" dy="1em" x="0" class="row">Assigned reports and sheets, if allowed</tspan></text></g></g><g class="edgeLabel" transform="translate(683.6640625, 1067.703125)"><g class="label" transform="translate(-62.390625, -9.5)"><rect rx="0" ry="0" width="124.7084732055664" height="19.000051498413086"></rect><text style=""><tspan xml:space="preserve" dy="1em" x="0" class="row">Audit log request</tspan></text></g></g><g class="edgeLabel"><g class="label" transform="translate(0, 0)"><rect rx="0" ry="0" width="0" height="0"></rect><text style=""><tspan xml:space="preserve" dy="1em" x="0" class="row"></tspan></text></g></g><g class="edgeLabel" transform="translate(683.6640625, 1293.6875)"><g class="label" transform="translate(-36.078125, -9.5)"><rect rx="0" ry="0" width="72.11628723144531" height="19.000051498413086"></rect><text style=""><tspan xml:space="preserve" dy="1em" x="0" class="row">Audit logs</tspan></text></g></g></g><g class="nodes"><g class="node default default flowchart-label" id="flowchart-super_admin-0" data-node="true" data-id="super_admin" transform="translate(265.3671875, 959.0837783813477)"><rect class="basic label-container" style="" rx="0" ry="0" x="-52.21484375" y="-17" width="104.4296875" height="34"></rect><g class="label" style="" transform="translate(0, -9.5)"><rect></rect><text style=""><tspan xml:space="preserve" dy="1em" x="0" class="row">Super Admin</tspan></text></g></g><g class="node default default flowchart-label" id="flowchart-program_admin-1" data-node="true" data-id="program_admin" transform="translate(1668.2890625, 897.759765625)"><rect class="basic label-container" style="" rx="0" ry="0" x="-61.5234375" y="-17" width="123.046875" height="34"></rect><g class="label" style="" transform="translate(0, -9.5)"><rect></rect><text style=""><tspan xml:space="preserve" dy="1em" x="0" class="row">Program Admin</tspan></text></g></g><g class="node default default flowchart-label" id="flowchart-attendee-2" data-node="true" data-id="attendee" transform="translate(1000.31640625, 2016.7712783813477)"><rect class="basic label-container" style="" rx="0" ry="0" x="-72.45703125" y="-17" width="144.9140625" height="34"></rect><g class="label" style="" transform="translate(0, -9.5)"><rect></rect><text style=""><tspan xml:space="preserve" dy="1em" x="0" class="row">External Attendee</tspan></text></g></g><g class="node default note flowchart-label" id="flowchart-note_template-3" data-node="true" data-id="note_template" transform="translate(265.3671875, 1043.0837783813477)"><rect class="basic label-container" style="" rx="0" ry="0" x="-265.3671875" y="-17" width="530.734375" height="34"></rect><g class="label" style="" transform="translate(0, -9.5)"><rect></rect><text style=""><tspan xml:space="preserve" dy="1em" x="0" class="row">Note: Attendance Sheet Generation follows fixed DICT template layout.</tspan></text></g></g><g class="node default default flowchart-label" id="flowchart-p1-4" data-node="true" data-id="p1" transform="translate(2364.77734375, 110.453125)"><circle style="" rx="0" ry="0" r="110.453125" width="220.90625" height="34"></circle><g class="label" style="" transform="translate(0, -9.5)"><rect></rect><text style=""><tspan xml:space="preserve" dy="1em" x="0" class="row">1.0 Authenticate Admin User</tspan></text></g></g><g class="node default default flowchart-label" id="flowchart-p2-5" data-node="true" data-id="p2" transform="translate(2364.77734375, 442.82421875)"><circle style="" rx="0" ry="0" r="171.91796875" width="343.8359375" height="34"></circle><g class="label" style="" transform="translate(0, -9.5)"><rect></rect><text style=""><tspan xml:space="preserve" dy="1em" x="0" class="row">2.0 Manage Users, Programs, and Assignments</tspan></text></g></g><g class="node default default flowchart-label" id="flowchart-p3-6" data-node="true" data-id="p3" transform="translate(2364.77734375, 840.2224502563477)"><circle style="" rx="0" ry="0" r="74.08984375" width="148.1796875" height="34"></circle><g class="label" style="" transform="translate(0, -9.5)"><rect></rect><text style=""><tspan xml:space="preserve" dy="1em" x="0" class="row">3.0 Manage Events</tspan></text></g></g><g class="node default default flowchart-label" id="flowchart-p4-7" data-node="true" data-id="p4" transform="translate(1000.31640625, 897.759765625)"><circle style="" rx="0" ry="0" r="163.72265625" width="327.4453125" height="34"></circle><g class="label" style="" transform="translate(0, -9.5)"><rect></rect><text style=""><tspan xml:space="preserve" dy="1em" x="0" class="row">4.0 Generate Attendance Link and QR Code</tspan></text></g></g><g class="node default default flowchart-label" id="flowchart-p5-8" data-node="true" data-id="p5" transform="translate(1668.2890625, 2062.802734375)"><circle style="" rx="0" ry="0" r="131.2109375" width="262.421875" height="34"></circle><g class="label" style="" transform="translate(0, -9.5)"><rect></rect><text style=""><tspan xml:space="preserve" dy="1em" x="0" class="row">5.0 Collect Attendance Submission</tspan></text></g></g><g class="node default default flowchart-label" id="flowchart-p6-9" data-node="true" data-id="p6" transform="translate(2364.77734375, 1872.341796875)"><circle style="" rx="0" ry="0" r="160.53125" width="321.0625" height="34"></circle><g class="label" style="" transform="translate(0, -9.5)"><rect></rect><text style=""><tspan xml:space="preserve" dy="1em" x="0" class="row">6.0 Validate and Store Attendance Records</tspan></text></g></g><g class="node default default flowchart-label" id="flowchart-p7-10" data-node="true" data-id="p7" transform="translate(2364.77734375, 1447.728515625)"><circle style="" rx="0" ry="0" r="214.08203125" width="428.1640625" height="34"></circle><g class="label" style="" transform="translate(0, -9.5)"><rect></rect><text style=""><tspan xml:space="preserve" dy="1em" x="0" class="row">7.0 Generate Dashboard, Reports, and Attendance Sheets</tspan></text></g></g><g class="node default default flowchart-label" id="flowchart-p8-11" data-node="true" data-id="p8" transform="translate(1000.31640625, 1198.646484375)"><circle style="" rx="0" ry="0" r="87.1640625" width="174.328125" height="34"></circle><g class="label" style="" transform="translate(0, -9.5)"><rect></rect><text style=""><tspan xml:space="preserve" dy="1em" x="0" class="row">8.0 Manage Audit Trail</tspan></text></g></g><g class="node default default flowchart-label" id="flowchart-d1-12" label-offset-y="9.515929237796618" data-node="true" data-id="d1" transform="translate(2759.64453125, 50.453125)"><path style="" d="M 0,9.515929237796618 a 38.41015625,9.515929237796618 0,0,0 76.8203125 0 a 38.41015625,9.515929237796618 0,0,0 -76.8203125 0 l 0,43.51592923779662 a 38.41015625,9.515929237796618 0,0,0 76.8203125 0 l 0,-43.51592923779662" transform="translate(-38.41015625,-31.273893856694926)"></path><g class="label" style="" transform="translate(0, -9.5)"><rect></rect><text style=""><tspan xml:space="preserve" dy="1em" x="0" class="row">D1 Users</tspan></text></g></g><g class="node default default flowchart-label" id="flowchart-d2-13" label-offset-y="16.91608900386007" data-node="true" data-id="d2" transform="translate(2759.64453125, 184.1011505126953)"><path style="" d="M 0,16.91608900386007 a 130.78515625,16.91608900386007 0,0,0 261.5703125 0 a 130.78515625,16.91608900386007 0,0,0 -261.5703125 0 l 0,50.916089003860066 a 130.78515625,16.91608900386007 0,0,0 261.5703125 0 l 0,-50.916089003860066" transform="translate(-130.78515625,-42.3741335057901)"></path><g class="label" style="" transform="translate(0, -9.5)"><rect></rect><text style=""><tspan xml:space="preserve" dy="1em" x="0" class="row">D2 Roles and Program Assignments</tspan></text></g></g><g class="node default default flowchart-label" id="flowchart-d3-14" label-offset-y="11.349986349986352" data-node="true" data-id="d3" transform="translate(2759.64453125, 1417.728515625)"><path style="" d="M 0,11.349986349986352 a 51.96875,11.349986349986352 0,0,0 103.9375 0 a 51.96875,11.349986349986352 0,0,0 -103.9375 0 l 0,45.34998634998635 a 51.96875,11.349986349986352 0,0,0 103.9375 0 l 0,-45.34998634998635" transform="translate(-51.96875,-34.02497952497953)"></path><g class="label" style="" transform="translate(0, -9.5)"><rect></rect><text style=""><tspan xml:space="preserve" dy="1em" x="0" class="row">D3 Programs</tspan></text></g></g><g class="node default default flowchart-label" id="flowchart-d4-15" label-offset-y="10.136189662219909" data-node="true" data-id="d4" transform="translate(2759.64453125, 2249.013671875)"><path style="" d="M 0,10.136189662219909 a 42.62109375,10.136189662219909 0,0,0 85.2421875 0 a 42.62109375,10.136189662219909 0,0,0 -85.2421875 0 l 0,44.136189662219905 a 42.62109375,10.136189662219909 0,0,0 85.2421875 0 l 0,-44.136189662219905" transform="translate(-42.62109375,-32.204284493329865)"></path><g class="label" style="" transform="translate(0, -9.5)"><rect></rect><text style=""><tspan xml:space="preserve" dy="1em" x="0" class="row">D4 Events</tspan></text></g></g><g class="node default default flowchart-label" id="flowchart-d5-16" label-offset-y="14.764061620349047" data-node="true" data-id="d5" transform="translate(2759.64453125, 2370.364044189453)"><path style="" d="M 0,14.764061620349047 a 90.1484375,14.764061620349047 0,0,0 180.296875 0 a 90.1484375,14.764061620349047 0,0,0 -180.296875 0 l 0,48.76406162034905 a 90.1484375,14.764061620349047 0,0,0 180.296875 0 l 0,-48.76406162034905" transform="translate(-90.1484375,-39.14609243052357)"></path><g class="label" style="" transform="translate(0, -9.5)"><rect></rect><text style=""><tspan xml:space="preserve" dy="1em" x="0" class="row">D5 Attendance Records</tspan></text></g></g><g class="node default default flowchart-label" id="flowchart-d6-17" label-offset-y="16.01930848675348" data-node="true" data-id="d6" transform="translate(2759.64453125, 2500.5391006469727)"><path style="" d="M 0,16.01930848675348 a 111.484375,16.01930848675348 0,0,0 222.96875 0 a 111.484375,16.01930848675348 0,0,0 -222.96875 0 l 0,50.01930848675348 a 111.484375,16.01930848675348 0,0,0 222.96875 0 l 0,-50.01930848675348" transform="translate(-111.484375,-41.02896273013022)"></path><g class="label" style="" transform="translate(0, -9.5)"><rect></rect><text style=""><tspan xml:space="preserve" dy="1em" x="0" class="row">D6 Attendance Sheet Exports</tspan></text></g></g><g class="node default default flowchart-label" id="flowchart-d7-18" label-offset-y="11.796501072784288" data-node="true" data-id="d7" transform="translate(2759.64453125, 661.5662002563477)"><path style="" d="M 0,11.796501072784288 a 55.83984375,11.796501072784288 0,0,0 111.6796875 0 a 55.83984375,11.796501072784288 0,0,0 -111.6796875 0 l 0,45.79650107278429 a 55.83984375,11.796501072784288 0,0,0 111.6796875 0 l 0,-45.79650107278429" transform="translate(-55.83984375,-34.694751609176436)"></path><g class="label" style="" transform="translate(0, -9.5)"><rect></rect><text style=""><tspan xml:space="preserve" dy="1em" x="0" class="row">D7 Audit Logs</tspan></text></g></g></g></g></g></svg>