<svg id="mermaid-1782973023316" width="2480.125" xmlns="http://www.w3.org/2000/svg" xmlns:xlink="http://www.w3.org/1999/xlink" height="2549.306640625" viewBox="-8 -8 2480.125 2549.306640625" role="graphics-document document" aria-roledescription="flowchart-v2">
<rect x="-100000" y="-100000" width="200000" height="200000" fill="#000000"/>
<style>#mermaid-1782973023316{font-family:"trebuchet ms",verdana,arial,sans-serif;font-size:16px;fill:#ccc;}#mermaid-1782973023316 .error-icon{fill:#a44141;}#mermaid-1782973023316 .error-text{fill:#ddd;stroke:#ddd;}#mermaid-1782973023316 .edge-thickness-normal{stroke-width:2px;}#mermaid-1782973023316 .edge-thickness-thick{stroke-width:3.5px;}#mermaid-1782973023316 .edge-pattern-solid{stroke-dasharray:0;}#mermaid-1782973023316 .edge-pattern-dashed{stroke-dasharray:3;}#mermaid-1782973023316 .edge-pattern-dotted{stroke-dasharray:2;}#mermaid-1782973023316 .marker{fill:lightgrey;stroke:lightgrey;}#mermaid-1782973023316 .marker.cross{stroke:lightgrey;}#mermaid-1782973023316 svg{font-family:"trebuchet ms",verdana,arial,sans-serif;font-size:16px;}#mermaid-1782973023316 .label{font-family:"trebuchet ms",verdana,arial,sans-serif;color:#ccc;}#mermaid-1782973023316 .cluster-label text{fill:#F9FFFE;}#mermaid-1782973023316 .cluster-label span,#mermaid-1782973023316 p{color:#F9FFFE;}#mermaid-1782973023316 .label text,#mermaid-1782973023316 span,#mermaid-1782973023316 p{fill:#ccc;color:#ccc;}#mermaid-1782973023316 .node rect,#mermaid-1782973023316 .node circle,#mermaid-1782973023316 .node ellipse,#mermaid-1782973023316 .node polygon,#mermaid-1782973023316 .node path{fill:#1f2020;stroke:#81B1DB;stroke-width:1px;}#mermaid-1782973023316 .flowchart-label text{text-anchor:middle;}#mermaid-1782973023316 .node .katex path{fill:#000;stroke:#000;stroke-width:1px;}#mermaid-1782973023316 .node .label{text-align:center;}#mermaid-1782973023316 .node.clickable{cursor:pointer;}#mermaid-1782973023316 .arrowheadPath{fill:lightgrey;}#mermaid-1782973023316 .edgePath .path{stroke:lightgrey;stroke-width:2.0px;}#mermaid-1782973023316 .flowchart-link{stroke:lightgrey;fill:none;}#mermaid-1782973023316 .edgeLabel{background-color:hsl(0, 0%, 34.4117647059%);text-align:center;}#mermaid-1782973023316 .edgeLabel rect{opacity:0.5;background-color:hsl(0, 0%, 34.4117647059%);fill:hsl(0, 0%, 34.4117647059%);}#mermaid-1782973023316 .labelBkg{background-color:rgba(87.75, 87.75, 87.75, 0.5);}#mermaid-1782973023316 .cluster rect{fill:hsl(180, 1.5873015873%, 28.3529411765%);stroke:rgba(255, 255, 255, 0.25);stroke-width:1px;}#mermaid-1782973023316 .cluster text{fill:#F9FFFE;}#mermaid-1782973023316 .cluster span,#mermaid-1782973023316 p{color:#F9FFFE;}#mermaid-1782973023316 div.mermaidTooltip{position:absolute;text-align:center;max-width:200px;padding:2px;font-family:"trebuchet ms",verdana,arial,sans-serif;font-size:12px;background:hsl(20, 1.5873015873%, 12.3529411765%);border:1px solid rgba(255, 255, 255, 0.25);border-radius:2px;pointer-events:none;z-index:100;}#mermaid-1782973023316 .flowchartTitleText{text-anchor:middle;font-size:18px;fill:#ccc;}#mermaid-1782973023316 :root{--mermaid-font-family:"trebuchet ms",verdana,arial,sans-serif;}</style><g><marker id="mermaid-1782973023316_flowchart-pointEnd" class="marker flowchart" viewBox="0 0 10 10" refX="6" refY="5" markerUnits="userSpaceOnUse" markerWidth="12" markerHeight="12" orient="auto"><path d="M 0 0 L 10 5 L 0 10 z" class="arrowMarkerPath" style="stroke-width: 1; stroke-dasharray: 1, 0;"></path></marker><marker id="mermaid-1782973023316_flowchart-pointStart" class="marker flowchart" viewBox="0 0 10 10" refX="4.5" refY="5" markerUnits="userSpaceOnUse" markerWidth="12" markerHeight="12" orient="auto"><path d="M 0 5 L 10 10 L 10 0 z" class="arrowMarkerPath" style="stroke-width: 1; stroke-dasharray: 1, 0;"></path></marker><marker id="mermaid-1782973023316_flowchart-circleEnd" class="marker flowchart" viewBox="0 0 10 10" refX="11" refY="5" markerUnits="userSpaceOnUse" markerWidth="11" markerHeight="11" orient="auto"><circle cx="5" cy="5" r="5" class="arrowMarkerPath" style="stroke-width: 1; stroke-dasharray: 1, 0;"></circle></marker><marker id="mermaid-1782973023316_flowchart-circleStart" class="marker flowchart" viewBox="0 0 10 10" refX="-1" refY="5" markerUnits="userSpaceOnUse" markerWidth="11" markerHeight="11" orient="auto"><circle cx="5" cy="5" r="5" class="arrowMarkerPath" style="stroke-width: 1; stroke-dasharray: 1, 0;"></circle></marker><marker id="mermaid-1782973023316_flowchart-crossEnd" class="marker cross flowchart" viewBox="0 0 11 11" refX="12" refY="5.2" markerUnits="userSpaceOnUse" markerWidth="11" markerHeight="11" orient="auto"><path d="M 1,1 l 9,9 M 10,1 l -9,9" class="arrowMarkerPath" style="stroke-width: 2; stroke-dasharray: 1, 0;"></path></marker><marker id="mermaid-1782973023316_flowchart-crossStart" class="marker cross flowchart" viewBox="0 0 11 11" refX="-1" refY="5.2" markerUnits="userSpaceOnUse" markerWidth="11" markerHeight="11" orient="auto"><path d="M 1,1 l 9,9 M 10,1 l -9,9" class="arrowMarkerPath" style="stroke-width: 2; stroke-dasharray: 1, 0;"></path></marker><g class="root"><g class="clusters"></g><g class="edgePaths"><path d="M56.044,989.476L89.597,840.514C123.149,691.552,190.254,393.628,276.582,244.665C362.91,95.703,468.461,95.703,579.61,95.703C690.759,95.703,807.507,95.703,918.835,95.703C1030.164,95.703,1136.074,95.703,1240.164,95.703C1344.254,95.703,1446.523,95.703,1543.326,97.432C1640.129,99.16,1731.466,102.618,1777.134,104.346L1822.802,106.075" id="L-super_admin-p1-0" class=" edge-thickness-normal edge-pattern-solid flowchart-link LS-super_admin LE-p1" style="fill:none;" marker-end="url(#mermaid-1782973023316_flowchart-pointEnd)"></path><path d="M1247.694,1158.346L1297.877,1008.936C1348.061,859.527,1448.427,560.708,1545.574,393.047C1642.722,225.386,1736.651,188.884,1783.616,170.633L1830.58,152.382" id="L-program_admin-p1-0" class=" edge-thickness-normal edge-pattern-solid flowchart-link LS-program_admin LE-p1" style="fill:none;" marker-end="url(#mermaid-1782973023316_flowchart-pointEnd)"></path><path d="M2048.14,73.413L2069.709,66.128C2091.278,58.843,2134.416,44.273,2174.666,38.187C2214.917,32.101,2252.279,34.5,2270.96,35.699L2289.641,36.898" id="L-p1-d1-0" class=" edge-thickness-normal edge-pattern-solid flowchart-link LS-p1 LE-d1" style="fill:none;" marker-start="url(#mermaid-1782973023316_flowchart-pointStart)" marker-end="url(#mermaid-1782973023316_flowchart-pointEnd)"></path><path d="M2054.225,110.973L2074.78,111.065C2095.335,111.158,2136.445,111.342,2161.042,114.641C2185.639,117.939,2193.724,124.352,2197.767,127.558L2201.809,130.764" id="L-p1-d2-0" class=" edge-thickness-normal edge-pattern-solid flowchart-link LS-p1 LE-d2" style="fill:none;" marker-start="url(#mermaid-1782973023316_flowchart-pointStart)" marker-end="url(#mermaid-1782973023316_flowchart-pointEnd)"></path><path d="M2016.308,188.821L2043.182,215.88C2070.057,242.938,2123.806,297.055,2173.542,372.684C2223.278,448.314,2269.002,545.456,2291.864,594.027L2314.726,642.598" id="L-p1-d7-0" class=" edge-thickness-normal edge-pattern-solid flowchart-link LS-p1 LE-d7" style="fill:none;" marker-end="url(#mermaid-1782973023316_flowchart-pointEnd)"></path><path d="M58.402,989.476L91.562,898.368C124.721,807.259,191.04,625.042,276.975,533.933C362.91,442.824,468.461,442.824,579.61,442.824C690.759,442.824,807.507,442.824,918.835,442.824C1030.164,442.824,1136.074,442.824,1240.164,442.824C1344.254,442.824,1446.523,442.824,1533.068,442.824C1619.614,442.824,1690.434,442.824,1725.844,442.824L1761.255,442.824" id="L-super_admin-p2-0" class=" edge-thickness-normal edge-pattern-solid flowchart-link LS-super_admin LE-p2" style="fill:none;" marker-end="url(#mermaid-1782973023316_flowchart-pointEnd)"></path><path d="M2038.181,296.317L2061.41,262.185C2084.639,228.054,2131.097,159.79,2173.05,119.43C2215.003,79.069,2252.452,66.612,2271.176,60.383L2289.901,54.154" id="L-p2-d1-0" class=" edge-thickness-normal edge-pattern-solid flowchart-link LS-p2 LE-d1" style="fill:none;" marker-start="url(#mermaid-1782973023316_flowchart-pointStart)" marker-end="url(#mermaid-1782973023316_flowchart-pointEnd)"></path><path d="M2080.903,337.373L2097.011,325.447C2113.12,313.521,2145.337,289.668,2175.943,267.858C2206.548,246.049,2235.542,226.282,2250.039,216.399L2264.536,206.516" id="L-p2-d2-0" class=" edge-thickness-normal edge-pattern-solid flowchart-link LS-p2 LE-d2" style="fill:none;" marker-start="url(#mermaid-1782973023316_flowchart-pointStart)" marker-end="url(#mermaid-1782973023316_flowchart-pointEnd)"></path><path d="M1995.338,610.671L2025.707,700.311C2056.077,789.952,2116.816,969.233,2169.356,1096.597C2221.897,1223.961,2266.239,1299.408,2288.41,1337.131L2310.581,1374.855" id="L-p2-d3-0" class=" edge-thickness-normal edge-pattern-solid flowchart-link LS-p2 LE-d3" style="fill:none;" marker-start="url(#mermaid-1782973023316_flowchart-pointStart)" marker-end="url(#mermaid-1782973023316_flowchart-pointEnd)"></path><path d="M2100.785,499.484L2113.58,503.951C2126.375,508.417,2151.965,517.35,2184.305,541.714C2216.644,566.077,2255.734,605.872,2275.278,625.769L2294.823,645.666" id="L-p2-d7-0" class=" edge-thickness-normal edge-pattern-solid flowchart-link LS-p2 LE-d7" style="fill:none;" marker-end="url(#mermaid-1782973023316_flowchart-pointEnd)"></path><path d="M64.348,989.476L96.516,944.403C128.685,899.33,193.022,809.184,277.966,764.11C362.91,719.037,468.461,719.037,579.61,719.037C690.759,719.037,807.507,719.037,918.835,719.037C1030.164,719.037,1136.074,719.037,1240.164,719.037C1344.254,719.037,1446.523,719.037,1549.442,724.325C1652.36,729.614,1755.927,740.19,1807.71,745.478L1859.494,750.767" id="L-super_admin-p3-0" class=" edge-thickness-normal edge-pattern-solid flowchart-link LS-super_admin LE-p3" style="fill:none;" marker-end="url(#mermaid-1782973023316_flowchart-pointEnd)"></path><path d="M1256.074,1158.346L1304.861,1099.482C1353.647,1040.618,1451.22,922.891,1551.814,857.868C1652.408,792.844,1756.023,780.525,1807.831,774.365L1859.638,768.205" id="L-program_admin-p3-0" class=" edge-thickness-normal edge-pattern-solid flowchart-link LS-program_admin LE-p3" style="fill:none;" marker-end="url(#mermaid-1782973023316_flowchart-pointEnd)"></path><path d="M1975.803,688.766L2009.428,625.655C2043.054,562.544,2110.304,436.321,2161.756,356.251C2213.208,276.18,2248.862,242.263,2266.689,225.305L2284.516,208.346" id="L-p3-d2-0" class=" edge-thickness-normal edge-pattern-solid flowchart-link LS-p3 LE-d2" style="fill:none;" marker-start="url(#mermaid-1782973023316_flowchart-pointStart)" marker-end="url(#mermaid-1782973023316_flowchart-pointEnd)"></path><path d="M1978.488,827.4L2011.665,884.252C2044.843,941.105,2111.199,1054.809,2166.248,1146.094C2221.296,1237.379,2265.038,1306.243,2286.909,1340.676L2308.779,1375.108" id="L-p3-d3-0" class=" edge-thickness-normal edge-pattern-solid flowchart-link LS-p3 LE-d3" style="fill:none;" marker-start="url(#mermaid-1782973023316_flowchart-pointStart)" marker-end="url(#mermaid-1782973023316_flowchart-pointEnd)"></path><path d="M1955.605,836.351L1992.597,1003.724C2029.589,1171.096,2103.572,1505.841,2164.118,1733.792C2224.664,1961.743,2271.773,2082.9,2295.327,2143.478L2318.882,2204.057" id="L-p3-d4-0" class=" edge-thickness-normal edge-pattern-solid flowchart-link LS-p3 LE-d4" style="fill:none;" marker-start="url(#mermaid-1782973023316_flowchart-pointStart)" marker-end="url(#mermaid-1782973023316_flowchart-pointEnd)"></path><path d="M1993.844,709.605L2024.463,682.385C2055.081,655.165,2116.318,600.724,2165.586,590.271C2214.853,579.818,2252.152,613.352,2270.801,630.119L2289.451,646.886" id="L-p3-d7-0" class=" edge-thickness-normal edge-pattern-solid flowchart-link LS-p3 LE-d7" style="fill:none;" marker-end="url(#mermaid-1782973023316_flowchart-pointEnd)"></path><path d="M104.43,1016.13L129.918,1020.842C155.406,1025.554,206.383,1034.978,258.614,1050.749C310.845,1066.52,364.331,1088.638,391.074,1099.697L417.817,1110.755" id="L-super_admin-p4-0" class=" edge-thickness-normal edge-pattern-solid flowchart-link LS-super_admin LE-p4" style="fill:none;" marker-end="url(#mermaid-1782973023316_flowchart-pointEnd)"></path><path d="M1180.461,1190.81L1137.76,1201.542C1095.059,1212.275,1009.656,1233.741,936.047,1237.427C862.438,1241.112,800.621,1227.017,769.713,1219.969L738.805,1212.921" id="L-program_admin-p4-0" class=" edge-thickness-normal edge-pattern-solid flowchart-link LS-program_admin LE-p4" style="fill:none;" marker-end="url(#mermaid-1782973023316_flowchart-pointEnd)"></path><path d="M627.563,1335.661L677.012,1483.693C726.46,1631.725,825.357,1927.789,927.761,2075.821C1030.164,2223.854,1136.074,2223.854,1240.164,2223.854C1344.254,2223.854,1446.523,2223.854,1562.605,2223.854C1678.686,2223.854,1808.579,2223.854,1913.373,2223.854C2018.167,2223.854,2097.861,2223.854,2155.69,2225.804C2213.52,2227.755,2249.485,2231.656,2267.467,2233.607L2285.45,2235.557" id="L-p4-d4-0" class=" edge-thickness-normal edge-pattern-solid flowchart-link LS-p4 LE-d4" style="fill:none;" marker-start="url(#mermaid-1782973023316_flowchart-pointStart)" marker-end="url(#mermaid-1782973023316_flowchart-pointEnd)"></path><path d="M664.8,1039.101L708.042,974.208C751.285,909.315,837.769,779.528,933.967,714.635C1030.164,649.742,1136.074,649.742,1240.164,649.742C1344.254,649.742,1446.523,649.742,1562.605,649.742C1678.686,649.742,1808.579,649.742,1913.373,649.742C2018.167,649.742,2097.861,649.742,2153.5,652.968C2209.139,656.194,2240.723,662.646,2256.515,665.872L2272.307,669.098" id="L-p4-d7-0" class=" edge-thickness-normal edge-pattern-solid flowchart-link LS-p4 LE-d7" style="fill:none;" marker-end="url(#mermaid-1782973023316_flowchart-pointEnd)"></path><path d="M415.838,1217.611L389.425,1224.668C363.012,1231.726,310.186,1245.842,252.431,1214.172C194.675,1182.503,131.991,1105.05,100.649,1066.323L69.307,1027.596" id="L-p4-super_admin-0" class=" edge-thickness-normal edge-pattern-solid flowchart-link LS-p4 LE-super_admin" style="fill:none;" marker-end="url(#mermaid-1782973023316_flowchart-pointEnd)"></path><path d="M726.677,1116.199L759.607,1103.441C792.536,1090.683,858.395,1065.168,936.833,1071.845C1015.271,1078.523,1106.287,1117.394,1151.796,1136.829L1197.304,1156.264" id="L-p4-program_admin-0" class=" edge-thickness-normal edge-pattern-solid flowchart-link LS-p4 LE-program_admin" style="fill:none;" marker-end="url(#mermaid-1782973023316_flowchart-pointEnd)"></path><path d="M646.469,1993.97L692.766,2004.582C739.064,2015.194,831.659,2036.418,908.16,2047.03C984.66,2057.643,1045.067,2057.643,1075.27,2057.643L1105.473,2057.643" id="L-attendee-p5-0" class=" edge-thickness-normal edge-pattern-solid flowchart-link LS-attendee LE-p5" style="fill:none;" marker-end="url(#mermaid-1782973023316_flowchart-pointEnd)"></path><path d="M1358.683,2128.471L1390.368,2147.701C1422.053,2166.932,1485.423,2205.393,1582.055,2224.623C1678.686,2243.854,1808.579,2243.854,1913.373,2243.854C2018.167,2243.854,2097.861,2243.854,2155.685,2243.496C2213.51,2243.138,2249.465,2242.422,2267.442,2242.064L2285.42,2241.706" id="L-p5-d4-0" class=" edge-thickness-normal edge-pattern-solid flowchart-link LS-p5 LE-d4" style="fill:none;" marker-start="url(#mermaid-1782973023316_flowchart-pointStart)" marker-end="url(#mermaid-1782973023316_flowchart-pointEnd)"></path><path d="M1329.53,1959.908L1366.074,1919.111C1402.618,1878.314,1475.705,1796.719,1551.448,1771.218C1627.191,1745.717,1705.588,1776.308,1744.787,1791.604L1783.986,1806.9" id="L-p5-p6-0" class=" edge-thickness-normal edge-pattern-solid flowchart-link LS-p5 LE-p6" style="fill:none;" marker-end="url(#mermaid-1782973023316_flowchart-pointEnd)"></path><path d="M2019.888,2011.651L2046.166,2058.281C2072.444,2104.91,2124.999,2198.169,2169.298,2238.936C2213.596,2279.704,2249.637,2267.98,2267.658,2262.118L2285.679,2256.256" id="L-p6-d4-0" class=" edge-thickness-normal edge-pattern-solid flowchart-link LS-p6 LE-d4" style="fill:none;" marker-start="url(#mermaid-1782973023316_flowchart-pointStart)" marker-end="url(#mermaid-1782973023316_flowchart-pointEnd)"></path><path d="M2014.397,2014.611L2041.59,2067.414C2068.783,2120.217,2123.169,2225.822,2160.435,2280.608C2197.7,2335.394,2217.846,2339.361,2227.918,2341.345L2237.991,2343.328" id="L-p6-d5-0" class=" edge-thickness-normal edge-pattern-solid flowchart-link LS-p6 LE-d5" style="fill:none;" marker-start="url(#mermaid-1782973023316_flowchart-pointStart)" marker-end="url(#mermaid-1782973023316_flowchart-pointEnd)"></path><path d="M1972.222,1710.238L2006.444,1551.093C2040.666,1391.948,2109.11,1073.659,2159.23,905.106C2209.349,736.554,2241.144,717.738,2257.041,708.331L2272.939,698.923" id="L-p6-d7-0" class=" edge-thickness-normal edge-pattern-solid flowchart-link LS-p6 LE-d7" style="fill:none;" marker-end="url(#mermaid-1782973023316_flowchart-pointEnd)"></path><path d="M1778.056,1873.254L1739.846,1874.7C1701.635,1876.146,1625.214,1879.039,1535.869,1880.485C1446.523,1881.932,1344.254,1881.932,1240.164,1881.932C1136.074,1881.932,1030.164,1881.932,930.086,1894.771C830.009,1907.61,735.763,1933.289,688.641,1946.128L641.518,1958.968" id="L-p6-attendee-0" class=" edge-thickness-normal edge-pattern-solid flowchart-link LS-p6 LE-attendee" style="fill:none;" marker-end="url(#mermaid-1782973023316_flowchart-pointEnd)"></path><path d="M61.702,1023.476L94.312,1081.908C126.921,1140.34,192.14,1257.204,277.525,1315.636C362.91,1374.068,468.461,1374.068,579.61,1374.068C690.759,1374.068,807.507,1374.068,918.835,1374.068C1030.164,1374.068,1136.074,1374.068,1240.164,1374.068C1344.254,1374.068,1446.523,1374.068,1526.593,1379.155C1606.663,1384.241,1664.533,1394.414,1693.468,1399.5L1722.404,1404.587" id="L-super_admin-p7-0" class=" edge-thickness-normal edge-pattern-solid flowchart-link LS-super_admin LE-p7" style="fill:none;" marker-end="url(#mermaid-1782973023316_flowchart-pointEnd)"></path><path d="M1264.838,1192.346L1312.164,1227.549C1359.49,1262.753,1454.141,1333.161,1530.032,1371.223C1605.922,1409.286,1663.052,1415.004,1691.616,1417.862L1720.181,1420.721" id="L-program_admin-p7-0" class=" edge-thickness-normal edge-pattern-solid flowchart-link LS-program_admin LE-p7" style="fill:none;" marker-end="url(#mermaid-1782973023316_flowchart-pointEnd)"></path><path d="M1367.16,1442.568L1397.432,1442.568C1427.704,1442.568,1488.249,1442.568,1546.904,1442.568C1605.559,1442.568,1662.325,1442.568,1690.708,1442.568L1719.091,1442.568" id="L-template-p7-0" class=" edge-thickness-normal edge-pattern-solid flowchart-link LS-template LE-p7" style="fill:none;" marker-end="url(#mermaid-1782973023316_flowchart-pointEnd)"></path><path d="M1984.61,1228.093L2016.768,1078.606C2048.925,929.119,2113.24,630.145,2164.207,460.27C2215.173,290.394,2252.792,249.616,2271.602,229.227L2290.411,208.838" id="L-p7-d2-0" class=" edge-thickness-normal edge-pattern-solid flowchart-link LS-p7 LE-d2" style="fill:none;" marker-start="url(#mermaid-1782973023316_flowchart-pointStart)" marker-end="url(#mermaid-1782973023316_flowchart-pointEnd)"></path><path d="M2157.855,1442.568L2161.138,1442.568C2164.421,1442.568,2170.988,1442.568,2190.707,1439.403C2210.425,1436.238,2243.296,1429.908,2259.731,1426.743L2276.167,1423.578" id="L-p7-d3-0" class=" edge-thickness-normal edge-pattern-solid flowchart-link LS-p7 LE-d3" style="fill:none;" marker-start="url(#mermaid-1782973023316_flowchart-pointStart)" marker-end="url(#mermaid-1782973023316_flowchart-pointEnd)"></path><path d="M1996.676,1654.089L2026.823,1763.645C2056.969,1873.202,2117.262,2092.315,2165.465,2193.679C2213.667,2295.044,2249.78,2278.661,2267.836,2270.47L2285.892,2262.278" id="L-p7-d4-0" class=" edge-thickness-normal edge-pattern-solid flowchart-link LS-p7 LE-d4" style="fill:none;" marker-start="url(#mermaid-1782973023316_flowchart-pointStart)" marker-end="url(#mermaid-1782973023316_flowchart-pointEnd)"></path><path d="M1990.739,1655.633L2021.875,1782.56C2053.011,1909.486,2115.283,2163.338,2156.594,2284.377C2197.904,2405.417,2218.254,2393.644,2228.429,2387.757L2238.604,2381.87" id="L-p7-d5-0" class=" edge-thickness-normal edge-pattern-solid flowchart-link LS-p7 LE-d5" style="fill:none;" marker-start="url(#mermaid-1782973023316_flowchart-pointStart)" marker-end="url(#mermaid-1782973023316_flowchart-pointEnd)"></path><path d="M1986.015,1651.305L2017.938,1791.467C2049.861,1931.629,2113.708,2211.953,2152.131,2352.116C2190.555,2492.278,2203.555,2492.278,2210.055,2492.278L2216.555,2492.278" id="L-p7-d6-0" class=" edge-thickness-normal edge-pattern-solid flowchart-link LS-p7 LE-d6" style="fill:none;" marker-end="url(#mermaid-1782973023316_flowchart-pointEnd)"></path><path d="M2010.69,1241.035L2038.5,1163.424C2066.311,1085.813,2121.933,930.591,2165.685,841.5C2209.436,752.409,2241.318,729.45,2257.258,717.97L2273.199,706.49" id="L-p7-d7-0" class=" edge-thickness-normal edge-pattern-solid flowchart-link LS-p7 LE-d7" style="fill:none;" marker-end="url(#mermaid-1782973023316_flowchart-pointEnd)"></path><path d="M1748.82,1541.881L1715.482,1559.338C1682.144,1576.795,1615.469,1611.71,1530.996,1629.168C1446.523,1646.625,1344.254,1646.625,1240.164,1646.625C1136.074,1646.625,1030.164,1646.625,918.835,1646.625C807.507,1646.625,690.759,1646.625,579.61,1646.625C468.461,1646.625,362.91,1646.625,277.122,1543.608C191.333,1440.591,125.307,1234.557,92.293,1131.54L59.28,1028.524" id="L-p7-super_admin-0" class=" edge-thickness-normal edge-pattern-solid flowchart-link LS-p7 LE-super_admin" style="fill:none;" marker-end="url(#mermaid-1782973023316_flowchart-pointEnd)"></path><path d="M1754.847,1552.626L1720.504,1573.209C1686.162,1593.792,1617.478,1634.959,1534.198,1575.665C1450.918,1516.372,1353.043,1356.618,1304.106,1276.742L1255.168,1196.865" id="L-p7-program_admin-0" class=" edge-thickness-normal edge-pattern-solid flowchart-link LS-p7 LE-program_admin" style="fill:none;" marker-end="url(#mermaid-1782973023316_flowchart-pointEnd)"></path><path d="M68.696,989.476L100.14,957.042C131.584,924.607,194.471,859.738,263.745,836.812C333.019,813.886,408.678,832.903,446.507,842.411L484.337,851.919" id="L-super_admin-p8-0" class=" edge-thickness-normal edge-pattern-solid flowchart-link LS-super_admin LE-p8" style="fill:none;" marker-end="url(#mermaid-1782973023316_flowchart-pointEnd)"></path><path d="M666.476,874.459L709.439,874.459C752.402,874.459,838.328,874.459,934.246,874.459C1030.164,874.459,1136.074,874.459,1240.164,874.459C1344.254,874.459,1446.523,874.459,1562.605,874.459C1678.686,874.459,1808.579,874.459,1913.373,874.459C2018.167,874.459,2097.861,874.459,2158.451,848.516C2219.041,822.574,2260.527,770.689,2281.27,744.747L2302.013,718.804" id="L-p8-d7-0" class=" edge-thickness-normal edge-pattern-solid flowchart-link LS-p8 LE-d7" style="fill:none;" marker-start="url(#mermaid-1782973023316_flowchart-pointStart)" marker-end="url(#mermaid-1782973023316_flowchart-pointEnd)"></path><path d="M493.463,907.768L454.112,924.04C414.762,940.313,336.061,972.858,272.105,989.259C208.149,1005.66,158.94,1005.918,134.335,1006.046L109.73,1006.175" id="L-p8-super_admin-0" class=" edge-thickness-normal edge-pattern-solid flowchart-link LS-p8 LE-super_admin" style="fill:none;" marker-end="url(#mermaid-1782973023316_flowchart-pointEnd)"></path></g><g class="edgeLabels"><g class="edgeLabel" transform="translate(924.25390625, 95.703125)"><g class="label" transform="translate(-61.5625, -9.5)"><rect rx="0" ry="0" width="123.05278015136719" height="19.000072479248047"></rect><text style=""><tspan xml:space="preserve" dy="1em" x="0" class="row">Login credentials</tspan></text></g></g><g class="edgeLabel" transform="translate(1548.79296875, 261.888671875)"><g class="label" transform="translate(-61.5625, -9.5)"><rect rx="0" ry="0" width="123.05278015136719" height="19.000072479248047"></rect><text style=""><tspan xml:space="preserve" dy="1em" x="0" class="row">Login credentials</tspan></text></g></g><g class="edgeLabel"><g class="label" transform="translate(0, 0)"><rect rx="0" ry="0" width="0" height="0"></rect><text style=""><tspan xml:space="preserve" dy="1em" x="0" class="row"></tspan></text></g></g><g class="edgeLabel"><g class="label" transform="translate(0, 0)"><rect rx="0" ry="0" width="0" height="0"></rect><text style=""><tspan xml:space="preserve" dy="1em" x="0" class="row"></tspan></text></g></g><g class="edgeLabel"><g class="label" transform="translate(0, 0)"><rect rx="0" ry="0" width="0" height="0"></rect><text style=""><tspan xml:space="preserve" dy="1em" x="0" class="row"></tspan></text></g></g><g class="edgeLabel" transform="translate(924.25390625, 442.82421875)"><g class="label" transform="translate(-128.16015625, -9.5)"><rect rx="0" ry="0" width="256.16522216796875" height="19.000072479248047"></rect><text style=""><tspan xml:space="preserve" dy="1em" x="0" class="row">User, program, assignment requests</tspan></text></g></g><g class="edgeLabel"><g class="label" transform="translate(0, 0)"><rect rx="0" ry="0" width="0" height="0"></rect><text style=""><tspan xml:space="preserve" dy="1em" x="0" class="row"></tspan></text></g></g><g class="edgeLabel"><g class="label" transform="translate(0, 0)"><rect rx="0" ry="0" width="0" height="0"></rect><text style=""><tspan xml:space="preserve" dy="1em" x="0" class="row"></tspan></text></g></g><g class="edgeLabel"><g class="label" transform="translate(0, 0)"><rect rx="0" ry="0" width="0" height="0"></rect><text style=""><tspan xml:space="preserve" dy="1em" x="0" class="row"></tspan></text></g></g><g class="edgeLabel"><g class="label" transform="translate(0, 0)"><rect rx="0" ry="0" width="0" height="0"></rect><text style=""><tspan xml:space="preserve" dy="1em" x="0" class="row"></tspan></text></g></g><g class="edgeLabel" transform="translate(924.25390625, 719.037109375)"><g class="label" transform="translate(-103.37890625, -9.5)"><rect rx="0" ry="0" width="206.63352966308594" height="19.000072479248047"></rect><text style=""><tspan xml:space="preserve" dy="1em" x="0" class="row">Event details/status changes</tspan></text></g></g><g class="edgeLabel" transform="translate(1548.79296875, 805.1640625)"><g class="label" transform="translate(-137.05078125, -9.5)"><rect rx="0" ry="0" width="273.93597412109375" height="19.000072479248047"></rect><text style=""><tspan xml:space="preserve" dy="1em" x="0" class="row">Assigned event details/status changes</tspan></text></g></g><g class="edgeLabel"><g class="label" transform="translate(0, 0)"><rect rx="0" ry="0" width="0" height="0"></rect><text style=""><tspan xml:space="preserve" dy="1em" x="0" class="row"></tspan></text></g></g><g class="edgeLabel"><g class="label" transform="translate(0, 0)"><rect rx="0" ry="0" width="0" height="0"></rect><text style=""><tspan xml:space="preserve" dy="1em" x="0" class="row"></tspan></text></g></g><g class="edgeLabel"><g class="label" transform="translate(0, 0)"><rect rx="0" ry="0" width="0" height="0"></rect><text style=""><tspan xml:space="preserve" dy="1em" x="0" class="row"></tspan></text></g></g><g class="edgeLabel"><g class="label" transform="translate(0, 0)"><rect rx="0" ry="0" width="0" height="0"></rect><text style=""><tspan xml:space="preserve" dy="1em" x="0" class="row"></tspan></text></g></g><g class="edgeLabel" transform="translate(257.359375, 1044.40234375)"><g class="label" transform="translate(-57.1171875, -9.5)"><rect rx="0" ry="0" width="114.16767120361328" height="19.000072479248047"></rect><text style=""><tspan xml:space="preserve" dy="1em" x="0" class="row">QR/link request</tspan></text></g></g><g class="edgeLabel" transform="translate(924.25390625, 1255.20703125)"><g class="label" transform="translate(-90.7109375, -9.5)"><rect rx="0" ry="0" width="181.31398010253906" height="19.000072479248047"></rect><text style=""><tspan xml:space="preserve" dy="1em" x="0" class="row">Assigned QR/link request</tspan></text></g></g><g class="edgeLabel"><g class="label" transform="translate(0, 0)"><rect rx="0" ry="0" width="0" height="0"></rect><text style=""><tspan xml:space="preserve" dy="1em" x="0" class="row"></tspan></text></g></g><g class="edgeLabel"><g class="label" transform="translate(0, 0)"><rect rx="0" ry="0" width="0" height="0"></rect><text style=""><tspan xml:space="preserve" dy="1em" x="0" class="row"></tspan></text></g></g><g class="edgeLabel" transform="translate(257.359375, 1259.95703125)"><g class="label" transform="translate(-127.9296875, -9.5)"><rect rx="0" ry="0" width="255.7057647705078" height="19.000072479248047"></rect><text style=""><tspan xml:space="preserve" dy="1em" x="0" class="row">Public attendance link and QR code</tspan></text></g></g><g class="edgeLabel" transform="translate(924.25390625, 1039.65234375)"><g class="label" transform="translate(-161.51953125, -9.5)"><rect rx="0" ry="0" width="322.84423828125" height="19.000072479248047"></rect><text style=""><tspan xml:space="preserve" dy="1em" x="0" class="row">Assigned public attendance link and QR code</tspan></text></g></g><g class="edgeLabel" transform="translate(924.25390625, 2057.642578125)"><g class="label" transform="translate(-119.234375, -9.5)"><rect rx="0" ry="0" width="238.3259735107422" height="19.000072479248047"></rect><text style=""><tspan xml:space="preserve" dy="1em" x="0" class="row">Open link and submit attendance</tspan></text></g></g><g class="edgeLabel"><g class="label" transform="translate(0, 0)"><rect rx="0" ry="0" width="0" height="0"></rect><text style=""><tspan xml:space="preserve" dy="1em" x="0" class="row"></tspan></text></g></g><g class="edgeLabel" transform="translate(1548.79296875, 1715.125)"><g class="label" transform="translate(-98.55078125, -9.5)"><rect rx="0" ry="0" width="196.9845428466797" height="19.000072479248047"></rect><text style=""><tspan xml:space="preserve" dy="1em" x="0" class="row">Submitted attendance data</tspan></text></g></g><g class="edgeLabel"><g class="label" transform="translate(0, 0)"><rect rx="0" ry="0" width="0" height="0"></rect><text style=""><tspan xml:space="preserve" dy="1em" x="0" class="row"></tspan></text></g></g><g class="edgeLabel"><g class="label" transform="translate(0, 0)"><rect rx="0" ry="0" width="0" height="0"></rect><text style=""><tspan xml:space="preserve" dy="1em" x="0" class="row"></tspan></text></g></g><g class="edgeLabel"><g class="label" transform="translate(0, 0)"><rect rx="0" ry="0" width="0" height="0"></rect><text style=""><tspan xml:space="preserve" dy="1em" x="0" class="row"></tspan></text></g></g><g class="edgeLabel" transform="translate(1241.984375, 1881.931640625)"><g class="label" transform="translate(-123.12890625, -9.5)"><rect rx="0" ry="0" width="246.11085510253906" height="19.000072479248047"></rect><text style=""><tspan xml:space="preserve" dy="1em" x="0" class="row">Validation result and confirmation</tspan></text></g></g><g class="edgeLabel" transform="translate(924.25390625, 1374.068359375)"><g class="label" transform="translate(-117.453125, -9.5)"><rect rx="0" ry="0" width="234.76446533203125" height="19.000072479248047"></rect><text style=""><tspan xml:space="preserve" dy="1em" x="0" class="row">Dashboard/report/sheet request</tspan></text></g></g><g class="edgeLabel" transform="translate(1548.79296875, 1403.568359375)"><g class="label" transform="translate(-150.59765625, -9.5)"><rect rx="0" ry="0" width="301.01287841796875" height="19.000072479248047"></rect><text style=""><tspan xml:space="preserve" dy="1em" x="0" class="row">Assigned dashboard/report/sheet request</tspan></text></g></g><g class="edgeLabel" transform="translate(1548.79296875, 1442.568359375)"><g class="label" transform="translate(-123.8125, -9.5)"><rect rx="0" ry="0" width="247.4752960205078" height="19.000072479248047"></rect><text style=""><tspan xml:space="preserve" dy="1em" x="0" class="row">Required attendance sheet format</tspan></text></g></g><g class="edgeLabel"><g class="label" transform="translate(0, 0)"><rect rx="0" ry="0" width="0" height="0"></rect><text style=""><tspan xml:space="preserve" dy="1em" x="0" class="row"></tspan></text></g></g><g class="edgeLabel"><g class="label" transform="translate(0, 0)"><rect rx="0" ry="0" width="0" height="0"></rect><text style=""><tspan xml:space="preserve" dy="1em" x="0" class="row"></tspan></text></g></g><g class="edgeLabel"><g class="label" transform="translate(0, 0)"><rect rx="0" ry="0" width="0" height="0"></rect><text style=""><tspan xml:space="preserve" dy="1em" x="0" class="row"></tspan></text></g></g><g class="edgeLabel"><g class="label" transform="translate(0, 0)"><rect rx="0" ry="0" width="0" height="0"></rect><text style=""><tspan xml:space="preserve" dy="1em" x="0" class="row"></tspan></text></g></g><g class="edgeLabel"><g class="label" transform="translate(0, 0)"><rect rx="0" ry="0" width="0" height="0"></rect><text style=""><tspan xml:space="preserve" dy="1em" x="0" class="row"></tspan></text></g></g><g class="edgeLabel"><g class="label" transform="translate(0, 0)"><rect rx="0" ry="0" width="0" height="0"></rect><text style=""><tspan xml:space="preserve" dy="1em" x="0" class="row"></tspan></text></g></g><g class="edgeLabel" transform="translate(924.25390625, 1646.625)"><g class="label" transform="translate(-139.73046875, -9.5)"><rect rx="0" ry="0" width="279.2914123535156" height="19.000072479248047"></rect><text style=""><tspan xml:space="preserve" dy="1em" x="0" class="row">Dashboard, reports, attendance sheets</tspan></text></g></g><g class="edgeLabel" transform="translate(1548.79296875, 1676.125)"><g class="label" transform="translate(-140.9609375, -9.5)"><rect rx="0" ry="0" width="281.7526550292969" height="19.000072479248047"></rect><text style=""><tspan xml:space="preserve" dy="1em" x="0" class="row">Assigned reports and sheets, if allowed</tspan></text></g></g><g class="edgeLabel" transform="translate(257.359375, 794.869140625)"><g class="label" transform="translate(-62.390625, -9.5)"><rect rx="0" ry="0" width="124.70860290527344" height="19.000072479248047"></rect><text style=""><tspan xml:space="preserve" dy="1em" x="0" class="row">Audit log request</tspan></text></g></g><g class="edgeLabel"><g class="label" transform="translate(0, 0)"><rect rx="0" ry="0" width="0" height="0"></rect><text style=""><tspan xml:space="preserve" dy="1em" x="0" class="row"></tspan></text></g></g><g class="edgeLabel" transform="translate(257.359375, 1005.40234375)"><g class="label" transform="translate(-36.078125, -9.5)"><rect rx="0" ry="0" width="72.11636352539062" height="19.000072479248047"></rect><text style=""><tspan xml:space="preserve" dy="1em" x="0" class="row">Audit logs</tspan></text></g></g></g><g class="nodes"><g class="node default default flowchart-label" id="flowchart-super_admin-0" data-node="true" data-id="super_admin" transform="translate(52.21484375, 1006.4763565063477)"><rect class="basic label-container" style="" rx="0" ry="0" x="-52.21484375" y="-17" width="104.4296875" height="34"></rect><g class="label" style="" transform="translate(0, -9.5)"><rect></rect><text style=""><tspan xml:space="preserve" dy="1em" x="0" class="row">Super Admin</tspan></text></g></g><g class="node default default flowchart-label" id="flowchart-program_admin-1" data-node="true" data-id="program_admin" transform="translate(1241.984375, 1175.345703125)"><rect class="basic label-container" style="" rx="0" ry="0" x="-61.5234375" y="-17" width="123.046875" height="34"></rect><g class="label" style="" transform="translate(0, -9.5)"><rect></rect><text style=""><tspan xml:space="preserve" dy="1em" x="0" class="row">Program Admin</tspan></text></g></g><g class="node default default flowchart-label" id="flowchart-attendee-2" data-node="true" data-id="attendee" transform="translate(574.01171875, 1977.3611221313477)"><rect class="basic label-container" style="" rx="0" ry="0" x="-72.45703125" y="-17" width="144.9140625" height="34"></rect><g class="label" style="" transform="translate(0, -9.5)"><rect></rect><text style=""><tspan xml:space="preserve" dy="1em" x="0" class="row">External Attendee</tspan></text></g></g><g class="node default default flowchart-label" id="flowchart-template-3" data-node="true" data-id="template" transform="translate(1241.984375, 1442.568359375)"><rect class="basic label-container" style="" rx="0" ry="0" x="-125.17578125" y="-17" width="250.3515625" height="34"></rect><g class="label" style="" transform="translate(0, -9.5)"><rect></rect><text style=""><tspan xml:space="preserve" dy="1em" x="0" class="row">DICT Attendance Sheet Template</tspan></text></g></g><g class="node default default flowchart-label" id="flowchart-p1-4" data-node="true" data-id="p1" transform="translate(1938.47265625, 110.453125)"><circle style="" rx="0" ry="0" r="110.453125" width="220.90625" height="34"></circle><g class="label" style="" transform="translate(0, -9.5)"><rect></rect><text style=""><tspan xml:space="preserve" dy="1em" x="0" class="row">1.0 Authenticate Admin User</tspan></text></g></g><g class="node default default flowchart-label" id="flowchart-p2-5" data-node="true" data-id="p2" transform="translate(1938.47265625, 442.82421875)"><circle style="" rx="0" ry="0" r="171.91796875" width="343.8359375" height="34"></circle><g class="label" style="" transform="translate(0, -9.5)"><rect></rect><text style=""><tspan xml:space="preserve" dy="1em" x="0" class="row">2.0 Manage Users, Programs, and Assignments</tspan></text></g></g><g class="node default default flowchart-label" id="flowchart-p3-6" data-node="true" data-id="p3" transform="translate(1938.47265625, 758.83203125)"><circle style="" rx="0" ry="0" r="74.08984375" width="148.1796875" height="34"></circle><g class="label" style="" transform="translate(0, -9.5)"><rect></rect><text style=""><tspan xml:space="preserve" dy="1em" x="0" class="row">3.0 Manage Events</tspan></text></g></g><g class="node default default flowchart-label" id="flowchart-p4-7" data-node="true" data-id="p4" transform="translate(574.01171875, 1175.345703125)"><circle style="" rx="0" ry="0" r="163.72265625" width="327.4453125" height="34"></circle><g class="label" style="" transform="translate(0, -9.5)"><rect></rect><text style=""><tspan xml:space="preserve" dy="1em" x="0" class="row">4.0 Generate Attendance Link and QR Code</tspan></text></g></g><g class="node default default flowchart-label" id="flowchart-p5-8" data-node="true" data-id="p5" transform="translate(1241.984375, 2057.642578125)"><circle style="" rx="0" ry="0" r="131.2109375" width="262.421875" height="34"></circle><g class="label" style="" transform="translate(0, -9.5)"><rect></rect><text style=""><tspan xml:space="preserve" dy="1em" x="0" class="row">5.0 Collect Attendance Submission</tspan></text></g></g><g class="node default default flowchart-label" id="flowchart-p6-9" data-node="true" data-id="p6" transform="translate(1938.47265625, 1867.181640625)"><circle style="" rx="0" ry="0" r="160.53125" width="321.0625" height="34"></circle><g class="label" style="" transform="translate(0, -9.5)"><rect></rect><text style=""><tspan xml:space="preserve" dy="1em" x="0" class="row">6.0 Validate and Store Attendance Records</tspan></text></g></g><g class="node default default flowchart-label" id="flowchart-p7-10" data-node="true" data-id="p7" transform="translate(1938.47265625, 1442.568359375)"><circle style="" rx="0" ry="0" r="214.08203125" width="428.1640625" height="34"></circle><g class="label" style="" transform="translate(0, -9.5)"><rect></rect><text style=""><tspan xml:space="preserve" dy="1em" x="0" class="row">7.0 Generate Dashboard, Reports, and Attendance Sheets</tspan></text></g></g><g class="node default default flowchart-label" id="flowchart-p8-11" data-node="true" data-id="p8" transform="translate(574.01171875, 874.458984375)"><circle style="" rx="0" ry="0" r="87.1640625" width="174.328125" height="34"></circle><g class="label" style="" transform="translate(0, -9.5)"><rect></rect><text style=""><tspan xml:space="preserve" dy="1em" x="0" class="row">8.0 Manage Audit Trail</tspan></text></g></g><g class="node default default flowchart-label" id="flowchart-d1-12" label-offset-y="9.515929237796618" data-node="true" data-id="d1" transform="translate(2333.33984375, 39.703125)"><path style="" d="M 0,9.515929237796618 a 38.41015625,9.515929237796618 0,0,0 76.8203125 0 a 38.41015625,9.515929237796618 0,0,0 -76.8203125 0 l 0,43.51592923779662 a 38.41015625,9.515929237796618 0,0,0 76.8203125 0 l 0,-43.51592923779662" transform="translate(-38.41015625,-31.273893856694926)"></path><g class="label" style="" transform="translate(0, -9.5)"><rect></rect><text style=""><tspan xml:space="preserve" dy="1em" x="0" class="row">D1 Users</tspan></text></g></g><g class="node default default flowchart-label" id="flowchart-d2-13" label-offset-y="16.91608900386007" data-node="true" data-id="d2" transform="translate(2333.33984375, 163.3511505126953)"><path style="" d="M 0,16.91608900386007 a 130.78515625,16.91608900386007 0,0,0 261.5703125 0 a 130.78515625,16.91608900386007 0,0,0 -261.5703125 0 l 0,50.916089003860066 a 130.78515625,16.91608900386007 0,0,0 261.5703125 0 l 0,-50.916089003860066" transform="translate(-130.78515625,-42.3741335057901)"></path><g class="label" style="" transform="translate(0, -9.5)"><rect></rect><text style=""><tspan xml:space="preserve" dy="1em" x="0" class="row">D2 Roles and Program Assignments</tspan></text></g></g><g class="node default default flowchart-label" id="flowchart-d3-14" label-offset-y="11.349986349986352" data-node="true" data-id="d3" transform="translate(2333.33984375, 1412.568359375)"><path style="" d="M 0,11.349986349986352 a 51.96875,11.349986349986352 0,0,0 103.9375 0 a 51.96875,11.349986349986352 0,0,0 -103.9375 0 l 0,45.34998634998635 a 51.96875,11.349986349986352 0,0,0 103.9375 0 l 0,-45.34998634998635" transform="translate(-51.96875,-34.02497952497953)"></path><g class="label" style="" transform="translate(0, -9.5)"><rect></rect><text style=""><tspan xml:space="preserve" dy="1em" x="0" class="row">D3 Programs</tspan></text></g></g><g class="node default default flowchart-label" id="flowchart-d4-15" label-offset-y="10.136189662219909" data-node="true" data-id="d4" transform="translate(2333.33984375, 2240.752342224121)"><path style="" d="M 0,10.136189662219909 a 42.62109375,10.136189662219909 0,0,0 85.2421875 0 a 42.62109375,10.136189662219909 0,0,0 -85.2421875 0 l 0,44.136189662219905 a 42.62109375,10.136189662219909 0,0,0 85.2421875 0 l 0,-44.136189662219905" transform="translate(-42.62109375,-32.204284493329865)"></path><g class="label" style="" transform="translate(0, -9.5)"><rect></rect><text style=""><tspan xml:space="preserve" dy="1em" x="0" class="row">D4 Events</tspan></text></g></g><g class="node default default flowchart-label" id="flowchart-d5-16" label-offset-y="14.764061620349047" data-node="true" data-id="d5" transform="translate(2333.33984375, 2362.102714538574)"><path style="" d="M 0,14.764061620349047 a 90.1484375,14.764061620349047 0,0,0 180.296875 0 a 90.1484375,14.764061620349047 0,0,0 -180.296875 0 l 0,48.76406162034905 a 90.1484375,14.764061620349047 0,0,0 180.296875 0 l 0,-48.76406162034905" transform="translate(-90.1484375,-39.14609243052357)"></path><g class="label" style="" transform="translate(0, -9.5)"><rect></rect><text style=""><tspan xml:space="preserve" dy="1em" x="0" class="row">D5 Attendance Records</tspan></text></g></g><g class="node default default flowchart-label" id="flowchart-d6-17" label-offset-y="16.01930848675348" data-node="true" data-id="d6" transform="translate(2333.33984375, 2492.2777709960938)"><path style="" d="M 0,16.01930848675348 a 111.484375,16.01930848675348 0,0,0 222.96875 0 a 111.484375,16.01930848675348 0,0,0 -222.96875 0 l 0,50.01930848675348 a 111.484375,16.01930848675348 0,0,0 222.96875 0 l 0,-50.01930848675348" transform="translate(-111.484375,-41.02896273013022)"></path><g class="label" style="" transform="translate(0, -9.5)"><rect></rect><text style=""><tspan xml:space="preserve" dy="1em" x="0" class="row">D6 Attendance Sheet Exports</tspan></text></g></g><g class="node default default flowchart-label" id="flowchart-d7-18" label-offset-y="11.796501072784288" data-node="true" data-id="d7" transform="translate(2333.33984375, 681.5662002563477)"><path style="" d="M 0,11.796501072784288 a 55.83984375,11.796501072784288 0,0,0 111.6796875 0 a 55.83984375,11.796501072784288 0,0,0 -111.6796875 0 l 0,45.79650107278429 a 55.83984375,11.796501072784288 0,0,0 111.6796875 0 l 0,-45.79650107278429" transform="translate(-55.83984375,-34.694751609176436)"></path><g class="label" style="" transform="translate(0, -9.5)"><rect></rect><text style=""><tspan xml:space="preserve" dy="1em" x="0" class="row">D7 Audit Logs</tspan></text></g></g></g></g></g></svg>