<svg id="mermaid-1783939509060" width="3813.796875" xmlns="http://www.w3.org/2000/svg" xmlns:xlink="http://www.w3.org/1999/xlink" height="2256.26904296875" viewBox="-8 -23.416000366210938 3813.796875 2256.26904296875" role="graphics-document document" aria-roledescription="flowchart-v2">
<rect x="-100000" y="-100000" width="200000" height="200000" fill="#000000"/>
<style>#mermaid-1783939509060{font-family:"trebuchet ms",verdana,arial,sans-serif;font-size:16px;fill:#ccc;}#mermaid-1783939509060 .error-icon{fill:#a44141;}#mermaid-1783939509060 .error-text{fill:#ddd;stroke:#ddd;}#mermaid-1783939509060 .edge-thickness-normal{stroke-width:2px;}#mermaid-1783939509060 .edge-thickness-thick{stroke-width:3.5px;}#mermaid-1783939509060 .edge-pattern-solid{stroke-dasharray:0;}#mermaid-1783939509060 .edge-pattern-dashed{stroke-dasharray:3;}#mermaid-1783939509060 .edge-pattern-dotted{stroke-dasharray:2;}#mermaid-1783939509060 .marker{fill:lightgrey;stroke:lightgrey;}#mermaid-1783939509060 .marker.cross{stroke:lightgrey;}#mermaid-1783939509060 svg{font-family:"trebuchet ms",verdana,arial,sans-serif;font-size:16px;}#mermaid-1783939509060 .label{font-family:"trebuchet ms",verdana,arial,sans-serif;color:#ccc;}#mermaid-1783939509060 .cluster-label text{fill:#F9FFFE;}#mermaid-1783939509060 .cluster-label span,#mermaid-1783939509060 p{color:#F9FFFE;}#mermaid-1783939509060 .label text,#mermaid-1783939509060 span,#mermaid-1783939509060 p{fill:#ccc;color:#ccc;}#mermaid-1783939509060 .node rect,#mermaid-1783939509060 .node circle,#mermaid-1783939509060 .node ellipse,#mermaid-1783939509060 .node polygon,#mermaid-1783939509060 .node path{fill:#1f2020;stroke:#81B1DB;stroke-width:1px;}#mermaid-1783939509060 .flowchart-label text{text-anchor:middle;}#mermaid-1783939509060 .node .katex path{fill:#000;stroke:#000;stroke-width:1px;}#mermaid-1783939509060 .node .label{text-align:center;}#mermaid-1783939509060 .node.clickable{cursor:pointer;}#mermaid-1783939509060 .arrowheadPath{fill:lightgrey;}#mermaid-1783939509060 .edgePath .path{stroke:lightgrey;stroke-width:2.0px;}#mermaid-1783939509060 .flowchart-link{stroke:lightgrey;fill:none;}#mermaid-1783939509060 .edgeLabel{background-color:hsl(0, 0%, 34.4117647059%);text-align:center;}#mermaid-1783939509060 .edgeLabel rect{opacity:0.5;background-color:hsl(0, 0%, 34.4117647059%);fill:hsl(0, 0%, 34.4117647059%);}#mermaid-1783939509060 .labelBkg{background-color:rgba(87.75, 87.75, 87.75, 0.5);}#mermaid-1783939509060 .cluster rect{fill:hsl(180, 1.5873015873%, 28.3529411765%);stroke:rgba(255, 255, 255, 0.25);stroke-width:1px;}#mermaid-1783939509060 .cluster text{fill:#F9FFFE;}#mermaid-1783939509060 .cluster span,#mermaid-1783939509060 p{color:#F9FFFE;}#mermaid-1783939509060 div.mermaidTooltip{position:absolute;text-align:center;max-width:200px;padding:2px;font-family:"trebuchet ms",verdana,arial,sans-serif;font-size:12px;background:hsl(20, 1.5873015873%, 12.3529411765%);border:1px solid rgba(255, 255, 255, 0.25);border-radius:2px;pointer-events:none;z-index:100;}#mermaid-1783939509060 .flowchartTitleText{text-anchor:middle;font-size:18px;fill:#ccc;}#mermaid-1783939509060 :root{--mermaid-font-family:"trebuchet ms",verdana,arial,sans-serif;}#mermaid-1783939509060 .note rect{fill:#1f2020!important;stroke:#8CA6DB!important;color:#d4d4d4!important;stroke-dasharray:5 5!important;}#mermaid-1783939509060 .note polygon{fill:#1f2020!important;stroke:#8CA6DB!important;color:#d4d4d4!important;stroke-dasharray:5 5!important;}#mermaid-1783939509060 .note ellipse{fill:#1f2020!important;stroke:#8CA6DB!important;color:#d4d4d4!important;stroke-dasharray:5 5!important;}#mermaid-1783939509060 .note circle{fill:#1f2020!important;stroke:#8CA6DB!important;color:#d4d4d4!important;stroke-dasharray:5 5!important;}#mermaid-1783939509060 .note path{fill:#1f2020!important;stroke:#8CA6DB!important;color:#d4d4d4!important;stroke-dasharray:5 5!important;}#mermaid-1783939509060 .note tspan{fill:#d4d4d4!important;}</style><g><marker id="mermaid-1783939509060_flowchart-pointEnd" class="marker flowchart" viewBox="0 0 10 10" refX="6" refY="5" markerUnits="userSpaceOnUse" markerWidth="12" markerHeight="12" orient="auto"><path d="M 0 0 L 10 5 L 0 10 z" class="arrowMarkerPath" style="stroke-width: 1; stroke-dasharray: 1, 0;"></path></marker><marker id="mermaid-1783939509060_flowchart-pointStart" class="marker flowchart" viewBox="0 0 10 10" refX="4.5" refY="5" markerUnits="userSpaceOnUse" markerWidth="12" markerHeight="12" orient="auto"><path d="M 0 5 L 10 10 L 10 0 z" class="arrowMarkerPath" style="stroke-width: 1; stroke-dasharray: 1, 0;"></path></marker><marker id="mermaid-1783939509060_flowchart-circleEnd" class="marker flowchart" viewBox="0 0 10 10" refX="11" refY="5" markerUnits="userSpaceOnUse" markerWidth="11" markerHeight="11" orient="auto"><circle cx="5" cy="5" r="5" class="arrowMarkerPath" style="stroke-width: 1; stroke-dasharray: 1, 0;"></circle></marker><marker id="mermaid-1783939509060_flowchart-circleStart" class="marker flowchart" viewBox="0 0 10 10" refX="-1" refY="5" markerUnits="userSpaceOnUse" markerWidth="11" markerHeight="11" orient="auto"><circle cx="5" cy="5" r="5" class="arrowMarkerPath" style="stroke-width: 1; stroke-dasharray: 1, 0;"></circle></marker><marker id="mermaid-1783939509060_flowchart-crossEnd" class="marker cross flowchart" viewBox="0 0 11 11" refX="12" refY="5.2" markerUnits="userSpaceOnUse" markerWidth="11" markerHeight="11" orient="auto"><path d="M 1,1 l 9,9 M 10,1 l -9,9" class="arrowMarkerPath" style="stroke-width: 2; stroke-dasharray: 1, 0;"></path></marker><marker id="mermaid-1783939509060_flowchart-crossStart" class="marker cross flowchart" viewBox="0 0 11 11" refX="-1" refY="5.2" markerUnits="userSpaceOnUse" markerWidth="11" markerHeight="11" orient="auto"><path d="M 1,1 l 9,9 M 10,1 l -9,9" class="arrowMarkerPath" style="stroke-width: 2; stroke-dasharray: 1, 0;"></path></marker><g class="root"><g class="clusters"></g><g class="edgePaths"><path d="M272.291,1091.008L340.853,922.665C409.415,754.323,546.54,417.638,667.877,249.296C789.215,80.953,894.766,80.953,1011.249,80.953C1127.733,80.953,1255.15,80.953,1365.533,80.953C1475.917,80.953,1569.267,80.953,1659.657,80.953C1750.047,80.953,1837.477,80.953,1931.089,84.501C2024.702,88.05,2124.497,95.146,2174.395,98.694L2224.292,102.243" id="L-super_admin-p1-0" class=" edge-thickness-normal edge-pattern-solid flowchart-link LS-super_admin LE-p1" style="fill:none;" marker-end="url(#mermaid-1783939509060_flowchart-pointEnd)"></path><path d="M1666.949,1231.15L1709.942,1062.417C1752.935,893.684,1838.92,556.218,1932.388,374.308C2025.856,192.398,2126.805,166.045,2177.28,152.868L2227.754,139.691" id="L-program_admin-p1-0" class=" edge-thickness-normal edge-pattern-solid flowchart-link LS-program_admin LE-p1" style="fill:none;" marker-end="url(#mermaid-1783939509060_flowchart-pointEnd)"></path><path d="M2452.601,84.678L2494.161,75.185C2535.722,65.692,2618.843,46.707,2699.608,40.466C2780.372,34.225,2858.78,40.729,2897.983,43.981L2937.187,47.233" id="L-p1-d1-0" class=" edge-thickness-normal edge-pattern-solid flowchart-link LS-p1 LE-d1" style="fill:none;" marker-start="url(#mermaid-1783939509060_flowchart-pointStart)" marker-end="url(#mermaid-1783939509060_flowchart-pointEnd)"></path><path d="M2455.441,114.359L2496.528,115.746C2537.616,117.133,2619.79,119.907,2684.697,125.72C2749.604,131.533,2797.244,140.385,2821.063,144.811L2844.883,149.237" id="L-p1-d2-0" class=" edge-thickness-normal edge-pattern-solid flowchart-link LS-p1 LE-d2" style="fill:none;" marker-start="url(#mermaid-1783939509060_flowchart-pointStart)" marker-end="url(#mermaid-1783939509060_flowchart-pointEnd)"></path><path d="M2375.071,215.108L2429.553,376.557C2484.035,538.007,2593,860.906,2684.548,1048.239C2776.095,1235.573,2850.225,1287.341,2887.29,1313.226L2924.355,1339.11" id="L-p1-d7-0" class=" edge-thickness-normal edge-pattern-solid flowchart-link LS-p1 LE-d7" style="fill:none;" marker-end="url(#mermaid-1783939509060_flowchart-pointEnd)"></path><path d="M276.058,1091.008L343.992,982.977C411.926,874.947,547.795,658.885,668.505,550.855C789.215,442.824,894.766,442.824,1011.249,442.824C1127.733,442.824,1255.15,442.824,1365.533,442.824C1475.917,442.824,1569.267,442.824,1659.657,442.824C1750.047,442.824,1837.477,442.824,1920.796,442.824C2004.116,442.824,2083.326,442.824,2122.931,442.824L2162.536,442.824" id="L-super_admin-p2-0" class=" edge-thickness-normal edge-pattern-solid flowchart-link LS-super_admin LE-p2" style="fill:none;" marker-end="url(#mermaid-1783939509060_flowchart-pointEnd)"></path><path d="M2468.94,321.509L2507.777,285.038C2546.615,248.567,2624.29,175.624,2702.343,131.867C2780.396,88.109,2858.827,73.536,2898.042,66.249L2937.258,58.963" id="L-p2-d1-0" class=" edge-thickness-normal edge-pattern-solid flowchart-link LS-p2 LE-d1" style="fill:none;" marker-start="url(#mermaid-1783939509060_flowchart-pointStart)" marker-end="url(#mermaid-1783939509060_flowchart-pointEnd)"></path><path d="M2504.442,377.371L2537.362,364.287C2570.283,351.203,2636.124,325.035,2698.893,297.783C2761.662,270.531,2821.359,242.194,2851.207,228.026L2881.056,213.858" id="L-p2-d2-0" class=" edge-thickness-normal edge-pattern-solid flowchart-link LS-p2 LE-d2" style="fill:none;" marker-start="url(#mermaid-1783939509060_flowchart-pointStart)" marker-end="url(#mermaid-1783939509060_flowchart-pointEnd)"></path><path d="M2486.666,541.935L2522.549,566.143C2558.432,590.351,2630.199,638.766,2703.165,687.038C2776.131,735.31,2850.298,783.438,2887.381,807.502L2924.464,831.566" id="L-p2-d3-0" class=" edge-thickness-normal edge-pattern-solid flowchart-link LS-p2 LE-d3" style="fill:none;" marker-start="url(#mermaid-1783939509060_flowchart-pointStart)" marker-end="url(#mermaid-1783939509060_flowchart-pointEnd)"></path><path d="M2413.641,598.055L2461.695,699.013C2509.749,799.971,2605.857,1001.888,2690.348,1126.385C2774.839,1250.883,2847.713,1297.961,2884.15,1321.5L2920.587,1345.039" id="L-p2-d7-0" class=" edge-thickness-normal edge-pattern-solid flowchart-link LS-p2 LE-d7" style="fill:none;" marker-end="url(#mermaid-1783939509060_flowchart-pointEnd)"></path><path d="M278.516,1091.008L346.041,1003.705C413.565,916.402,548.615,741.797,668.915,654.494C789.215,567.191,894.766,567.191,1011.249,567.191C1127.733,567.191,1255.15,567.191,1365.533,567.191C1475.917,567.191,1569.267,567.191,1659.657,567.191C1750.047,567.191,1837.477,567.191,1938.106,590.739C2038.736,614.288,2152.565,661.384,2209.48,684.932L2266.395,708.48" id="L-super_admin-p3-0" class=" edge-thickness-normal edge-pattern-solid flowchart-link LS-super_admin LE-p3" style="fill:none;" marker-end="url(#mermaid-1783939509060_flowchart-pointEnd)"></path><path d="M1673.417,1231.15L1715.332,1165.172C1757.247,1099.194,1841.077,967.237,1939.245,888.181C2037.413,809.124,2149.92,782.967,2206.173,769.889L2262.426,756.81" id="L-program_admin-p3-0" class=" edge-thickness-normal edge-pattern-solid flowchart-link LS-program_admin LE-p3" style="fill:none;" marker-end="url(#mermaid-1783939509060_flowchart-pointEnd)"></path><path d="M2402.4,690.065L2452.328,651.2C2502.255,612.334,2602.11,534.603,2690.927,456.22C2779.745,377.837,2857.525,298.802,2896.415,259.285L2935.305,219.768" id="L-p3-d2-0" class=" edge-thickness-normal edge-pattern-solid flowchart-link LS-p3 LE-d2" style="fill:none;" marker-start="url(#mermaid-1783939509060_flowchart-pointStart)" marker-end="url(#mermaid-1783939509060_flowchart-pointEnd)"></path><path d="M2415.928,761.199L2463.601,775.196C2511.274,789.194,2606.619,817.19,2691.233,832.385C2775.848,847.58,2849.73,849.975,2886.672,851.172L2923.613,852.369" id="L-p3-d3-0" class=" edge-thickness-normal edge-pattern-solid flowchart-link LS-p3 LE-d3" style="fill:none;" marker-start="url(#mermaid-1783939509060_flowchart-pointStart)" marker-end="url(#mermaid-1783939509060_flowchart-pointEnd)"></path><path d="M2374.122,667.267L2428.762,553.486C2483.403,439.706,2592.684,212.145,2693.81,98.364C2794.936,-15.416,2887.908,-15.416,2980.23,-15.416C3072.552,-15.416,3164.225,-15.416,3255.969,-15.416C3347.714,-15.416,3439.529,-15.416,3511.471,-15.416C3583.414,-15.416,3635.484,-15.416,3672.583,318.663C3709.681,652.741,3731.807,1320.899,3742.871,1654.977L3753.934,1989.056" id="L-p3-d4-0" class=" edge-thickness-normal edge-pattern-solid flowchart-link LS-p3 LE-d4" style="fill:none;" marker-start="url(#mermaid-1783939509060_flowchart-pointStart)" marker-end="url(#mermaid-1783939509060_flowchart-pointEnd)"></path><path d="M2384.089,798.193L2437.068,869.128C2490.047,940.064,2596.006,1081.934,2685.399,1173.782C2774.791,1265.63,2847.617,1307.455,2884.03,1328.367L2920.443,1349.28" id="L-p3-d7-0" class=" edge-thickness-normal edge-pattern-solid flowchart-link LS-p3 LE-d7" style="fill:none;" marker-end="url(#mermaid-1783939509060_flowchart-pointEnd)"></path><path d="M317.582,1122.474L378.596,1139.379C439.609,1156.283,561.637,1190.091,648.81,1216.066C735.983,1242.04,788.302,1260.18,814.461,1269.25L840.621,1278.32" id="L-super_admin-p4-0" class=" edge-thickness-normal edge-pattern-solid flowchart-link LS-super_admin LE-p4" style="fill:none;" marker-end="url(#mermaid-1783939509060_flowchart-pointEnd)"></path><path d="M1601.094,1252.434L1564.673,1254.97C1528.251,1257.506,1455.409,1262.578,1383.038,1271.325C1310.668,1280.072,1238.77,1292.493,1202.821,1298.704L1166.872,1304.915" id="L-program_admin-p4-0" class=" edge-thickness-normal edge-pattern-solid flowchart-link LS-program_admin LE-p4" style="fill:none;" marker-end="url(#mermaid-1783939509060_flowchart-pointEnd)"></path><path d="M1098.124,1471.54L1145.531,1538.355C1192.938,1605.17,1287.752,1738.801,1381.834,1805.616C1475.917,1872.431,1569.267,1872.431,1659.657,1872.431C1750.047,1872.431,1837.477,1872.431,1950.333,1872.431C2063.189,1872.431,2201.471,1872.431,2330.981,1872.431C2460.491,1872.431,2581.228,1872.431,2688.082,1872.431C2794.936,1872.431,2887.908,1872.431,2980.23,1872.431C3072.552,1872.431,3164.225,1872.431,3255.969,1872.431C3347.714,1872.431,3439.529,1872.431,3511.471,1872.431C3583.414,1872.431,3635.484,1872.431,3670.081,1892.037C3704.678,1911.643,3721.802,1950.854,3730.363,1970.46L3738.925,1990.066" id="L-p4-d4-0" class=" edge-thickness-normal edge-pattern-solid flowchart-link LS-p4 LE-d4" style="fill:none;" marker-start="url(#mermaid-1783939509060_flowchart-pointStart)" marker-end="url(#mermaid-1783939509060_flowchart-pointEnd)"></path><path d="M1163.386,1348.302L1199.916,1351.575C1236.446,1354.848,1309.506,1361.395,1392.711,1364.668C1475.917,1367.941,1569.267,1367.941,1659.657,1367.941C1750.047,1367.941,1837.477,1367.941,1950.333,1367.941C2063.189,1367.941,2201.471,1367.941,2330.981,1367.941C2460.491,1367.941,2581.228,1367.941,2677.892,1368.11C2774.556,1368.279,2847.148,1368.617,2883.443,1368.786L2919.739,1368.955" id="L-p4-d7-0" class=" edge-thickness-normal edge-pattern-solid flowchart-link LS-p4 LE-d7" style="fill:none;" marker-end="url(#mermaid-1783939509060_flowchart-pointEnd)"></path><path d="M847.101,1391.398L819.861,1401.657C792.622,1411.917,738.143,1432.436,645.305,1388.599C552.466,1344.763,421.269,1236.571,355.67,1182.476L290.071,1128.38" id="L-p4-super_admin-0" class=" edge-thickness-normal edge-pattern-solid flowchart-link LS-p4 LE-super_admin" style="fill:none;" marker-end="url(#mermaid-1783939509060_flowchart-pointEnd)"></path><path d="M1158.187,1290.309L1195.583,1280.032C1232.98,1269.756,1307.773,1249.203,1380.71,1241.401C1453.646,1233.599,1524.727,1238.548,1560.267,1241.023L1595.807,1243.498" id="L-p4-program_admin-0" class=" edge-thickness-normal edge-pattern-solid flowchart-link LS-p4 LE-program_admin" style="fill:none;" marker-end="url(#mermaid-1783939509060_flowchart-pointEnd)"></path><path d="M3053.336,1969.449L3087.096,1969.449C3120.857,1969.449,3188.378,1969.449,3245.979,1975.438C3303.581,1981.427,3351.264,1993.405,3375.105,1999.394L3398.946,2005.383" id="L-attendee-p5-0" class=" edge-thickness-normal edge-pattern-solid flowchart-link LS-attendee LE-p5" style="fill:none;" marker-end="url(#mermaid-1783939509060_flowchart-pointEnd)"></path><path d="M3667.855,2038.642L3671.138,2038.642C3674.421,2038.642,3680.988,2038.642,3687.568,2038.053C3694.149,2037.463,3700.743,2036.285,3704.04,2035.695L3707.337,2035.106" id="L-p5-d4-0" class=" edge-thickness-normal edge-pattern-solid flowchart-link LS-p5 LE-d4" style="fill:none;" marker-start="url(#mermaid-1783939509060_flowchart-pointStart)" marker-end="url(#mermaid-1783939509060_flowchart-pointEnd)"></path><path d="M3402.788,2064.903L3378.306,2069.904C3353.825,2074.905,3304.862,2084.908,3234.543,2089.909C3164.225,2094.91,3072.552,2094.91,2980.23,2094.91C2887.908,2094.91,2794.936,2094.91,2707.998,2040.9C2621.059,1986.891,2540.154,1878.873,2499.701,1824.864L2459.248,1770.854" id="L-p5-p6-0" class=" edge-thickness-normal edge-pattern-solid flowchart-link LS-p5 LE-p6" style="fill:none;" marker-end="url(#mermaid-1783939509060_flowchart-pointEnd)"></path><path d="M2443.587,1781.463L2486.65,1852.028C2529.713,1922.593,2615.839,2063.723,2705.388,2134.288C2794.936,2204.853,2887.908,2204.853,2980.23,2204.853C3072.552,2204.853,3164.225,2204.853,3255.969,2204.853C3347.714,2204.853,3439.529,2204.853,3511.471,2204.853C3583.414,2204.853,3635.484,2204.853,3670.442,2181.259C3705.399,2157.666,3723.243,2110.478,3732.165,2086.884L3741.087,2063.291" id="L-p6-d4-0" class=" edge-thickness-normal edge-pattern-solid flowchart-link LS-p6 LE-d4" style="fill:none;" marker-start="url(#mermaid-1783939509060_flowchart-pointStart)" marker-end="url(#mermaid-1783939509060_flowchart-pointEnd)"></path><path d="M2432.875,1435.078L2477.724,1350.2C2522.572,1265.322,2612.268,1095.566,2687.709,1016.347C2763.15,937.127,2824.334,948.443,2854.927,954.101L2885.519,959.759" id="L-p6-d5-0" class=" edge-thickness-normal edge-pattern-solid flowchart-link LS-p6 LE-d5" style="fill:none;" marker-start="url(#mermaid-1783939509060_flowchart-pointStart)" marker-end="url(#mermaid-1783939509060_flowchart-pointEnd)"></path><path d="M2403.118,1422.328L2452.926,1273.773C2502.734,1125.217,2602.349,828.107,2692.573,627.803C2782.798,427.499,2863.631,324.002,2904.047,272.253L2944.464,220.504" id="L-p6-d2-0" class=" edge-thickness-normal edge-pattern-solid flowchart-link LS-p6 LE-d2" style="fill:none;" marker-start="url(#mermaid-1783939509060_flowchart-pointStart)" marker-end="url(#mermaid-1783939509060_flowchart-pointEnd)"></path><path d="M2533.781,1611.316L2561.812,1611.316C2589.842,1611.316,2645.904,1611.316,2713.096,1576.743C2780.289,1542.17,2858.612,1473.025,2897.774,1438.452L2936.936,1403.879" id="L-p6-d7-0" class=" edge-thickness-normal edge-pattern-solid flowchart-link LS-p6 LE-d7" style="fill:none;" marker-end="url(#mermaid-1783939509060_flowchart-pointEnd)"></path><path d="M2477.726,1747.735L2515.1,1784.687C2552.473,1821.64,2627.219,1895.544,2698.118,1932.496C2769.017,1969.449,2836.07,1969.449,2869.596,1969.449L2903.122,1969.449" id="L-p6-attendee-0" class=" edge-thickness-normal edge-pattern-solid flowchart-link LS-p6 LE-attendee" style="fill:none;" marker-end="url(#mermaid-1783939509060_flowchart-pointEnd)"></path><path d="M280.858,1125.008L347.992,1198.684C415.126,1272.361,549.395,1419.713,669.305,1493.39C789.215,1567.066,894.766,1567.066,1011.249,1567.066C1127.733,1567.066,1255.15,1567.066,1365.533,1567.066C1475.917,1567.066,1569.267,1567.066,1659.657,1567.066C1750.047,1567.066,1837.477,1567.066,1917.299,1570.917C1997.121,1574.769,2069.336,1582.472,2105.443,1586.323L2141.551,1590.174" id="L-super_admin-p6-0" class=" edge-thickness-normal edge-pattern-solid flowchart-link LS-super_admin LE-p6" style="fill:none;" marker-end="url(#mermaid-1783939509060_flowchart-pointEnd)"></path><path d="M1675.415,1265.15L1716.997,1320.386C1758.579,1375.622,1841.742,1486.094,1919.265,1542.608C1996.788,1599.122,2068.67,1601.677,2104.611,1602.955L2140.552,1604.233" id="L-program_admin-p6-0" class=" edge-thickness-normal edge-pattern-solid flowchart-link LS-program_admin LE-p6" style="fill:none;" marker-end="url(#mermaid-1783939509060_flowchart-pointEnd)"></path><path d="M2147.316,1636.101L2110.248,1640.876C2073.18,1645.65,1999.043,1655.199,1918.26,1659.973C1837.477,1664.748,1750.047,1664.748,1659.657,1664.748C1569.267,1664.748,1475.917,1664.748,1365.533,1664.748C1255.15,1664.748,1127.733,1664.748,1011.249,1664.748C894.766,1664.748,789.215,1664.748,669.383,1575.497C549.551,1486.247,415.437,1307.746,348.38,1218.496L281.323,1129.245" id="L-p6-super_admin-0" class=" edge-thickness-normal edge-pattern-solid flowchart-link LS-p6 LE-super_admin" style="fill:none;" marker-end="url(#mermaid-1783939509060_flowchart-pointEnd)"></path><path d="M2152.721,1662.944L2114.752,1673.425C2076.783,1683.906,2000.845,1704.868,1921.142,1639.343C1841.438,1573.818,1757.971,1421.807,1716.237,1345.801L1674.503,1269.796" id="L-p6-program_admin-0" class=" edge-thickness-normal edge-pattern-solid flowchart-link LS-p6 LE-program_admin" style="fill:none;" marker-end="url(#mermaid-1783939509060_flowchart-pointEnd)"></path><path d="M294.603,1091.008L359.447,1053.303C424.29,1015.599,553.977,940.19,671.596,902.486C789.215,864.781,894.766,864.781,1011.249,864.781C1127.733,864.781,1255.15,864.781,1365.533,864.781C1475.917,864.781,1569.267,864.781,1659.657,864.781C1750.047,864.781,1837.477,864.781,1917.781,883.499C1998.086,902.217,2071.265,939.654,2107.855,958.372L2144.445,977.09" id="L-super_admin-p7-0" class=" edge-thickness-normal edge-pattern-solid flowchart-link LS-super_admin LE-p7" style="fill:none;" marker-end="url(#mermaid-1783939509060_flowchart-pointEnd)"></path><path d="M1675.218,1231.15L1716.832,1175.005C1758.447,1118.86,1841.677,1006.571,1918.971,966.141C1996.266,925.712,2067.625,957.143,2103.304,972.858L2138.984,988.573" id="L-program_admin-p7-0" class=" edge-thickness-normal edge-pattern-solid flowchart-link LS-program_admin LE-p7" style="fill:none;" marker-end="url(#mermaid-1783939509060_flowchart-pointEnd)"></path><path d="M2466.095,897.654L2505.407,841.848C2544.718,786.043,2623.342,674.431,2703.551,561.61C2783.761,448.788,2865.557,334.755,2906.456,277.738L2947.354,220.722" id="L-p7-d2-0" class=" edge-thickness-normal edge-pattern-solid flowchart-link LS-p7 LE-d2" style="fill:none;" marker-start="url(#mermaid-1783939509060_flowchart-pointStart)" marker-end="url(#mermaid-1783939509060_flowchart-pointEnd)"></path><path d="M2538.098,983.26L2565.409,970.351C2592.72,957.443,2647.343,931.627,2711.609,911.884C2775.876,892.141,2849.787,878.471,2886.743,871.636L2923.699,864.801" id="L-p7-d3-0" class=" edge-thickness-normal edge-pattern-solid flowchart-link LS-p7 LE-d3" style="fill:none;" marker-start="url(#mermaid-1783939509060_flowchart-pointStart)" marker-end="url(#mermaid-1783939509060_flowchart-pointEnd)"></path><path d="M2405.772,1286.217L2455.138,1442.656C2504.503,1599.096,2603.234,1911.974,2699.085,2068.414C2794.936,2224.853,2887.908,2224.853,2980.23,2224.853C3072.552,2224.853,3164.225,2224.853,3255.969,2224.853C3347.714,2224.853,3439.529,2224.853,3511.471,2224.853C3583.414,2224.853,3635.484,2224.853,3670.675,2197.95C3705.865,2171.047,3724.176,2117.24,3733.331,2090.337L3742.486,2063.434" id="L-p7-d4-0" class=" edge-thickness-normal edge-pattern-solid flowchart-link LS-p7 LE-d4" style="fill:none;" marker-start="url(#mermaid-1783939509060_flowchart-pointStart)" marker-end="url(#mermaid-1783939509060_flowchart-pointEnd)"></path><path d="M2553.298,1026.731L2578.076,1020.898C2602.854,1015.065,2652.409,1003.399,2707.766,995.994C2763.122,988.589,2824.28,985.445,2854.859,983.874L2885.437,982.302" id="L-p7-d5-0" class=" edge-thickness-normal edge-pattern-solid flowchart-link LS-p7 LE-d5" style="fill:none;" marker-start="url(#mermaid-1783939509060_flowchart-pointStart)" marker-end="url(#mermaid-1783939509060_flowchart-pointEnd)"></path><path d="M2550.671,1113.678L2575.887,1118.062C2601.102,1122.446,2651.534,1131.215,2703.771,1135.6C2756.008,1139.984,2810.051,1139.984,2837.073,1139.984L2864.095,1139.984" id="L-p7-d6-0" class=" edge-thickness-normal edge-pattern-solid flowchart-link LS-p7 LE-d6" style="fill:none;" marker-end="url(#mermaid-1783939509060_flowchart-pointEnd)"></path><path d="M2444.107,1263.931L2487.083,1340.914C2530.06,1417.897,2616.012,1571.863,2700.409,1595.646C2784.806,1619.428,2867.648,1513.027,2909.068,1459.827L2950.489,1406.626" id="L-p7-d7-0" class=" edge-thickness-normal edge-pattern-solid flowchart-link LS-p7 LE-d7" style="fill:none;" marker-end="url(#mermaid-1783939509060_flowchart-pointEnd)"></path><path d="M2126.337,1093.87L2092.765,1096.523C2059.194,1099.176,1992.05,1104.482,1914.763,1107.135C1837.477,1109.789,1750.047,1109.789,1659.657,1109.789C1569.267,1109.789,1475.917,1109.789,1365.533,1109.789C1255.15,1109.789,1127.733,1109.789,1011.249,1109.789C894.766,1109.789,789.215,1109.789,676.309,1109.533C563.403,1109.277,443.143,1108.765,383.012,1108.509L322.882,1108.253" id="L-p7-super_admin-0" class=" edge-thickness-normal edge-pattern-solid flowchart-link LS-p7 LE-super_admin" style="fill:none;" marker-end="url(#mermaid-1783939509060_flowchart-pointEnd)"></path><path d="M2141.852,1158.649L2105.694,1173.566C2069.537,1188.482,1997.221,1218.316,1928.486,1233.233C1859.751,1248.15,1794.596,1248.15,1762.018,1248.15L1729.441,1248.15" id="L-p7-program_admin-0" class=" edge-thickness-normal edge-pattern-solid flowchart-link LS-p7 LE-program_admin" style="fill:none;" marker-end="url(#mermaid-1783939509060_flowchart-pointEnd)"></path><path d="M276.609,1125.008L344.451,1227.603C412.294,1330.198,547.979,1535.389,653.898,1649.981C759.818,1764.572,835.972,1788.565,874.049,1800.562L912.126,1812.558" id="L-super_admin-p8-0" class=" edge-thickness-normal edge-pattern-solid flowchart-link LS-super_admin LE-p8" style="fill:none;" marker-end="url(#mermaid-1783939509060_flowchart-pointEnd)"></path><path d="M1092.78,1840.343L1141.078,1840.343C1189.376,1840.343,1285.971,1840.343,1380.944,1840.343C1475.917,1840.343,1569.267,1840.343,1659.657,1840.343C1750.047,1840.343,1837.477,1840.343,1950.333,1840.343C2063.189,1840.343,2201.471,1840.343,2330.981,1840.343C2460.491,1840.343,2581.228,1840.343,2684.21,1768.23C2787.191,1696.118,2872.418,1551.892,2915.031,1479.779L2957.644,1407.666" id="L-p8-d7-0" class=" edge-thickness-normal edge-pattern-solid flowchart-link LS-p8 LE-d7" style="fill:none;" marker-start="url(#mermaid-1783939509060_flowchart-pointStart)" marker-end="url(#mermaid-1783939509060_flowchart-pointEnd)"></path><path d="M913.317,1845.701L875.042,1848.058C836.766,1850.415,760.215,1855.129,654.229,1735.785C548.243,1616.442,412.823,1373.041,345.113,1251.34L277.402,1129.639" id="L-p8-super_admin-0" class=" edge-thickness-normal edge-pattern-solid flowchart-link LS-p8 LE-super_admin" style="fill:none;" marker-end="url(#mermaid-1783939509060_flowchart-pointEnd)"></path></g><g class="edgeLabels"><g class="edgeLabel" transform="translate(1382.56640625, 80.953125)"><g class="label" transform="translate(-61.5625, -9.5)"><rect rx="0" ry="0" width="123.05249786376953" height="19.000028610229492"></rect><text style=""><tspan xml:space="preserve" dy="1em" x="0" class="row">Login credentials</tspan></text></g></g><g class="edgeLabel" transform="translate(1924.90625, 218.75172424316406)"><g class="label" transform="translate(-61.5625, -9.5)"><rect rx="0" ry="0" width="123.05249786376953" height="19.000028610229492"></rect><text style=""><tspan xml:space="preserve" dy="1em" x="0" class="row">Login credentials</tspan></text></g></g><g class="edgeLabel"><g class="label" transform="translate(0, 0)"><rect rx="0" ry="0" width="0" height="0"></rect><text style=""><tspan xml:space="preserve" dy="1em" x="0" class="row"></tspan></text></g></g><g class="edgeLabel"><g class="label" transform="translate(0, 0)"><rect rx="0" ry="0" width="0" height="0"></rect><text style=""><tspan xml:space="preserve" dy="1em" x="0" class="row"></tspan></text></g></g><g class="edgeLabel"><g class="label" transform="translate(0, 0)"><rect rx="0" ry="0" width="0" height="0"></rect><text style=""><tspan xml:space="preserve" dy="1em" x="0" class="row"></tspan></text></g></g><g class="edgeLabel" transform="translate(1382.56640625, 442.82421875)"><g class="label" transform="translate(-128.16015625, -9.5)"><rect rx="0" ry="0" width="256.1646423339844" height="19.000028610229492"></rect><text style=""><tspan xml:space="preserve" dy="1em" x="0" class="row">User, program, assignment requests</tspan></text></g></g><g class="edgeLabel"><g class="label" transform="translate(0, 0)"><rect rx="0" ry="0" width="0" height="0"></rect><text style=""><tspan xml:space="preserve" dy="1em" x="0" class="row"></tspan></text></g></g><g class="edgeLabel"><g class="label" transform="translate(0, 0)"><rect rx="0" ry="0" width="0" height="0"></rect><text style=""><tspan xml:space="preserve" dy="1em" x="0" class="row"></tspan></text></g></g><g class="edgeLabel"><g class="label" transform="translate(0, 0)"><rect rx="0" ry="0" width="0" height="0"></rect><text style=""><tspan xml:space="preserve" dy="1em" x="0" class="row"></tspan></text></g></g><g class="edgeLabel"><g class="label" transform="translate(0, 0)"><rect rx="0" ry="0" width="0" height="0"></rect><text style=""><tspan xml:space="preserve" dy="1em" x="0" class="row"></tspan></text></g></g><g class="edgeLabel" transform="translate(1382.56640625, 567.1911773681641)"><g class="label" transform="translate(-103.37890625, -9.5)"><rect rx="0" ry="0" width="206.633056640625" height="19.000028610229492"></rect><text style=""><tspan xml:space="preserve" dy="1em" x="0" class="row">Event details/status changes</tspan></text></g></g><g class="edgeLabel" transform="translate(1924.90625, 835.2810211181641)"><g class="label" transform="translate(-166.953125, -9.5)"><rect rx="0" ry="0" width="333.7036437988281" height="19.000028610229492"></rect><text style=""><tspan xml:space="preserve" dy="1em" x="0" class="row">Create/update events under assigned program</tspan></text></g></g><g class="edgeLabel"><g class="label" transform="translate(0, 0)"><rect rx="0" ry="0" width="0" height="0"></rect><text style=""><tspan xml:space="preserve" dy="1em" x="0" class="row"></tspan></text></g></g><g class="edgeLabel"><g class="label" transform="translate(0, 0)"><rect rx="0" ry="0" width="0" height="0"></rect><text style=""><tspan xml:space="preserve" dy="1em" x="0" class="row"></tspan></text></g></g><g class="edgeLabel"><g class="label" transform="translate(0, 0)"><rect rx="0" ry="0" width="0" height="0"></rect><text style=""><tspan xml:space="preserve" dy="1em" x="0" class="row"></tspan></text></g></g><g class="edgeLabel"><g class="label" transform="translate(0, 0)"><rect rx="0" ry="0" width="0" height="0"></rect><text style=""><tspan xml:space="preserve" dy="1em" x="0" class="row"></tspan></text></g></g><g class="edgeLabel" transform="translate(683.6640625, 1223.899845123291)"><g class="label" transform="translate(-57.1171875, -9.5)"><rect rx="0" ry="0" width="114.16741180419922" height="19.000028610229492"></rect><text style=""><tspan xml:space="preserve" dy="1em" x="0" class="row">QR/link request</tspan></text></g></g><g class="edgeLabel" transform="translate(1382.56640625, 1267.649845123291)"><g class="label" transform="translate(-124.72265625, -9.5)"><rect rx="0" ry="0" width="249.29393005371094" height="19.000028610229492"></rect><text style=""><tspan xml:space="preserve" dy="1em" x="0" class="row">QR/link request for program event</tspan></text></g></g><g class="edgeLabel"><g class="label" transform="translate(0, 0)"><rect rx="0" ry="0" width="0" height="0"></rect><text style=""><tspan xml:space="preserve" dy="1em" x="0" class="row"></tspan></text></g></g><g class="edgeLabel"><g class="label" transform="translate(0, 0)"><rect rx="0" ry="0" width="0" height="0"></rect><text style=""><tspan xml:space="preserve" dy="1em" x="0" class="row"></tspan></text></g></g><g class="edgeLabel" transform="translate(683.6640625, 1452.954532623291)"><g class="label" transform="translate(-127.9296875, -9.5)"><rect rx="0" ry="0" width="255.70518493652344" height="19.000028610229492"></rect><text style=""><tspan xml:space="preserve" dy="1em" x="0" class="row">Public attendance link and QR code</tspan></text></g></g><g class="edgeLabel" transform="translate(1382.56640625, 1228.649845123291)"><g class="label" transform="translate(-193.52734375, -9.5)"><rect rx="0" ry="0" width="386.81732177734375" height="19.000028610229492"></rect><text style=""><tspan xml:space="preserve" dy="1em" x="0" class="row">Public attendance link and QR code for created event</tspan></text></g></g><g class="edgeLabel" transform="translate(3255.8984375, 1969.448673248291)"><g class="label" transform="translate(-119.234375, -9.5)"><rect rx="0" ry="0" width="238.32542419433594" height="19.000028610229492"></rect><text style=""><tspan xml:space="preserve" dy="1em" x="0" class="row">Open link and submit attendance</tspan></text></g></g><g class="edgeLabel"><g class="label" transform="translate(0, 0)"><rect rx="0" ry="0" width="0" height="0"></rect><text style=""><tspan xml:space="preserve" dy="1em" x="0" class="row"></tspan></text></g></g><g class="edgeLabel" transform="translate(2980.87890625, 2094.909610748291)"><g class="label" transform="translate(-98.55078125, -9.5)"><rect rx="0" ry="0" width="196.98410034179688" height="19.000028610229492"></rect><text style=""><tspan xml:space="preserve" dy="1em" x="0" class="row">Submitted attendance data</tspan></text></g></g><g class="edgeLabel"><g class="label" transform="translate(0, 0)"><rect rx="0" ry="0" width="0" height="0"></rect><text style=""><tspan xml:space="preserve" dy="1em" x="0" class="row"></tspan></text></g></g><g class="edgeLabel"><g class="label" transform="translate(0, 0)"><rect rx="0" ry="0" width="0" height="0"></rect><text style=""><tspan xml:space="preserve" dy="1em" x="0" class="row"></tspan></text></g></g><g class="edgeLabel"><g class="label" transform="translate(0, 0)"><rect rx="0" ry="0" width="0" height="0"></rect><text style=""><tspan xml:space="preserve" dy="1em" x="0" class="row"></tspan></text></g></g><g class="edgeLabel"><g class="label" transform="translate(0, 0)"><rect rx="0" ry="0" width="0" height="0"></rect><text style=""><tspan xml:space="preserve" dy="1em" x="0" class="row"></tspan></text></g></g><g class="edgeLabel" transform="translate(2701.96484375, 1969.448673248291)"><g class="label" transform="translate(-123.12890625, -9.5)"><rect rx="0" ry="0" width="246.11029052734375" height="19.000028610229492"></rect><text style=""><tspan xml:space="preserve" dy="1em" x="0" class="row">Validation result and confirmation</tspan></text></g></g><g class="edgeLabel" transform="translate(1382.56640625, 1567.065860748291)"><g class="label" transform="translate(-150.42578125, -9.5)"><rect rx="0" ry="0" width="300.6723937988281" height="19.000028610229492"></rect><text style=""><tspan xml:space="preserve" dy="1em" x="0" class="row">Attendance list, detail, and status review</tspan></text></g></g><g class="edgeLabel" transform="translate(1924.90625, 1596.565860748291)"><g class="label" transform="translate(-156.15625, -9.5)"><rect rx="0" ry="0" width="312.12548828125" height="19.000028610229492"></rect><text style=""><tspan xml:space="preserve" dy="1em" x="0" class="row">Review attendance under assigned program</tspan></text></g></g><g class="edgeLabel" transform="translate(1382.56640625, 1664.747501373291)"><g class="label" transform="translate(-133.19140625, -9.5)"><rect rx="0" ry="0" width="266.221435546875" height="19.000028610229492"></rect><text style=""><tspan xml:space="preserve" dy="1em" x="0" class="row">Attendance records and status result</tspan></text></g></g><g class="edgeLabel" transform="translate(1924.90625, 1725.829532623291)"><g class="label" transform="translate(-155.48828125, -9.5)"><rect rx="0" ry="0" width="310.787353515625" height="19.000028610229492"></rect><text style=""><tspan xml:space="preserve" dy="1em" x="0" class="row">Assigned-program records and status result</tspan></text></g></g><g class="edgeLabel" transform="translate(1382.56640625, 864.7810211181641)"><g class="label" transform="translate(-117.453125, -9.5)"><rect rx="0" ry="0" width="234.76393127441406" height="19.000028610229492"></rect><text style=""><tspan xml:space="preserve" dy="1em" x="0" class="row">Dashboard/report/sheet request</tspan></text></g></g><g class="edgeLabel" transform="translate(1924.90625, 894.2810211181641)"><g class="label" transform="translate(-154.5, -9.5)"><rect rx="0" ry="0" width="308.81298828125" height="19.000028610229492"></rect><text style=""><tspan xml:space="preserve" dy="1em" x="0" class="row">Report/sheet request for assigned program</tspan></text></g></g><g class="edgeLabel"><g class="label" transform="translate(0, 0)"><rect rx="0" ry="0" width="0" height="0"></rect><text style=""><tspan xml:space="preserve" dy="1em" x="0" class="row"></tspan></text></g></g><g class="edgeLabel"><g class="label" transform="translate(0, 0)"><rect rx="0" ry="0" width="0" height="0"></rect><text style=""><tspan xml:space="preserve" dy="1em" x="0" class="row"></tspan></text></g></g><g class="edgeLabel"><g class="label" transform="translate(0, 0)"><rect rx="0" ry="0" width="0" height="0"></rect><text style=""><tspan xml:space="preserve" dy="1em" x="0" class="row"></tspan></text></g></g><g class="edgeLabel"><g class="label" transform="translate(0, 0)"><rect rx="0" ry="0" width="0" height="0"></rect><text style=""><tspan xml:space="preserve" dy="1em" x="0" class="row"></tspan></text></g></g><g class="edgeLabel"><g class="label" transform="translate(0, 0)"><rect rx="0" ry="0" width="0" height="0"></rect><text style=""><tspan xml:space="preserve" dy="1em" x="0" class="row"></tspan></text></g></g><g class="edgeLabel"><g class="label" transform="translate(0, 0)"><rect rx="0" ry="0" width="0" height="0"></rect><text style=""><tspan xml:space="preserve" dy="1em" x="0" class="row"></tspan></text></g></g><g class="edgeLabel" transform="translate(1382.56640625, 1109.788516998291)"><g class="label" transform="translate(-139.73046875, -9.5)"><rect rx="0" ry="0" width="279.290771484375" height="19.000028610229492"></rect><text style=""><tspan xml:space="preserve" dy="1em" x="0" class="row">Dashboard, reports, attendance sheets</tspan></text></g></g><g class="edgeLabel" transform="translate(1924.90625, 1248.149845123291)"><g class="label" transform="translate(-175.765625, -9.5)"><rect rx="0" ry="0" width="351.31304931640625" height="19.000028610229492"></rect><text style=""><tspan xml:space="preserve" dy="1em" x="0" class="row">Reports and sheets for actively assigned program</tspan></text></g></g><g class="edgeLabel" transform="translate(683.6640625, 1740.579532623291)"><g class="label" transform="translate(-62.390625, -9.5)"><rect rx="0" ry="0" width="124.70832061767578" height="19.000028610229492"></rect><text style=""><tspan xml:space="preserve" dy="1em" x="0" class="row">Audit log request</tspan></text></g></g><g class="edgeLabel"><g class="label" transform="translate(0, 0)"><rect rx="0" ry="0" width="0" height="0"></rect><text style=""><tspan xml:space="preserve" dy="1em" x="0" class="row"></tspan></text></g></g><g class="edgeLabel" transform="translate(683.6640625, 1859.843204498291)"><g class="label" transform="translate(-36.078125, -9.5)"><rect rx="0" ry="0" width="72.11620330810547" height="19.000028610229492"></rect><text style=""><tspan xml:space="preserve" dy="1em" x="0" class="row">Audit logs</tspan></text></g></g></g><g class="nodes"><g class="node default default flowchart-label" id="flowchart-super_admin-0" data-node="true" data-id="super_admin" transform="translate(265.3671875, 1108.0079708099365)"><rect class="basic label-container" style="" rx="0" ry="0" x="-52.21484375" y="-17" width="104.4296875" height="34"></rect><g class="label" style="" transform="translate(0, -9.5)"><rect></rect><text style=""><tspan xml:space="preserve" dy="1em" x="0" class="row">Super Admin</tspan></text></g></g><g class="node default default flowchart-label" id="flowchart-program_admin-1" data-node="true" data-id="program_admin" transform="translate(1662.6171875, 1248.149845123291)"><rect class="basic label-container" style="" rx="0" ry="0" x="-61.5234375" y="-17" width="123.046875" height="34"></rect><g class="label" style="" transform="translate(0, -9.5)"><rect></rect><text style=""><tspan xml:space="preserve" dy="1em" x="0" class="row">Program Admin</tspan></text></g></g><g class="node default default flowchart-label" id="flowchart-attendee-2" data-node="true" data-id="attendee" transform="translate(2980.87890625, 1969.448673248291)"><rect class="basic label-container" style="" rx="0" ry="0" x="-72.45703125" y="-17" width="144.9140625" height="34"></rect><g class="label" style="" transform="translate(0, -9.5)"><rect></rect><text style=""><tspan xml:space="preserve" dy="1em" x="0" class="row">External Attendee</tspan></text></g></g><g class="node default note flowchart-label" id="flowchart-note_template-3" data-node="true" data-id="note_template" transform="translate(265.3671875, 1192.0079708099365)"><rect class="basic label-container" style="" rx="0" ry="0" x="-265.3671875" y="-17" width="530.734375" height="34"></rect><g class="label" style="" transform="translate(0, -9.5)"><rect></rect><text style=""><tspan xml:space="preserve" dy="1em" x="0" class="row">Note: Attendance Sheet Generation follows fixed DICT template layout.</tspan></text></g></g><g class="node default default flowchart-label" id="flowchart-p1-4" data-node="true" data-id="p1" transform="translate(2339.75390625, 110.453125)"><circle style="" rx="0" ry="0" r="110.453125" width="220.90625" height="34"></circle><g class="label" style="" transform="translate(0, -9.5)"><rect></rect><text style=""><tspan xml:space="preserve" dy="1em" x="0" class="row">1.0 Authenticate Admin User</tspan></text></g></g><g class="node default default flowchart-label" id="flowchart-p2-5" data-node="true" data-id="p2" transform="translate(2339.75390625, 442.82421875)"><circle style="" rx="0" ry="0" r="171.91796875" width="343.8359375" height="34"></circle><g class="label" style="" transform="translate(0, -9.5)"><rect></rect><text style=""><tspan xml:space="preserve" dy="1em" x="0" class="row">2.0 Manage Users, Programs, and Assignments</tspan></text></g></g><g class="node default default flowchart-label" id="flowchart-p3-6" data-node="true" data-id="p3" transform="translate(2339.75390625, 738.83203125)"><circle style="" rx="0" ry="0" r="74.08984375" width="148.1796875" height="34"></circle><g class="label" style="" transform="translate(0, -9.5)"><rect></rect><text style=""><tspan xml:space="preserve" dy="1em" x="0" class="row">3.0 Manage Events</tspan></text></g></g><g class="node default default flowchart-label" id="flowchart-p4-7" data-node="true" data-id="p4" transform="translate(1000.31640625, 1333.690860748291)"><circle style="" rx="0" ry="0" r="163.72265625" width="327.4453125" height="34"></circle><g class="label" style="" transform="translate(0, -9.5)"><rect></rect><text style=""><tspan xml:space="preserve" dy="1em" x="0" class="row">4.0 Generate Attendance Link and QR Code</tspan></text></g></g><g class="node default default flowchart-label" id="flowchart-p5-8" data-node="true" data-id="p5" transform="translate(3531.34375, 2038.6422138214111)"><circle style="" rx="0" ry="0" r="131.2109375" width="262.421875" height="34"></circle><g class="label" style="" transform="translate(0, -9.5)"><rect></rect><text style=""><tspan xml:space="preserve" dy="1em" x="0" class="row">5.0 Collect Attendance Submission</tspan></text></g></g><g class="node default default flowchart-label" id="flowchart-p6-9" data-node="true" data-id="p6" transform="translate(2339.75390625, 1611.315860748291)"><circle style="" rx="0" ry="0" r="194.02734375" width="388.0546875" height="34"></circle><g class="label" style="" transform="translate(0, -9.5)"><rect></rect><text style=""><tspan xml:space="preserve" dy="1em" x="0" class="row">6.0 Validate, Store, and Review Attendance Records</tspan></text></g></g><g class="node default default flowchart-label" id="flowchart-p7-10" data-node="true" data-id="p7" transform="translate(2339.75390625, 1077.00390625)"><circle style="" rx="0" ry="0" r="214.08203125" width="428.1640625" height="34"></circle><g class="label" style="" transform="translate(0, -9.5)"><rect></rect><text style=""><tspan xml:space="preserve" dy="1em" x="0" class="row">7.0 Generate Dashboard, Reports, and Attendance Sheets</tspan></text></g></g><g class="node default default flowchart-label" id="flowchart-p8-11" data-node="true" data-id="p8" transform="translate(1000.31640625, 1840.343204498291)"><circle style="" rx="0" ry="0" r="87.1640625" width="174.328125" height="34"></circle><g class="label" style="" transform="translate(0, -9.5)"><rect></rect><text style=""><tspan xml:space="preserve" dy="1em" x="0" class="row">8.0 Manage Audit Trail</tspan></text></g></g><g class="node default default flowchart-label" id="flowchart-d1-12" label-offset-y="9.515929237796618" data-node="true" data-id="d1" transform="translate(2980.87890625, 50.85778617858887)"><path style="" d="M 0,9.515929237796618 a 38.41015625,9.515929237796618 0,0,0 76.8203125 0 a 38.41015625,9.515929237796618 0,0,0 -76.8203125 0 l 0,43.51592923779662 a 38.41015625,9.515929237796618 0,0,0 76.8203125 0 l 0,-43.51592923779662" transform="translate(-38.41015625,-31.273893856694926)"></path><g class="label" style="" transform="translate(0, -9.5)"><rect></rect><text style=""><tspan xml:space="preserve" dy="1em" x="0" class="row">D1 Users</tspan></text></g></g><g class="node default default flowchart-label" id="flowchart-d2-13" label-offset-y="16.91608900386007" data-node="true" data-id="d2" transform="translate(2980.87890625, 174.50581169128418)"><path style="" d="M 0,16.91608900386007 a 130.78515625,16.91608900386007 0,0,0 261.5703125 0 a 130.78515625,16.91608900386007 0,0,0 -261.5703125 0 l 0,50.916089003860066 a 130.78515625,16.91608900386007 0,0,0 261.5703125 0 l 0,-50.916089003860066" transform="translate(-130.78515625,-42.3741335057901)"></path><g class="label" style="" transform="translate(0, -9.5)"><rect></rect><text style=""><tspan xml:space="preserve" dy="1em" x="0" class="row">D2 Roles and Program Assignments</tspan></text></g></g><g class="node default default flowchart-label" id="flowchart-d3-14" label-offset-y="11.349986349986352" data-node="true" data-id="d3" transform="translate(2980.87890625, 854.2250843048096)"><path style="" d="M 0,11.349986349986352 a 51.96875,11.349986349986352 0,0,0 103.9375 0 a 51.96875,11.349986349986352 0,0,0 -103.9375 0 l 0,45.34998634998635 a 51.96875,11.349986349986352 0,0,0 103.9375 0 l 0,-45.34998634998635" transform="translate(-51.96875,-34.02497952497953)"></path><g class="label" style="" transform="translate(0, -9.5)"><rect></rect><text style=""><tspan xml:space="preserve" dy="1em" x="0" class="row">D3 Programs</tspan></text></g></g><g class="node default default flowchart-label" id="flowchart-d4-15" label-offset-y="10.136189662219909" data-node="true" data-id="d4" transform="translate(3755.17578125, 2026.554141998291)"><path style="" d="M 0,10.136189662219909 a 42.62109375,10.136189662219909 0,0,0 85.2421875 0 a 42.62109375,10.136189662219909 0,0,0 -85.2421875 0 l 0,44.136189662219905 a 42.62109375,10.136189662219909 0,0,0 85.2421875 0 l 0,-44.136189662219905" transform="translate(-42.62109375,-32.204284493329865)"></path><g class="label" style="" transform="translate(0, -9.5)"><rect></rect><text style=""><tspan xml:space="preserve" dy="1em" x="0" class="row">D4 Events</tspan></text></g></g><g class="node default default flowchart-label" id="flowchart-d5-16" label-offset-y="14.764061620349047" data-node="true" data-id="d5" transform="translate(2980.87890625, 977.3961582183838)"><path style="" d="M 0,14.764061620349047 a 90.1484375,14.764061620349047 0,0,0 180.296875 0 a 90.1484375,14.764061620349047 0,0,0 -180.296875 0 l 0,48.76406162034905 a 90.1484375,14.764061620349047 0,0,0 180.296875 0 l 0,-48.76406162034905" transform="translate(-90.1484375,-39.14609243052357)"></path><g class="label" style="" transform="translate(0, -9.5)"><rect></rect><text style=""><tspan xml:space="preserve" dy="1em" x="0" class="row">D5 Attendance Records</tspan></text></g></g><g class="node default default flowchart-label" id="flowchart-d6-17" label-offset-y="16.01930848675348" data-node="true" data-id="d6" transform="translate(2980.87890625, 1139.9840869903564)"><path style="" d="M 0,16.01930848675348 a 111.484375,16.01930848675348 0,0,0 222.96875 0 a 111.484375,16.01930848675348 0,0,0 -222.96875 0 l 0,50.01930848675348 a 111.484375,16.01930848675348 0,0,0 222.96875 0 l 0,-50.01930848675348" transform="translate(-111.484375,-41.02896273013022)"></path><g class="label" style="" transform="translate(0, -9.5)"><rect></rect><text style=""><tspan xml:space="preserve" dy="1em" x="0" class="row">D6 Attendance Sheet Exports</tspan></text></g></g><g class="node default default flowchart-label" id="flowchart-d7-18" label-offset-y="11.796501072784288" data-node="true" data-id="d7" transform="translate(2980.87890625, 1369.2398471832275)"><path style="" d="M 0,11.796501072784288 a 55.83984375,11.796501072784288 0,0,0 111.6796875 0 a 55.83984375,11.796501072784288 0,0,0 -111.6796875 0 l 0,45.79650107278429 a 55.83984375,11.796501072784288 0,0,0 111.6796875 0 l 0,-45.79650107278429" transform="translate(-55.83984375,-34.694751609176436)"></path><g class="label" style="" transform="translate(0, -9.5)"><rect></rect><text style=""><tspan xml:space="preserve" dy="1em" x="0" class="row">D7 Audit Logs</tspan></text></g></g></g></g></g></svg>