<svg id="mermaid-1784041640789" width="3908.8828125" xmlns="http://www.w3.org/2000/svg" xmlns:xlink="http://www.w3.org/1999/xlink" height="2430.238037109375" viewBox="-8 -23.416000366210938 3908.8828125 2430.238037109375" role="graphics-document document" aria-roledescription="flowchart-v2">
<rect x="-100000" y="-100000" width="200000" height="200000" fill="#000000"/>
<style>#mermaid-1784041640789{font-family:"trebuchet ms",verdana,arial,sans-serif;font-size:16px;fill:#ccc;}#mermaid-1784041640789 .error-icon{fill:#a44141;}#mermaid-1784041640789 .error-text{fill:#ddd;stroke:#ddd;}#mermaid-1784041640789 .edge-thickness-normal{stroke-width:2px;}#mermaid-1784041640789 .edge-thickness-thick{stroke-width:3.5px;}#mermaid-1784041640789 .edge-pattern-solid{stroke-dasharray:0;}#mermaid-1784041640789 .edge-pattern-dashed{stroke-dasharray:3;}#mermaid-1784041640789 .edge-pattern-dotted{stroke-dasharray:2;}#mermaid-1784041640789 .marker{fill:lightgrey;stroke:lightgrey;}#mermaid-1784041640789 .marker.cross{stroke:lightgrey;}#mermaid-1784041640789 svg{font-family:"trebuchet ms",verdana,arial,sans-serif;font-size:16px;}#mermaid-1784041640789 .label{font-family:"trebuchet ms",verdana,arial,sans-serif;color:#ccc;}#mermaid-1784041640789 .cluster-label text{fill:#F9FFFE;}#mermaid-1784041640789 .cluster-label span,#mermaid-1784041640789 p{color:#F9FFFE;}#mermaid-1784041640789 .label text,#mermaid-1784041640789 span,#mermaid-1784041640789 p{fill:#ccc;color:#ccc;}#mermaid-1784041640789 .node rect,#mermaid-1784041640789 .node circle,#mermaid-1784041640789 .node ellipse,#mermaid-1784041640789 .node polygon,#mermaid-1784041640789 .node path{fill:#1f2020;stroke:#81B1DB;stroke-width:1px;}#mermaid-1784041640789 .flowchart-label text{text-anchor:middle;}#mermaid-1784041640789 .node .katex path{fill:#000;stroke:#000;stroke-width:1px;}#mermaid-1784041640789 .node .label{text-align:center;}#mermaid-1784041640789 .node.clickable{cursor:pointer;}#mermaid-1784041640789 .arrowheadPath{fill:lightgrey;}#mermaid-1784041640789 .edgePath .path{stroke:lightgrey;stroke-width:2.0px;}#mermaid-1784041640789 .flowchart-link{stroke:lightgrey;fill:none;}#mermaid-1784041640789 .edgeLabel{background-color:hsl(0, 0%, 34.4117647059%);text-align:center;}#mermaid-1784041640789 .edgeLabel rect{opacity:0.5;background-color:hsl(0, 0%, 34.4117647059%);fill:hsl(0, 0%, 34.4117647059%);}#mermaid-1784041640789 .labelBkg{background-color:rgba(87.75, 87.75, 87.75, 0.5);}#mermaid-1784041640789 .cluster rect{fill:hsl(180, 1.5873015873%, 28.3529411765%);stroke:rgba(255, 255, 255, 0.25);stroke-width:1px;}#mermaid-1784041640789 .cluster text{fill:#F9FFFE;}#mermaid-1784041640789 .cluster span,#mermaid-1784041640789 p{color:#F9FFFE;}#mermaid-1784041640789 div.mermaidTooltip{position:absolute;text-align:center;max-width:200px;padding:2px;font-family:"trebuchet ms",verdana,arial,sans-serif;font-size:12px;background:hsl(20, 1.5873015873%, 12.3529411765%);border:1px solid rgba(255, 255, 255, 0.25);border-radius:2px;pointer-events:none;z-index:100;}#mermaid-1784041640789 .flowchartTitleText{text-anchor:middle;font-size:18px;fill:#ccc;}#mermaid-1784041640789 :root{--mermaid-font-family:"trebuchet ms",verdana,arial,sans-serif;}#mermaid-1784041640789 .note rect{fill:#1f2020!important;stroke:#8CA6DB!important;color:#d4d4d4!important;stroke-dasharray:5 5!important;}#mermaid-1784041640789 .note polygon{fill:#1f2020!important;stroke:#8CA6DB!important;color:#d4d4d4!important;stroke-dasharray:5 5!important;}#mermaid-1784041640789 .note ellipse{fill:#1f2020!important;stroke:#8CA6DB!important;color:#d4d4d4!important;stroke-dasharray:5 5!important;}#mermaid-1784041640789 .note circle{fill:#1f2020!important;stroke:#8CA6DB!important;color:#d4d4d4!important;stroke-dasharray:5 5!important;}#mermaid-1784041640789 .note path{fill:#1f2020!important;stroke:#8CA6DB!important;color:#d4d4d4!important;stroke-dasharray:5 5!important;}#mermaid-1784041640789 .note tspan{fill:#d4d4d4!important;}</style><g><marker id="mermaid-1784041640789_flowchart-pointEnd" class="marker flowchart" viewBox="0 0 10 10" refX="6" refY="5" markerUnits="userSpaceOnUse" markerWidth="12" markerHeight="12" orient="auto"><path d="M 0 0 L 10 5 L 0 10 z" class="arrowMarkerPath" style="stroke-width: 1; stroke-dasharray: 1, 0;"></path></marker><marker id="mermaid-1784041640789_flowchart-pointStart" class="marker flowchart" viewBox="0 0 10 10" refX="4.5" refY="5" markerUnits="userSpaceOnUse" markerWidth="12" markerHeight="12" orient="auto"><path d="M 0 5 L 10 10 L 10 0 z" class="arrowMarkerPath" style="stroke-width: 1; stroke-dasharray: 1, 0;"></path></marker><marker id="mermaid-1784041640789_flowchart-circleEnd" class="marker flowchart" viewBox="0 0 10 10" refX="11" refY="5" markerUnits="userSpaceOnUse" markerWidth="11" markerHeight="11" orient="auto"><circle cx="5" cy="5" r="5" class="arrowMarkerPath" style="stroke-width: 1; stroke-dasharray: 1, 0;"></circle></marker><marker id="mermaid-1784041640789_flowchart-circleStart" class="marker flowchart" viewBox="0 0 10 10" refX="-1" refY="5" markerUnits="userSpaceOnUse" markerWidth="11" markerHeight="11" orient="auto"><circle cx="5" cy="5" r="5" class="arrowMarkerPath" style="stroke-width: 1; stroke-dasharray: 1, 0;"></circle></marker><marker id="mermaid-1784041640789_flowchart-crossEnd" class="marker cross flowchart" viewBox="0 0 11 11" refX="12" refY="5.2" markerUnits="userSpaceOnUse" markerWidth="11" markerHeight="11" orient="auto"><path d="M 1,1 l 9,9 M 10,1 l -9,9" class="arrowMarkerPath" style="stroke-width: 2; stroke-dasharray: 1, 0;"></path></marker><marker id="mermaid-1784041640789_flowchart-crossStart" class="marker cross flowchart" viewBox="0 0 11 11" refX="-1" refY="5.2" markerUnits="userSpaceOnUse" markerWidth="11" markerHeight="11" orient="auto"><path d="M 1,1 l 9,9 M 10,1 l -9,9" class="arrowMarkerPath" style="stroke-width: 2; stroke-dasharray: 1, 0;"></path></marker><g class="root"><g class="clusters"></g><g class="edgePaths"><path d="M271.51,1221.485L340.203,1031.396C408.895,841.307,546.28,461.13,667.747,271.042C789.215,80.953,894.766,80.953,1011.249,80.953C1127.733,80.953,1255.15,80.953,1365.533,80.953C1475.917,80.953,1569.267,80.953,1659.657,80.953C1750.047,80.953,1837.477,80.953,1931.089,84.501C2024.702,88.05,2124.497,95.146,2174.395,98.694L2224.292,102.243" id="L-super_admin-p1-0" class=" edge-thickness-normal edge-pattern-solid flowchart-link LS-super_admin LE-p1" style="fill:none;" marker-end="url(#mermaid-1784041640789_flowchart-pointEnd)"></path><path d="M1666.323,1405.119L1709.42,1207.391C1752.517,1009.663,1838.712,614.207,1932.284,403.303C2025.856,192.398,2126.805,166.045,2177.28,152.868L2227.754,139.691" id="L-program_admin-p1-0" class=" edge-thickness-normal edge-pattern-solid flowchart-link LS-program_admin LE-p1" style="fill:none;" marker-end="url(#mermaid-1784041640789_flowchart-pointEnd)"></path><path d="M2452.601,84.678L2494.161,75.185C2535.722,65.692,2618.843,46.707,2699.608,40.466C2780.372,34.225,2858.78,40.729,2897.983,43.981L2937.187,47.233" id="L-p1-d1-0" class=" edge-thickness-normal edge-pattern-solid flowchart-link LS-p1 LE-d1" style="fill:none;" marker-start="url(#mermaid-1784041640789_flowchart-pointStart)" marker-end="url(#mermaid-1784041640789_flowchart-pointEnd)"></path><path d="M2455.441,114.359L2496.528,115.746C2537.616,117.133,2619.79,119.907,2684.697,125.72C2749.604,131.533,2797.244,140.385,2821.063,144.811L2844.883,149.237" id="L-p1-d2-0" class=" edge-thickness-normal edge-pattern-solid flowchart-link LS-p1 LE-d2" style="fill:none;" marker-start="url(#mermaid-1784041640789_flowchart-pointStart)" marker-end="url(#mermaid-1784041640789_flowchart-pointEnd)"></path><path d="M2370.556,216.524L2425.791,406.733C2481.026,596.941,2591.495,977.357,2683.795,1193.449C2776.095,1409.542,2850.225,1461.31,2887.29,1487.194L2924.355,1513.079" id="L-p1-d7-0" class=" edge-thickness-normal edge-pattern-solid flowchart-link LS-p1 LE-d7" style="fill:none;" marker-end="url(#mermaid-1784041640789_flowchart-pointEnd)"></path><path d="M274.304,1221.485L342.531,1091.708C410.758,961.931,547.211,702.378,668.213,572.601C789.215,442.824,894.766,442.824,1011.249,442.824C1127.733,442.824,1255.15,442.824,1365.533,442.824C1475.917,442.824,1569.267,442.824,1659.657,442.824C1750.047,442.824,1837.477,442.824,1920.796,442.824C2004.116,442.824,2083.326,442.824,2122.931,442.824L2162.536,442.824" id="L-super_admin-p2-0" class=" edge-thickness-normal edge-pattern-solid flowchart-link LS-super_admin LE-p2" style="fill:none;" marker-end="url(#mermaid-1784041640789_flowchart-pointEnd)"></path><path d="M2468.94,321.509L2507.777,285.038C2546.615,248.567,2624.29,175.624,2702.343,131.867C2780.396,88.109,2858.827,73.536,2898.042,66.249L2937.258,58.963" id="L-p2-d1-0" class=" edge-thickness-normal edge-pattern-solid flowchart-link LS-p2 LE-d1" style="fill:none;" marker-start="url(#mermaid-1784041640789_flowchart-pointStart)" marker-end="url(#mermaid-1784041640789_flowchart-pointEnd)"></path><path d="M2504.442,377.371L2537.362,364.287C2570.283,351.203,2636.124,325.035,2698.893,297.783C2761.662,270.531,2821.359,242.194,2851.207,228.026L2881.056,213.858" id="L-p2-d2-0" class=" edge-thickness-normal edge-pattern-solid flowchart-link LS-p2 LE-d2" style="fill:none;" marker-start="url(#mermaid-1784041640789_flowchart-pointStart)" marker-end="url(#mermaid-1784041640789_flowchart-pointEnd)"></path><path d="M2470.514,562.44L2509.089,597.728C2547.664,633.016,2624.815,703.591,2701.666,768.704C2778.517,833.818,2855.07,893.469,2893.346,923.295L2931.623,953.12" id="L-p2-d3-0" class=" edge-thickness-normal edge-pattern-solid flowchart-link LS-p2 LE-d3" style="fill:none;" marker-start="url(#mermaid-1784041640789_flowchart-pointStart)" marker-end="url(#mermaid-1784041640789_flowchart-pointEnd)"></path><path d="M2401.859,603.132L2451.877,732.239C2501.894,861.346,2601.93,1119.56,2688.384,1272.206C2774.839,1424.852,2847.713,1471.93,2884.15,1495.469L2920.587,1519.008" id="L-p2-d7-0" class=" edge-thickness-normal edge-pattern-solid flowchart-link LS-p2 LE-d7" style="fill:none;" marker-end="url(#mermaid-1784041640789_flowchart-pointEnd)"></path><path d="M276.694,1221.485L344.522,1119.684C412.351,1017.884,548.007,814.284,668.611,712.484C789.215,610.683,894.766,610.683,1011.249,610.683C1127.733,610.683,1255.15,610.683,1365.533,610.683C1475.917,610.683,1569.267,610.683,1659.657,610.683C1750.047,610.683,1837.477,610.683,1925.717,633.773C2013.957,656.864,2103.008,703.044,2147.533,726.134L2192.058,749.224" id="L-super_admin-p3-0" class=" edge-thickness-normal edge-pattern-solid flowchart-link LS-super_admin LE-p3" style="fill:none;" marker-end="url(#mermaid-1784041640789_flowchart-pointEnd)"></path><path d="M1672.388,1405.119L1714.474,1331.892C1756.561,1258.665,1840.733,1112.211,1925.687,1024.524C2010.64,936.837,2096.374,907.916,2139.241,893.456L2182.108,878.995" id="L-program_admin-p3-0" class=" edge-thickness-normal edge-pattern-solid flowchart-link LS-program_admin LE-p3" style="fill:none;" marker-end="url(#mermaid-1784041640789_flowchart-pointEnd)"></path><path d="M2463.51,714.619L2503.253,678.91C2542.995,643.201,2622.48,571.782,2702.089,489.387C2781.699,406.991,2861.433,313.619,2901.3,266.933L2941.168,220.247" id="L-p3-d2-0" class=" edge-thickness-normal edge-pattern-solid flowchart-link LS-p3 LE-d2" style="fill:none;" marker-start="url(#mermaid-1784041640789_flowchart-pointStart)" marker-end="url(#mermaid-1784041640789_flowchart-pointEnd)"></path><path d="M2493.492,889.417L2528.237,903.792C2562.983,918.166,2632.474,946.914,2704.161,962.485C2775.848,978.057,2849.73,980.451,2886.672,981.648L2923.613,982.846" id="L-p3-d3-0" class=" edge-thickness-normal edge-pattern-solid flowchart-link LS-p3 LE-d3" style="fill:none;" marker-start="url(#mermaid-1784041640789_flowchart-pointStart)" marker-end="url(#mermaid-1784041640789_flowchart-pointEnd)"></path><path d="M2405.55,673.005L2454.953,558.268C2504.355,443.531,2603.16,214.058,2699.048,99.321C2794.936,-15.416,2887.908,-15.416,2980.23,-15.416C3072.552,-15.416,3164.225,-15.416,3255.969,-15.416C3347.714,-15.416,3439.529,-15.416,3511.471,-15.416C3583.414,-15.416,3635.484,-15.416,3680.329,346.501C3725.173,708.418,3762.791,1432.252,3781.6,1794.169L3800.409,2156.086" id="L-p3-d4-0" class=" edge-thickness-normal edge-pattern-solid flowchart-link LS-p3 LE-d4" style="fill:none;" marker-start="url(#mermaid-1784041640789_flowchart-pointStart)" marker-end="url(#mermaid-1784041640789_flowchart-pointEnd)"></path><path d="M2425.932,961.898L2471.938,1034.544C2517.943,1107.19,2609.954,1252.482,2692.372,1346.04C2774.791,1439.598,2847.617,1481.424,2884.03,1502.336L2920.443,1523.249" id="L-p3-d7-0" class=" edge-thickness-normal edge-pattern-solid flowchart-link LS-p3 LE-d7" style="fill:none;" marker-end="url(#mermaid-1784041640789_flowchart-pointEnd)"></path><path d="M309.983,1255.485L372.263,1279.215C434.543,1302.946,559.104,1350.407,647.543,1383.208C735.983,1416.009,788.302,1434.149,814.461,1443.219L840.621,1452.289" id="L-super_admin-p4-0" class=" edge-thickness-normal edge-pattern-solid flowchart-link LS-super_admin LE-p4" style="fill:none;" marker-end="url(#mermaid-1784041640789_flowchart-pointEnd)"></path><path d="M1601.094,1426.402L1564.673,1428.939C1528.251,1431.475,1455.409,1436.547,1383.038,1445.293C1310.668,1454.04,1238.77,1466.462,1202.821,1472.673L1166.872,1478.884" id="L-program_admin-p4-0" class=" edge-thickness-normal edge-pattern-solid flowchart-link LS-program_admin LE-p4" style="fill:none;" marker-end="url(#mermaid-1784041640789_flowchart-pointEnd)"></path><path d="M1098.124,1645.509L1145.531,1712.324C1192.938,1779.139,1287.752,1912.77,1381.834,1979.585C1475.917,2046.4,1569.267,2046.4,1659.657,2046.4C1750.047,2046.4,1837.477,2046.4,1950.333,2046.4C2063.189,2046.4,2201.471,2046.4,2330.981,2046.4C2460.491,2046.4,2581.228,2046.4,2688.082,2046.4C2794.936,2046.4,2887.908,2046.4,2980.23,2046.4C3072.552,2046.4,3164.225,2046.4,3255.969,2046.4C3347.714,2046.4,3439.529,2046.4,3511.471,2046.4C3583.414,2046.4,3635.484,2046.4,3675.312,2064.986C3715.139,2083.573,3742.724,2120.745,3756.516,2139.331L3770.308,2157.918" id="L-p4-d4-0" class=" edge-thickness-normal edge-pattern-solid flowchart-link LS-p4 LE-d4" style="fill:none;" marker-start="url(#mermaid-1784041640789_flowchart-pointStart)" marker-end="url(#mermaid-1784041640789_flowchart-pointEnd)"></path><path d="M1163.386,1522.271L1199.916,1525.544C1236.446,1528.817,1309.506,1535.363,1392.711,1538.636C1475.917,1541.91,1569.267,1541.91,1659.657,1541.91C1750.047,1541.91,1837.477,1541.91,1950.333,1541.91C2063.189,1541.91,2201.471,1541.91,2330.981,1541.91C2460.491,1541.91,2581.228,1541.91,2677.892,1542.079C2774.556,1542.248,2847.148,1542.586,2883.443,1542.755L2919.739,1542.924" id="L-p4-d7-0" class=" edge-thickness-normal edge-pattern-solid flowchart-link LS-p4 LE-d7" style="fill:none;" marker-end="url(#mermaid-1784041640789_flowchart-pointEnd)"></path><path d="M847.101,1565.367L819.861,1575.626C792.622,1585.885,738.143,1606.404,644.886,1555.358C551.629,1504.313,419.593,1381.702,353.575,1320.396L287.558,1259.091" id="L-p4-super_admin-0" class=" edge-thickness-normal edge-pattern-solid flowchart-link LS-p4 LE-super_admin" style="fill:none;" marker-end="url(#mermaid-1784041640789_flowchart-pointEnd)"></path><path d="M1158.187,1464.277L1195.583,1454.001C1232.98,1443.724,1307.773,1423.172,1380.71,1415.37C1453.646,1407.568,1524.727,1412.517,1560.267,1414.992L1595.807,1417.467" id="L-p4-program_admin-0" class=" edge-thickness-normal edge-pattern-solid flowchart-link LS-p4 LE-program_admin" style="fill:none;" marker-end="url(#mermaid-1784041640789_flowchart-pointEnd)"></path><path d="M3053.336,2143.417L3087.096,2143.417C3120.857,2143.417,3188.378,2143.417,3245.979,2149.407C3303.581,2155.396,3351.264,2167.374,3375.105,2173.363L3398.946,2179.352" id="L-attendee-p5-0" class=" edge-thickness-normal edge-pattern-solid flowchart-link LS-attendee LE-p5" style="fill:none;" marker-end="url(#mermaid-1784041640789_flowchart-pointEnd)"></path><path d="M3667.855,2212.611L3671.138,2212.611C3674.421,2212.611,3680.988,2212.611,3687.56,2212.266C3694.131,2211.921,3700.707,2211.23,3703.995,2210.885L3707.284,2210.54" id="L-p5-d4-0" class=" edge-thickness-normal edge-pattern-solid flowchart-link LS-p5 LE-d4" style="fill:none;" marker-start="url(#mermaid-1784041640789_flowchart-pointStart)" marker-end="url(#mermaid-1784041640789_flowchart-pointEnd)"></path><path d="M3402.788,2238.872L3378.306,2243.873C3353.825,2248.874,3304.862,2258.876,3234.543,2263.877C3164.225,2268.878,3072.552,2268.878,2980.23,2268.878C2887.908,2268.878,2794.936,2268.878,2707.998,2214.869C2621.059,2160.86,2540.154,2052.842,2499.701,1998.832L2459.248,1944.823" id="L-p5-p6-0" class=" edge-thickness-normal edge-pattern-solid flowchart-link LS-p5 LE-p6" style="fill:none;" marker-end="url(#mermaid-1784041640789_flowchart-pointEnd)"></path><path d="M2443.587,1955.432L2486.65,2025.997C2529.713,2096.562,2615.839,2237.692,2705.388,2308.257C2794.936,2378.822,2887.908,2378.822,2980.23,2378.822C3072.552,2378.822,3164.225,2378.822,3255.969,2378.822C3347.714,2378.822,3439.529,2378.822,3511.471,2378.822C3583.414,2378.822,3635.484,2378.822,3676.021,2356.274C3716.558,2333.726,3745.562,2288.631,3760.064,2266.083L3774.566,2243.536" id="L-p6-d4-0" class=" edge-thickness-normal edge-pattern-solid flowchart-link LS-p6 LE-d4" style="fill:none;" marker-start="url(#mermaid-1784041640789_flowchart-pointStart)" marker-end="url(#mermaid-1784041640789_flowchart-pointEnd)"></path><path d="M2428.447,1606.777L2474.034,1515.029C2519.62,1423.281,2610.792,1239.784,2686.971,1153.694C2763.15,1067.603,2824.334,1078.92,2854.927,1084.578L2885.519,1090.236" id="L-p6-d5-0" class=" edge-thickness-normal edge-pattern-solid flowchart-link LS-p6 LE-d5" style="fill:none;" marker-start="url(#mermaid-1784041640789_flowchart-pointStart)" marker-end="url(#mermaid-1784041640789_flowchart-pointEnd)"></path><path d="M2398.826,1594.912L2449.349,1432.09C2499.872,1269.268,2600.919,943.624,2693.016,714.641C2785.113,485.658,2868.261,353.335,2909.835,287.174L2951.409,221.013" id="L-p6-d2-0" class=" edge-thickness-normal edge-pattern-solid flowchart-link LS-p6 LE-d2" style="fill:none;" marker-start="url(#mermaid-1784041640789_flowchart-pointStart)" marker-end="url(#mermaid-1784041640789_flowchart-pointEnd)"></path><path d="M2533.781,1785.285L2561.812,1785.285C2589.842,1785.285,2645.904,1785.285,2713.096,1750.712C2780.289,1716.139,2858.612,1646.994,2897.774,1612.421L2936.936,1577.848" id="L-p6-d7-0" class=" edge-thickness-normal edge-pattern-solid flowchart-link LS-p6 LE-d7" style="fill:none;" marker-end="url(#mermaid-1784041640789_flowchart-pointEnd)"></path><path d="M2477.726,1921.704L2515.1,1958.656C2552.473,1995.608,2627.219,2069.513,2698.118,2106.465C2769.017,2143.417,2836.07,2143.417,2869.596,2143.417L2903.122,2143.417" id="L-p6-attendee-0" class=" edge-thickness-normal edge-pattern-solid flowchart-link LS-p6 LE-attendee" style="fill:none;" marker-end="url(#mermaid-1784041640789_flowchart-pointEnd)"></path><path d="M279.517,1255.485L346.875,1336.41C414.233,1417.335,548.948,1579.185,669.082,1660.11C789.215,1741.035,894.766,1741.035,1011.249,1741.035C1127.733,1741.035,1255.15,1741.035,1365.533,1741.035C1475.917,1741.035,1569.267,1741.035,1659.657,1741.035C1750.047,1741.035,1837.477,1741.035,1917.299,1744.886C1997.121,1748.737,2069.336,1756.44,2105.443,1760.292L2141.551,1764.143" id="L-super_admin-p6-0" class=" edge-thickness-normal edge-pattern-solid flowchart-link LS-super_admin LE-p6" style="fill:none;" marker-end="url(#mermaid-1784041640789_flowchart-pointEnd)"></path><path d="M1675.415,1439.119L1716.997,1494.355C1758.579,1549.591,1841.742,1660.063,1919.265,1716.576C1996.788,1773.09,2068.67,1775.646,2104.611,1776.924L2140.552,1778.202" id="L-program_admin-p6-0" class=" edge-thickness-normal edge-pattern-solid flowchart-link LS-program_admin LE-p6" style="fill:none;" marker-end="url(#mermaid-1784041640789_flowchart-pointEnd)"></path><path d="M2147.316,1810.07L2110.248,1814.845C2073.18,1819.619,1999.043,1829.168,1918.26,1833.942C1837.477,1838.716,1750.047,1838.716,1659.657,1838.716C1569.267,1838.716,1475.917,1838.716,1365.533,1838.716C1255.15,1838.716,1127.733,1838.716,1011.249,1838.716C894.766,1838.716,789.215,1838.716,669.203,1742.236C549.191,1645.755,414.718,1452.794,347.481,1356.313L280.245,1259.833" id="L-p6-super_admin-0" class=" edge-thickness-normal edge-pattern-solid flowchart-link LS-p6 LE-super_admin" style="fill:none;" marker-end="url(#mermaid-1784041640789_flowchart-pointEnd)"></path><path d="M2152.721,1836.913L2114.752,1847.394C2076.783,1857.875,2000.845,1878.836,1921.142,1813.312C1841.438,1747.787,1757.971,1595.776,1716.237,1519.77L1674.503,1443.764" id="L-p6-program_admin-0" class=" edge-thickness-normal edge-pattern-solid flowchart-link LS-p6 LE-program_admin" style="fill:none;" marker-end="url(#mermaid-1784041640789_flowchart-pointEnd)"></path><path d="M294.603,1221.485L359.447,1183.78C424.29,1146.076,553.977,1070.667,671.596,1032.962C789.215,995.258,894.766,995.258,1011.249,995.258C1127.733,995.258,1255.15,995.258,1365.533,995.258C1475.917,995.258,1569.267,995.258,1659.657,995.258C1750.047,995.258,1837.477,995.258,1919.207,1018.691C2000.938,1042.124,2076.969,1088.99,2114.985,1112.423L2153.001,1135.857" id="L-super_admin-p7-0" class=" edge-thickness-normal edge-pattern-solid flowchart-link LS-super_admin LE-p7" style="fill:none;" marker-end="url(#mermaid-1784041640789_flowchart-pointEnd)"></path><path d="M1673.839,1405.119L1715.683,1341.725C1757.528,1278.332,1841.217,1151.545,1920.102,1108.349C1998.986,1065.153,2073.066,1105.549,2110.107,1125.747L2147.147,1145.945" id="L-program_admin-p7-0" class=" edge-thickness-normal edge-pattern-solid flowchart-link LS-program_admin LE-p7" style="fill:none;" marker-end="url(#mermaid-1784041640789_flowchart-pointEnd)"></path><path d="M2452.972,1063.063L2494.471,994.186C2535.97,925.31,2618.967,787.557,2702.361,647.237C2785.754,506.918,2869.543,364.03,2911.437,292.587L2953.332,221.143" id="L-p7-d2-0" class=" edge-thickness-normal edge-pattern-solid flowchart-link LS-p7 LE-d2" style="fill:none;" marker-start="url(#mermaid-1784041640789_flowchart-pointStart)" marker-end="url(#mermaid-1784041640789_flowchart-pointEnd)"></path><path d="M2528.477,1139.115L2557.391,1121.977C2586.306,1104.839,2644.136,1070.563,2710.006,1046.59C2775.876,1022.617,2849.787,1008.947,2886.743,1002.112L2923.699,995.277" id="L-p7-d3-0" class=" edge-thickness-normal edge-pattern-solid flowchart-link LS-p7 LE-d3" style="fill:none;" marker-start="url(#mermaid-1784041640789_flowchart-pointStart)" marker-end="url(#mermaid-1784041640789_flowchart-pointEnd)"></path><path d="M2405.772,1460.186L2455.138,1616.625C2504.503,1773.064,2603.234,2085.943,2699.085,2242.383C2794.936,2398.822,2887.908,2398.822,2980.23,2398.822C3072.552,2398.822,3164.225,2398.822,3255.969,2398.822C3347.714,2398.822,3439.529,2398.822,3511.471,2398.822C3583.414,2398.822,3635.484,2398.822,3676.482,2372.982C3717.479,2347.141,3747.403,2295.461,3762.365,2269.62L3777.328,2243.78" id="L-p7-d4-0" class=" edge-thickness-normal edge-pattern-solid flowchart-link LS-p7 LE-d4" style="fill:none;" marker-start="url(#mermaid-1784041640789_flowchart-pointStart)" marker-end="url(#mermaid-1784041640789_flowchart-pointEnd)"></path><path d="M2546.463,1177.489L2572.38,1168.275C2598.297,1159.062,2650.131,1140.635,2706.627,1129.85C2763.122,1119.065,2824.28,1115.922,2854.859,1114.35L2885.437,1112.778" id="L-p7-d5-0" class=" edge-thickness-normal edge-pattern-solid flowchart-link LS-p7 LE-d5" style="fill:none;" marker-start="url(#mermaid-1784041640789_flowchart-pointStart)" marker-end="url(#mermaid-1784041640789_flowchart-pointEnd)"></path><path d="M2550.671,1287.646L2575.887,1292.031C2601.102,1296.415,2651.534,1305.184,2703.771,1309.568C2756.008,1313.953,2810.051,1313.953,2837.073,1313.953L2864.095,1313.953" id="L-p7-d6-0" class=" edge-thickness-normal edge-pattern-solid flowchart-link LS-p7 LE-d6" style="fill:none;" marker-end="url(#mermaid-1784041640789_flowchart-pointEnd)"></path><path d="M2444.107,1437.899L2487.083,1514.882C2530.06,1591.866,2616.012,1745.832,2700.409,1769.615C2784.806,1793.397,2867.648,1686.996,2909.068,1633.795L2950.489,1580.595" id="L-p7-d7-0" class=" edge-thickness-normal edge-pattern-solid flowchart-link LS-p7 LE-d7" style="fill:none;" marker-end="url(#mermaid-1784041640789_flowchart-pointEnd)"></path><path d="M2126.337,1267.839L2092.765,1270.492C2059.194,1273.145,1992.05,1278.451,1914.763,1281.104C1837.477,1283.757,1750.047,1283.757,1659.657,1283.757C1569.267,1283.757,1475.917,1283.757,1365.533,1283.757C1255.15,1283.757,1127.733,1283.757,1011.249,1283.757C894.766,1283.757,789.215,1283.757,676.304,1277.249C563.393,1270.74,443.122,1257.723,382.987,1251.215L322.851,1244.706" id="L-p7-super_admin-0" class=" edge-thickness-normal edge-pattern-solid flowchart-link LS-p7 LE-super_admin" style="fill:none;" marker-end="url(#mermaid-1784041640789_flowchart-pointEnd)"></path><path d="M2141.852,1332.617L2105.694,1347.534C2069.537,1362.451,1997.221,1392.285,1928.486,1407.202C1859.751,1422.119,1794.596,1422.119,1762.018,1422.119L1729.441,1422.119" id="L-p7-program_admin-0" class=" edge-thickness-normal edge-pattern-solid flowchart-link LS-p7 LE-program_admin" style="fill:none;" marker-end="url(#mermaid-1784041640789_flowchart-pointEnd)"></path><path d="M275.885,1255.485L343.849,1365.328C411.812,1475.172,547.738,1694.86,653.778,1816.701C759.818,1938.541,835.972,1962.534,874.049,1974.53L912.126,1986.527" id="L-super_admin-p8-0" class=" edge-thickness-normal edge-pattern-solid flowchart-link LS-super_admin LE-p8" style="fill:none;" marker-end="url(#mermaid-1784041640789_flowchart-pointEnd)"></path><path d="M1092.78,2014.312L1141.078,2014.312C1189.376,2014.312,1285.971,2014.312,1380.944,2014.312C1475.917,2014.312,1569.267,2014.312,1659.657,2014.312C1750.047,2014.312,1837.477,2014.312,1950.333,2014.312C2063.189,2014.312,2201.471,2014.312,2330.981,2014.312C2460.491,2014.312,2581.228,2014.312,2684.21,1942.199C2787.191,1870.086,2872.418,1725.861,2915.031,1653.748L2957.644,1581.635" id="L-p8-d7-0" class=" edge-thickness-normal edge-pattern-solid flowchart-link LS-p8 LE-d7" style="fill:none;" marker-start="url(#mermaid-1784041640789_flowchart-pointStart)" marker-end="url(#mermaid-1784041640789_flowchart-pointEnd)"></path><path d="M913.317,2019.67L875.042,2022.027C836.766,2024.384,760.215,2029.098,654.125,1902.515C548.034,1775.933,412.405,1518.054,344.59,1389.115L276.775,1260.175" id="L-p8-super_admin-0" class=" edge-thickness-normal edge-pattern-solid flowchart-link LS-p8 LE-super_admin" style="fill:none;" marker-end="url(#mermaid-1784041640789_flowchart-pointEnd)"></path></g><g class="edgeLabels"><g class="edgeLabel" transform="translate(1382.56640625, 80.953125)"><g class="label" transform="translate(-61.5625, -9.5)"><rect rx="0" ry="0" width="123.05255889892578" height="19.000038146972656"></rect><text style=""><tspan xml:space="preserve" dy="1em" x="0" class="row">Login credentials</tspan></text></g></g><g class="edgeLabel" transform="translate(1924.90625, 218.75172424316406)"><g class="label" transform="translate(-61.5625, -9.5)"><rect rx="0" ry="0" width="123.05255889892578" height="19.000038146972656"></rect><text style=""><tspan xml:space="preserve" dy="1em" x="0" class="row">Login credentials</tspan></text></g></g><g class="edgeLabel"><g class="label" transform="translate(0, 0)"><rect rx="0" ry="0" width="0" height="0"></rect><text style=""><tspan xml:space="preserve" dy="1em" x="0" class="row"></tspan></text></g></g><g class="edgeLabel"><g class="label" transform="translate(0, 0)"><rect rx="0" ry="0" width="0" height="0"></rect><text style=""><tspan xml:space="preserve" dy="1em" x="0" class="row"></tspan></text></g></g><g class="edgeLabel"><g class="label" transform="translate(0, 0)"><rect rx="0" ry="0" width="0" height="0"></rect><text style=""><tspan xml:space="preserve" dy="1em" x="0" class="row"></tspan></text></g></g><g class="edgeLabel" transform="translate(1382.56640625, 442.82421875)"><g class="label" transform="translate(-128.16015625, -9.5)"><rect rx="0" ry="0" width="256.1647644042969" height="19.000038146972656"></rect><text style=""><tspan xml:space="preserve" dy="1em" x="0" class="row">User, program, assignment requests</tspan></text></g></g><g class="edgeLabel"><g class="label" transform="translate(0, 0)"><rect rx="0" ry="0" width="0" height="0"></rect><text style=""><tspan xml:space="preserve" dy="1em" x="0" class="row"></tspan></text></g></g><g class="edgeLabel"><g class="label" transform="translate(0, 0)"><rect rx="0" ry="0" width="0" height="0"></rect><text style=""><tspan xml:space="preserve" dy="1em" x="0" class="row"></tspan></text></g></g><g class="edgeLabel"><g class="label" transform="translate(0, 0)"><rect rx="0" ry="0" width="0" height="0"></rect><text style=""><tspan xml:space="preserve" dy="1em" x="0" class="row"></tspan></text></g></g><g class="edgeLabel"><g class="label" transform="translate(0, 0)"><rect rx="0" ry="0" width="0" height="0"></rect><text style=""><tspan xml:space="preserve" dy="1em" x="0" class="row"></tspan></text></g></g><g class="edgeLabel" transform="translate(1382.56640625, 610.6833648681641)"><g class="label" transform="translate(-145.61328125, -9.5)"><rect rx="0" ry="0" width="291.0491638183594" height="19.000038146972656"></rect><text style=""><tspan xml:space="preserve" dy="1em" x="0" class="row">Event details, status, field requirements</tspan></text></g></g><g class="edgeLabel" transform="translate(1924.90625, 965.7575836181641)"><g class="label" transform="translate(-166.2578125, -9.5)"><rect rx="0" ry="0" width="332.3131103515625" height="19.000038146972656"></rect><text style=""><tspan xml:space="preserve" dy="1em" x="0" class="row">Assigned event and field requirement changes</tspan></text></g></g><g class="edgeLabel"><g class="label" transform="translate(0, 0)"><rect rx="0" ry="0" width="0" height="0"></rect><text style=""><tspan xml:space="preserve" dy="1em" x="0" class="row"></tspan></text></g></g><g class="edgeLabel"><g class="label" transform="translate(0, 0)"><rect rx="0" ry="0" width="0" height="0"></rect><text style=""><tspan xml:space="preserve" dy="1em" x="0" class="row"></tspan></text></g></g><g class="edgeLabel"><g class="label" transform="translate(0, 0)"><rect rx="0" ry="0" width="0" height="0"></rect><text style=""><tspan xml:space="preserve" dy="1em" x="0" class="row"></tspan></text></g></g><g class="edgeLabel"><g class="label" transform="translate(0, 0)"><rect rx="0" ry="0" width="0" height="0"></rect><text style=""><tspan xml:space="preserve" dy="1em" x="0" class="row"></tspan></text></g></g><g class="edgeLabel" transform="translate(683.6640625, 1397.868595123291)"><g class="label" transform="translate(-57.1171875, -9.5)"><rect rx="0" ry="0" width="114.16746520996094" height="19.000038146972656"></rect><text style=""><tspan xml:space="preserve" dy="1em" x="0" class="row">QR/link request</tspan></text></g></g><g class="edgeLabel" transform="translate(1382.56640625, 1441.618595123291)"><g class="label" transform="translate(-124.72265625, -9.5)"><rect rx="0" ry="0" width="249.29405212402344" height="19.000038146972656"></rect><text style=""><tspan xml:space="preserve" dy="1em" x="0" class="row">QR/link request for program event</tspan></text></g></g><g class="edgeLabel"><g class="label" transform="translate(0, 0)"><rect rx="0" ry="0" width="0" height="0"></rect><text style=""><tspan xml:space="preserve" dy="1em" x="0" class="row"></tspan></text></g></g><g class="edgeLabel"><g class="label" transform="translate(0, 0)"><rect rx="0" ry="0" width="0" height="0"></rect><text style=""><tspan xml:space="preserve" dy="1em" x="0" class="row"></tspan></text></g></g><g class="edgeLabel" transform="translate(683.6640625, 1626.923282623291)"><g class="label" transform="translate(-127.9296875, -9.5)"><rect rx="0" ry="0" width="255.70530700683594" height="19.000038146972656"></rect><text style=""><tspan xml:space="preserve" dy="1em" x="0" class="row">Public attendance link and QR code</tspan></text></g></g><g class="edgeLabel" transform="translate(1382.56640625, 1402.618595123291)"><g class="label" transform="translate(-193.52734375, -9.5)"><rect rx="0" ry="0" width="386.8175048828125" height="19.000038146972656"></rect><text style=""><tspan xml:space="preserve" dy="1em" x="0" class="row">Public attendance link and QR code for created event</tspan></text></g></g><g class="edgeLabel" transform="translate(3255.8984375, 2143.417423248291)"><g class="label" transform="translate(-119.234375, -9.5)"><rect rx="0" ry="0" width="238.32554626464844" height="19.000038146972656"></rect><text style=""><tspan xml:space="preserve" dy="1em" x="0" class="row">Open link and submit attendance</tspan></text></g></g><g class="edgeLabel"><g class="label" transform="translate(0, 0)"><rect rx="0" ry="0" width="0" height="0"></rect><text style=""><tspan xml:space="preserve" dy="1em" x="0" class="row"></tspan></text></g></g><g class="edgeLabel" transform="translate(2980.87890625, 2268.878360748291)"><g class="label" transform="translate(-98.55078125, -9.5)"><rect rx="0" ry="0" width="196.98419189453125" height="19.000038146972656"></rect><text style=""><tspan xml:space="preserve" dy="1em" x="0" class="row">Submitted attendance data</tspan></text></g></g><g class="edgeLabel"><g class="label" transform="translate(0, 0)"><rect rx="0" ry="0" width="0" height="0"></rect><text style=""><tspan xml:space="preserve" dy="1em" x="0" class="row"></tspan></text></g></g><g class="edgeLabel"><g class="label" transform="translate(0, 0)"><rect rx="0" ry="0" width="0" height="0"></rect><text style=""><tspan xml:space="preserve" dy="1em" x="0" class="row"></tspan></text></g></g><g class="edgeLabel"><g class="label" transform="translate(0, 0)"><rect rx="0" ry="0" width="0" height="0"></rect><text style=""><tspan xml:space="preserve" dy="1em" x="0" class="row"></tspan></text></g></g><g class="edgeLabel"><g class="label" transform="translate(0, 0)"><rect rx="0" ry="0" width="0" height="0"></rect><text style=""><tspan xml:space="preserve" dy="1em" x="0" class="row"></tspan></text></g></g><g class="edgeLabel" transform="translate(2701.96484375, 2143.417423248291)"><g class="label" transform="translate(-123.12890625, -9.5)"><rect rx="0" ry="0" width="246.11041259765625" height="19.000038146972656"></rect><text style=""><tspan xml:space="preserve" dy="1em" x="0" class="row">Validation result and confirmation</tspan></text></g></g><g class="edgeLabel" transform="translate(1382.56640625, 1741.034610748291)"><g class="label" transform="translate(-150.42578125, -9.5)"><rect rx="0" ry="0" width="300.67254638671875" height="19.000038146972656"></rect><text style=""><tspan xml:space="preserve" dy="1em" x="0" class="row">Attendance list, detail, and status review</tspan></text></g></g><g class="edgeLabel" transform="translate(1924.90625, 1770.534610748291)"><g class="label" transform="translate(-156.15625, -9.5)"><rect rx="0" ry="0" width="312.1256408691406" height="19.000038146972656"></rect><text style=""><tspan xml:space="preserve" dy="1em" x="0" class="row">Review attendance under assigned program</tspan></text></g></g><g class="edgeLabel" transform="translate(1382.56640625, 1838.716251373291)"><g class="label" transform="translate(-133.19140625, -9.5)"><rect rx="0" ry="0" width="266.2215576171875" height="19.000038146972656"></rect><text style=""><tspan xml:space="preserve" dy="1em" x="0" class="row">Attendance records and status result</tspan></text></g></g><g class="edgeLabel" transform="translate(1924.90625, 1899.798282623291)"><g class="label" transform="translate(-155.48828125, -9.5)"><rect rx="0" ry="0" width="310.7875061035156" height="19.000038146972656"></rect><text style=""><tspan xml:space="preserve" dy="1em" x="0" class="row">Assigned-program records and status result</tspan></text></g></g><g class="edgeLabel" transform="translate(1382.56640625, 995.2575836181641)"><g class="label" transform="translate(-117.453125, -9.5)"><rect rx="0" ry="0" width="234.7640380859375" height="19.000038146972656"></rect><text style=""><tspan xml:space="preserve" dy="1em" x="0" class="row">Dashboard/report/sheet request</tspan></text></g></g><g class="edgeLabel" transform="translate(1924.90625, 1024.757583618164)"><g class="label" transform="translate(-154.5, -9.5)"><rect rx="0" ry="0" width="308.8131408691406" height="19.000038146972656"></rect><text style=""><tspan xml:space="preserve" dy="1em" x="0" class="row">Report/sheet request for assigned program</tspan></text></g></g><g class="edgeLabel"><g class="label" transform="translate(0, 0)"><rect rx="0" ry="0" width="0" height="0"></rect><text style=""><tspan xml:space="preserve" dy="1em" x="0" class="row"></tspan></text></g></g><g class="edgeLabel"><g class="label" transform="translate(0, 0)"><rect rx="0" ry="0" width="0" height="0"></rect><text style=""><tspan xml:space="preserve" dy="1em" x="0" class="row"></tspan></text></g></g><g class="edgeLabel"><g class="label" transform="translate(0, 0)"><rect rx="0" ry="0" width="0" height="0"></rect><text style=""><tspan xml:space="preserve" dy="1em" x="0" class="row"></tspan></text></g></g><g class="edgeLabel"><g class="label" transform="translate(0, 0)"><rect rx="0" ry="0" width="0" height="0"></rect><text style=""><tspan xml:space="preserve" dy="1em" x="0" class="row"></tspan></text></g></g><g class="edgeLabel"><g class="label" transform="translate(0, 0)"><rect rx="0" ry="0" width="0" height="0"></rect><text style=""><tspan xml:space="preserve" dy="1em" x="0" class="row"></tspan></text></g></g><g class="edgeLabel"><g class="label" transform="translate(0, 0)"><rect rx="0" ry="0" width="0" height="0"></rect><text style=""><tspan xml:space="preserve" dy="1em" x="0" class="row"></tspan></text></g></g><g class="edgeLabel" transform="translate(1382.56640625, 1283.757266998291)"><g class="label" transform="translate(-139.73046875, -9.5)"><rect rx="0" ry="0" width="279.2909240722656" height="19.000038146972656"></rect><text style=""><tspan xml:space="preserve" dy="1em" x="0" class="row">Dashboard, reports, attendance sheets</tspan></text></g></g><g class="edgeLabel" transform="translate(1924.90625, 1422.118595123291)"><g class="label" transform="translate(-175.765625, -9.5)"><rect rx="0" ry="0" width="351.3132019042969" height="19.000038146972656"></rect><text style=""><tspan xml:space="preserve" dy="1em" x="0" class="row">Reports and sheets for actively assigned program</tspan></text></g></g><g class="edgeLabel" transform="translate(683.6640625, 1914.548282623291)"><g class="label" transform="translate(-62.390625, -9.5)"><rect rx="0" ry="0" width="124.70838165283203" height="19.000038146972656"></rect><text style=""><tspan xml:space="preserve" dy="1em" x="0" class="row">Audit log request</tspan></text></g></g><g class="edgeLabel"><g class="label" transform="translate(0, 0)"><rect rx="0" ry="0" width="0" height="0"></rect><text style=""><tspan xml:space="preserve" dy="1em" x="0" class="row"></tspan></text></g></g><g class="edgeLabel" transform="translate(683.6640625, 2033.811954498291)"><g class="label" transform="translate(-36.078125, -9.5)"><rect rx="0" ry="0" width="72.1162338256836" height="19.000038146972656"></rect><text style=""><tspan xml:space="preserve" dy="1em" x="0" class="row">Audit logs</tspan></text></g></g></g><g class="nodes"><g class="node default default flowchart-label" id="flowchart-super_admin-0" data-node="true" data-id="super_admin" transform="translate(265.3671875, 1238.4845333099365)"><rect class="basic label-container" style="" rx="0" ry="0" x="-52.21484375" y="-17" width="104.4296875" height="34"></rect><g class="label" style="" transform="translate(0, -9.5)"><rect></rect><text style=""><tspan xml:space="preserve" dy="1em" x="0" class="row">Super Admin</tspan></text></g></g><g class="node default default flowchart-label" id="flowchart-program_admin-1" data-node="true" data-id="program_admin" transform="translate(1662.6171875, 1422.118595123291)"><rect class="basic label-container" style="" rx="0" ry="0" x="-61.5234375" y="-17" width="123.046875" height="34"></rect><g class="label" style="" transform="translate(0, -9.5)"><rect></rect><text style=""><tspan xml:space="preserve" dy="1em" x="0" class="row">Program Admin</tspan></text></g></g><g class="node default default flowchart-label" id="flowchart-attendee-2" data-node="true" data-id="attendee" transform="translate(2980.87890625, 2143.417423248291)"><rect class="basic label-container" style="" rx="0" ry="0" x="-72.45703125" y="-17" width="144.9140625" height="34"></rect><g class="label" style="" transform="translate(0, -9.5)"><rect></rect><text style=""><tspan xml:space="preserve" dy="1em" x="0" class="row">External Attendee</tspan></text></g></g><g class="node default note flowchart-label" id="flowchart-note_template-3" data-node="true" data-id="note_template" transform="translate(265.3671875, 1322.4845333099365)"><rect class="basic label-container" style="" rx="0" ry="0" x="-265.3671875" y="-17" width="530.734375" height="34"></rect><g class="label" style="" transform="translate(0, -9.5)"><rect></rect><text style=""><tspan xml:space="preserve" dy="1em" x="0" class="row">Note: Attendance Sheet Generation follows fixed DICT template layout.</tspan></text></g></g><g class="node default default flowchart-label" id="flowchart-p1-4" data-node="true" data-id="p1" transform="translate(2339.75390625, 110.453125)"><circle style="" rx="0" ry="0" r="110.453125" width="220.90625" height="34"></circle><g class="label" style="" transform="translate(0, -9.5)"><rect></rect><text style=""><tspan xml:space="preserve" dy="1em" x="0" class="row">1.0 Authenticate Admin User</tspan></text></g></g><g class="node default default flowchart-label" id="flowchart-p2-5" data-node="true" data-id="p2" transform="translate(2339.75390625, 442.82421875)"><circle style="" rx="0" ry="0" r="171.91796875" width="343.8359375" height="34"></circle><g class="label" style="" transform="translate(0, -9.5)"><rect></rect><text style=""><tspan xml:space="preserve" dy="1em" x="0" class="row">2.0 Manage Users, Programs, and Assignments</tspan></text></g></g><g class="node default default flowchart-label" id="flowchart-p3-6" data-node="true" data-id="p3" transform="translate(2339.75390625, 825.81640625)"><circle style="" rx="0" ry="0" r="161.07421875" width="322.1484375" height="34"></circle><g class="label" style="" transform="translate(0, -9.5)"><rect></rect><text style=""><tspan xml:space="preserve" dy="1em" x="0" class="row">3.0 Manage Events and Field Requirements</tspan></text></g></g><g class="node default default flowchart-label" id="flowchart-p4-7" data-node="true" data-id="p4" transform="translate(1000.31640625, 1507.659610748291)"><circle style="" rx="0" ry="0" r="163.72265625" width="327.4453125" height="34"></circle><g class="label" style="" transform="translate(0, -9.5)"><rect></rect><text style=""><tspan xml:space="preserve" dy="1em" x="0" class="row">4.0 Generate Attendance Link and QR Code</tspan></text></g></g><g class="node default default flowchart-label" id="flowchart-p5-8" data-node="true" data-id="p5" transform="translate(3531.34375, 2212.610963821411)"><circle style="" rx="0" ry="0" r="131.2109375" width="262.421875" height="34"></circle><g class="label" style="" transform="translate(0, -9.5)"><rect></rect><text style=""><tspan xml:space="preserve" dy="1em" x="0" class="row">5.0 Collect Attendance Submission</tspan></text></g></g><g class="node default default flowchart-label" id="flowchart-p6-9" data-node="true" data-id="p6" transform="translate(2339.75390625, 1785.284610748291)"><circle style="" rx="0" ry="0" r="194.02734375" width="388.0546875" height="34"></circle><g class="label" style="" transform="translate(0, -9.5)"><rect></rect><text style=""><tspan xml:space="preserve" dy="1em" x="0" class="row">6.0 Validate, Store, and Review Attendance Records</tspan></text></g></g><g class="node default default flowchart-label" id="flowchart-p7-10" data-node="true" data-id="p7" transform="translate(2339.75390625, 1250.97265625)"><circle style="" rx="0" ry="0" r="214.08203125" width="428.1640625" height="34"></circle><g class="label" style="" transform="translate(0, -9.5)"><rect></rect><text style=""><tspan xml:space="preserve" dy="1em" x="0" class="row">7.0 Generate Dashboard, Reports, and Attendance Sheets</tspan></text></g></g><g class="node default default flowchart-label" id="flowchart-p8-11" data-node="true" data-id="p8" transform="translate(1000.31640625, 2014.311954498291)"><circle style="" rx="0" ry="0" r="87.1640625" width="174.328125" height="34"></circle><g class="label" style="" transform="translate(0, -9.5)"><rect></rect><text style=""><tspan xml:space="preserve" dy="1em" x="0" class="row">8.0 Manage Audit Trail</tspan></text></g></g><g class="node default default flowchart-label" id="flowchart-d1-12" label-offset-y="9.515929237796618" data-node="true" data-id="d1" transform="translate(2980.87890625, 50.85778617858887)"><path style="" d="M 0,9.515929237796618 a 38.41015625,9.515929237796618 0,0,0 76.8203125 0 a 38.41015625,9.515929237796618 0,0,0 -76.8203125 0 l 0,43.51592923779662 a 38.41015625,9.515929237796618 0,0,0 76.8203125 0 l 0,-43.51592923779662" transform="translate(-38.41015625,-31.273893856694926)"></path><g class="label" style="" transform="translate(0, -9.5)"><rect></rect><text style=""><tspan xml:space="preserve" dy="1em" x="0" class="row">D1 Users</tspan></text></g></g><g class="node default default flowchart-label" id="flowchart-d2-13" label-offset-y="16.91608900386007" data-node="true" data-id="d2" transform="translate(2980.87890625, 174.50581169128418)"><path style="" d="M 0,16.91608900386007 a 130.78515625,16.91608900386007 0,0,0 261.5703125 0 a 130.78515625,16.91608900386007 0,0,0 -261.5703125 0 l 0,50.916089003860066 a 130.78515625,16.91608900386007 0,0,0 261.5703125 0 l 0,-50.916089003860066" transform="translate(-130.78515625,-42.3741335057901)"></path><g class="label" style="" transform="translate(0, -9.5)"><rect></rect><text style=""><tspan xml:space="preserve" dy="1em" x="0" class="row">D2 Roles and Program Assignments</tspan></text></g></g><g class="node default default flowchart-label" id="flowchart-d3-14" label-offset-y="11.349986349986352" data-node="true" data-id="d3" transform="translate(2980.87890625, 984.7016468048096)"><path style="" d="M 0,11.349986349986352 a 51.96875,11.349986349986352 0,0,0 103.9375 0 a 51.96875,11.349986349986352 0,0,0 -103.9375 0 l 0,45.34998634998635 a 51.96875,11.349986349986352 0,0,0 103.9375 0 l 0,-45.34998634998635" transform="translate(-51.96875,-34.02497952497953)"></path><g class="label" style="" transform="translate(0, -9.5)"><rect></rect><text style=""><tspan xml:space="preserve" dy="1em" x="0" class="row">D3 Programs</tspan></text></g></g><g class="node default default flowchart-label" id="flowchart-d4-15" label-offset-y="14.765109257458677" data-node="true" data-id="d4" transform="translate(3802.71875, 2200.522891998291)"><path style="" d="M 0,14.765109257458677 a 90.1640625,14.765109257458677 0,0,0 180.328125 0 a 90.1640625,14.765109257458677 0,0,0 -180.328125 0 l 0,48.765109257458676 a 90.1640625,14.765109257458677 0,0,0 180.328125 0 l 0,-48.765109257458676" transform="translate(-90.1640625,-39.14766388618801)"></path><g class="label" style="" transform="translate(0, -9.5)"><rect></rect><text style=""><tspan xml:space="preserve" dy="1em" x="0" class="row">D4 Event Configuration</tspan></text></g></g><g class="node default default flowchart-label" id="flowchart-d5-16" label-offset-y="14.764061620349047" data-node="true" data-id="d5" transform="translate(2980.87890625, 1107.8727207183838)"><path style="" d="M 0,14.764061620349047 a 90.1484375,14.764061620349047 0,0,0 180.296875 0 a 90.1484375,14.764061620349047 0,0,0 -180.296875 0 l 0,48.76406162034905 a 90.1484375,14.764061620349047 0,0,0 180.296875 0 l 0,-48.76406162034905" transform="translate(-90.1484375,-39.14609243052357)"></path><g class="label" style="" transform="translate(0, -9.5)"><rect></rect><text style=""><tspan xml:space="preserve" dy="1em" x="0" class="row">D5 Attendance Records</tspan></text></g></g><g class="node default default flowchart-label" id="flowchart-d6-17" label-offset-y="16.01930848675348" data-node="true" data-id="d6" transform="translate(2980.87890625, 1313.9528369903564)"><path style="" d="M 0,16.01930848675348 a 111.484375,16.01930848675348 0,0,0 222.96875 0 a 111.484375,16.01930848675348 0,0,0 -222.96875 0 l 0,50.01930848675348 a 111.484375,16.01930848675348 0,0,0 222.96875 0 l 0,-50.01930848675348" transform="translate(-111.484375,-41.02896273013022)"></path><g class="label" style="" transform="translate(0, -9.5)"><rect></rect><text style=""><tspan xml:space="preserve" dy="1em" x="0" class="row">D6 Attendance Sheet Exports</tspan></text></g></g><g class="node default default flowchart-label" id="flowchart-d7-18" label-offset-y="11.796501072784288" data-node="true" data-id="d7" transform="translate(2980.87890625, 1543.2085971832275)"><path style="" d="M 0,11.796501072784288 a 55.83984375,11.796501072784288 0,0,0 111.6796875 0 a 55.83984375,11.796501072784288 0,0,0 -111.6796875 0 l 0,45.79650107278429 a 55.83984375,11.796501072784288 0,0,0 111.6796875 0 l 0,-45.79650107278429" transform="translate(-55.83984375,-34.694751609176436)"></path><g class="label" style="" transform="translate(0, -9.5)"><rect></rect><text style=""><tspan xml:space="preserve" dy="1em" x="0" class="row">D7 Audit Logs</tspan></text></g></g></g></g></g></svg>