<svg id="mermaid-1782977436751" width="3057.65625" xmlns="http://www.w3.org/2000/svg" xmlns:xlink="http://www.w3.org/1999/xlink" height="2557.56787109375" viewBox="-8 -8 3057.65625 2557.56787109375" role="graphics-document document" aria-roledescription="flowchart-v2">
<rect x="-100000" y="-100000" width="200000" height="200000" fill="#000000"/>
<style>#mermaid-1782977436751{font-family:"trebuchet ms",verdana,arial,sans-serif;font-size:16px;fill:#ccc;}#mermaid-1782977436751 .error-icon{fill:#a44141;}#mermaid-1782977436751 .error-text{fill:#ddd;stroke:#ddd;}#mermaid-1782977436751 .edge-thickness-normal{stroke-width:2px;}#mermaid-1782977436751 .edge-thickness-thick{stroke-width:3.5px;}#mermaid-1782977436751 .edge-pattern-solid{stroke-dasharray:0;}#mermaid-1782977436751 .edge-pattern-dashed{stroke-dasharray:3;}#mermaid-1782977436751 .edge-pattern-dotted{stroke-dasharray:2;}#mermaid-1782977436751 .marker{fill:lightgrey;stroke:lightgrey;}#mermaid-1782977436751 .marker.cross{stroke:lightgrey;}#mermaid-1782977436751 svg{font-family:"trebuchet ms",verdana,arial,sans-serif;font-size:16px;}#mermaid-1782977436751 .label{font-family:"trebuchet ms",verdana,arial,sans-serif;color:#ccc;}#mermaid-1782977436751 .cluster-label text{fill:#F9FFFE;}#mermaid-1782977436751 .cluster-label span,#mermaid-1782977436751 p{color:#F9FFFE;}#mermaid-1782977436751 .label text,#mermaid-1782977436751 span,#mermaid-1782977436751 p{fill:#ccc;color:#ccc;}#mermaid-1782977436751 .node rect,#mermaid-1782977436751 .node circle,#mermaid-1782977436751 .node ellipse,#mermaid-1782977436751 .node polygon,#mermaid-1782977436751 .node path{fill:#1f2020;stroke:#81B1DB;stroke-width:1px;}#mermaid-1782977436751 .flowchart-label text{text-anchor:middle;}#mermaid-1782977436751 .node .katex path{fill:#000;stroke:#000;stroke-width:1px;}#mermaid-1782977436751 .node .label{text-align:center;}#mermaid-1782977436751 .node.clickable{cursor:pointer;}#mermaid-1782977436751 .arrowheadPath{fill:lightgrey;}#mermaid-1782977436751 .edgePath .path{stroke:lightgrey;stroke-width:2.0px;}#mermaid-1782977436751 .flowchart-link{stroke:lightgrey;fill:none;}#mermaid-1782977436751 .edgeLabel{background-color:hsl(0, 0%, 34.4117647059%);text-align:center;}#mermaid-1782977436751 .edgeLabel rect{opacity:0.5;background-color:hsl(0, 0%, 34.4117647059%);fill:hsl(0, 0%, 34.4117647059%);}#mermaid-1782977436751 .labelBkg{background-color:rgba(87.75, 87.75, 87.75, 0.5);}#mermaid-1782977436751 .cluster rect{fill:hsl(180, 1.5873015873%, 28.3529411765%);stroke:rgba(255, 255, 255, 0.25);stroke-width:1px;}#mermaid-1782977436751 .cluster text{fill:#F9FFFE;}#mermaid-1782977436751 .cluster span,#mermaid-1782977436751 p{color:#F9FFFE;}#mermaid-1782977436751 div.mermaidTooltip{position:absolute;text-align:center;max-width:200px;padding:2px;font-family:"trebuchet ms",verdana,arial,sans-serif;font-size:12px;background:hsl(20, 1.5873015873%, 12.3529411765%);border:1px solid rgba(255, 255, 255, 0.25);border-radius:2px;pointer-events:none;z-index:100;}#mermaid-1782977436751 .flowchartTitleText{text-anchor:middle;font-size:18px;fill:#ccc;}#mermaid-1782977436751 :root{--mermaid-font-family:"trebuchet ms",verdana,arial,sans-serif;}#mermaid-1782977436751 .note rect{fill:#1f2020!important;stroke:#8CA6DB!important;color:#d4d4d4!important;stroke-dasharray:5 5!important;}#mermaid-1782977436751 .note polygon{fill:#1f2020!important;stroke:#8CA6DB!important;color:#d4d4d4!important;stroke-dasharray:5 5!important;}#mermaid-1782977436751 .note ellipse{fill:#1f2020!important;stroke:#8CA6DB!important;color:#d4d4d4!important;stroke-dasharray:5 5!important;}#mermaid-1782977436751 .note circle{fill:#1f2020!important;stroke:#8CA6DB!important;color:#d4d4d4!important;stroke-dasharray:5 5!important;}#mermaid-1782977436751 .note path{fill:#1f2020!important;stroke:#8CA6DB!important;color:#d4d4d4!important;stroke-dasharray:5 5!important;}#mermaid-1782977436751 .note tspan{fill:#d4d4d4!important;}</style><g><marker id="mermaid-1782977436751_flowchart-pointEnd" class="marker flowchart" viewBox="0 0 10 10" refX="6" refY="5" markerUnits="userSpaceOnUse" markerWidth="12" markerHeight="12" orient="auto"><path d="M 0 0 L 10 5 L 0 10 z" class="arrowMarkerPath" style="stroke-width: 1; stroke-dasharray: 1, 0;"></path></marker><marker id="mermaid-1782977436751_flowchart-pointStart" class="marker flowchart" viewBox="0 0 10 10" refX="4.5" refY="5" markerUnits="userSpaceOnUse" markerWidth="12" markerHeight="12" orient="auto"><path d="M 0 5 L 10 10 L 10 0 z" class="arrowMarkerPath" style="stroke-width: 1; stroke-dasharray: 1, 0;"></path></marker><marker id="mermaid-1782977436751_flowchart-circleEnd" class="marker flowchart" viewBox="0 0 10 10" refX="11" refY="5" markerUnits="userSpaceOnUse" markerWidth="11" markerHeight="11" orient="auto"><circle cx="5" cy="5" r="5" class="arrowMarkerPath" style="stroke-width: 1; stroke-dasharray: 1, 0;"></circle></marker><marker id="mermaid-1782977436751_flowchart-circleStart" class="marker flowchart" viewBox="0 0 10 10" refX="-1" refY="5" markerUnits="userSpaceOnUse" markerWidth="11" markerHeight="11" orient="auto"><circle cx="5" cy="5" r="5" class="arrowMarkerPath" style="stroke-width: 1; stroke-dasharray: 1, 0;"></circle></marker><marker id="mermaid-1782977436751_flowchart-crossEnd" class="marker cross flowchart" viewBox="0 0 11 11" refX="12" refY="5.2" markerUnits="userSpaceOnUse" markerWidth="11" markerHeight="11" orient="auto"><path d="M 1,1 l 9,9 M 10,1 l -9,9" class="arrowMarkerPath" style="stroke-width: 2; stroke-dasharray: 1, 0;"></path></marker><marker id="mermaid-1782977436751_flowchart-crossStart" class="marker cross flowchart" viewBox="0 0 11 11" refX="-1" refY="5.2" markerUnits="userSpaceOnUse" markerWidth="11" markerHeight="11" orient="auto"><path d="M 1,1 l 9,9 M 10,1 l -9,9" class="arrowMarkerPath" style="stroke-width: 2; stroke-dasharray: 1, 0;"></path></marker><g class="root"><g class="clusters"></g><g class="edgePaths"><path d="M273.465,942.084L341.832,798.562C410.198,655.04,546.931,367.997,668.073,224.475C789.215,80.953,894.766,80.953,1011.249,80.953C1127.733,80.953,1255.15,80.953,1377.148,80.953C1499.146,80.953,1615.725,80.953,1732.417,80.953C1849.109,80.953,1965.914,80.953,2077.283,84.559C2188.652,88.166,2294.585,95.378,2347.552,98.984L2400.518,102.59" id="L-super_admin-p1-0" class=" edge-thickness-normal edge-pattern-solid flowchart-link LS-super_admin LE-p1" style="fill:none;" marker-end="url(#mermaid-1782977436751_flowchart-pointEnd)"></path><path d="M1741.387,880.76L1798.276,774.281C1855.164,667.803,1968.942,454.846,2079.583,332.061C2190.224,209.277,2297.73,176.666,2351.482,160.36L2405.235,144.054" id="L-program_admin-p1-0" class=" edge-thickness-normal edge-pattern-solid flowchart-link LS-program_admin LE-p1" style="fill:none;" marker-end="url(#mermaid-1782977436751_flowchart-pointEnd)"></path><path d="M2628.276,82.277L2649.411,76.973C2670.546,71.669,2712.816,61.061,2752.63,55.757C2792.444,50.453,2829.803,50.453,2848.482,50.453L2867.161,50.453" id="L-p1-d1-0" class=" edge-thickness-normal edge-pattern-solid flowchart-link LS-p1 LE-d1" style="fill:none;" marker-start="url(#mermaid-1782977436751_flowchart-pointStart)" marker-end="url(#mermaid-1782977436751_flowchart-pointEnd)"></path><path d="M2631.278,120.976L2651.912,122.859C2672.547,124.743,2713.817,128.51,2738.494,133.6C2763.171,138.689,2771.255,145.102,2775.298,148.308L2779.34,151.514" id="L-p1-d2-0" class=" edge-thickness-normal edge-pattern-solid flowchart-link LS-p1 LE-d2" style="fill:none;" marker-start="url(#mermaid-1782977436751_flowchart-pointStart)" marker-end="url(#mermaid-1782977436751_flowchart-pointEnd)"></path><path d="M2590.539,191.967L2617.963,221.959C2645.388,251.952,2700.237,311.937,2750.098,383.756C2799.96,455.575,2844.834,539.229,2867.27,581.056L2889.707,622.883" id="L-p1-d7-0" class=" edge-thickness-normal edge-pattern-solid flowchart-link LS-p1 LE-d7" style="fill:none;" marker-end="url(#mermaid-1782977436751_flowchart-pointEnd)"></path><path d="M279.141,942.084L346.562,858.874C413.982,775.664,548.823,609.244,669.019,526.034C789.215,442.824,894.766,442.824,1011.249,442.824C1127.733,442.824,1255.15,442.824,1377.148,442.824C1499.146,442.824,1615.725,442.824,1732.417,442.824C1849.109,442.824,1965.914,442.824,2066.994,442.824C2168.074,442.824,2253.43,442.824,2296.108,442.824L2338.786,442.824" id="L-super_admin-p2-0" class=" edge-thickness-normal edge-pattern-solid flowchart-link LS-super_admin LE-p2" style="fill:none;" marker-end="url(#mermaid-1782977436751_flowchart-pointEnd)"></path><path d="M2619.864,299.23L2642.401,268.071C2664.938,236.913,2710.012,174.595,2751.29,135.998C2792.569,97.402,2830.052,82.527,2848.793,75.089L2867.535,67.651" id="L-p2-d1-0" class=" edge-thickness-normal edge-pattern-solid flowchart-link LS-p2 LE-d1" style="fill:none;" marker-start="url(#mermaid-1782977436751_flowchart-pointStart)" marker-end="url(#mermaid-1782977436751_flowchart-pointEnd)"></path><path d="M2664.348,345.87L2679.471,335.986C2694.594,326.101,2724.84,306.333,2754.46,286.566C2784.08,266.799,2813.073,247.032,2827.57,237.149L2842.067,227.266" id="L-p2-d2-0" class=" edge-thickness-normal edge-pattern-solid flowchart-link LS-p2 LE-d2" style="fill:none;" marker-start="url(#mermaid-1782977436751_flowchart-pointStart)" marker-end="url(#mermaid-1782977436751_flowchart-pointEnd)"></path><path d="M2562.946,613.712L2594.969,730.291C2626.992,846.871,2691.039,1080.029,2739.871,1209.305C2788.703,1338.582,2822.321,1363.976,2839.13,1376.673L2855.939,1389.37" id="L-p2-d3-0" class=" edge-thickness-normal edge-pattern-solid flowchart-link LS-p2 LE-d3" style="fill:none;" marker-start="url(#mermaid-1782977436751_flowchart-pointStart)" marker-end="url(#mermaid-1782977436751_flowchart-pointEnd)"></path><path d="M2682.168,486.929L2694.321,490.155C2706.474,493.38,2730.78,499.832,2762.478,522.955C2794.175,546.077,2833.265,585.872,2852.809,605.769L2872.354,625.666" id="L-p2-d7-0" class=" edge-thickness-normal edge-pattern-solid flowchart-link LS-p2 LE-d7" style="fill:none;" marker-end="url(#mermaid-1782977436751_flowchart-pointEnd)"></path><path d="M292.712,942.084L357.871,901.576C423.03,861.068,553.347,780.053,671.281,739.545C789.215,699.037,894.766,699.037,1011.249,699.037C1127.733,699.037,1255.15,699.037,1377.148,699.037C1499.146,699.037,1615.725,699.037,1732.417,699.037C1849.109,699.037,1965.914,699.037,2083.95,718.469C2201.986,737.9,2321.253,776.763,2380.887,796.195L2440.52,815.626" id="L-super_admin-p3-0" class=" edge-thickness-normal edge-pattern-solid flowchart-link LS-super_admin LE-p3" style="fill:none;" marker-end="url(#mermaid-1782977436751_flowchart-pointEnd)"></path><path d="M1793.828,897.76L1841.977,897.76C1890.125,897.76,1986.422,897.76,2093.668,889.912C2200.914,882.064,2319.11,866.369,2378.207,858.521L2437.305,850.673" id="L-program_admin-p3-0" class=" edge-thickness-normal edge-pattern-solid flowchart-link LS-program_admin LE-p3" style="fill:none;" marker-end="url(#mermaid-1782977436751_flowchart-pointEnd)"></path><path d="M2548.642,767.852L2583.05,691.56C2617.457,615.267,2686.271,462.682,2737.229,372.778C2788.186,282.874,2821.286,255.649,2837.835,242.037L2854.385,228.425" id="L-p3-d2-0" class=" edge-thickness-normal edge-pattern-solid flowchart-link LS-p3 LE-d2" style="fill:none;" marker-start="url(#mermaid-1782977436751_flowchart-pointStart)" marker-end="url(#mermaid-1782977436751_flowchart-pointEnd)"></path><path d="M2550.648,911.655L2584.721,981.91C2618.794,1052.166,2686.94,1192.677,2737.576,1273.731C2788.212,1354.786,2821.337,1376.384,2837.9,1387.183L2854.463,1397.982" id="L-p3-d3-0" class=" edge-thickness-normal edge-pattern-solid flowchart-link LS-p3 LE-d3" style="fill:none;" marker-start="url(#mermaid-1782977436751_flowchart-pointStart)" marker-end="url(#mermaid-1782977436751_flowchart-pointEnd)"></path><path d="M2534.368,917.459L2571.155,1072.174C2607.941,1226.888,2681.513,1536.317,2741.872,1752.125C2802.231,1967.933,2849.377,2090.119,2872.95,2151.213L2896.522,2212.306" id="L-p3-d4-0" class=" edge-thickness-normal edge-pattern-solid flowchart-link LS-p3 LE-d4" style="fill:none;" marker-start="url(#mermaid-1782977436751_flowchart-pointStart)" marker-end="url(#mermaid-1782977436751_flowchart-pointEnd)"></path><path d="M2560.893,781.279L2593.258,738.78C2625.624,696.28,2690.355,611.282,2741.37,585.55C2792.385,559.818,2829.683,593.352,2848.332,610.119L2866.982,626.886" id="L-p3-d7-0" class=" edge-thickness-normal edge-pattern-solid flowchart-link LS-p3 LE-d7" style="fill:none;" marker-end="url(#mermaid-1782977436751_flowchart-pointEnd)"></path><path d="M314.095,942.084L375.689,920.595C437.284,899.105,560.474,856.127,647.629,841.467C734.784,826.808,785.903,840.467,811.463,847.297L837.023,854.127" id="L-super_admin-p4-0" class=" edge-thickness-normal edge-pattern-solid flowchart-link LS-super_admin LE-p4" style="fill:none;" marker-end="url(#mermaid-1782977436751_flowchart-pointEnd)"></path><path d="M1688.489,914.76L1637.502,934.542C1586.515,954.324,1484.54,993.889,1396.392,1000.479C1308.244,1007.07,1233.923,980.687,1196.762,967.495L1159.601,954.303" id="L-program_admin-p4-0" class=" edge-thickness-normal edge-pattern-solid flowchart-link LS-program_admin LE-p4" style="fill:none;" marker-end="url(#mermaid-1782977436751_flowchart-pointEnd)"></path><path d="M1046.964,1060.218L1102.898,1255.017C1158.831,1449.817,1270.699,1839.415,1384.922,2034.214C1499.146,2229.014,1615.725,2229.014,1732.417,2229.014C1849.109,2229.014,1965.914,2229.014,2096.531,2229.014C2227.147,2229.014,2371.576,2229.014,2483.637,2229.014C2595.698,2229.014,2675.392,2229.014,2733.223,2231.323C2791.055,2233.631,2827.024,2238.249,2845.009,2240.558L2862.993,2242.867" id="L-p4-d4-0" class=" edge-thickness-normal edge-pattern-solid flowchart-link LS-p4 LE-d4" style="fill:none;" marker-start="url(#mermaid-1782977436751_flowchart-pointStart)" marker-end="url(#mermaid-1782977436751_flowchart-pointEnd)"></path><path d="M1137.662,808.645L1178.479,782.161C1219.297,755.678,1300.931,702.71,1400.039,676.226C1499.146,649.742,1615.725,649.742,1732.417,649.742C1849.109,649.742,1965.914,649.742,2096.531,649.742C2227.147,649.742,2371.576,649.742,2483.637,649.742C2595.698,649.742,2675.392,649.742,2731.016,650.94C2786.639,652.137,2818.193,654.532,2833.97,655.729L2849.746,656.927" id="L-p4-d7-0" class=" edge-thickness-normal edge-pattern-solid flowchart-link LS-p4 LE-d7" style="fill:none;" marker-end="url(#mermaid-1782977436751_flowchart-pointEnd)"></path><path d="M841.74,938.486L815.394,945.252C789.048,952.019,736.356,965.551,649.879,969.442C563.401,973.334,443.139,967.584,383.007,964.708L322.876,961.833" id="L-p4-super_admin-0" class=" edge-thickness-normal edge-pattern-solid flowchart-link LS-p4 LE-super_admin" style="fill:none;" marker-end="url(#mermaid-1782977436751_flowchart-pointEnd)"></path><path d="M1160.579,864.277L1197.577,856.547C1234.575,848.818,1308.571,833.358,1392.743,836.4C1476.916,839.443,1571.265,860.987,1618.44,871.759L1665.614,882.531" id="L-p4-program_admin-0" class=" edge-thickness-normal edge-pattern-solid flowchart-link LS-p4 LE-program_admin" style="fill:none;" marker-end="url(#mermaid-1782977436751_flowchart-pointEnd)"></path><path d="M1072.773,2025.497L1124.406,2031.714C1176.038,2037.932,1279.302,2050.367,1366.472,2056.585C1453.642,2062.803,1524.718,2062.803,1560.256,2062.803L1595.794,2062.803" id="L-attendee-p5-0" class=" edge-thickness-normal edge-pattern-solid flowchart-link LS-attendee LE-p5" style="fill:none;" marker-end="url(#mermaid-1782977436751_flowchart-pointEnd)"></path><path d="M1852.852,2126.862L1891.163,2147.221C1929.474,2167.579,2006.097,2208.296,2116.622,2228.655C2227.147,2249.014,2371.576,2249.014,2483.637,2249.014C2595.698,2249.014,2675.392,2249.014,2733.216,2249.014C2791.041,2249.014,2826.995,2249.014,2844.973,2249.014L2862.95,2249.014" id="L-p5-d4-0" class=" edge-thickness-normal edge-pattern-solid flowchart-link LS-p5 LE-d4" style="fill:none;" marker-start="url(#mermaid-1782977436751_flowchart-pointStart)" marker-end="url(#mermaid-1782977436751_flowchart-pointEnd)"></path><path d="M1822.72,1967.716L1866.053,1922.145C1909.386,1876.573,1996.052,1785.429,2086.036,1759.028C2176.019,1732.626,2269.319,1770.968,2315.969,1790.138L2362.619,1809.309" id="L-p5-p6-0" class=" edge-thickness-normal edge-pattern-solid flowchart-link LS-p5 LE-p6" style="fill:none;" marker-end="url(#mermaid-1782977436751_flowchart-pointEnd)"></path><path d="M2596.97,2017.064L2623.322,2064.168C2649.675,2111.272,2702.381,2205.481,2746.754,2246.723C2791.127,2287.965,2827.169,2276.241,2845.189,2270.379L2863.21,2264.517" id="L-p6-d4-0" class=" edge-thickness-normal edge-pattern-solid flowchart-link LS-p6 LE-d4" style="fill:none;" marker-start="url(#mermaid-1782977436751_flowchart-pointStart)" marker-end="url(#mermaid-1782977436751_flowchart-pointEnd)"></path><path d="M2591.53,2019.976L2618.789,2073.262C2646.048,2126.547,2700.567,2233.118,2737.899,2288.387C2775.231,2343.656,2795.377,2347.622,2805.45,2349.606L2815.523,2351.589" id="L-p6-d5-0" class=" edge-thickness-normal edge-pattern-solid flowchart-link LS-p6 LE-d5" style="fill:none;" marker-start="url(#mermaid-1782977436751_flowchart-pointStart)" marker-end="url(#mermaid-1782977436751_flowchart-pointEnd)"></path><path d="M2555.25,1716.682L2588.556,1584.584C2621.862,1452.485,2688.474,1188.289,2743.864,1018.84C2799.253,849.391,2843.421,774.689,2865.504,737.339L2887.588,699.988" id="L-p6-d7-0" class=" edge-thickness-normal edge-pattern-solid flowchart-link LS-p6 LE-d7" style="fill:none;" marker-end="url(#mermaid-1782977436751_flowchart-pointEnd)"></path><path d="M2355.566,1877.803L2310.091,1879.352C2264.617,1880.9,2173.668,1883.996,2069.791,1885.544C1965.914,1887.092,1849.109,1887.092,1732.417,1887.092C1615.725,1887.092,1499.146,1887.092,1386.336,1905.588C1273.526,1924.084,1164.486,1961.076,1109.966,1979.572L1055.446,1998.069" id="L-p6-attendee-0" class=" edge-thickness-normal edge-pattern-solid flowchart-link LS-p6 LE-attendee" style="fill:none;" marker-end="url(#mermaid-1782977436751_flowchart-pointEnd)"></path><path d="M282.693,976.084L349.521,1041.656C416.35,1107.229,550.007,1238.374,669.611,1303.947C789.215,1369.52,894.766,1369.52,1011.249,1369.52C1127.733,1369.52,1255.15,1369.52,1377.148,1369.52C1499.146,1369.52,1615.725,1369.52,1732.417,1369.52C1849.109,1369.52,1965.914,1369.52,2060.548,1376.059C2155.183,1382.599,2227.647,1395.679,2263.879,1402.219L2300.111,1408.759" id="L-super_admin-p7-0" class=" edge-thickness-normal edge-pattern-solid flowchart-link LS-super_admin LE-p7" style="fill:none;" marker-end="url(#mermaid-1782977436751_flowchart-pointEnd)"></path><path d="M1744.189,914.76L1800.61,995.47C1857.032,1076.18,1969.875,1237.6,2062.176,1322.343C2154.478,1407.087,2226.236,1415.153,2262.116,1419.187L2297.995,1423.22" id="L-program_admin-p7-0" class=" edge-thickness-normal edge-pattern-solid flowchart-link LS-program_admin LE-p7" style="fill:none;" marker-end="url(#mermaid-1782977436751_flowchart-pointEnd)"></path><path d="M2562.768,1233.389L2594.821,1086.478C2626.874,939.566,2690.98,645.744,2741.842,478.444C2792.705,311.144,2830.323,270.366,2849.133,249.977L2867.942,229.588" id="L-p7-d2-0" class=" edge-thickness-normal edge-pattern-solid flowchart-link LS-p7 LE-d2" style="fill:none;" marker-start="url(#mermaid-1782977436751_flowchart-pointStart)" marker-end="url(#mermaid-1782977436751_flowchart-pointEnd)"></path><path d="M2735.386,1447.729L2738.669,1447.729C2741.953,1447.729,2748.519,1447.729,2768.238,1444.564C2787.957,1441.399,2820.827,1435.069,2837.263,1431.904L2853.698,1428.739" id="L-p7-d3-0" class=" edge-thickness-normal edge-pattern-solid flowchart-link LS-p7 LE-d3" style="fill:none;" marker-start="url(#mermaid-1782977436751_flowchart-pointStart)" marker-end="url(#mermaid-1782977436751_flowchart-pointEnd)"></path><path d="M2574.015,1659.302L2604.193,1769.366C2634.372,1879.431,2694.729,2099.56,2742.964,2201.433C2791.198,2303.306,2827.311,2286.922,2845.367,2278.731L2863.423,2270.539" id="L-p7-d4-0" class=" edge-thickness-normal edge-pattern-solid flowchart-link LS-p7 LE-d4" style="fill:none;" marker-start="url(#mermaid-1782977436751_flowchart-pointStart)" marker-end="url(#mermaid-1782977436751_flowchart-pointEnd)"></path><path d="M2568.114,1660.832L2599.276,1788.268C2630.438,1915.705,2692.762,2170.578,2734.099,2292.128C2775.436,2413.678,2795.785,2401.905,2805.96,2396.018L2816.135,2390.132" id="L-p7-d5-0" class=" edge-thickness-normal edge-pattern-solid flowchart-link LS-p7 LE-d5" style="fill:none;" marker-start="url(#mermaid-1782977436751_flowchart-pointStart)" marker-end="url(#mermaid-1782977436751_flowchart-pointEnd)"></path><path d="M2563.413,1656.495L2595.358,1797.169C2627.304,1937.843,2691.195,2219.191,2729.641,2359.865C2768.086,2500.539,2781.086,2500.539,2787.587,2500.539L2794.087,2500.539" id="L-p7-d6-0" class=" edge-thickness-normal edge-pattern-solid flowchart-link LS-p7 LE-d6" style="fill:none;" marker-end="url(#mermaid-1782977436751_flowchart-pointEnd)"></path><path d="M2607.812,1254.331L2632.357,1202.625C2656.903,1150.918,2705.995,1047.505,2752.891,955.148C2799.787,862.79,2844.488,781.489,2866.839,740.838L2889.189,700.187" id="L-p7-d7-0" class=" edge-thickness-normal edge-pattern-solid flowchart-link LS-p7 LE-d7" style="fill:none;" marker-end="url(#mermaid-1782977436751_flowchart-pointEnd)"></path><path d="M2317.99,1529.102L2278.778,1545.215C2239.566,1561.329,2161.142,1593.557,2063.528,1609.671C1965.914,1625.785,1849.109,1625.785,1732.417,1625.785C1615.725,1625.785,1499.146,1625.785,1377.148,1625.785C1255.15,1625.785,1127.733,1625.785,1011.249,1625.785C894.766,1625.785,789.215,1625.785,668.97,1518.25C548.726,1410.715,413.788,1195.644,346.319,1088.109L278.85,980.573" id="L-p7-super_admin-0" class=" edge-thickness-normal edge-pattern-solid flowchart-link LS-p7 LE-super_admin" style="fill:none;" marker-end="url(#mermaid-1782977436751_flowchart-pointEnd)"></path><path d="M2322.931,1540.216L2282.896,1559.394C2242.86,1578.573,2162.79,1616.929,2066.033,1513.488C1969.277,1410.047,1855.835,1164.808,1799.114,1042.189L1742.394,919.57" id="L-p7-program_admin-0" class=" edge-thickness-normal edge-pattern-solid flowchart-link LS-p7 LE-program_admin" style="fill:none;" marker-end="url(#mermaid-1782977436751_flowchart-pointEnd)"></path><path d="M317.582,972.642L378.596,988.486C439.609,1004.329,561.637,1036.016,661.185,1067.795C760.733,1099.573,837.801,1131.443,876.336,1147.377L914.87,1163.312" id="L-super_admin-p8-0" class=" edge-thickness-normal edge-pattern-solid flowchart-link LS-super_admin LE-p8" style="fill:none;" marker-end="url(#mermaid-1782977436751_flowchart-pointEnd)"></path><path d="M1092.78,1198.646L1141.078,1198.646C1189.376,1198.646,1285.971,1198.646,1392.558,1198.646C1499.146,1198.646,1615.725,1198.646,1732.417,1198.646C1849.109,1198.646,1965.914,1198.646,2096.531,1198.646C2227.147,1198.646,2371.576,1198.646,2483.637,1198.646C2595.698,1198.646,2675.392,1198.646,2739.28,1115.731C2803.168,1032.816,2851.251,866.985,2875.292,784.07L2899.333,701.154" id="L-p8-d7-0" class=" edge-thickness-normal edge-pattern-solid flowchart-link LS-p8 LE-d7" style="fill:none;" marker-start="url(#mermaid-1782977436751_flowchart-pointStart)" marker-end="url(#mermaid-1782977436751_flowchart-pointEnd)"></path><path d="M916.832,1223.704L877.97,1235.368C839.109,1247.032,761.387,1270.36,657.041,1229.641C552.695,1188.923,421.727,1084.159,356.242,1031.777L290.758,979.394" id="L-p8-super_admin-0" class=" edge-thickness-normal edge-pattern-solid flowchart-link LS-p8 LE-super_admin" style="fill:none;" marker-end="url(#mermaid-1782977436751_flowchart-pointEnd)"></path></g><g class="edgeLabels"><g class="edgeLabel" transform="translate(1382.56640625, 80.953125)"><g class="label" transform="translate(-61.5625, -9.5)"><rect rx="0" ry="0" width="123.05257415771484" height="19.00004005432129"></rect><text style=""><tspan xml:space="preserve" dy="1em" x="0" class="row">Login credentials</tspan></text></g></g><g class="edgeLabel" transform="translate(2082.71875, 241.888671875)"><g class="label" transform="translate(-61.5625, -9.5)"><rect rx="0" ry="0" width="123.05257415771484" height="19.00004005432129"></rect><text style=""><tspan xml:space="preserve" dy="1em" x="0" class="row">Login credentials</tspan></text></g></g><g class="edgeLabel"><g class="label" transform="translate(0, 0)"><rect rx="0" ry="0" width="0" height="0"></rect><text style=""><tspan xml:space="preserve" dy="1em" x="0" class="row"></tspan></text></g></g><g class="edgeLabel"><g class="label" transform="translate(0, 0)"><rect rx="0" ry="0" width="0" height="0"></rect><text style=""><tspan xml:space="preserve" dy="1em" x="0" class="row"></tspan></text></g></g><g class="edgeLabel"><g class="label" transform="translate(0, 0)"><rect rx="0" ry="0" width="0" height="0"></rect><text style=""><tspan xml:space="preserve" dy="1em" x="0" class="row"></tspan></text></g></g><g class="edgeLabel" transform="translate(1382.56640625, 442.82421875)"><g class="label" transform="translate(-128.16015625, -9.5)"><rect rx="0" ry="0" width="256.164794921875" height="19.00004005432129"></rect><text style=""><tspan xml:space="preserve" dy="1em" x="0" class="row">User, program, assignment requests</tspan></text></g></g><g class="edgeLabel"><g class="label" transform="translate(0, 0)"><rect rx="0" ry="0" width="0" height="0"></rect><text style=""><tspan xml:space="preserve" dy="1em" x="0" class="row"></tspan></text></g></g><g class="edgeLabel"><g class="label" transform="translate(0, 0)"><rect rx="0" ry="0" width="0" height="0"></rect><text style=""><tspan xml:space="preserve" dy="1em" x="0" class="row"></tspan></text></g></g><g class="edgeLabel"><g class="label" transform="translate(0, 0)"><rect rx="0" ry="0" width="0" height="0"></rect><text style=""><tspan xml:space="preserve" dy="1em" x="0" class="row"></tspan></text></g></g><g class="edgeLabel"><g class="label" transform="translate(0, 0)"><rect rx="0" ry="0" width="0" height="0"></rect><text style=""><tspan xml:space="preserve" dy="1em" x="0" class="row"></tspan></text></g></g><g class="edgeLabel" transform="translate(1382.56640625, 699.037109375)"><g class="label" transform="translate(-103.37890625, -9.5)"><rect rx="0" ry="0" width="206.6331787109375" height="19.00004005432129"></rect><text style=""><tspan xml:space="preserve" dy="1em" x="0" class="row">Event details/status changes</tspan></text></g></g><g class="edgeLabel" transform="translate(2082.71875, 897.759765625)"><g class="label" transform="translate(-166.953125, -9.5)"><rect rx="0" ry="0" width="333.7038269042969" height="19.00004005432129"></rect><text style=""><tspan xml:space="preserve" dy="1em" x="0" class="row">Create/update events under assigned program</tspan></text></g></g><g class="edgeLabel"><g class="label" transform="translate(0, 0)"><rect rx="0" ry="0" width="0" height="0"></rect><text style=""><tspan xml:space="preserve" dy="1em" x="0" class="row"></tspan></text></g></g><g class="edgeLabel"><g class="label" transform="translate(0, 0)"><rect rx="0" ry="0" width="0" height="0"></rect><text style=""><tspan xml:space="preserve" dy="1em" x="0" class="row"></tspan></text></g></g><g class="edgeLabel"><g class="label" transform="translate(0, 0)"><rect rx="0" ry="0" width="0" height="0"></rect><text style=""><tspan xml:space="preserve" dy="1em" x="0" class="row"></tspan></text></g></g><g class="edgeLabel"><g class="label" transform="translate(0, 0)"><rect rx="0" ry="0" width="0" height="0"></rect><text style=""><tspan xml:space="preserve" dy="1em" x="0" class="row"></tspan></text></g></g><g class="edgeLabel" transform="translate(683.6640625, 813.1484375)"><g class="label" transform="translate(-57.1171875, -9.5)"><rect rx="0" ry="0" width="114.16748046875" height="19.00004005432129"></rect><text style=""><tspan xml:space="preserve" dy="1em" x="0" class="row">QR/link request</tspan></text></g></g><g class="edgeLabel" transform="translate(1382.56640625, 1033.453125)"><g class="label" transform="translate(-124.72265625, -9.5)"><rect rx="0" ry="0" width="249.29408264160156" height="19.00004005432129"></rect><text style=""><tspan xml:space="preserve" dy="1em" x="0" class="row">QR/link request for program event</tspan></text></g></g><g class="edgeLabel"><g class="label" transform="translate(0, 0)"><rect rx="0" ry="0" width="0" height="0"></rect><text style=""><tspan xml:space="preserve" dy="1em" x="0" class="row"></tspan></text></g></g><g class="edgeLabel"><g class="label" transform="translate(0, 0)"><rect rx="0" ry="0" width="0" height="0"></rect><text style=""><tspan xml:space="preserve" dy="1em" x="0" class="row"></tspan></text></g></g><g class="edgeLabel" transform="translate(683.6640625, 979.0837783813477)"><g class="label" transform="translate(-127.9296875, -9.5)"><rect rx="0" ry="0" width="255.70533752441406" height="19.00004005432129"></rect><text style=""><tspan xml:space="preserve" dy="1em" x="0" class="row">Public attendance link and QR code</tspan></text></g></g><g class="edgeLabel" transform="translate(1382.56640625, 817.8984375)"><g class="label" transform="translate(-193.52734375, -9.5)"><rect rx="0" ry="0" width="386.8175354003906" height="19.00004005432129"></rect><text style=""><tspan xml:space="preserve" dy="1em" x="0" class="row">Public attendance link and QR code for created event</tspan></text></g></g><g class="edgeLabel" transform="translate(1382.56640625, 2062.802734375)"><g class="label" transform="translate(-119.234375, -9.5)"><rect rx="0" ry="0" width="238.32557678222656" height="19.00004005432129"></rect><text style=""><tspan xml:space="preserve" dy="1em" x="0" class="row">Open link and submit attendance</tspan></text></g></g><g class="edgeLabel"><g class="label" transform="translate(0, 0)"><rect rx="0" ry="0" width="0" height="0"></rect><text style=""><tspan xml:space="preserve" dy="1em" x="0" class="row"></tspan></text></g></g><g class="edgeLabel" transform="translate(2082.71875, 1694.28515625)"><g class="label" transform="translate(-98.55078125, -9.5)"><rect rx="0" ry="0" width="196.98422241210938" height="19.00004005432129"></rect><text style=""><tspan xml:space="preserve" dy="1em" x="0" class="row">Submitted attendance data</tspan></text></g></g><g class="edgeLabel"><g class="label" transform="translate(0, 0)"><rect rx="0" ry="0" width="0" height="0"></rect><text style=""><tspan xml:space="preserve" dy="1em" x="0" class="row"></tspan></text></g></g><g class="edgeLabel"><g class="label" transform="translate(0, 0)"><rect rx="0" ry="0" width="0" height="0"></rect><text style=""><tspan xml:space="preserve" dy="1em" x="0" class="row"></tspan></text></g></g><g class="edgeLabel"><g class="label" transform="translate(0, 0)"><rect rx="0" ry="0" width="0" height="0"></rect><text style=""><tspan xml:space="preserve" dy="1em" x="0" class="row"></tspan></text></g></g><g class="edgeLabel" transform="translate(1732.3046875, 1887.091796875)"><g class="label" transform="translate(-123.12890625, -9.5)"><rect rx="0" ry="0" width="246.11044311523438" height="19.00004005432129"></rect><text style=""><tspan xml:space="preserve" dy="1em" x="0" class="row">Validation result and confirmation</tspan></text></g></g><g class="edgeLabel" transform="translate(1382.56640625, 1369.51953125)"><g class="label" transform="translate(-117.453125, -9.5)"><rect rx="0" ry="0" width="234.76406860351562" height="19.00004005432129"></rect><text style=""><tspan xml:space="preserve" dy="1em" x="0" class="row">Dashboard/report/sheet request</tspan></text></g></g><g class="edgeLabel" transform="translate(2082.71875, 1399.01953125)"><g class="label" transform="translate(-154.5, -9.5)"><rect rx="0" ry="0" width="308.81317138671875" height="19.00004005432129"></rect><text style=""><tspan xml:space="preserve" dy="1em" x="0" class="row">Report/sheet request for assigned program</tspan></text></g></g><g class="edgeLabel"><g class="label" transform="translate(0, 0)"><rect rx="0" ry="0" width="0" height="0"></rect><text style=""><tspan xml:space="preserve" dy="1em" x="0" class="row"></tspan></text></g></g><g class="edgeLabel"><g class="label" transform="translate(0, 0)"><rect rx="0" ry="0" width="0" height="0"></rect><text style=""><tspan xml:space="preserve" dy="1em" x="0" class="row"></tspan></text></g></g><g class="edgeLabel"><g class="label" transform="translate(0, 0)"><rect rx="0" ry="0" width="0" height="0"></rect><text style=""><tspan xml:space="preserve" dy="1em" x="0" class="row"></tspan></text></g></g><g class="edgeLabel"><g class="label" transform="translate(0, 0)"><rect rx="0" ry="0" width="0" height="0"></rect><text style=""><tspan xml:space="preserve" dy="1em" x="0" class="row"></tspan></text></g></g><g class="edgeLabel"><g class="label" transform="translate(0, 0)"><rect rx="0" ry="0" width="0" height="0"></rect><text style=""><tspan xml:space="preserve" dy="1em" x="0" class="row"></tspan></text></g></g><g class="edgeLabel"><g class="label" transform="translate(0, 0)"><rect rx="0" ry="0" width="0" height="0"></rect><text style=""><tspan xml:space="preserve" dy="1em" x="0" class="row"></tspan></text></g></g><g class="edgeLabel" transform="translate(1382.56640625, 1625.78515625)"><g class="label" transform="translate(-139.73046875, -9.5)"><rect rx="0" ry="0" width="279.29095458984375" height="19.00004005432129"></rect><text style=""><tspan xml:space="preserve" dy="1em" x="0" class="row">Dashboard, reports, attendance sheets</tspan></text></g></g><g class="edgeLabel" transform="translate(2082.71875, 1655.28515625)"><g class="label" transform="translate(-194.203125, -9.5)"><rect rx="0" ry="0" width="388.1695556640625" height="19.00004005432129"></rect><text style=""><tspan xml:space="preserve" dy="1em" x="0" class="row">Reports and sheets for assigned program, if permitted</tspan></text></g></g><g class="edgeLabel" transform="translate(683.6640625, 1067.703125)"><g class="label" transform="translate(-62.390625, -9.5)"><rect rx="0" ry="0" width="124.7083969116211" height="19.00004005432129"></rect><text style=""><tspan xml:space="preserve" dy="1em" x="0" class="row">Audit log request</tspan></text></g></g><g class="edgeLabel"><g class="label" transform="translate(0, 0)"><rect rx="0" ry="0" width="0" height="0"></rect><text style=""><tspan xml:space="preserve" dy="1em" x="0" class="row"></tspan></text></g></g><g class="edgeLabel" transform="translate(683.6640625, 1293.6875)"><g class="label" transform="translate(-36.078125, -9.5)"><rect rx="0" ry="0" width="72.11624145507812" height="19.00004005432129"></rect><text style=""><tspan xml:space="preserve" dy="1em" x="0" class="row">Audit logs</tspan></text></g></g></g><g class="nodes"><g class="node default default flowchart-label" id="flowchart-super_admin-0" data-node="true" data-id="super_admin" transform="translate(265.3671875, 959.0837783813477)"><rect class="basic label-container" style="" rx="0" ry="0" x="-52.21484375" y="-17" width="104.4296875" height="34"></rect><g class="label" style="" transform="translate(0, -9.5)"><rect></rect><text style=""><tspan xml:space="preserve" dy="1em" x="0" class="row">Super Admin</tspan></text></g></g><g class="node default default flowchart-label" id="flowchart-program_admin-1" data-node="true" data-id="program_admin" transform="translate(1732.3046875, 897.759765625)"><rect class="basic label-container" style="" rx="0" ry="0" x="-61.5234375" y="-17" width="123.046875" height="34"></rect><g class="label" style="" transform="translate(0, -9.5)"><rect></rect><text style=""><tspan xml:space="preserve" dy="1em" x="0" class="row">Program Admin</tspan></text></g></g><g class="node default default flowchart-label" id="flowchart-attendee-2" data-node="true" data-id="attendee" transform="translate(1000.31640625, 2016.7712783813477)"><rect class="basic label-container" style="" rx="0" ry="0" x="-72.45703125" y="-17" width="144.9140625" height="34"></rect><g class="label" style="" transform="translate(0, -9.5)"><rect></rect><text style=""><tspan xml:space="preserve" dy="1em" x="0" class="row">External Attendee</tspan></text></g></g><g class="node default note flowchart-label" id="flowchart-note_template-3" data-node="true" data-id="note_template" transform="translate(265.3671875, 1043.0837783813477)"><rect class="basic label-container" style="" rx="0" ry="0" x="-265.3671875" y="-17" width="530.734375" height="34"></rect><g class="label" style="" transform="translate(0, -9.5)"><rect></rect><text style=""><tspan xml:space="preserve" dy="1em" x="0" class="row">Note: Attendance Sheet Generation follows fixed DICT template layout.</tspan></text></g></g><g class="node default default flowchart-label" id="flowchart-p1-4" data-node="true" data-id="p1" transform="translate(2516.00390625, 110.453125)"><circle style="" rx="0" ry="0" r="110.453125" width="220.90625" height="34"></circle><g class="label" style="" transform="translate(0, -9.5)"><rect></rect><text style=""><tspan xml:space="preserve" dy="1em" x="0" class="row">1.0 Authenticate Admin User</tspan></text></g></g><g class="node default default flowchart-label" id="flowchart-p2-5" data-node="true" data-id="p2" transform="translate(2516.00390625, 442.82421875)"><circle style="" rx="0" ry="0" r="171.91796875" width="343.8359375" height="34"></circle><g class="label" style="" transform="translate(0, -9.5)"><rect></rect><text style=""><tspan xml:space="preserve" dy="1em" x="0" class="row">2.0 Manage Users, Programs, and Assignments</tspan></text></g></g><g class="node default default flowchart-label" id="flowchart-p3-6" data-node="true" data-id="p3" transform="translate(2516.00390625, 840.2224502563477)"><circle style="" rx="0" ry="0" r="74.08984375" width="148.1796875" height="34"></circle><g class="label" style="" transform="translate(0, -9.5)"><rect></rect><text style=""><tspan xml:space="preserve" dy="1em" x="0" class="row">3.0 Manage Events</tspan></text></g></g><g class="node default default flowchart-label" id="flowchart-p4-7" data-node="true" data-id="p4" transform="translate(1000.31640625, 897.759765625)"><circle style="" rx="0" ry="0" r="163.72265625" width="327.4453125" height="34"></circle><g class="label" style="" transform="translate(0, -9.5)"><rect></rect><text style=""><tspan xml:space="preserve" dy="1em" x="0" class="row">4.0 Generate Attendance Link and QR Code</tspan></text></g></g><g class="node default default flowchart-label" id="flowchart-p5-8" data-node="true" data-id="p5" transform="translate(1732.3046875, 2062.802734375)"><circle style="" rx="0" ry="0" r="131.2109375" width="262.421875" height="34"></circle><g class="label" style="" transform="translate(0, -9.5)"><rect></rect><text style=""><tspan xml:space="preserve" dy="1em" x="0" class="row">5.0 Collect Attendance Submission</tspan></text></g></g><g class="node default default flowchart-label" id="flowchart-p6-9" data-node="true" data-id="p6" transform="translate(2516.00390625, 1872.341796875)"><circle style="" rx="0" ry="0" r="160.53125" width="321.0625" height="34"></circle><g class="label" style="" transform="translate(0, -9.5)"><rect></rect><text style=""><tspan xml:space="preserve" dy="1em" x="0" class="row">6.0 Validate and Store Attendance Records</tspan></text></g></g><g class="node default default flowchart-label" id="flowchart-p7-10" data-node="true" data-id="p7" transform="translate(2516.00390625, 1447.728515625)"><circle style="" rx="0" ry="0" r="214.08203125" width="428.1640625" height="34"></circle><g class="label" style="" transform="translate(0, -9.5)"><rect></rect><text style=""><tspan xml:space="preserve" dy="1em" x="0" class="row">7.0 Generate Dashboard, Reports, and Attendance Sheets</tspan></text></g></g><g class="node default default flowchart-label" id="flowchart-p8-11" data-node="true" data-id="p8" transform="translate(1000.31640625, 1198.646484375)"><circle style="" rx="0" ry="0" r="87.1640625" width="174.328125" height="34"></circle><g class="label" style="" transform="translate(0, -9.5)"><rect></rect><text style=""><tspan xml:space="preserve" dy="1em" x="0" class="row">8.0 Manage Audit Trail</tspan></text></g></g><g class="node default default flowchart-label" id="flowchart-d1-12" label-offset-y="9.515929237796618" data-node="true" data-id="d1" transform="translate(2910.87109375, 50.453125)"><path style="" d="M 0,9.515929237796618 a 38.41015625,9.515929237796618 0,0,0 76.8203125 0 a 38.41015625,9.515929237796618 0,0,0 -76.8203125 0 l 0,43.51592923779662 a 38.41015625,9.515929237796618 0,0,0 76.8203125 0 l 0,-43.51592923779662" transform="translate(-38.41015625,-31.273893856694926)"></path><g class="label" style="" transform="translate(0, -9.5)"><rect></rect><text style=""><tspan xml:space="preserve" dy="1em" x="0" class="row">D1 Users</tspan></text></g></g><g class="node default default flowchart-label" id="flowchart-d2-13" label-offset-y="16.91608900386007" data-node="true" data-id="d2" transform="translate(2910.87109375, 184.1011505126953)"><path style="" d="M 0,16.91608900386007 a 130.78515625,16.91608900386007 0,0,0 261.5703125 0 a 130.78515625,16.91608900386007 0,0,0 -261.5703125 0 l 0,50.916089003860066 a 130.78515625,16.91608900386007 0,0,0 261.5703125 0 l 0,-50.916089003860066" transform="translate(-130.78515625,-42.3741335057901)"></path><g class="label" style="" transform="translate(0, -9.5)"><rect></rect><text style=""><tspan xml:space="preserve" dy="1em" x="0" class="row">D2 Roles and Program Assignments</tspan></text></g></g><g class="node default default flowchart-label" id="flowchart-d3-14" label-offset-y="11.349986349986352" data-node="true" data-id="d3" transform="translate(2910.87109375, 1417.728515625)"><path style="" d="M 0,11.349986349986352 a 51.96875,11.349986349986352 0,0,0 103.9375 0 a 51.96875,11.349986349986352 0,0,0 -103.9375 0 l 0,45.34998634998635 a 51.96875,11.349986349986352 0,0,0 103.9375 0 l 0,-45.34998634998635" transform="translate(-51.96875,-34.02497952497953)"></path><g class="label" style="" transform="translate(0, -9.5)"><rect></rect><text style=""><tspan xml:space="preserve" dy="1em" x="0" class="row">D3 Programs</tspan></text></g></g><g class="node default default flowchart-label" id="flowchart-d4-15" label-offset-y="10.136189662219909" data-node="true" data-id="d4" transform="translate(2910.87109375, 2249.013671875)"><path style="" d="M 0,10.136189662219909 a 42.62109375,10.136189662219909 0,0,0 85.2421875 0 a 42.62109375,10.136189662219909 0,0,0 -85.2421875 0 l 0,44.136189662219905 a 42.62109375,10.136189662219909 0,0,0 85.2421875 0 l 0,-44.136189662219905" transform="translate(-42.62109375,-32.204284493329865)"></path><g class="label" style="" transform="translate(0, -9.5)"><rect></rect><text style=""><tspan xml:space="preserve" dy="1em" x="0" class="row">D4 Events</tspan></text></g></g><g class="node default default flowchart-label" id="flowchart-d5-16" label-offset-y="14.764061620349047" data-node="true" data-id="d5" transform="translate(2910.87109375, 2370.364044189453)"><path style="" d="M 0,14.764061620349047 a 90.1484375,14.764061620349047 0,0,0 180.296875 0 a 90.1484375,14.764061620349047 0,0,0 -180.296875 0 l 0,48.76406162034905 a 90.1484375,14.764061620349047 0,0,0 180.296875 0 l 0,-48.76406162034905" transform="translate(-90.1484375,-39.14609243052357)"></path><g class="label" style="" transform="translate(0, -9.5)"><rect></rect><text style=""><tspan xml:space="preserve" dy="1em" x="0" class="row">D5 Attendance Records</tspan></text></g></g><g class="node default default flowchart-label" id="flowchart-d6-17" label-offset-y="16.01930848675348" data-node="true" data-id="d6" transform="translate(2910.87109375, 2500.5391006469727)"><path style="" d="M 0,16.01930848675348 a 111.484375,16.01930848675348 0,0,0 222.96875 0 a 111.484375,16.01930848675348 0,0,0 -222.96875 0 l 0,50.01930848675348 a 111.484375,16.01930848675348 0,0,0 222.96875 0 l 0,-50.01930848675348" transform="translate(-111.484375,-41.02896273013022)"></path><g class="label" style="" transform="translate(0, -9.5)"><rect></rect><text style=""><tspan xml:space="preserve" dy="1em" x="0" class="row">D6 Attendance Sheet Exports</tspan></text></g></g><g class="node default default flowchart-label" id="flowchart-d7-18" label-offset-y="11.796501072784288" data-node="true" data-id="d7" transform="translate(2910.87109375, 661.5662002563477)"><path style="" d="M 0,11.796501072784288 a 55.83984375,11.796501072784288 0,0,0 111.6796875 0 a 55.83984375,11.796501072784288 0,0,0 -111.6796875 0 l 0,45.79650107278429 a 55.83984375,11.796501072784288 0,0,0 111.6796875 0 l 0,-45.79650107278429" transform="translate(-55.83984375,-34.694751609176436)"></path><g class="label" style="" transform="translate(0, -9.5)"><rect></rect><text style=""><tspan xml:space="preserve" dy="1em" x="0" class="row">D7 Audit Logs</tspan></text></g></g></g></g></g></svg>