<svg id="mermaid-1783939523209" width="3381.125" xmlns="http://www.w3.org/2000/svg" xmlns:xlink="http://www.w3.org/1999/xlink" height="1806.437255859375" viewBox="-8 -8 3381.125 1806.437255859375" role="graphics-document document" aria-roledescription="flowchart-v2">
<rect x="-100000" y="-100000" width="200000" height="200000" fill="#000000"/>
<style>#mermaid-1783939523209{font-family:"trebuchet ms",verdana,arial,sans-serif;font-size:16px;fill:#ccc;}#mermaid-1783939523209 .error-icon{fill:#a44141;}#mermaid-1783939523209 .error-text{fill:#ddd;stroke:#ddd;}#mermaid-1783939523209 .edge-thickness-normal{stroke-width:2px;}#mermaid-1783939523209 .edge-thickness-thick{stroke-width:3.5px;}#mermaid-1783939523209 .edge-pattern-solid{stroke-dasharray:0;}#mermaid-1783939523209 .edge-pattern-dashed{stroke-dasharray:3;}#mermaid-1783939523209 .edge-pattern-dotted{stroke-dasharray:2;}#mermaid-1783939523209 .marker{fill:lightgrey;stroke:lightgrey;}#mermaid-1783939523209 .marker.cross{stroke:lightgrey;}#mermaid-1783939523209 svg{font-family:"trebuchet ms",verdana,arial,sans-serif;font-size:16px;}#mermaid-1783939523209 .label{font-family:"trebuchet ms",verdana,arial,sans-serif;color:#ccc;}#mermaid-1783939523209 .cluster-label text{fill:#F9FFFE;}#mermaid-1783939523209 .cluster-label span,#mermaid-1783939523209 p{color:#F9FFFE;}#mermaid-1783939523209 .label text,#mermaid-1783939523209 span,#mermaid-1783939523209 p{fill:#ccc;color:#ccc;}#mermaid-1783939523209 .node rect,#mermaid-1783939523209 .node circle,#mermaid-1783939523209 .node ellipse,#mermaid-1783939523209 .node polygon,#mermaid-1783939523209 .node path{fill:#1f2020;stroke:#81B1DB;stroke-width:1px;}#mermaid-1783939523209 .flowchart-label text{text-anchor:middle;}#mermaid-1783939523209 .node .katex path{fill:#000;stroke:#000;stroke-width:1px;}#mermaid-1783939523209 .node .label{text-align:center;}#mermaid-1783939523209 .node.clickable{cursor:pointer;}#mermaid-1783939523209 .arrowheadPath{fill:lightgrey;}#mermaid-1783939523209 .edgePath .path{stroke:lightgrey;stroke-width:2.0px;}#mermaid-1783939523209 .flowchart-link{stroke:lightgrey;fill:none;}#mermaid-1783939523209 .edgeLabel{background-color:hsl(0, 0%, 34.4117647059%);text-align:center;}#mermaid-1783939523209 .edgeLabel rect{opacity:0.5;background-color:hsl(0, 0%, 34.4117647059%);fill:hsl(0, 0%, 34.4117647059%);}#mermaid-1783939523209 .labelBkg{background-color:rgba(87.75, 87.75, 87.75, 0.5);}#mermaid-1783939523209 .cluster rect{fill:hsl(180, 1.5873015873%, 28.3529411765%);stroke:rgba(255, 255, 255, 0.25);stroke-width:1px;}#mermaid-1783939523209 .cluster text{fill:#F9FFFE;}#mermaid-1783939523209 .cluster span,#mermaid-1783939523209 p{color:#F9FFFE;}#mermaid-1783939523209 div.mermaidTooltip{position:absolute;text-align:center;max-width:200px;padding:2px;font-family:"trebuchet ms",verdana,arial,sans-serif;font-size:12px;background:hsl(20, 1.5873015873%, 12.3529411765%);border:1px solid rgba(255, 255, 255, 0.25);border-radius:2px;pointer-events:none;z-index:100;}#mermaid-1783939523209 .flowchartTitleText{text-anchor:middle;font-size:18px;fill:#ccc;}#mermaid-1783939523209 :root{--mermaid-font-family:"trebuchet ms",verdana,arial,sans-serif;}#mermaid-1783939523209 .note rect{fill:#1f2020!important;stroke:#8CA6DB!important;color:#d4d4d4!important;stroke-dasharray:5 5!important;}#mermaid-1783939523209 .note polygon{fill:#1f2020!important;stroke:#8CA6DB!important;color:#d4d4d4!important;stroke-dasharray:5 5!important;}#mermaid-1783939523209 .note ellipse{fill:#1f2020!important;stroke:#8CA6DB!important;color:#d4d4d4!important;stroke-dasharray:5 5!important;}#mermaid-1783939523209 .note circle{fill:#1f2020!important;stroke:#8CA6DB!important;color:#d4d4d4!important;stroke-dasharray:5 5!important;}#mermaid-1783939523209 .note path{fill:#1f2020!important;stroke:#8CA6DB!important;color:#d4d4d4!important;stroke-dasharray:5 5!important;}#mermaid-1783939523209 .note tspan{fill:#d4d4d4!important;}</style><g><marker id="mermaid-1783939523209_flowchart-pointEnd" class="marker flowchart" viewBox="0 0 10 10" refX="6" refY="5" markerUnits="userSpaceOnUse" markerWidth="12" markerHeight="12" orient="auto"><path d="M 0 0 L 10 5 L 0 10 z" class="arrowMarkerPath" style="stroke-width: 1; stroke-dasharray: 1, 0;"></path></marker><marker id="mermaid-1783939523209_flowchart-pointStart" class="marker flowchart" viewBox="0 0 10 10" refX="4.5" refY="5" markerUnits="userSpaceOnUse" markerWidth="12" markerHeight="12" orient="auto"><path d="M 0 5 L 10 10 L 10 0 z" class="arrowMarkerPath" style="stroke-width: 1; stroke-dasharray: 1, 0;"></path></marker><marker id="mermaid-1783939523209_flowchart-circleEnd" class="marker flowchart" viewBox="0 0 10 10" refX="11" refY="5" markerUnits="userSpaceOnUse" markerWidth="11" markerHeight="11" orient="auto"><circle cx="5" cy="5" r="5" class="arrowMarkerPath" style="stroke-width: 1; stroke-dasharray: 1, 0;"></circle></marker><marker id="mermaid-1783939523209_flowchart-circleStart" class="marker flowchart" viewBox="0 0 10 10" refX="-1" refY="5" markerUnits="userSpaceOnUse" markerWidth="11" markerHeight="11" orient="auto"><circle cx="5" cy="5" r="5" class="arrowMarkerPath" style="stroke-width: 1; stroke-dasharray: 1, 0;"></circle></marker><marker id="mermaid-1783939523209_flowchart-crossEnd" class="marker cross flowchart" viewBox="0 0 11 11" refX="12" refY="5.2" markerUnits="userSpaceOnUse" markerWidth="11" markerHeight="11" orient="auto"><path d="M 1,1 l 9,9 M 10,1 l -9,9" class="arrowMarkerPath" style="stroke-width: 2; stroke-dasharray: 1, 0;"></path></marker><marker id="mermaid-1783939523209_flowchart-crossStart" class="marker cross flowchart" viewBox="0 0 11 11" refX="-1" refY="5.2" markerUnits="userSpaceOnUse" markerWidth="11" markerHeight="11" orient="auto"><path d="M 1,1 l 9,9 M 10,1 l -9,9" class="arrowMarkerPath" style="stroke-width: 2; stroke-dasharray: 1, 0;"></path></marker><g class="root"><g class="clusters"></g><g class="edgePaths"><path d="M236.826,345.162L301.854,406.556C366.882,467.951,496.937,590.739,597.214,652.133C697.491,713.527,767.99,713.527,803.24,713.527L838.489,713.527" id="L-attendee-p51-0" class=" edge-thickness-normal edge-pattern-solid flowchart-link LS-attendee LE-p51" style="fill:none;" marker-end="url(#mermaid-1783939523209_flowchart-pointEnd)"></path><path d="M1091.566,756.315L1110.744,762.99C1129.923,769.666,1168.28,783.018,1225.269,789.693C1282.258,796.369,1357.879,796.369,1423.385,796.369C1488.891,796.369,1544.281,796.369,1599.792,890.09C1655.302,983.81,1710.932,1171.251,1738.748,1264.972L1766.563,1358.692" id="L-p51-d4-0" class=" edge-thickness-normal edge-pattern-solid flowchart-link LS-p51 LE-d4" style="fill:none;" marker-start="url(#mermaid-1783939523209_flowchart-pointStart)" marker-end="url(#mermaid-1783939523209_flowchart-pointEnd)"></path><path d="M1086.561,672.482L1106.573,665.516C1126.586,658.55,1166.611,644.618,1201.791,637.012C1236.97,629.406,1267.304,628.127,1282.47,627.488L1297.637,626.848" id="L-p51-p52-0" class=" edge-thickness-normal edge-pattern-solid flowchart-link LS-p51 LE-p52" style="fill:none;" marker-end="url(#mermaid-1783939523209_flowchart-pointEnd)"></path><path d="M1379.135,502.28L1350.385,439.435C1321.636,376.589,1264.136,250.898,1195.721,188.053C1127.306,125.207,1047.975,125.207,951.368,125.207C854.76,125.207,740.876,125.207,622.395,155.806C503.913,186.405,380.834,247.604,319.295,278.203L257.755,308.802" id="L-p52-attendee-0" class=" edge-thickness-normal edge-pattern-solid flowchart-link LS-p52 LE-attendee" style="fill:none;" marker-end="url(#mermaid-1783939523209_flowchart-pointEnd)"></path><path d="M291.277,331.325L347.23,333.768C403.182,336.211,515.087,341.097,607.711,343.54C700.335,345.982,773.678,345.982,810.349,345.982L847.02,345.982" id="L-attendee-p53-0" class=" edge-thickness-normal edge-pattern-solid flowchart-link LS-attendee LE-p53" style="fill:none;" marker-end="url(#mermaid-1783939523209_flowchart-pointEnd)"></path><path d="M1084.969,345.982L1105.247,345.982C1125.525,345.982,1166.081,345.982,1207.03,345.701C1247.98,345.419,1289.323,344.856,1309.995,344.575L1330.667,344.293" id="L-p53-p61-0" class=" edge-thickness-normal edge-pattern-solid flowchart-link LS-p53 LE-p61" style="fill:none;" marker-end="url(#mermaid-1783939523209_flowchart-pointEnd)"></path><path d="M1495.213,425.161L1512.623,448.37C1530.033,471.579,1564.852,517.997,1610.588,673.547C1656.324,829.098,1712.977,1093.782,1741.303,1226.124L1769.629,1358.466" id="L-p61-d4-0" class=" edge-thickness-normal edge-pattern-solid flowchart-link LS-p61 LE-d4" style="fill:none;" marker-start="url(#mermaid-1783939523209_flowchart-pointStart)" marker-end="url(#mermaid-1783939523209_flowchart-pointEnd)"></path><path d="M1530.867,337.033L1542.334,336.343C1553.802,335.653,1576.737,334.273,1598.971,333.583C1621.205,332.893,1642.738,332.893,1653.504,332.893L1664.27,332.893" id="L-p61-p62-0" class=" edge-thickness-normal edge-pattern-solid flowchart-link LS-p61 LE-p62" style="fill:none;" marker-end="url(#mermaid-1783939523209_flowchart-pointEnd)"></path><path d="M1885.695,332.893L1918.533,332.893C1951.371,332.893,2017.047,332.893,2074.356,332.893C2131.666,332.893,2180.609,332.893,2205.08,332.893L2229.552,332.893" id="L-p62-p63-0" class=" edge-thickness-normal edge-pattern-solid flowchart-link LS-p62 LE-p63" style="fill:none;" marker-end="url(#mermaid-1783939523209_flowchart-pointEnd)"></path><path d="M2485.195,332.893L2489.362,332.893C2493.529,332.893,2501.862,332.893,2509.312,332.893C2516.762,332.893,2523.329,332.893,2526.612,332.893L2529.895,332.893" id="L-p63-p64-0" class=" edge-thickness-normal edge-pattern-solid flowchart-link LS-p63 LE-p64" style="fill:none;" marker-end="url(#mermaid-1783939523209_flowchart-pointEnd)"></path><path d="M2775.973,457.217L2789.725,475.874C2803.477,494.532,2830.981,531.848,2867.251,550.506C2903.522,569.164,2948.56,569.164,2993.598,569.164C3038.635,569.164,3083.673,569.164,3126.151,649.876C3168.629,730.588,3208.546,892.012,3228.505,972.724L3248.464,1053.436" id="L-p64-d5-0" class=" edge-thickness-normal edge-pattern-solid flowchart-link LS-p64 LE-d5" style="fill:none;" marker-start="url(#mermaid-1783939523209_flowchart-pointStart)" marker-end="url(#mermaid-1783939523209_flowchart-pointEnd)"></path><path d="M2822.013,275.532L2828.091,272.999C2834.17,270.466,2846.327,265.401,2855.689,262.869C2865.051,260.336,2871.618,260.336,2874.901,260.336L2878.184,260.336" id="L-p64-p65-0" class=" edge-thickness-normal edge-pattern-solid flowchart-link LS-p64 LE-p65" style="fill:none;" marker-end="url(#mermaid-1783939523209_flowchart-pointEnd)"></path><path d="M3050.051,354.877L3063.161,376.832C3076.271,398.787,3102.491,442.697,3135.805,559.114C3169.119,675.531,3209.527,864.454,3229.732,958.915L3249.936,1053.377" id="L-p65-d5-0" class=" edge-thickness-normal edge-pattern-solid flowchart-link LS-p65 LE-d5" style="fill:none;" marker-end="url(#mermaid-1783939523209_flowchart-pointEnd)"></path><path d="M3093.521,214.072L3099.386,211.357C3105.251,208.641,3116.981,203.21,3129.505,195.804C3142.029,188.398,3155.348,179.016,3162.007,174.325L3168.666,169.634" id="L-p65-p66-0" class=" edge-thickness-normal edge-pattern-solid flowchart-link LS-p65 LE-p66" style="fill:none;" marker-end="url(#mermaid-1783939523209_flowchart-pointEnd)"></path><path d="M3154.019,97.643L3149.801,97.321C3145.583,96.998,3137.147,96.352,3110.41,96.03C3083.673,95.707,3038.635,95.707,2993.598,95.707C2948.56,95.707,2903.522,95.707,2851.979,95.707C2800.436,95.707,2742.388,95.707,2684.34,95.707C2626.292,95.707,2568.243,95.707,2514.191,95.707C2460.138,95.707,2410.081,95.707,2338.835,95.707C2267.59,95.707,2175.156,95.707,2078.091,95.707C1981.026,95.707,1879.329,95.707,1798.821,95.707C1718.313,95.707,1658.992,95.707,1601.637,95.707C1544.281,95.707,1488.891,95.707,1423.385,95.707C1357.879,95.707,1282.258,95.707,1204.782,95.707C1127.306,95.707,1047.975,95.707,951.368,95.707C854.76,95.707,740.876,95.707,621.648,131.179C502.42,166.651,377.848,237.595,315.562,273.067L253.276,308.539" id="L-p66-attendee-0" class=" edge-thickness-normal edge-pattern-solid flowchart-link LS-p66 LE-attendee" style="fill:none;" marker-end="url(#mermaid-1783939523209_flowchart-pointEnd)"></path><path d="M235.924,1389.373L301.102,1454.155C366.28,1518.936,496.636,1648.5,618.756,1713.281C740.876,1778.063,854.76,1778.063,951.368,1778.063C1047.975,1778.063,1127.306,1778.063,1186.316,1761.335C1245.326,1744.608,1284.016,1711.152,1303.361,1694.424L1322.706,1677.697" id="L-admin-p67-0" class=" edge-thickness-normal edge-pattern-solid flowchart-link LS-admin LE-p67" style="fill:none;" marker-end="url(#mermaid-1783939523209_flowchart-pointEnd)"></path><path d="M1562.914,1650.492L1569.04,1653.74C1575.166,1656.987,1587.419,1663.482,1606.322,1673.201C1625.225,1682.919,1650.779,1695.861,1663.556,1702.332L1676.332,1708.803" id="L-p67-d2-0" class=" edge-thickness-normal edge-pattern-solid flowchart-link LS-p67 LE-d2" style="fill:none;" marker-start="url(#mermaid-1783939523209_flowchart-pointStart)" marker-end="url(#mermaid-1783939523209_flowchart-pointEnd)"></path><path d="M1569.036,1637.425L1574.142,1639.517C1579.248,1641.609,1589.46,1645.793,1619.965,1611.346C1650.47,1576.899,1701.269,1503.82,1726.668,1467.281L1752.067,1430.742" id="L-p67-d4-0" class=" edge-thickness-normal edge-pattern-solid flowchart-link LS-p67 LE-d4" style="fill:none;" marker-start="url(#mermaid-1783939523209_flowchart-pointStart)" marker-end="url(#mermaid-1783939523209_flowchart-pointEnd)"></path><path d="M1578.947,1599.187L1582.401,1599.598C1585.855,1600.009,1592.764,1600.83,1625.878,1601.241C1658.992,1601.652,1718.313,1601.652,1798.821,1601.652C1879.329,1601.652,1981.026,1601.652,2078.091,1601.652C2175.156,1601.652,2267.59,1601.652,2338.835,1601.652C2410.081,1601.652,2460.138,1601.652,2514.191,1601.652C2568.243,1601.652,2626.292,1601.652,2684.34,1601.652C2742.388,1601.652,2800.436,1601.652,2851.979,1601.652C2903.522,1601.652,2948.56,1601.652,2993.598,1601.652C3038.635,1601.652,3083.673,1601.652,3126.063,1525.014C3168.453,1448.376,3208.194,1295.1,3228.065,1218.462L3247.936,1141.825" id="L-p67-d5-0" class=" edge-thickness-normal edge-pattern-solid flowchart-link LS-p67 LE-d5" style="fill:none;" marker-start="url(#mermaid-1783939523209_flowchart-pointStart)" marker-end="url(#mermaid-1783939523209_flowchart-pointEnd)"></path><path d="M1567.645,1537.908L1572.983,1536.158C1578.321,1534.408,1588.996,1530.908,1623.994,1529.158C1658.992,1527.407,1718.313,1527.407,1798.821,1527.407C1879.329,1527.407,1981.026,1527.407,2078.091,1527.407C2175.156,1527.407,2267.59,1527.407,2338.835,1527.407C2410.081,1527.407,2460.138,1527.407,2514.191,1527.407C2568.243,1527.407,2626.292,1527.407,2684.34,1527.407C2742.388,1527.407,2800.436,1527.407,2841.789,1527.407C2883.142,1527.407,2907.8,1527.407,2920.129,1527.407L2932.458,1527.407" id="L-p67-d7-0" class=" edge-thickness-normal edge-pattern-solid flowchart-link LS-p67 LE-d7" style="fill:none;" marker-end="url(#mermaid-1783939523209_flowchart-pointEnd)"></path><path d="M1387.693,1448.357L1357.517,1360.389C1327.341,1272.421,1266.989,1096.484,1197.147,1008.515C1127.306,920.547,1047.975,920.547,951.368,920.547C854.76,920.547,740.876,920.547,619.057,992.362C497.238,1064.178,367.485,1207.809,302.608,1279.625L237.731,1351.44" id="L-p67-admin-0" class=" edge-thickness-normal edge-pattern-solid flowchart-link LS-p67 LE-admin" style="fill:none;" marker-end="url(#mermaid-1783939523209_flowchart-pointEnd)"></path><path d="M302.439,1389.373L356.531,1400.37C410.623,1411.367,518.808,1433.362,604.864,1444.359C690.92,1455.356,754.847,1455.356,786.811,1455.356L818.774,1455.356" id="L-admin-p71-0" class=" edge-thickness-normal edge-pattern-solid flowchart-link LS-admin LE-p71" style="fill:none;" marker-end="url(#mermaid-1783939523209_flowchart-pointEnd)"></path><path d="M1061.274,1573.173L1085.501,1603.988C1109.728,1634.803,1158.182,1696.433,1220.22,1727.248C1282.258,1758.063,1357.879,1758.063,1423.385,1758.063C1488.891,1758.063,1544.281,1758.063,1578.957,1757.671C1613.633,1757.279,1627.595,1756.494,1634.575,1756.102L1641.556,1755.71" id="L-p71-d2-0" class=" edge-thickness-normal edge-pattern-solid flowchart-link LS-p71 LE-d2" style="fill:none;" marker-start="url(#mermaid-1783939523209_flowchart-pointStart)" marker-end="url(#mermaid-1783939523209_flowchart-pointEnd)"></path><path d="M1115.358,1424.757L1130.571,1421.584C1145.784,1418.411,1176.21,1412.065,1229.234,1408.892C1282.258,1405.719,1357.879,1405.719,1423.385,1405.719C1488.891,1405.719,1544.281,1405.719,1593.651,1404.501C1643.021,1403.283,1686.371,1400.848,1708.045,1399.63L1729.72,1398.412" id="L-p71-d4-0" class=" edge-thickness-normal edge-pattern-solid flowchart-link LS-p71 LE-d4" style="fill:none;" marker-start="url(#mermaid-1783939523209_flowchart-pointStart)" marker-end="url(#mermaid-1783939523209_flowchart-pointEnd)"></path><path d="M1064.828,1347.424L1088.463,1320.902C1112.097,1294.38,1159.367,1241.337,1199.148,1214.815C1238.929,1188.293,1271.221,1188.293,1287.367,1188.293L1303.513,1188.293" id="L-p71-p72-0" class=" edge-thickness-normal edge-pattern-solid flowchart-link LS-p71 LE-p72" style="fill:none;" marker-end="url(#mermaid-1783939523209_flowchart-pointEnd)"></path><path d="M1533.624,1271.191L1544.632,1280.305C1555.64,1289.419,1577.656,1307.647,1610.398,1325.291C1643.141,1342.936,1686.609,1359.996,1708.344,1368.526L1730.078,1377.056" id="L-p72-d4-0" class=" edge-thickness-normal edge-pattern-solid flowchart-link LS-p72 LE-d4" style="fill:none;" marker-start="url(#mermaid-1783939523209_flowchart-pointStart)" marker-end="url(#mermaid-1783939523209_flowchart-pointEnd)"></path><path d="M1546.646,1252.284L1555.483,1257.282C1564.321,1262.28,1581.996,1272.277,1620.494,1277.275C1658.992,1282.273,1718.313,1282.273,1798.821,1282.273C1879.329,1282.273,1981.026,1282.273,2078.091,1282.273C2175.156,1282.273,2267.59,1282.273,2338.835,1282.273C2410.081,1282.273,2460.138,1282.273,2514.191,1282.273C2568.243,1282.273,2626.292,1282.273,2684.34,1282.273C2742.388,1282.273,2800.436,1282.273,2851.979,1282.273C2903.522,1282.273,2948.56,1282.273,2993.598,1282.273C3038.635,1282.273,3083.673,1282.273,3122.849,1258.629C3162.025,1234.984,3195.339,1187.695,3211.996,1164.051L3228.653,1140.406" id="L-p72-d5-0" class=" edge-thickness-normal edge-pattern-solid flowchart-link LS-p72 LE-d5" style="fill:none;" marker-start="url(#mermaid-1783939523209_flowchart-pointStart)" marker-end="url(#mermaid-1783939523209_flowchart-pointEnd)"></path><path d="M1542.032,1126.911L1551.639,1121.478C1561.245,1116.045,1580.459,1105.179,1593.349,1099.746C1606.239,1094.313,1612.805,1094.313,1616.089,1094.313L1619.372,1094.313" id="L-p72-p73-0" class=" edge-thickness-normal edge-pattern-solid flowchart-link LS-p72 LE-p73" style="fill:none;" marker-end="url(#mermaid-1783939523209_flowchart-pointEnd)"></path><path d="M1930.594,1094.313L1955.949,1094.313C1981.303,1094.313,2032.013,1094.313,2083.695,1083.937C2135.376,1073.561,2188.03,1052.81,2214.357,1042.435L2240.684,1032.059" id="L-p73-p74-0" class=" edge-thickness-normal edge-pattern-solid flowchart-link LS-p73 LE-p74" style="fill:none;" marker-end="url(#mermaid-1783939523209_flowchart-pointEnd)"></path><path d="M2442.727,1076.035L2453.972,1088.409C2465.216,1100.783,2487.706,1125.531,2508.511,1137.905C2529.315,1150.278,2548.435,1150.278,2557.995,1150.278L2567.555,1150.278" id="L-p74-d6-0" class=" edge-thickness-normal edge-pattern-solid flowchart-link LS-p74 LE-d6" style="fill:none;" marker-end="url(#mermaid-1783939523209_flowchart-pointEnd)"></path><path d="M2243.558,945.556L2216.752,936.471C2189.946,927.386,2136.334,909.216,2058.68,900.132C1981.026,891.047,1879.329,891.047,1798.821,891.047C1718.313,891.047,1658.992,891.047,1601.637,891.047C1544.281,891.047,1488.891,891.047,1423.385,891.047C1357.879,891.047,1282.258,891.047,1204.782,891.047C1127.306,891.047,1047.975,891.047,951.368,891.047C854.76,891.047,740.876,891.047,618.88,967.761C496.883,1044.475,366.774,1197.903,301.719,1274.617L236.664,1351.331" id="L-p74-admin-0" class=" edge-thickness-normal edge-pattern-solid flowchart-link LS-p74 LE-admin" style="fill:none;" marker-end="url(#mermaid-1783939523209_flowchart-pointEnd)"></path><path d="M2420.558,877.986L2435.497,851.569C2450.437,825.151,2480.316,772.317,2509.814,745.9C2539.313,719.482,2568.43,719.482,2582.989,719.482L2597.548,719.482" id="L-p74-p75-0" class=" edge-thickness-normal edge-pattern-solid flowchart-link LS-p74 LE-p75" style="fill:none;" marker-end="url(#mermaid-1783939523209_flowchart-pointEnd)"></path><path d="M2765.832,719.482L2781.274,719.482C2796.716,719.482,2827.6,719.482,2864.449,847.494C2901.297,975.506,2944.109,1231.53,2965.516,1359.541L2986.922,1487.553" id="L-p75-d7-0" class=" edge-thickness-normal edge-pattern-solid flowchart-link LS-p75 LE-d7" style="fill:none;" marker-end="url(#mermaid-1783939523209_flowchart-pointEnd)"></path></g><g class="edgeLabels"><g class="edgeLabel" transform="translate(626.9921875, 713.52734375)"><g class="label" transform="translate(-105.2578125, -9.5)"><rect rx="0" ry="0" width="210.39122009277344" height="19.000164031982422"></rect><text style=""><tspan xml:space="preserve" dy="1em" x="0" class="row">Scans QR or opens public link</tspan></text></g></g><g class="edgeLabel"><g class="label" transform="translate(0, 0)"><rect rx="0" ry="0" width="0" height="0"></rect><text style=""><tspan xml:space="preserve" dy="1em" x="0" class="row"></tspan></text></g></g><g class="edgeLabel" transform="translate(1206.63671875, 630.685546875)"><g class="label" transform="translate(-60.69140625, -9.5)"><rect rx="0" ry="0" width="121.3128662109375" height="19.000164031982422"></rect><text style=""><tspan xml:space="preserve" dy="1em" x="0" class="row">Valid open event</tspan></text></g></g><g class="edgeLabel" transform="translate(968.64453125, 125.20703125)"><g class="label" transform="translate(-81.94140625, -9.5)"><rect rx="0" ry="0" width="163.78724670410156" height="19.000164031982422"></rect><text style=""><tspan xml:space="preserve" dy="1em" x="0" class="row">Fixed attendance page</tspan></text></g></g><g class="edgeLabel" transform="translate(626.9921875, 345.982421875)"><g class="label" transform="translate(-127.03125, -9.5)"><rect rx="0" ry="0" width="253.9099884033203" height="19.000164031982422"></rect><text style=""><tspan xml:space="preserve" dy="1em" x="0" class="row">Submitted fixed attendance details</tspan></text></g></g><g class="edgeLabel"><g class="label" transform="translate(0, 0)"><rect rx="0" ry="0" width="0" height="0"></rect><text style=""><tspan xml:space="preserve" dy="1em" x="0" class="row"></tspan></text></g></g><g class="edgeLabel"><g class="label" transform="translate(0, 0)"><rect rx="0" ry="0" width="0" height="0"></rect><text style=""><tspan xml:space="preserve" dy="1em" x="0" class="row"></tspan></text></g></g><g class="edgeLabel"><g class="label" transform="translate(0, 0)"><rect rx="0" ry="0" width="0" height="0"></rect><text style=""><tspan xml:space="preserve" dy="1em" x="0" class="row"></tspan></text></g></g><g class="edgeLabel"><g class="label" transform="translate(0, 0)"><rect rx="0" ry="0" width="0" height="0"></rect><text style=""><tspan xml:space="preserve" dy="1em" x="0" class="row"></tspan></text></g></g><g class="edgeLabel"><g class="label" transform="translate(0, 0)"><rect rx="0" ry="0" width="0" height="0"></rect><text style=""><tspan xml:space="preserve" dy="1em" x="0" class="row"></tspan></text></g></g><g class="edgeLabel"><g class="label" transform="translate(0, 0)"><rect rx="0" ry="0" width="0" height="0"></rect><text style=""><tspan xml:space="preserve" dy="1em" x="0" class="row"></tspan></text></g></g><g class="edgeLabel"><g class="label" transform="translate(0, 0)"><rect rx="0" ry="0" width="0" height="0"></rect><text style=""><tspan xml:space="preserve" dy="1em" x="0" class="row"></tspan></text></g></g><g class="edgeLabel"><g class="label" transform="translate(0, 0)"><rect rx="0" ry="0" width="0" height="0"></rect><text style=""><tspan xml:space="preserve" dy="1em" x="0" class="row"></tspan></text></g></g><g class="edgeLabel"><g class="label" transform="translate(0, 0)"><rect rx="0" ry="0" width="0" height="0"></rect><text style=""><tspan xml:space="preserve" dy="1em" x="0" class="row"></tspan></text></g></g><g class="edgeLabel" transform="translate(2082.72265625, 95.70703125)"><g class="label" transform="translate(-127.12890625, -9.5)"><rect rx="0" ry="0" width="254.1064910888672" height="19.000164031982422"></rect><text style=""><tspan xml:space="preserve" dy="1em" x="0" class="row">Confirmation or validation message</tspan></text></g></g><g class="edgeLabel" transform="translate(968.64453125, 1778.0630779266357)"><g class="label" transform="translate(-152.30078125, -9.5)"><rect rx="0" ry="0" width="304.41912841796875" height="19.000164031982422"></rect><text style=""><tspan xml:space="preserve" dy="1em" x="0" class="row">Search, view, or submit status with reason</tspan></text></g></g><g class="edgeLabel"><g class="label" transform="translate(0, 0)"><rect rx="0" ry="0" width="0" height="0"></rect><text style=""><tspan xml:space="preserve" dy="1em" x="0" class="row"></tspan></text></g></g><g class="edgeLabel"><g class="label" transform="translate(0, 0)"><rect rx="0" ry="0" width="0" height="0"></rect><text style=""><tspan xml:space="preserve" dy="1em" x="0" class="row"></tspan></text></g></g><g class="edgeLabel"><g class="label" transform="translate(0, 0)"><rect rx="0" ry="0" width="0" height="0"></rect><text style=""><tspan xml:space="preserve" dy="1em" x="0" class="row"></tspan></text></g></g><g class="edgeLabel"><g class="label" transform="translate(0, 0)"><rect rx="0" ry="0" width="0" height="0"></rect><text style=""><tspan xml:space="preserve" dy="1em" x="0" class="row"></tspan></text></g></g><g class="edgeLabel" transform="translate(968.64453125, 920.546875)"><g class="label" transform="translate(-150.18359375, -9.5)"><rect rx="0" ry="0" width="300.1860656738281" height="19.000164031982422"></rect><text style=""><tspan xml:space="preserve" dy="1em" x="0" class="row">Paginated records, detail, or status result</tspan></text></g></g><g class="edgeLabel" transform="translate(626.9921875, 1455.3560466766357)"><g class="label" transform="translate(-164.3515625, -9.5)"><rect rx="0" ry="0" width="328.5057373046875" height="19.000164031982422"></rect><text style=""><tspan xml:space="preserve" dy="1em" x="0" class="row">Select one event and request attendance PDF</tspan></text></g></g><g class="edgeLabel"><g class="label" transform="translate(0, 0)"><rect rx="0" ry="0" width="0" height="0"></rect><text style=""><tspan xml:space="preserve" dy="1em" x="0" class="row"></tspan></text></g></g><g class="edgeLabel"><g class="label" transform="translate(0, 0)"><rect rx="0" ry="0" width="0" height="0"></rect><text style=""><tspan xml:space="preserve" dy="1em" x="0" class="row"></tspan></text></g></g><g class="edgeLabel"><g class="label" transform="translate(0, 0)"><rect rx="0" ry="0" width="0" height="0"></rect><text style=""><tspan xml:space="preserve" dy="1em" x="0" class="row"></tspan></text></g></g><g class="edgeLabel"><g class="label" transform="translate(0, 0)"><rect rx="0" ry="0" width="0" height="0"></rect><text style=""><tspan xml:space="preserve" dy="1em" x="0" class="row"></tspan></text></g></g><g class="edgeLabel"><g class="label" transform="translate(0, 0)"><rect rx="0" ry="0" width="0" height="0"></rect><text style=""><tspan xml:space="preserve" dy="1em" x="0" class="row"></tspan></text></g></g><g class="edgeLabel"><g class="label" transform="translate(0, 0)"><rect rx="0" ry="0" width="0" height="0"></rect><text style=""><tspan xml:space="preserve" dy="1em" x="0" class="row"></tspan></text></g></g><g class="edgeLabel"><g class="label" transform="translate(0, 0)"><rect rx="0" ry="0" width="0" height="0"></rect><text style=""><tspan xml:space="preserve" dy="1em" x="0" class="row"></tspan></text></g></g><g class="edgeLabel"><g class="label" transform="translate(0, 0)"><rect rx="0" ry="0" width="0" height="0"></rect><text style=""><tspan xml:space="preserve" dy="1em" x="0" class="row"></tspan></text></g></g><g class="edgeLabel" transform="translate(1433.5, 891.046875)"><g class="label" transform="translate(-136.63671875, -9.5)"><rect rx="0" ry="0" width="273.1103210449219" height="19.000164031982422"></rect><text style=""><tspan xml:space="preserve" dy="1em" x="0" class="row">Private downloadable attendance PDF</tspan></text></g></g><g class="edgeLabel"><g class="label" transform="translate(0, 0)"><rect rx="0" ry="0" width="0" height="0"></rect><text style=""><tspan xml:space="preserve" dy="1em" x="0" class="row"></tspan></text></g></g><g class="edgeLabel"><g class="label" transform="translate(0, 0)"><rect rx="0" ry="0" width="0" height="0"></rect><text style=""><tspan xml:space="preserve" dy="1em" x="0" class="row"></tspan></text></g></g></g><g class="nodes"><g class="node default default flowchart-label" id="flowchart-attendee-0" data-node="true" data-id="attendee" transform="translate(218.8203125, 328.162109375)"><rect class="basic label-container" style="" rx="0" ry="0" x="-72.45703125" y="-17" width="144.9140625" height="34"></rect><g class="label" style="" transform="translate(0, -9.5)"><rect></rect><text style=""><tspan xml:space="preserve" dy="1em" x="0" class="row">External Attendee</tspan></text></g></g><g class="node default default flowchart-label" id="flowchart-admin-1" data-node="true" data-id="admin" transform="translate(218.8203125, 1372.373046875)"><rect class="basic label-container" style="" rx="0" ry="0" x="-115.125" y="-17" width="230.25" height="34"></rect><g class="label" style="" transform="translate(0, -9.5)"><rect></rect><text style=""><tspan xml:space="preserve" dy="1em" x="0" class="row">Super Admin / Program Admin</tspan></text></g></g><g class="node default note flowchart-label" id="flowchart-note_template-2" data-node="true" data-id="note_template" transform="translate(218.8203125, 1456.373046875)"><rect class="basic label-container" style="" rx="0" ry="0" x="-218.8203125" y="-17" width="437.640625" height="34"></rect><g class="label" style="" transform="translate(0, -9.5)"><rect></rect><text style=""><tspan xml:space="preserve" dy="1em" x="0" class="row">Note: Formatting uses fixed DICT attendance sheet layout.</tspan></text></g></g><g class="node default default flowchart-label" id="flowchart-p51-3" data-node="true" data-id="p51" transform="translate(968.64453125, 713.52734375)"><circle style="" rx="0" ry="0" r="124.85546875" width="249.7109375" height="34"></circle><g class="label" style="" transform="translate(0, -9.5)"><rect></rect><text style=""><tspan xml:space="preserve" dy="1em" x="0" class="row">5.1 Open Public Attendance Link</tspan></text></g></g><g class="node default default flowchart-label" id="flowchart-p52-4" data-node="true" data-id="p52" transform="translate(1433.5, 621.119140625)"><circle style="" rx="0" ry="0" r="130.68359375" width="261.3671875" height="34"></circle><g class="label" style="" transform="translate(0, -9.5)"><rect></rect><text style=""><tspan xml:space="preserve" dy="1em" x="0" class="row">5.2 Display Fixed Attendance Page</tspan></text></g></g><g class="node default default flowchart-label" id="flowchart-p53-5" data-node="true" data-id="p53" transform="translate(968.64453125, 345.982421875)"><circle style="" rx="0" ry="0" r="116.32421875" width="232.6484375" height="34"></circle><g class="label" style="" transform="translate(0, -9.5)"><rect></rect><text style=""><tspan xml:space="preserve" dy="1em" x="0" class="row">5.3 Submit Attendance Details</tspan></text></g></g><g class="node default default flowchart-label" id="flowchart-p61-6" data-node="true" data-id="p61" transform="translate(1433.5, 342.892578125)"><circle style="" rx="0" ry="0" r="97.54296875" width="195.0859375" height="34"></circle><g class="label" style="" transform="translate(0, -9.5)"><rect></rect><text style=""><tspan xml:space="preserve" dy="1em" x="0" class="row">6.1 Validate Event Status</tspan></text></g></g><g class="node default default flowchart-label" id="flowchart-p62-7" data-node="true" data-id="p62" transform="translate(1777.6328125, 332.892578125)"><circle style="" rx="0" ry="0" r="108.0625" width="216.125" height="34"></circle><g class="label" style="" transform="translate(0, -9.5)"><rect></rect><text style=""><tspan xml:space="preserve" dy="1em" x="0" class="row">6.2 Validate Required Fields</tspan></text></g></g><g class="node default default flowchart-label" id="flowchart-p63-8" data-node="true" data-id="p63" transform="translate(2360.0234375, 332.892578125)"><circle style="" rx="0" ry="0" r="125.171875" width="250.34375" height="34"></circle><g class="label" style="" transform="translate(0, -9.5)"><rect></rect><text style=""><tspan xml:space="preserve" dy="1em" x="0" class="row">6.3 Validate Contact Information</tspan></text></g></g><g class="node default default flowchart-label" id="flowchart-p64-9" data-node="true" data-id="p64" transform="translate(2684.33984375, 332.892578125)"><circle style="" rx="0" ry="0" r="149.14453125" width="298.2890625" height="34"></circle><g class="label" style="" transform="translate(0, -9.5)"><rect></rect><text style=""><tspan xml:space="preserve" dy="1em" x="0" class="row">6.4 Check Duplicate Within Same Event</tspan></text></g></g><g class="node default default flowchart-label" id="flowchart-p65-10" data-node="true" data-id="p65" transform="translate(2993.59765625, 260.3359375)"><circle style="" rx="0" ry="0" r="110.11328125" width="220.2265625" height="34"></circle><g class="label" style="" transform="translate(0, -9.5)"><rect></rect><text style=""><tspan xml:space="preserve" dy="1em" x="0" class="row">6.5 Store Attendance Record</tspan></text></g></g><g class="node default default flowchart-label" id="flowchart-p66-11" data-node="true" data-id="p66" transform="translate(3259.41796875, 105.70703125)"><circle style="" rx="0" ry="0" r="105.70703125" width="211.4140625" height="34"></circle><g class="label" style="" transform="translate(0, -9.5)"><rect></rect><text style=""><tspan xml:space="preserve" dy="1em" x="0" class="row">6.6 Show Submission Result</tspan></text></g></g><g class="node default default flowchart-label" id="flowchart-p67-12" data-node="true" data-id="p67" transform="translate(1433.5, 1581.8912029266357)"><circle style="" rx="0" ry="0" r="141.171875" width="282.34375" height="34"></circle><g class="label" style="" transform="translate(0, -9.5)"><rect></rect><text style=""><tspan xml:space="preserve" dy="1em" x="0" class="row">6.7 Review Attendance Record Status</tspan></text></g></g><g class="node default default flowchart-label" id="flowchart-p71-13" data-node="true" data-id="p71" transform="translate(968.64453125, 1455.3560466766357)"><circle style="" rx="0" ry="0" r="144.5703125" width="289.140625" height="34"></circle><g class="label" style="" transform="translate(0, -9.5)"><rect></rect><text style=""><tspan xml:space="preserve" dy="1em" x="0" class="row">7.1 Select Event for Attendance Sheet</tspan></text></g></g><g class="node default default flowchart-label" id="flowchart-p72-14" data-node="true" data-id="p72" transform="translate(1433.5, 1188.29296875)"><circle style="" rx="0" ry="0" r="124.6875" width="249.375" height="34"></circle><g class="label" style="" transform="translate(0, -9.5)"><rect></rect><text style=""><tspan xml:space="preserve" dy="1em" x="0" class="row">7.2 Retrieve Attendance Records</tspan></text></g></g><g class="node default default flowchart-label" id="flowchart-p73-15" data-node="true" data-id="p73" transform="translate(1777.6328125, 1094.3125)"><circle style="" rx="0" ry="0" r="152.9609375" width="305.921875" height="34"></circle><g class="label" style="" transform="translate(0, -9.5)"><rect></rect><text style=""><tspan xml:space="preserve" dy="1em" x="0" class="row">7.3 Format Records Using DICT Template</tspan></text></g></g><g class="node default default flowchart-label" id="flowchart-p74-16" data-node="true" data-id="p74" transform="translate(2360.0234375, 985.02734375)"><circle style="" rx="0" ry="0" r="122.97265625" width="245.9453125" height="34"></circle><g class="label" style="" transform="translate(0, -9.5)"><rect></rect><text style=""><tspan xml:space="preserve" dy="1em" x="0" class="row">7.4 Generate Downloadable File</tspan></text></g></g><g class="node default default flowchart-label" id="flowchart-p75-17" data-node="true" data-id="p75" transform="translate(2684.33984375, 719.482421875)"><circle style="" rx="0" ry="0" r="81.4921875" width="162.984375" height="34"></circle><g class="label" style="" transform="translate(0, -9.5)"><rect></rect><text style=""><tspan xml:space="preserve" dy="1em" x="0" class="row">7.5 Record Audit Log</tspan></text></g></g><g class="node default default flowchart-label" id="flowchart-d2-18" label-offset-y="16.91608900386007" data-node="true" data-id="d2" transform="translate(1777.6328125, 1748.0630779266357)"><path style="" d="M 0,16.91608900386007 a 130.78515625,16.91608900386007 0,0,0 261.5703125 0 a 130.78515625,16.91608900386007 0,0,0 -261.5703125 0 l 0,50.916089003860066 a 130.78515625,16.91608900386007 0,0,0 261.5703125 0 l 0,-50.916089003860066" transform="translate(-130.78515625,-42.3741335057901)"></path><g class="label" style="" transform="translate(0, -9.5)"><rect></rect><text style=""><tspan xml:space="preserve" dy="1em" x="0" class="row">D2 Roles and Program Assignments</tspan></text></g></g><g class="node default default flowchart-label" id="flowchart-d4-19" label-offset-y="10.136189662219909" data-node="true" data-id="d4" transform="translate(1777.6328125, 1395.7193279266357)"><path style="" d="M 0,10.136189662219909 a 42.62109375,10.136189662219909 0,0,0 85.2421875 0 a 42.62109375,10.136189662219909 0,0,0 -85.2421875 0 l 0,44.136189662219905 a 42.62109375,10.136189662219909 0,0,0 85.2421875 0 l 0,-44.136189662219905" transform="translate(-42.62109375,-32.204284493329865)"></path><g class="label" style="" transform="translate(0, -9.5)"><rect></rect><text style=""><tspan xml:space="preserve" dy="1em" x="0" class="row">D4 Events</tspan></text></g></g><g class="node default default flowchart-label" id="flowchart-d5-20" label-offset-y="14.764061620349047" data-node="true" data-id="d5" transform="translate(3259.41796875, 1097.6420001983643)"><path style="" d="M 0,14.764061620349047 a 90.1484375,14.764061620349047 0,0,0 180.296875 0 a 90.1484375,14.764061620349047 0,0,0 -180.296875 0 l 0,48.76406162034905 a 90.1484375,14.764061620349047 0,0,0 180.296875 0 l 0,-48.76406162034905" transform="translate(-90.1484375,-39.14609243052357)"></path><g class="label" style="" transform="translate(0, -9.5)"><rect></rect><text style=""><tspan xml:space="preserve" dy="1em" x="0" class="row">D5 Attendance Records</tspan></text></g></g><g class="node default default flowchart-label" id="flowchart-d6-21" label-offset-y="16.01930848675348" data-node="true" data-id="d6" transform="translate(2684.33984375, 1150.278486251831)"><path style="" d="M 0,16.01930848675348 a 111.484375,16.01930848675348 0,0,0 222.96875 0 a 111.484375,16.01930848675348 0,0,0 -222.96875 0 l 0,50.01930848675348 a 111.484375,16.01930848675348 0,0,0 222.96875 0 l 0,-50.01930848675348" transform="translate(-111.484375,-41.02896273013022)"></path><g class="label" style="" transform="translate(0, -9.5)"><rect></rect><text style=""><tspan xml:space="preserve" dy="1em" x="0" class="row">D6 Attendance Sheet Exports</tspan></text></g></g><g class="node default default flowchart-label" id="flowchart-d7-22" label-offset-y="11.796501072784288" data-node="true" data-id="d7" transform="translate(2993.59765625, 1527.4074058532715)"><path style="" d="M 0,11.796501072784288 a 55.83984375,11.796501072784288 0,0,0 111.6796875 0 a 55.83984375,11.796501072784288 0,0,0 -111.6796875 0 l 0,45.79650107278429 a 55.83984375,11.796501072784288 0,0,0 111.6796875 0 l 0,-45.79650107278429" transform="translate(-55.83984375,-34.694751609176436)"></path><g class="label" style="" transform="translate(0, -9.5)"><rect></rect><text style=""><tspan xml:space="preserve" dy="1em" x="0" class="row">D7 Audit Logs</tspan></text></g></g></g></g></g></svg>