<svg id="mermaid-1782975354526" width="3325.953125" xmlns="http://www.w3.org/2000/svg" xmlns:xlink="http://www.w3.org/1999/xlink" height="1510.55517578125" viewBox="-8 -8 3325.953125 1510.55517578125" role="graphics-document document" aria-roledescription="flowchart-v2">
<rect x="-100000" y="-100000" width="200000" height="200000" fill="#000000"/>
<style>#mermaid-1782975354526{font-family:"trebuchet ms",verdana,arial,sans-serif;font-size:16px;fill:#ccc;}#mermaid-1782975354526 .error-icon{fill:#a44141;}#mermaid-1782975354526 .error-text{fill:#ddd;stroke:#ddd;}#mermaid-1782975354526 .edge-thickness-normal{stroke-width:2px;}#mermaid-1782975354526 .edge-thickness-thick{stroke-width:3.5px;}#mermaid-1782975354526 .edge-pattern-solid{stroke-dasharray:0;}#mermaid-1782975354526 .edge-pattern-dashed{stroke-dasharray:3;}#mermaid-1782975354526 .edge-pattern-dotted{stroke-dasharray:2;}#mermaid-1782975354526 .marker{fill:lightgrey;stroke:lightgrey;}#mermaid-1782975354526 .marker.cross{stroke:lightgrey;}#mermaid-1782975354526 svg{font-family:"trebuchet ms",verdana,arial,sans-serif;font-size:16px;}#mermaid-1782975354526 .label{font-family:"trebuchet ms",verdana,arial,sans-serif;color:#ccc;}#mermaid-1782975354526 .cluster-label text{fill:#F9FFFE;}#mermaid-1782975354526 .cluster-label span,#mermaid-1782975354526 p{color:#F9FFFE;}#mermaid-1782975354526 .label text,#mermaid-1782975354526 span,#mermaid-1782975354526 p{fill:#ccc;color:#ccc;}#mermaid-1782975354526 .node rect,#mermaid-1782975354526 .node circle,#mermaid-1782975354526 .node ellipse,#mermaid-1782975354526 .node polygon,#mermaid-1782975354526 .node path{fill:#1f2020;stroke:#81B1DB;stroke-width:1px;}#mermaid-1782975354526 .flowchart-label text{text-anchor:middle;}#mermaid-1782975354526 .node .katex path{fill:#000;stroke:#000;stroke-width:1px;}#mermaid-1782975354526 .node .label{text-align:center;}#mermaid-1782975354526 .node.clickable{cursor:pointer;}#mermaid-1782975354526 .arrowheadPath{fill:lightgrey;}#mermaid-1782975354526 .edgePath .path{stroke:lightgrey;stroke-width:2.0px;}#mermaid-1782975354526 .flowchart-link{stroke:lightgrey;fill:none;}#mermaid-1782975354526 .edgeLabel{background-color:hsl(0, 0%, 34.4117647059%);text-align:center;}#mermaid-1782975354526 .edgeLabel rect{opacity:0.5;background-color:hsl(0, 0%, 34.4117647059%);fill:hsl(0, 0%, 34.4117647059%);}#mermaid-1782975354526 .labelBkg{background-color:rgba(87.75, 87.75, 87.75, 0.5);}#mermaid-1782975354526 .cluster rect{fill:hsl(180, 1.5873015873%, 28.3529411765%);stroke:rgba(255, 255, 255, 0.25);stroke-width:1px;}#mermaid-1782975354526 .cluster text{fill:#F9FFFE;}#mermaid-1782975354526 .cluster span,#mermaid-1782975354526 p{color:#F9FFFE;}#mermaid-1782975354526 div.mermaidTooltip{position:absolute;text-align:center;max-width:200px;padding:2px;font-family:"trebuchet ms",verdana,arial,sans-serif;font-size:12px;background:hsl(20, 1.5873015873%, 12.3529411765%);border:1px solid rgba(255, 255, 255, 0.25);border-radius:2px;pointer-events:none;z-index:100;}#mermaid-1782975354526 .flowchartTitleText{text-anchor:middle;font-size:18px;fill:#ccc;}#mermaid-1782975354526 :root{--mermaid-font-family:"trebuchet ms",verdana,arial,sans-serif;}#mermaid-1782975354526 .note rect{fill:#1f2020!important;stroke:#8CA6DB!important;color:#d4d4d4!important;stroke-dasharray:5 5!important;}#mermaid-1782975354526 .note polygon{fill:#1f2020!important;stroke:#8CA6DB!important;color:#d4d4d4!important;stroke-dasharray:5 5!important;}#mermaid-1782975354526 .note ellipse{fill:#1f2020!important;stroke:#8CA6DB!important;color:#d4d4d4!important;stroke-dasharray:5 5!important;}#mermaid-1782975354526 .note circle{fill:#1f2020!important;stroke:#8CA6DB!important;color:#d4d4d4!important;stroke-dasharray:5 5!important;}#mermaid-1782975354526 .note path{fill:#1f2020!important;stroke:#8CA6DB!important;color:#d4d4d4!important;stroke-dasharray:5 5!important;}#mermaid-1782975354526 .note tspan{fill:#d4d4d4!important;}</style><g><marker id="mermaid-1782975354526_flowchart-pointEnd" class="marker flowchart" viewBox="0 0 10 10" refX="6" refY="5" markerUnits="userSpaceOnUse" markerWidth="12" markerHeight="12" orient="auto"><path d="M 0 0 L 10 5 L 0 10 z" class="arrowMarkerPath" style="stroke-width: 1; stroke-dasharray: 1, 0;"></path></marker><marker id="mermaid-1782975354526_flowchart-pointStart" class="marker flowchart" viewBox="0 0 10 10" refX="4.5" refY="5" markerUnits="userSpaceOnUse" markerWidth="12" markerHeight="12" orient="auto"><path d="M 0 5 L 10 10 L 10 0 z" class="arrowMarkerPath" style="stroke-width: 1; stroke-dasharray: 1, 0;"></path></marker><marker id="mermaid-1782975354526_flowchart-circleEnd" class="marker flowchart" viewBox="0 0 10 10" refX="11" refY="5" markerUnits="userSpaceOnUse" markerWidth="11" markerHeight="11" orient="auto"><circle cx="5" cy="5" r="5" class="arrowMarkerPath" style="stroke-width: 1; stroke-dasharray: 1, 0;"></circle></marker><marker id="mermaid-1782975354526_flowchart-circleStart" class="marker flowchart" viewBox="0 0 10 10" refX="-1" refY="5" markerUnits="userSpaceOnUse" markerWidth="11" markerHeight="11" orient="auto"><circle cx="5" cy="5" r="5" class="arrowMarkerPath" style="stroke-width: 1; stroke-dasharray: 1, 0;"></circle></marker><marker id="mermaid-1782975354526_flowchart-crossEnd" class="marker cross flowchart" viewBox="0 0 11 11" refX="12" refY="5.2" markerUnits="userSpaceOnUse" markerWidth="11" markerHeight="11" orient="auto"><path d="M 1,1 l 9,9 M 10,1 l -9,9" class="arrowMarkerPath" style="stroke-width: 2; stroke-dasharray: 1, 0;"></path></marker><marker id="mermaid-1782975354526_flowchart-crossStart" class="marker cross flowchart" viewBox="0 0 11 11" refX="-1" refY="5.2" markerUnits="userSpaceOnUse" markerWidth="11" markerHeight="11" orient="auto"><path d="M 1,1 l 9,9 M 10,1 l -9,9" class="arrowMarkerPath" style="stroke-width: 2; stroke-dasharray: 1, 0;"></path></marker><g class="root"><g class="clusters"></g><g class="edgePaths"><path d="M247.755,342.102L309.383,305.894C371.011,269.687,494.267,197.271,588.278,161.063C682.289,124.855,747.055,124.855,779.438,124.855L811.821,124.855" id="L-attendee-p51-0" class=" edge-thickness-normal edge-pattern-solid flowchart-link LS-attendee LE-p51" style="fill:none;" marker-end="url(#mermaid-1782975354526_flowchart-pointEnd)"></path><path d="M1064.447,80.794L1082.412,74.331C1100.377,67.867,1136.308,54.94,1190.353,48.477C1244.397,42.014,1316.556,42.014,1378.6,42.014C1440.643,42.014,1492.572,42.014,1545.673,108.605C1598.774,175.197,1653.047,308.38,1680.184,374.972L1707.321,441.563" id="L-p51-d4-0" class=" edge-thickness-normal edge-pattern-solid flowchart-link LS-p51 LE-d4" style="fill:none;" marker-start="url(#mermaid-1782975354526_flowchart-pointStart)" marker-end="url(#mermaid-1782975354526_flowchart-pointEnd)"></path><path d="M1059.46,167.123L1078.256,173.885C1097.053,180.648,1134.646,194.172,1166.857,200.935C1199.069,207.697,1225.9,207.697,1239.316,207.697L1252.731,207.697" id="L-p51-p52-0" class=" edge-thickness-normal edge-pattern-solid flowchart-link LS-p51 LE-p52" style="fill:none;" marker-end="url(#mermaid-1782975354526_flowchart-pointEnd)"></path><path d="M1340.115,329.008L1312.135,398.847C1284.156,468.687,1228.197,608.366,1161.841,678.206C1095.484,748.046,1018.73,748.046,926.278,748.046C833.826,748.046,725.674,748.046,608.685,686.672C491.696,625.298,365.868,502.551,302.954,441.177L240.041,379.803" id="L-p52-attendee-0" class=" edge-thickness-normal edge-pattern-solid flowchart-link LS-p52 LE-attendee" style="fill:none;" marker-end="url(#mermaid-1782975354526_flowchart-pointEnd)"></path><path d="M269.668,376.102L327.644,395.485C385.62,414.868,501.572,453.634,593.352,473.017C685.133,492.4,752.743,492.4,786.548,492.4L820.352,492.4" id="L-attendee-p53-0" class=" edge-thickness-normal edge-pattern-solid flowchart-link LS-attendee LE-p53" style="fill:none;" marker-end="url(#mermaid-1782975354526_flowchart-pointEnd)"></path><path d="M1058.301,492.4L1077.29,492.4C1096.28,492.4,1134.259,492.4,1172.188,492.4C1210.116,492.4,1247.994,492.4,1266.933,492.4L1285.872,492.4" id="L-p53-p61-0" class=" edge-thickness-normal edge-pattern-solid flowchart-link LS-p53 LE-p61" style="fill:none;" marker-end="url(#mermaid-1782975354526_flowchart-pointEnd)"></path><path d="M1491.347,485.812L1500.205,485.244C1509.064,484.675,1526.782,483.538,1557.315,482.455C1587.847,481.373,1631.194,480.345,1652.868,479.832L1674.541,479.318" id="L-p61-d4-0" class=" edge-thickness-normal edge-pattern-solid flowchart-link LS-p61 LE-d4" style="fill:none;" marker-start="url(#mermaid-1782975354526_flowchart-pointStart)" marker-end="url(#mermaid-1782975354526_flowchart-pointEnd)"></path><path d="M1486.057,498.649L1495.798,499.274C1505.538,499.899,1525.019,501.15,1552.355,480.568C1579.692,459.986,1614.883,417.572,1632.479,396.365L1650.075,375.158" id="L-p61-p62-0" class=" edge-thickness-normal edge-pattern-solid flowchart-link LS-p61 LE-p62" style="fill:none;" marker-end="url(#mermaid-1782975354526_flowchart-pointEnd)"></path><path d="M1830.523,287.915L1863.361,287.915C1896.199,287.915,1961.875,287.915,2019.184,287.915C2076.494,287.915,2125.437,287.915,2149.908,287.915L2174.38,287.915" id="L-p62-p63-0" class=" edge-thickness-normal edge-pattern-solid flowchart-link LS-p62 LE-p63" style="fill:none;" marker-end="url(#mermaid-1782975354526_flowchart-pointEnd)"></path><path d="M2430.023,287.915L2434.19,287.915C2438.357,287.915,2446.69,287.915,2454.14,287.915C2461.59,287.915,2468.157,287.915,2471.44,287.915L2474.723,287.915" id="L-p63-p64-0" class=" edge-thickness-normal edge-pattern-solid flowchart-link LS-p63 LE-p64" style="fill:none;" marker-end="url(#mermaid-1782975354526_flowchart-pointEnd)"></path><path d="M2747.818,189.045L2757.067,181.338C2766.316,173.631,2784.814,158.216,2816.582,150.509C2848.35,142.802,2893.388,142.802,2938.426,142.802C2983.464,142.802,3028.501,142.802,3069.189,179.62C3109.877,216.439,3146.215,290.075,3164.384,326.894L3182.553,363.712" id="L-p64-d5-0" class=" edge-thickness-normal edge-pattern-solid flowchart-link LS-p64 LE-d5" style="fill:none;" marker-start="url(#mermaid-1782975354526_flowchart-pointStart)" marker-end="url(#mermaid-1782975354526_flowchart-pointEnd)"></path><path d="M2732.305,395.65L2744.14,408.013C2755.974,420.375,2779.643,445.099,2794.761,457.461C2809.879,469.824,2816.446,469.824,2819.729,469.824L2823.013,469.824" id="L-p64-p65-0" class=" edge-thickness-normal edge-pattern-solid flowchart-link LS-p64 LE-p65" style="fill:none;" marker-end="url(#mermaid-1782975354526_flowchart-pointEnd)"></path><path d="M3038.349,423.56L3044.214,420.844C3050.079,418.129,3061.809,412.698,3073.55,409.982C3085.292,407.267,3097.045,407.267,3102.921,407.267L3108.798,407.267" id="L-p65-d5-0" class=" edge-thickness-normal edge-pattern-solid flowchart-link LS-p65 LE-d5" style="fill:none;" marker-end="url(#mermaid-1782975354526_flowchart-pointEnd)"></path><path d="M3027.741,534.226L3035.374,539.73C3043.007,545.234,3058.273,556.242,3079.841,591.485C3101.408,626.728,3129.277,686.205,3143.212,715.944L3157.146,745.683" id="L-p65-p66-0" class=" edge-thickness-normal edge-pattern-solid flowchart-link LS-p65 LE-p66" style="fill:none;" marker-end="url(#mermaid-1782975354526_flowchart-pointEnd)"></path><path d="M3110.664,797.046L3104.476,793.796C3098.289,790.546,3085.914,784.046,3057.208,780.796C3028.501,777.546,2983.464,777.546,2938.426,777.546C2893.388,777.546,2848.35,777.546,2796.807,777.546C2745.264,777.546,2687.216,777.546,2629.168,777.546C2571.12,777.546,2513.072,777.546,2459.019,777.546C2404.966,777.546,2354.909,777.546,2283.663,777.546C2212.418,777.546,2119.984,777.546,2022.919,777.546C1925.854,777.546,1824.158,777.546,1743.649,777.546C1663.141,777.546,1603.82,777.546,1548.196,777.546C1492.572,777.546,1440.643,777.546,1378.6,777.546C1316.556,777.546,1244.397,777.546,1169.941,777.546C1095.484,777.546,1018.73,777.546,926.278,777.546C833.826,777.546,725.674,777.546,608.457,711.278C491.24,645.01,364.957,512.475,301.816,446.207L238.674,379.939" id="L-p66-attendee-0" class=" edge-thickness-normal edge-pattern-solid flowchart-link LS-p66 LE-attendee" style="fill:none;" marker-end="url(#mermaid-1782975354526_flowchart-pointEnd)"></path><path d="M282.044,1135.978L337.958,1120.944C393.871,1105.91,505.697,1075.841,590.707,1060.807C675.718,1045.773,733.912,1045.773,763.009,1045.773L792.106,1045.773" id="L-admin-p71-0" class=" edge-thickness-normal edge-pattern-solid flowchart-link LS-admin LE-p71" style="fill:none;" marker-end="url(#mermaid-1782975354526_flowchart-pointEnd)"></path><path d="M1060.517,954.071L1079.137,939.666C1097.757,925.261,1134.998,896.452,1167.017,882.048C1199.035,867.643,1225.833,867.643,1239.231,867.643L1252.63,867.643" id="L-p71-d2-0" class=" edge-thickness-normal edge-pattern-solid flowchart-link LS-p71 LE-d2" style="fill:none;" marker-start="url(#mermaid-1782975354526_flowchart-pointStart)" marker-end="url(#mermaid-1782975354526_flowchart-pointEnd)"></path><path d="M1079.278,985.694L1094.771,978.915C1110.265,972.135,1141.251,958.576,1192.824,951.797C1244.397,945.017,1316.556,945.017,1378.6,945.017C1440.643,945.017,1492.572,945.017,1545.836,873.333C1599.099,801.648,1653.699,658.279,1680.998,586.594L1708.298,514.91" id="L-p71-d4-0" class=" edge-thickness-normal edge-pattern-solid flowchart-link LS-p71 LE-d4" style="fill:none;" marker-start="url(#mermaid-1782975354526_flowchart-pointStart)" marker-end="url(#mermaid-1782975354526_flowchart-pointEnd)"></path><path d="M1076.012,1099.948L1092.05,1106.43C1108.088,1112.913,1140.163,1125.877,1170.615,1132.359C1201.068,1138.842,1229.898,1138.842,1244.313,1138.842L1258.727,1138.842" id="L-p71-p72-0" class=" edge-thickness-normal edge-pattern-solid flowchart-link LS-p71 LE-p72" style="fill:none;" marker-end="url(#mermaid-1782975354526_flowchart-pointEnd)"></path><path d="M1493.621,1062.086L1502.101,1055.882C1510.581,1049.678,1527.54,1037.269,1563.66,946.108C1599.779,854.946,1655.059,685.03,1682.698,600.073L1710.338,515.115" id="L-p72-d4-0" class=" edge-thickness-normal edge-pattern-solid flowchart-link LS-p72 LE-d4" style="fill:none;" marker-start="url(#mermaid-1782975354526_flowchart-pointStart)" marker-end="url(#mermaid-1782975354526_flowchart-pointEnd)"></path><path d="M1500.017,1071.696L1507.431,1067.224C1514.845,1062.751,1529.672,1053.806,1566.746,1049.334C1603.82,1044.861,1663.141,1044.861,1743.649,1044.861C1824.158,1044.861,1925.854,1044.861,2022.919,1044.861C2119.984,1044.861,2212.418,1044.861,2283.663,1044.861C2354.909,1044.861,2404.966,1044.861,2459.019,1044.861C2513.072,1044.861,2571.12,1044.861,2629.168,1044.861C2687.216,1044.861,2745.264,1044.861,2796.807,1044.861C2848.35,1044.861,2893.388,1044.861,2938.426,1044.861C2983.464,1044.861,3028.501,1044.861,3071.29,945.975C3114.078,847.09,3154.618,649.318,3174.887,550.432L3195.157,451.547" id="L-p72-d5-0" class=" edge-thickness-normal edge-pattern-solid flowchart-link LS-p72 LE-d5" style="fill:none;" marker-start="url(#mermaid-1782975354526_flowchart-pointStart)" marker-end="url(#mermaid-1782975354526_flowchart-pointEnd)"></path><path d="M1495.479,1203.249L1503.649,1208.178C1511.819,1213.107,1528.16,1222.964,1539.613,1227.893C1551.067,1232.822,1557.633,1232.822,1560.917,1232.822L1564.2,1232.822" id="L-p72-p73-0" class=" edge-thickness-normal edge-pattern-solid flowchart-link LS-p72 LE-p73" style="fill:none;" marker-end="url(#mermaid-1782975354526_flowchart-pointEnd)"></path><path d="M1875.422,1232.822L1900.777,1232.822C1926.132,1232.822,1976.841,1232.822,2028.165,1241.623C2079.489,1250.425,2131.428,1268.027,2157.397,1276.828L2183.366,1285.63" id="L-p73-p74-0" class=" edge-thickness-normal edge-pattern-solid flowchart-link LS-p73 LE-p74" style="fill:none;" marker-end="url(#mermaid-1782975354526_flowchart-pointEnd)"></path><path d="M2391.872,1239.913L2402.397,1229.403C2412.922,1218.894,2433.973,1197.875,2454.058,1187.365C2474.143,1176.856,2493.264,1176.856,2502.824,1176.856L2512.384,1176.856" id="L-p74-d6-0" class=" edge-thickness-normal edge-pattern-solid flowchart-link LS-p74 LE-d6" style="fill:none;" marker-end="url(#mermaid-1782975354526_flowchart-pointEnd)"></path><path d="M2188.386,1366.274L2161.58,1375.359C2134.774,1384.444,2081.162,1402.613,2003.508,1411.698C1925.854,1420.783,1824.158,1420.783,1743.649,1420.783C1663.141,1420.783,1603.82,1420.783,1548.196,1420.783C1492.572,1420.783,1440.643,1420.783,1378.6,1420.783C1316.556,1420.783,1244.397,1420.783,1169.941,1420.783C1095.484,1420.783,1018.73,1420.783,926.278,1420.783C833.826,1420.783,725.674,1420.783,610.1,1379.475C494.525,1338.166,371.527,1255.55,310.028,1214.242L248.529,1172.933" id="L-p74-admin-0" class=" edge-thickness-normal edge-pattern-solid flowchart-link LS-p74 LE-admin" style="fill:none;" marker-end="url(#mermaid-1782975354526_flowchart-pointEnd)"></path><path d="M2411.484,1388.054L2418.741,1392.222C2425.997,1396.39,2440.51,1404.727,2462.326,1408.895C2484.141,1413.063,2513.258,1413.063,2527.817,1413.063L2542.376,1413.063" id="L-p74-p75-0" class=" edge-thickness-normal edge-pattern-solid flowchart-link LS-p74 LE-p75" style="fill:none;" marker-end="url(#mermaid-1782975354526_flowchart-pointEnd)"></path><path d="M2710.66,1413.063L2726.102,1413.063C2741.544,1413.063,2772.428,1413.063,2800.199,1413.063C2827.97,1413.063,2852.628,1413.063,2864.957,1413.063L2877.286,1413.063" id="L-p75-d7-0" class=" edge-thickness-normal edge-pattern-solid flowchart-link LS-p75 LE-d7" style="fill:none;" marker-end="url(#mermaid-1782975354526_flowchart-pointEnd)"></path></g><g class="edgeLabels"><g class="edgeLabel" transform="translate(617.5234375, 124.85546875)"><g class="label" transform="translate(-105.2578125, -9.5)"><rect rx="0" ry="0" width="210.3905792236328" height="19.000104904174805"></rect><text style=""><tspan xml:space="preserve" dy="1em" x="0" class="row">Scans QR or opens public link</tspan></text></g></g><g class="edgeLabel"><g class="label" transform="translate(0, 0)"><rect rx="0" ry="0" width="0" height="0"></rect><text style=""><tspan xml:space="preserve" dy="1em" x="0" class="row"></tspan></text></g></g><g class="edgeLabel" transform="translate(1172.23828125, 207.697265625)"><g class="label" transform="translate(-60.69140625, -9.5)"><rect rx="0" ry="0" width="121.31249237060547" height="19.000104904174805"></rect><text style=""><tspan xml:space="preserve" dy="1em" x="0" class="row">Valid open event</tspan></text></g></g><g class="edgeLabel" transform="translate(941.9765625, 748.0457019805908)"><g class="label" transform="translate(-81.94140625, -9.5)"><rect rx="0" ry="0" width="163.7867431640625" height="19.000104904174805"></rect><text style=""><tspan xml:space="preserve" dy="1em" x="0" class="row">Fixed attendance page</tspan></text></g></g><g class="edgeLabel" transform="translate(617.5234375, 492.400390625)"><g class="label" transform="translate(-127.03125, -9.5)"><rect rx="0" ry="0" width="253.90919494628906" height="19.000104904174805"></rect><text style=""><tspan xml:space="preserve" dy="1em" x="0" class="row">Submitted fixed attendance details</tspan></text></g></g><g class="edgeLabel"><g class="label" transform="translate(0, 0)"><rect rx="0" ry="0" width="0" height="0"></rect><text style=""><tspan xml:space="preserve" dy="1em" x="0" class="row"></tspan></text></g></g><g class="edgeLabel"><g class="label" transform="translate(0, 0)"><rect rx="0" ry="0" width="0" height="0"></rect><text style=""><tspan xml:space="preserve" dy="1em" x="0" class="row"></tspan></text></g></g><g class="edgeLabel"><g class="label" transform="translate(0, 0)"><rect rx="0" ry="0" width="0" height="0"></rect><text style=""><tspan xml:space="preserve" dy="1em" x="0" class="row"></tspan></text></g></g><g class="edgeLabel"><g class="label" transform="translate(0, 0)"><rect rx="0" ry="0" width="0" height="0"></rect><text style=""><tspan xml:space="preserve" dy="1em" x="0" class="row"></tspan></text></g></g><g class="edgeLabel"><g class="label" transform="translate(0, 0)"><rect rx="0" ry="0" width="0" height="0"></rect><text style=""><tspan xml:space="preserve" dy="1em" x="0" class="row"></tspan></text></g></g><g class="edgeLabel"><g class="label" transform="translate(0, 0)"><rect rx="0" ry="0" width="0" height="0"></rect><text style=""><tspan xml:space="preserve" dy="1em" x="0" class="row"></tspan></text></g></g><g class="edgeLabel"><g class="label" transform="translate(0, 0)"><rect rx="0" ry="0" width="0" height="0"></rect><text style=""><tspan xml:space="preserve" dy="1em" x="0" class="row"></tspan></text></g></g><g class="edgeLabel"><g class="label" transform="translate(0, 0)"><rect rx="0" ry="0" width="0" height="0"></rect><text style=""><tspan xml:space="preserve" dy="1em" x="0" class="row"></tspan></text></g></g><g class="edgeLabel"><g class="label" transform="translate(0, 0)"><rect rx="0" ry="0" width="0" height="0"></rect><text style=""><tspan xml:space="preserve" dy="1em" x="0" class="row"></tspan></text></g></g><g class="edgeLabel" transform="translate(2027.55078125, 777.5457019805908)"><g class="label" transform="translate(-127.12890625, -9.5)"><rect rx="0" ry="0" width="254.10569763183594" height="19.000104904174805"></rect><text style=""><tspan xml:space="preserve" dy="1em" x="0" class="row">Confirmation or validation message</tspan></text></g></g><g class="edgeLabel" transform="translate(617.5234375, 1045.7728424072266)"><g class="label" transform="translate(-154.8828125, -9.5)"><rect rx="0" ry="0" width="309.5777587890625" height="19.000104904174805"></rect><text style=""><tspan xml:space="preserve" dy="1em" x="0" class="row">Select event and request attendance sheet</tspan></text></g></g><g class="edgeLabel"><g class="label" transform="translate(0, 0)"><rect rx="0" ry="0" width="0" height="0"></rect><text style=""><tspan xml:space="preserve" dy="1em" x="0" class="row"></tspan></text></g></g><g class="edgeLabel"><g class="label" transform="translate(0, 0)"><rect rx="0" ry="0" width="0" height="0"></rect><text style=""><tspan xml:space="preserve" dy="1em" x="0" class="row"></tspan></text></g></g><g class="edgeLabel"><g class="label" transform="translate(0, 0)"><rect rx="0" ry="0" width="0" height="0"></rect><text style=""><tspan xml:space="preserve" dy="1em" x="0" class="row"></tspan></text></g></g><g class="edgeLabel"><g class="label" transform="translate(0, 0)"><rect rx="0" ry="0" width="0" height="0"></rect><text style=""><tspan xml:space="preserve" dy="1em" x="0" class="row"></tspan></text></g></g><g class="edgeLabel"><g class="label" transform="translate(0, 0)"><rect rx="0" ry="0" width="0" height="0"></rect><text style=""><tspan xml:space="preserve" dy="1em" x="0" class="row"></tspan></text></g></g><g class="edgeLabel"><g class="label" transform="translate(0, 0)"><rect rx="0" ry="0" width="0" height="0"></rect><text style=""><tspan xml:space="preserve" dy="1em" x="0" class="row"></tspan></text></g></g><g class="edgeLabel"><g class="label" transform="translate(0, 0)"><rect rx="0" ry="0" width="0" height="0"></rect><text style=""><tspan xml:space="preserve" dy="1em" x="0" class="row"></tspan></text></g></g><g class="edgeLabel"><g class="label" transform="translate(0, 0)"><rect rx="0" ry="0" width="0" height="0"></rect><text style=""><tspan xml:space="preserve" dy="1em" x="0" class="row"></tspan></text></g></g><g class="edgeLabel" transform="translate(1388.71484375, 1420.7829113006592)"><g class="label" transform="translate(-115.51171875, -9.5)"><rect rx="0" ry="0" width="230.88442993164062" height="19.000104904174805"></rect><text style=""><tspan xml:space="preserve" dy="1em" x="0" class="row">Downloadable attendance sheet</tspan></text></g></g><g class="edgeLabel"><g class="label" transform="translate(0, 0)"><rect rx="0" ry="0" width="0" height="0"></rect><text style=""><tspan xml:space="preserve" dy="1em" x="0" class="row"></tspan></text></g></g><g class="edgeLabel"><g class="label" transform="translate(0, 0)"><rect rx="0" ry="0" width="0" height="0"></rect><text style=""><tspan xml:space="preserve" dy="1em" x="0" class="row"></tspan></text></g></g></g><g class="nodes"><g class="node default default flowchart-label" id="flowchart-attendee-0" data-node="true" data-id="attendee" transform="translate(218.8203125, 359.10214042663574)"><rect class="basic label-container" style="" rx="0" ry="0" x="-72.45703125" y="-17" width="144.9140625" height="34"></rect><g class="label" style="" transform="translate(0, -9.5)"><rect></rect><text style=""><tspan xml:space="preserve" dy="1em" x="0" class="row">External Attendee</tspan></text></g></g><g class="node default default flowchart-label" id="flowchart-admin-1" data-node="true" data-id="admin" transform="translate(218.8203125, 1152.9782238006592)"><rect class="basic label-container" style="" rx="0" ry="0" x="-115.125" y="-17" width="230.25" height="34"></rect><g class="label" style="" transform="translate(0, -9.5)"><rect></rect><text style=""><tspan xml:space="preserve" dy="1em" x="0" class="row">Super Admin / Program Admin</tspan></text></g></g><g class="node default note flowchart-label" id="flowchart-note_template-2" data-node="true" data-id="note_template" transform="translate(218.8203125, 1236.9782238006592)"><rect class="basic label-container" style="" rx="0" ry="0" x="-218.8203125" y="-17" width="437.640625" height="34"></rect><g class="label" style="" transform="translate(0, -9.5)"><rect></rect><text style=""><tspan xml:space="preserve" dy="1em" x="0" class="row">Note: Formatting uses fixed DICT attendance sheet layout.</tspan></text></g></g><g class="node default default flowchart-label" id="flowchart-p51-3" data-node="true" data-id="p51" transform="translate(941.9765625, 124.85546875)"><circle style="" rx="0" ry="0" r="124.85546875" width="249.7109375" height="34"></circle><g class="label" style="" transform="translate(0, -9.5)"><rect></rect><text style=""><tspan xml:space="preserve" dy="1em" x="0" class="row">5.1 Open Public Attendance Link</tspan></text></g></g><g class="node default default flowchart-label" id="flowchart-p52-4" data-node="true" data-id="p52" transform="translate(1388.71484375, 207.697265625)"><circle style="" rx="0" ry="0" r="130.68359375" width="261.3671875" height="34"></circle><g class="label" style="" transform="translate(0, -9.5)"><rect></rect><text style=""><tspan xml:space="preserve" dy="1em" x="0" class="row">5.2 Display Fixed Attendance Page</tspan></text></g></g><g class="node default default flowchart-label" id="flowchart-p53-5" data-node="true" data-id="p53" transform="translate(941.9765625, 492.400390625)"><circle style="" rx="0" ry="0" r="116.32421875" width="232.6484375" height="34"></circle><g class="label" style="" transform="translate(0, -9.5)"><rect></rect><text style=""><tspan xml:space="preserve" dy="1em" x="0" class="row">5.3 Submit Attendance Details</tspan></text></g></g><g class="node default default flowchart-label" id="flowchart-p61-6" data-node="true" data-id="p61" transform="translate(1388.71484375, 492.400390625)"><circle style="" rx="0" ry="0" r="97.54296875" width="195.0859375" height="34"></circle><g class="label" style="" transform="translate(0, -9.5)"><rect></rect><text style=""><tspan xml:space="preserve" dy="1em" x="0" class="row">6.1 Validate Event Status</tspan></text></g></g><g class="node default default flowchart-label" id="flowchart-p62-7" data-node="true" data-id="p62" transform="translate(1722.4609375, 287.9153652191162)"><circle style="" rx="0" ry="0" r="108.0625" width="216.125" height="34"></circle><g class="label" style="" transform="translate(0, -9.5)"><rect></rect><text style=""><tspan xml:space="preserve" dy="1em" x="0" class="row">6.2 Validate Required Fields</tspan></text></g></g><g class="node default default flowchart-label" id="flowchart-p63-8" data-node="true" data-id="p63" transform="translate(2304.8515625, 287.9153652191162)"><circle style="" rx="0" ry="0" r="125.171875" width="250.34375" height="34"></circle><g class="label" style="" transform="translate(0, -9.5)"><rect></rect><text style=""><tspan xml:space="preserve" dy="1em" x="0" class="row">6.3 Validate Contact Information</tspan></text></g></g><g class="node default default flowchart-label" id="flowchart-p64-9" data-node="true" data-id="p64" transform="translate(2629.16796875, 287.9153652191162)"><circle style="" rx="0" ry="0" r="149.14453125" width="298.2890625" height="34"></circle><g class="label" style="" transform="translate(0, -9.5)"><rect></rect><text style=""><tspan xml:space="preserve" dy="1em" x="0" class="row">6.4 Check Duplicate Within Same Event</tspan></text></g></g><g class="node default default flowchart-label" id="flowchart-p65-10" data-node="true" data-id="p65" transform="translate(2938.42578125, 469.82364082336426)"><circle style="" rx="0" ry="0" r="110.11328125" width="220.2265625" height="34"></circle><g class="label" style="" transform="translate(0, -9.5)"><rect></rect><text style=""><tspan xml:space="preserve" dy="1em" x="0" class="row">6.5 Store Attendance Record</tspan></text></g></g><g class="node default default flowchart-label" id="flowchart-p66-11" data-node="true" data-id="p66" transform="translate(3204.24609375, 846.2025299072266)"><circle style="" rx="0" ry="0" r="105.70703125" width="211.4140625" height="34"></circle><g class="label" style="" transform="translate(0, -9.5)"><rect></rect><text style=""><tspan xml:space="preserve" dy="1em" x="0" class="row">6.6 Show Submission Result</tspan></text></g></g><g class="node default default flowchart-label" id="flowchart-p71-12" data-node="true" data-id="p71" transform="translate(941.9765625, 1045.7728424072266)"><circle style="" rx="0" ry="0" r="144.5703125" width="289.140625" height="34"></circle><g class="label" style="" transform="translate(0, -9.5)"><rect></rect><text style=""><tspan xml:space="preserve" dy="1em" x="0" class="row">7.1 Select Event for Attendance Sheet</tspan></text></g></g><g class="node default default flowchart-label" id="flowchart-p72-13" data-node="true" data-id="p72" transform="translate(1388.71484375, 1138.8415050506592)"><circle style="" rx="0" ry="0" r="124.6875" width="249.375" height="34"></circle><g class="label" style="" transform="translate(0, -9.5)"><rect></rect><text style=""><tspan xml:space="preserve" dy="1em" x="0" class="row">7.2 Retrieve Attendance Records</tspan></text></g></g><g class="node default default flowchart-label" id="flowchart-p73-14" data-node="true" data-id="p73" transform="translate(1722.4609375, 1232.8219738006592)"><circle style="" rx="0" ry="0" r="152.9609375" width="305.921875" height="34"></circle><g class="label" style="" transform="translate(0, -9.5)"><rect></rect><text style=""><tspan xml:space="preserve" dy="1em" x="0" class="row">7.3 Format Records Using DICT Template</tspan></text></g></g><g class="node default default flowchart-label" id="flowchart-p74-15" data-node="true" data-id="p74" transform="translate(2304.8515625, 1326.8024425506592)"><circle style="" rx="0" ry="0" r="122.97265625" width="245.9453125" height="34"></circle><g class="label" style="" transform="translate(0, -9.5)"><rect></rect><text style=""><tspan xml:space="preserve" dy="1em" x="0" class="row">7.4 Generate Downloadable File</tspan></text></g></g><g class="node default default flowchart-label" id="flowchart-p75-16" data-node="true" data-id="p75" transform="translate(2629.16796875, 1413.0630187988281)"><circle style="" rx="0" ry="0" r="81.4921875" width="162.984375" height="34"></circle><g class="label" style="" transform="translate(0, -9.5)"><rect></rect><text style=""><tspan xml:space="preserve" dy="1em" x="0" class="row">7.5 Record Audit Log</tspan></text></g></g><g class="node default default flowchart-label" id="flowchart-d2-17" label-offset-y="16.91608900386007" data-node="true" data-id="d2" transform="translate(1388.71484375, 867.6431560516357)"><path style="" d="M 0,16.91608900386007 a 130.78515625,16.91608900386007 0,0,0 261.5703125 0 a 130.78515625,16.91608900386007 0,0,0 -261.5703125 0 l 0,50.916089003860066 a 130.78515625,16.91608900386007 0,0,0 261.5703125 0 l 0,-50.916089003860066" transform="translate(-130.78515625,-42.3741335057901)"></path><g class="label" style="" transform="translate(0, -9.5)"><rect></rect><text style=""><tspan xml:space="preserve" dy="1em" x="0" class="row">D2 Roles and Program Assignments</tspan></text></g></g><g class="node default default flowchart-label" id="flowchart-d4-18" label-offset-y="10.136189662219909" data-node="true" data-id="d4" transform="translate(1722.4609375, 478.1821460723877)"><path style="" d="M 0,10.136189662219909 a 42.62109375,10.136189662219909 0,0,0 85.2421875 0 a 42.62109375,10.136189662219909 0,0,0 -85.2421875 0 l 0,44.136189662219905 a 42.62109375,10.136189662219909 0,0,0 85.2421875 0 l 0,-44.136189662219905" transform="translate(-42.62109375,-32.204284493329865)"></path><g class="label" style="" transform="translate(0, -9.5)"><rect></rect><text style=""><tspan xml:space="preserve" dy="1em" x="0" class="row">D4 Events</tspan></text></g></g><g class="node default default flowchart-label" id="flowchart-d5-19" label-offset-y="14.764061620349047" data-node="true" data-id="d5" transform="translate(3204.24609375, 407.26700019836426)"><path style="" d="M 0,14.764061620349047 a 90.1484375,14.764061620349047 0,0,0 180.296875 0 a 90.1484375,14.764061620349047 0,0,0 -180.296875 0 l 0,48.76406162034905 a 90.1484375,14.764061620349047 0,0,0 180.296875 0 l 0,-48.76406162034905" transform="translate(-90.1484375,-39.14609243052357)"></path><g class="label" style="" transform="translate(0, -9.5)"><rect></rect><text style=""><tspan xml:space="preserve" dy="1em" x="0" class="row">D5 Attendance Records</tspan></text></g></g><g class="node default default flowchart-label" id="flowchart-d6-20" label-offset-y="16.01930848675348" data-node="true" data-id="d6" transform="translate(2629.16796875, 1176.8559875488281)"><path style="" d="M 0,16.01930848675348 a 111.484375,16.01930848675348 0,0,0 222.96875 0 a 111.484375,16.01930848675348 0,0,0 -222.96875 0 l 0,50.01930848675348 a 111.484375,16.01930848675348 0,0,0 222.96875 0 l 0,-50.01930848675348" transform="translate(-111.484375,-41.02896273013022)"></path><g class="label" style="" transform="translate(0, -9.5)"><rect></rect><text style=""><tspan xml:space="preserve" dy="1em" x="0" class="row">D6 Attendance Sheet Exports</tspan></text></g></g><g class="node default default flowchart-label" id="flowchart-d7-21" label-offset-y="11.796501072784288" data-node="true" data-id="d7" transform="translate(2938.42578125, 1413.0630187988281)"><path style="" d="M 0,11.796501072784288 a 55.83984375,11.796501072784288 0,0,0 111.6796875 0 a 55.83984375,11.796501072784288 0,0,0 -111.6796875 0 l 0,45.79650107278429 a 55.83984375,11.796501072784288 0,0,0 111.6796875 0 l 0,-45.79650107278429" transform="translate(-55.83984375,-34.694751609176436)"></path><g class="label" style="" transform="translate(0, -9.5)"><rect></rect><text style=""><tspan xml:space="preserve" dy="1em" x="0" class="row">D7 Audit Logs</tspan></text></g></g></g></g></g></svg>