<svg id="mermaid-1783935134896" width="3362.1875" xmlns="http://www.w3.org/2000/svg" xmlns:xlink="http://www.w3.org/1999/xlink" height="1806.437255859375" viewBox="-8 -8 3362.1875 1806.437255859375" role="graphics-document document" aria-roledescription="flowchart-v2">
<rect x="-100000" y="-100000" width="200000" height="200000" fill="#000000"/>
<style>#mermaid-1783935134896{font-family:"trebuchet ms",verdana,arial,sans-serif;font-size:16px;fill:#ccc;}#mermaid-1783935134896 .error-icon{fill:#a44141;}#mermaid-1783935134896 .error-text{fill:#ddd;stroke:#ddd;}#mermaid-1783935134896 .edge-thickness-normal{stroke-width:2px;}#mermaid-1783935134896 .edge-thickness-thick{stroke-width:3.5px;}#mermaid-1783935134896 .edge-pattern-solid{stroke-dasharray:0;}#mermaid-1783935134896 .edge-pattern-dashed{stroke-dasharray:3;}#mermaid-1783935134896 .edge-pattern-dotted{stroke-dasharray:2;}#mermaid-1783935134896 .marker{fill:lightgrey;stroke:lightgrey;}#mermaid-1783935134896 .marker.cross{stroke:lightgrey;}#mermaid-1783935134896 svg{font-family:"trebuchet ms",verdana,arial,sans-serif;font-size:16px;}#mermaid-1783935134896 .label{font-family:"trebuchet ms",verdana,arial,sans-serif;color:#ccc;}#mermaid-1783935134896 .cluster-label text{fill:#F9FFFE;}#mermaid-1783935134896 .cluster-label span,#mermaid-1783935134896 p{color:#F9FFFE;}#mermaid-1783935134896 .label text,#mermaid-1783935134896 span,#mermaid-1783935134896 p{fill:#ccc;color:#ccc;}#mermaid-1783935134896 .node rect,#mermaid-1783935134896 .node circle,#mermaid-1783935134896 .node ellipse,#mermaid-1783935134896 .node polygon,#mermaid-1783935134896 .node path{fill:#1f2020;stroke:#81B1DB;stroke-width:1px;}#mermaid-1783935134896 .flowchart-label text{text-anchor:middle;}#mermaid-1783935134896 .node .katex path{fill:#000;stroke:#000;stroke-width:1px;}#mermaid-1783935134896 .node .label{text-align:center;}#mermaid-1783935134896 .node.clickable{cursor:pointer;}#mermaid-1783935134896 .arrowheadPath{fill:lightgrey;}#mermaid-1783935134896 .edgePath .path{stroke:lightgrey;stroke-width:2.0px;}#mermaid-1783935134896 .flowchart-link{stroke:lightgrey;fill:none;}#mermaid-1783935134896 .edgeLabel{background-color:hsl(0, 0%, 34.4117647059%);text-align:center;}#mermaid-1783935134896 .edgeLabel rect{opacity:0.5;background-color:hsl(0, 0%, 34.4117647059%);fill:hsl(0, 0%, 34.4117647059%);}#mermaid-1783935134896 .labelBkg{background-color:rgba(87.75, 87.75, 87.75, 0.5);}#mermaid-1783935134896 .cluster rect{fill:hsl(180, 1.5873015873%, 28.3529411765%);stroke:rgba(255, 255, 255, 0.25);stroke-width:1px;}#mermaid-1783935134896 .cluster text{fill:#F9FFFE;}#mermaid-1783935134896 .cluster span,#mermaid-1783935134896 p{color:#F9FFFE;}#mermaid-1783935134896 div.mermaidTooltip{position:absolute;text-align:center;max-width:200px;padding:2px;font-family:"trebuchet ms",verdana,arial,sans-serif;font-size:12px;background:hsl(20, 1.5873015873%, 12.3529411765%);border:1px solid rgba(255, 255, 255, 0.25);border-radius:2px;pointer-events:none;z-index:100;}#mermaid-1783935134896 .flowchartTitleText{text-anchor:middle;font-size:18px;fill:#ccc;}#mermaid-1783935134896 :root{--mermaid-font-family:"trebuchet ms",verdana,arial,sans-serif;}#mermaid-1783935134896 .note rect{fill:#1f2020!important;stroke:#8CA6DB!important;color:#d4d4d4!important;stroke-dasharray:5 5!important;}#mermaid-1783935134896 .note polygon{fill:#1f2020!important;stroke:#8CA6DB!important;color:#d4d4d4!important;stroke-dasharray:5 5!important;}#mermaid-1783935134896 .note ellipse{fill:#1f2020!important;stroke:#8CA6DB!important;color:#d4d4d4!important;stroke-dasharray:5 5!important;}#mermaid-1783935134896 .note circle{fill:#1f2020!important;stroke:#8CA6DB!important;color:#d4d4d4!important;stroke-dasharray:5 5!important;}#mermaid-1783935134896 .note path{fill:#1f2020!important;stroke:#8CA6DB!important;color:#d4d4d4!important;stroke-dasharray:5 5!important;}#mermaid-1783935134896 .note tspan{fill:#d4d4d4!important;}</style><g><marker id="mermaid-1783935134896_flowchart-pointEnd" class="marker flowchart" viewBox="0 0 10 10" refX="6" refY="5" markerUnits="userSpaceOnUse" markerWidth="12" markerHeight="12" orient="auto"><path d="M 0 0 L 10 5 L 0 10 z" class="arrowMarkerPath" style="stroke-width: 1; stroke-dasharray: 1, 0;"></path></marker><marker id="mermaid-1783935134896_flowchart-pointStart" class="marker flowchart" viewBox="0 0 10 10" refX="4.5" refY="5" markerUnits="userSpaceOnUse" markerWidth="12" markerHeight="12" orient="auto"><path d="M 0 5 L 10 10 L 10 0 z" class="arrowMarkerPath" style="stroke-width: 1; stroke-dasharray: 1, 0;"></path></marker><marker id="mermaid-1783935134896_flowchart-circleEnd" class="marker flowchart" viewBox="0 0 10 10" refX="11" refY="5" markerUnits="userSpaceOnUse" markerWidth="11" markerHeight="11" orient="auto"><circle cx="5" cy="5" r="5" class="arrowMarkerPath" style="stroke-width: 1; stroke-dasharray: 1, 0;"></circle></marker><marker id="mermaid-1783935134896_flowchart-circleStart" class="marker flowchart" viewBox="0 0 10 10" refX="-1" refY="5" markerUnits="userSpaceOnUse" markerWidth="11" markerHeight="11" orient="auto"><circle cx="5" cy="5" r="5" class="arrowMarkerPath" style="stroke-width: 1; stroke-dasharray: 1, 0;"></circle></marker><marker id="mermaid-1783935134896_flowchart-crossEnd" class="marker cross flowchart" viewBox="0 0 11 11" refX="12" refY="5.2" markerUnits="userSpaceOnUse" markerWidth="11" markerHeight="11" orient="auto"><path d="M 1,1 l 9,9 M 10,1 l -9,9" class="arrowMarkerPath" style="stroke-width: 2; stroke-dasharray: 1, 0;"></path></marker><marker id="mermaid-1783935134896_flowchart-crossStart" class="marker cross flowchart" viewBox="0 0 11 11" refX="-1" refY="5.2" markerUnits="userSpaceOnUse" markerWidth="11" markerHeight="11" orient="auto"><path d="M 1,1 l 9,9 M 10,1 l -9,9" class="arrowMarkerPath" style="stroke-width: 2; stroke-dasharray: 1, 0;"></path></marker><g class="root"><g class="clusters"></g><g class="edgePaths"><path d="M236.409,345.162L299.928,406.556C363.447,467.951,490.485,590.739,587.676,652.133C684.866,713.527,752.209,713.527,785.88,713.527L819.552,713.527" id="L-attendee-p51-0" class=" edge-thickness-normal edge-pattern-solid flowchart-link LS-attendee LE-p51" style="fill:none;" marker-end="url(#mermaid-1783935134896_flowchart-pointEnd)"></path><path d="M1072.629,756.315L1091.807,762.99C1110.985,769.666,1149.342,783.018,1206.331,789.693C1263.32,796.369,1338.941,796.369,1404.447,796.369C1469.953,796.369,1525.344,796.369,1580.854,890.09C1636.365,983.81,1691.995,1171.251,1719.81,1264.972L1747.625,1358.692" id="L-p51-d4-0" class=" edge-thickness-normal edge-pattern-solid flowchart-link LS-p51 LE-d4" style="fill:none;" marker-start="url(#mermaid-1783935134896_flowchart-pointStart)" marker-end="url(#mermaid-1783935134896_flowchart-pointEnd)"></path><path d="M1067.623,672.482L1087.636,665.516C1107.648,658.55,1147.674,644.618,1182.853,637.012C1218.033,629.406,1248.366,628.127,1263.533,627.488L1278.7,626.848" id="L-p51-p52-0" class=" edge-thickness-normal edge-pattern-solid flowchart-link LS-p51 LE-p52" style="fill:none;" marker-end="url(#mermaid-1783935134896_flowchart-pointEnd)"></path><path d="M1360.198,502.28L1331.448,439.435C1302.698,376.589,1245.199,250.898,1176.784,188.053C1108.368,125.207,1029.038,125.207,934.008,125.207C838.979,125.207,728.251,125.207,612.79,155.799C497.329,186.391,377.134,247.574,317.037,278.166L256.94,308.758" id="L-p52-attendee-0" class=" edge-thickness-normal edge-pattern-solid flowchart-link LS-p52 LE-attendee" style="fill:none;" marker-end="url(#mermaid-1783935134896_flowchart-pointEnd)"></path><path d="M291.277,331.401L345.652,333.831C400.026,336.261,508.775,341.122,598.242,343.552C687.71,345.982,757.896,345.982,792.99,345.982L828.083,345.982" id="L-attendee-p53-0" class=" edge-thickness-normal edge-pattern-solid flowchart-link LS-attendee LE-p53" style="fill:none;" marker-end="url(#mermaid-1783935134896_flowchart-pointEnd)"></path><path d="M1066.031,345.982L1086.309,345.982C1106.587,345.982,1147.143,345.982,1188.093,345.701C1229.043,345.419,1270.386,344.856,1291.057,344.575L1311.729,344.293" id="L-p53-p61-0" class=" edge-thickness-normal edge-pattern-solid flowchart-link LS-p53 LE-p61" style="fill:none;" marker-end="url(#mermaid-1783935134896_flowchart-pointEnd)"></path><path d="M1476.276,425.161L1493.685,448.37C1511.095,471.579,1545.915,517.997,1591.651,673.547C1637.387,829.098,1694.039,1093.782,1722.366,1226.124L1750.692,1358.466" id="L-p61-d4-0" class=" edge-thickness-normal edge-pattern-solid flowchart-link LS-p61 LE-d4" style="fill:none;" marker-start="url(#mermaid-1783935134896_flowchart-pointStart)" marker-end="url(#mermaid-1783935134896_flowchart-pointEnd)"></path><path d="M1511.929,337.033L1523.397,336.343C1534.864,335.653,1557.799,334.273,1580.033,333.583C1602.267,332.893,1623.8,332.893,1634.566,332.893L1645.333,332.893" id="L-p61-p62-0" class=" edge-thickness-normal edge-pattern-solid flowchart-link LS-p61 LE-p62" style="fill:none;" marker-end="url(#mermaid-1783935134896_flowchart-pointEnd)"></path><path d="M1866.758,332.893L1899.596,332.893C1932.434,332.893,1998.109,332.893,2055.419,332.893C2112.728,332.893,2161.671,332.893,2186.143,332.893L2210.614,332.893" id="L-p62-p63-0" class=" edge-thickness-normal edge-pattern-solid flowchart-link LS-p62 LE-p63" style="fill:none;" marker-end="url(#mermaid-1783935134896_flowchart-pointEnd)"></path><path d="M2466.258,332.893L2470.424,332.893C2474.591,332.893,2482.924,332.893,2490.374,332.893C2497.824,332.893,2504.391,332.893,2507.674,332.893L2510.958,332.893" id="L-p63-p64-0" class=" edge-thickness-normal edge-pattern-solid flowchart-link LS-p63 LE-p64" style="fill:none;" marker-end="url(#mermaid-1783935134896_flowchart-pointEnd)"></path><path d="M2757.036,457.217L2770.788,475.874C2784.539,494.532,2812.043,531.848,2848.314,550.506C2884.585,569.164,2929.622,569.164,2974.66,569.164C3019.698,569.164,3064.736,569.164,3107.213,649.876C3149.691,730.588,3189.609,892.012,3209.567,972.724L3229.526,1053.436" id="L-p64-d5-0" class=" edge-thickness-normal edge-pattern-solid flowchart-link LS-p64 LE-d5" style="fill:none;" marker-start="url(#mermaid-1783935134896_flowchart-pointStart)" marker-end="url(#mermaid-1783935134896_flowchart-pointEnd)"></path><path d="M2803.075,275.532L2809.154,272.999C2815.232,270.466,2827.39,265.401,2836.752,262.869C2846.114,260.336,2852.68,260.336,2855.964,260.336L2859.247,260.336" id="L-p64-p65-0" class=" edge-thickness-normal edge-pattern-solid flowchart-link LS-p64 LE-p65" style="fill:none;" marker-end="url(#mermaid-1783935134896_flowchart-pointEnd)"></path><path d="M3031.113,354.877L3044.223,376.832C3057.333,398.787,3083.553,442.697,3116.868,559.114C3150.182,675.531,3190.59,864.454,3210.794,958.915L3230.998,1053.377" id="L-p65-d5-0" class=" edge-thickness-normal edge-pattern-solid flowchart-link LS-p65 LE-d5" style="fill:none;" marker-end="url(#mermaid-1783935134896_flowchart-pointEnd)"></path><path d="M3074.583,214.072L3080.448,211.357C3086.313,208.641,3098.043,203.21,3110.568,195.804C3123.092,188.398,3136.41,179.016,3143.069,174.325L3149.729,169.634" id="L-p65-p66-0" class=" edge-thickness-normal edge-pattern-solid flowchart-link LS-p65 LE-p66" style="fill:none;" marker-end="url(#mermaid-1783935134896_flowchart-pointEnd)"></path><path d="M3135.081,97.643L3130.863,97.321C3126.645,96.998,3118.209,96.352,3091.473,96.03C3064.736,95.707,3019.698,95.707,2974.66,95.707C2929.622,95.707,2884.585,95.707,2833.042,95.707C2781.499,95.707,2723.451,95.707,2665.402,95.707C2607.354,95.707,2549.306,95.707,2495.253,95.707C2441.201,95.707,2391.143,95.707,2319.898,95.707C2248.652,95.707,2156.219,95.707,2059.154,95.707C1962.089,95.707,1860.392,95.707,1779.883,95.707C1699.375,95.707,1640.055,95.707,1582.699,95.707C1525.344,95.707,1469.953,95.707,1404.447,95.707C1338.941,95.707,1263.32,95.707,1185.844,95.707C1108.368,95.707,1029.038,95.707,934.008,95.707C838.979,95.707,728.251,95.707,612.06,131.171C495.868,166.636,374.213,237.564,313.385,273.028L252.557,308.493" id="L-p66-attendee-0" class=" edge-thickness-normal edge-pattern-solid flowchart-link LS-p66 LE-attendee" style="fill:none;" marker-end="url(#mermaid-1783935134896_flowchart-pointEnd)"></path><path d="M235.528,1389.373L299.194,1454.155C362.86,1518.936,490.191,1648.5,609.221,1713.281C728.251,1778.063,838.979,1778.063,934.008,1778.063C1029.038,1778.063,1108.368,1778.063,1167.379,1761.335C1226.389,1744.608,1265.079,1711.152,1284.423,1694.424L1303.768,1677.697" id="L-admin-p67-0" class=" edge-thickness-normal edge-pattern-solid flowchart-link LS-admin LE-p67" style="fill:none;" marker-end="url(#mermaid-1783935134896_flowchart-pointEnd)"></path><path d="M1543.976,1650.492L1550.103,1653.74C1556.229,1656.987,1568.482,1663.482,1587.385,1673.201C1606.288,1682.919,1631.841,1695.861,1644.618,1702.332L1657.395,1708.803" id="L-p67-d2-0" class=" edge-thickness-normal edge-pattern-solid flowchart-link LS-p67 LE-d2" style="fill:none;" marker-start="url(#mermaid-1783935134896_flowchart-pointStart)" marker-end="url(#mermaid-1783935134896_flowchart-pointEnd)"></path><path d="M1550.099,1637.425L1555.205,1639.517C1560.311,1641.609,1570.522,1645.793,1601.028,1611.346C1631.533,1576.899,1682.331,1503.82,1707.73,1467.281L1733.13,1430.742" id="L-p67-d4-0" class=" edge-thickness-normal edge-pattern-solid flowchart-link LS-p67 LE-d4" style="fill:none;" marker-start="url(#mermaid-1783935134896_flowchart-pointStart)" marker-end="url(#mermaid-1783935134896_flowchart-pointEnd)"></path><path d="M1560.01,1599.187L1563.464,1599.598C1566.918,1600.009,1573.826,1600.83,1606.94,1601.241C1640.055,1601.652,1699.375,1601.652,1779.883,1601.652C1860.392,1601.652,1962.089,1601.652,2059.154,1601.652C2156.219,1601.652,2248.652,1601.652,2319.898,1601.652C2391.143,1601.652,2441.201,1601.652,2495.253,1601.652C2549.306,1601.652,2607.354,1601.652,2665.402,1601.652C2723.451,1601.652,2781.499,1601.652,2833.042,1601.652C2884.585,1601.652,2929.622,1601.652,2974.66,1601.652C3019.698,1601.652,3064.736,1601.652,3107.125,1525.014C3149.515,1448.376,3189.257,1295.1,3209.128,1218.462L3228.998,1141.825" id="L-p67-d5-0" class=" edge-thickness-normal edge-pattern-solid flowchart-link LS-p67 LE-d5" style="fill:none;" marker-start="url(#mermaid-1783935134896_flowchart-pointStart)" marker-end="url(#mermaid-1783935134896_flowchart-pointEnd)"></path><path d="M1548.708,1537.908L1554.046,1536.158C1559.383,1534.408,1570.059,1530.908,1605.057,1529.158C1640.055,1527.407,1699.375,1527.407,1779.883,1527.407C1860.392,1527.407,1962.089,1527.407,2059.154,1527.407C2156.219,1527.407,2248.652,1527.407,2319.898,1527.407C2391.143,1527.407,2441.201,1527.407,2495.253,1527.407C2549.306,1527.407,2607.354,1527.407,2665.402,1527.407C2723.451,1527.407,2781.499,1527.407,2822.852,1527.407C2864.205,1527.407,2888.862,1527.407,2901.191,1527.407L2913.52,1527.407" id="L-p67-d7-0" class=" edge-thickness-normal edge-pattern-solid flowchart-link LS-p67 LE-d7" style="fill:none;" marker-end="url(#mermaid-1783935134896_flowchart-pointEnd)"></path><path d="M1368.756,1448.357L1338.58,1360.389C1308.404,1272.421,1248.051,1096.484,1178.21,1008.515C1108.368,920.547,1029.038,920.547,934.008,920.547C838.979,920.547,728.251,920.547,609.522,992.356C490.792,1064.164,364.06,1207.782,300.694,1279.59L237.328,1351.399" id="L-p67-admin-0" class=" edge-thickness-normal edge-pattern-solid flowchart-link LS-p67 LE-admin" style="fill:none;" marker-end="url(#mermaid-1783935134896_flowchart-pointEnd)"></path><path d="M300.499,1389.373L353.337,1400.37C406.174,1411.367,511.849,1433.362,595.072,1444.359C678.295,1455.356,739.066,1455.356,769.451,1455.356L799.837,1455.356" id="L-admin-p71-0" class=" edge-thickness-normal edge-pattern-solid flowchart-link LS-admin LE-p71" style="fill:none;" marker-end="url(#mermaid-1783935134896_flowchart-pointEnd)"></path><path d="M1042.336,1573.173L1066.564,1603.988C1090.791,1634.803,1139.245,1696.433,1201.283,1727.248C1263.32,1758.063,1338.941,1758.063,1404.447,1758.063C1469.953,1758.063,1525.344,1758.063,1560.02,1757.671C1594.696,1757.279,1608.657,1756.494,1615.638,1756.102L1622.619,1755.71" id="L-p71-d2-0" class=" edge-thickness-normal edge-pattern-solid flowchart-link LS-p71 LE-d2" style="fill:none;" marker-start="url(#mermaid-1783935134896_flowchart-pointStart)" marker-end="url(#mermaid-1783935134896_flowchart-pointEnd)"></path><path d="M1096.42,1424.757L1111.634,1421.584C1126.847,1418.411,1157.273,1412.065,1210.297,1408.892C1263.32,1405.719,1338.941,1405.719,1404.447,1405.719C1469.953,1405.719,1525.344,1405.719,1574.714,1404.501C1624.084,1403.283,1667.433,1400.848,1689.108,1399.63L1710.783,1398.412" id="L-p71-d4-0" class=" edge-thickness-normal edge-pattern-solid flowchart-link LS-p71 LE-d4" style="fill:none;" marker-start="url(#mermaid-1783935134896_flowchart-pointStart)" marker-end="url(#mermaid-1783935134896_flowchart-pointEnd)"></path><path d="M1045.89,1347.424L1069.525,1320.902C1093.16,1294.38,1140.43,1241.337,1180.21,1214.815C1219.991,1188.293,1252.283,1188.293,1268.429,1188.293L1284.575,1188.293" id="L-p71-p72-0" class=" edge-thickness-normal edge-pattern-solid flowchart-link LS-p71 LE-p72" style="fill:none;" marker-end="url(#mermaid-1783935134896_flowchart-pointEnd)"></path><path d="M1514.686,1271.191L1525.694,1280.305C1536.702,1289.419,1558.718,1307.647,1591.461,1325.291C1624.203,1342.936,1667.672,1359.996,1689.406,1368.526L1711.141,1377.056" id="L-p72-d4-0" class=" edge-thickness-normal edge-pattern-solid flowchart-link LS-p72 LE-d4" style="fill:none;" marker-start="url(#mermaid-1783935134896_flowchart-pointStart)" marker-end="url(#mermaid-1783935134896_flowchart-pointEnd)"></path><path d="M1527.708,1252.284L1536.546,1257.282C1545.384,1262.28,1563.059,1272.277,1601.557,1277.275C1640.055,1282.273,1699.375,1282.273,1779.883,1282.273C1860.392,1282.273,1962.089,1282.273,2059.154,1282.273C2156.219,1282.273,2248.652,1282.273,2319.898,1282.273C2391.143,1282.273,2441.201,1282.273,2495.253,1282.273C2549.306,1282.273,2607.354,1282.273,2665.402,1282.273C2723.451,1282.273,2781.499,1282.273,2833.042,1282.273C2884.585,1282.273,2929.622,1282.273,2974.66,1282.273C3019.698,1282.273,3064.736,1282.273,3103.912,1258.629C3143.087,1234.984,3176.401,1187.695,3193.058,1164.051L3209.715,1140.406" id="L-p72-d5-0" class=" edge-thickness-normal edge-pattern-solid flowchart-link LS-p72 LE-d5" style="fill:none;" marker-start="url(#mermaid-1783935134896_flowchart-pointStart)" marker-end="url(#mermaid-1783935134896_flowchart-pointEnd)"></path><path d="M1523.095,1126.911L1532.701,1121.478C1542.308,1116.045,1561.521,1105.179,1574.411,1099.746C1587.301,1094.313,1593.868,1094.313,1597.151,1094.313L1600.434,1094.313" id="L-p72-p73-0" class=" edge-thickness-normal edge-pattern-solid flowchart-link LS-p72 LE-p73" style="fill:none;" marker-end="url(#mermaid-1783935134896_flowchart-pointEnd)"></path><path d="M1911.656,1094.313L1937.011,1094.313C1962.366,1094.313,2013.076,1094.313,2064.757,1083.937C2116.439,1073.561,2169.093,1052.81,2195.42,1042.435L2221.747,1032.059" id="L-p73-p74-0" class=" edge-thickness-normal edge-pattern-solid flowchart-link LS-p73 LE-p74" style="fill:none;" marker-end="url(#mermaid-1783935134896_flowchart-pointEnd)"></path><path d="M2423.789,1076.035L2435.034,1088.409C2446.279,1100.783,2468.768,1125.531,2489.573,1137.905C2510.378,1150.278,2529.498,1150.278,2539.058,1150.278L2548.618,1150.278" id="L-p74-d6-0" class=" edge-thickness-normal edge-pattern-solid flowchart-link LS-p74 LE-d6" style="fill:none;" marker-end="url(#mermaid-1783935134896_flowchart-pointEnd)"></path><path d="M2224.62,945.556L2197.814,936.471C2171.009,927.386,2117.397,909.216,2039.743,900.132C1962.089,891.047,1860.392,891.047,1779.883,891.047C1699.375,891.047,1640.055,891.047,1582.699,891.047C1525.344,891.047,1469.953,891.047,1404.447,891.047C1338.941,891.047,1263.32,891.047,1185.844,891.047C1108.368,891.047,1029.038,891.047,934.008,891.047C838.979,891.047,728.251,891.047,609.347,967.754C490.443,1044.462,363.363,1197.877,299.823,1274.584L236.283,1351.291" id="L-p74-admin-0" class=" edge-thickness-normal edge-pattern-solid flowchart-link LS-p74 LE-admin" style="fill:none;" marker-end="url(#mermaid-1783935134896_flowchart-pointEnd)"></path><path d="M2401.62,877.986L2416.56,851.569C2431.5,825.151,2461.379,772.317,2490.877,745.9C2520.375,719.482,2549.493,719.482,2564.051,719.482L2578.61,719.482" id="L-p74-p75-0" class=" edge-thickness-normal edge-pattern-solid flowchart-link LS-p74 LE-p75" style="fill:none;" marker-end="url(#mermaid-1783935134896_flowchart-pointEnd)"></path><path d="M2746.895,719.482L2762.337,719.482C2777.779,719.482,2808.663,719.482,2845.511,847.494C2882.359,975.506,2925.172,1231.53,2946.578,1359.541L2967.985,1487.553" id="L-p75-d7-0" class=" edge-thickness-normal edge-pattern-solid flowchart-link LS-p75 LE-d7" style="fill:none;" marker-end="url(#mermaid-1783935134896_flowchart-pointEnd)"></path></g><g class="edgeLabels"><g class="edgeLabel" transform="translate(617.5234375, 713.52734375)"><g class="label" transform="translate(-105.2578125, -9.5)"><rect rx="0" ry="0" width="210.39122009277344" height="19.000164031982422"></rect><text style=""><tspan xml:space="preserve" dy="1em" x="0" class="row">Scans QR or opens public link</tspan></text></g></g><g class="edgeLabel"><g class="label" transform="translate(0, 0)"><rect rx="0" ry="0" width="0" height="0"></rect><text style=""><tspan xml:space="preserve" dy="1em" x="0" class="row"></tspan></text></g></g><g class="edgeLabel" transform="translate(1187.69921875, 630.685546875)"><g class="label" transform="translate(-60.69140625, -9.5)"><rect rx="0" ry="0" width="121.3128662109375" height="19.000164031982422"></rect><text style=""><tspan xml:space="preserve" dy="1em" x="0" class="row">Valid open event</tspan></text></g></g><g class="edgeLabel" transform="translate(949.70703125, 125.20703125)"><g class="label" transform="translate(-81.94140625, -9.5)"><rect rx="0" ry="0" width="163.78724670410156" height="19.000164031982422"></rect><text style=""><tspan xml:space="preserve" dy="1em" x="0" class="row">Fixed attendance page</tspan></text></g></g><g class="edgeLabel" transform="translate(617.5234375, 345.982421875)"><g class="label" transform="translate(-127.03125, -9.5)"><rect rx="0" ry="0" width="253.9099884033203" height="19.000164031982422"></rect><text style=""><tspan xml:space="preserve" dy="1em" x="0" class="row">Submitted fixed attendance details</tspan></text></g></g><g class="edgeLabel"><g class="label" transform="translate(0, 0)"><rect rx="0" ry="0" width="0" height="0"></rect><text style=""><tspan xml:space="preserve" dy="1em" x="0" class="row"></tspan></text></g></g><g class="edgeLabel"><g class="label" transform="translate(0, 0)"><rect rx="0" ry="0" width="0" height="0"></rect><text style=""><tspan xml:space="preserve" dy="1em" x="0" class="row"></tspan></text></g></g><g class="edgeLabel"><g class="label" transform="translate(0, 0)"><rect rx="0" ry="0" width="0" height="0"></rect><text style=""><tspan xml:space="preserve" dy="1em" x="0" class="row"></tspan></text></g></g><g class="edgeLabel"><g class="label" transform="translate(0, 0)"><rect rx="0" ry="0" width="0" height="0"></rect><text style=""><tspan xml:space="preserve" dy="1em" x="0" class="row"></tspan></text></g></g><g class="edgeLabel"><g class="label" transform="translate(0, 0)"><rect rx="0" ry="0" width="0" height="0"></rect><text style=""><tspan xml:space="preserve" dy="1em" x="0" class="row"></tspan></text></g></g><g class="edgeLabel"><g class="label" transform="translate(0, 0)"><rect rx="0" ry="0" width="0" height="0"></rect><text style=""><tspan xml:space="preserve" dy="1em" x="0" class="row"></tspan></text></g></g><g class="edgeLabel"><g class="label" transform="translate(0, 0)"><rect rx="0" ry="0" width="0" height="0"></rect><text style=""><tspan xml:space="preserve" dy="1em" x="0" class="row"></tspan></text></g></g><g class="edgeLabel"><g class="label" transform="translate(0, 0)"><rect rx="0" ry="0" width="0" height="0"></rect><text style=""><tspan xml:space="preserve" dy="1em" x="0" class="row"></tspan></text></g></g><g class="edgeLabel"><g class="label" transform="translate(0, 0)"><rect rx="0" ry="0" width="0" height="0"></rect><text style=""><tspan xml:space="preserve" dy="1em" x="0" class="row"></tspan></text></g></g><g class="edgeLabel" transform="translate(2063.78515625, 95.70703125)"><g class="label" transform="translate(-127.12890625, -9.5)"><rect rx="0" ry="0" width="254.1064910888672" height="19.000164031982422"></rect><text style=""><tspan xml:space="preserve" dy="1em" x="0" class="row">Confirmation or validation message</tspan></text></g></g><g class="edgeLabel" transform="translate(949.70703125, 1778.0630779266357)"><g class="label" transform="translate(-152.30078125, -9.5)"><rect rx="0" ry="0" width="304.41912841796875" height="19.000164031982422"></rect><text style=""><tspan xml:space="preserve" dy="1em" x="0" class="row">Search, view, or submit status with reason</tspan></text></g></g><g class="edgeLabel"><g class="label" transform="translate(0, 0)"><rect rx="0" ry="0" width="0" height="0"></rect><text style=""><tspan xml:space="preserve" dy="1em" x="0" class="row"></tspan></text></g></g><g class="edgeLabel"><g class="label" transform="translate(0, 0)"><rect rx="0" ry="0" width="0" height="0"></rect><text style=""><tspan xml:space="preserve" dy="1em" x="0" class="row"></tspan></text></g></g><g class="edgeLabel"><g class="label" transform="translate(0, 0)"><rect rx="0" ry="0" width="0" height="0"></rect><text style=""><tspan xml:space="preserve" dy="1em" x="0" class="row"></tspan></text></g></g><g class="edgeLabel"><g class="label" transform="translate(0, 0)"><rect rx="0" ry="0" width="0" height="0"></rect><text style=""><tspan xml:space="preserve" dy="1em" x="0" class="row"></tspan></text></g></g><g class="edgeLabel" transform="translate(949.70703125, 920.546875)"><g class="label" transform="translate(-150.18359375, -9.5)"><rect rx="0" ry="0" width="300.1860656738281" height="19.000164031982422"></rect><text style=""><tspan xml:space="preserve" dy="1em" x="0" class="row">Paginated records, detail, or status result</tspan></text></g></g><g class="edgeLabel" transform="translate(617.5234375, 1455.3560466766357)"><g class="label" transform="translate(-154.8828125, -9.5)"><rect rx="0" ry="0" width="309.5787048339844" height="19.000164031982422"></rect><text style=""><tspan xml:space="preserve" dy="1em" x="0" class="row">Select event and request attendance sheet</tspan></text></g></g><g class="edgeLabel"><g class="label" transform="translate(0, 0)"><rect rx="0" ry="0" width="0" height="0"></rect><text style=""><tspan xml:space="preserve" dy="1em" x="0" class="row"></tspan></text></g></g><g class="edgeLabel"><g class="label" transform="translate(0, 0)"><rect rx="0" ry="0" width="0" height="0"></rect><text style=""><tspan xml:space="preserve" dy="1em" x="0" class="row"></tspan></text></g></g><g class="edgeLabel"><g class="label" transform="translate(0, 0)"><rect rx="0" ry="0" width="0" height="0"></rect><text style=""><tspan xml:space="preserve" dy="1em" x="0" class="row"></tspan></text></g></g><g class="edgeLabel"><g class="label" transform="translate(0, 0)"><rect rx="0" ry="0" width="0" height="0"></rect><text style=""><tspan xml:space="preserve" dy="1em" x="0" class="row"></tspan></text></g></g><g class="edgeLabel"><g class="label" transform="translate(0, 0)"><rect rx="0" ry="0" width="0" height="0"></rect><text style=""><tspan xml:space="preserve" dy="1em" x="0" class="row"></tspan></text></g></g><g class="edgeLabel"><g class="label" transform="translate(0, 0)"><rect rx="0" ry="0" width="0" height="0"></rect><text style=""><tspan xml:space="preserve" dy="1em" x="0" class="row"></tspan></text></g></g><g class="edgeLabel"><g class="label" transform="translate(0, 0)"><rect rx="0" ry="0" width="0" height="0"></rect><text style=""><tspan xml:space="preserve" dy="1em" x="0" class="row"></tspan></text></g></g><g class="edgeLabel"><g class="label" transform="translate(0, 0)"><rect rx="0" ry="0" width="0" height="0"></rect><text style=""><tspan xml:space="preserve" dy="1em" x="0" class="row"></tspan></text></g></g><g class="edgeLabel" transform="translate(1414.5625, 891.046875)"><g class="label" transform="translate(-115.51171875, -9.5)"><rect rx="0" ry="0" width="230.88514709472656" height="19.000164031982422"></rect><text style=""><tspan xml:space="preserve" dy="1em" x="0" class="row">Downloadable attendance sheet</tspan></text></g></g><g class="edgeLabel"><g class="label" transform="translate(0, 0)"><rect rx="0" ry="0" width="0" height="0"></rect><text style=""><tspan xml:space="preserve" dy="1em" x="0" class="row"></tspan></text></g></g><g class="edgeLabel"><g class="label" transform="translate(0, 0)"><rect rx="0" ry="0" width="0" height="0"></rect><text style=""><tspan xml:space="preserve" dy="1em" x="0" class="row"></tspan></text></g></g></g><g class="nodes"><g class="node default default flowchart-label" id="flowchart-attendee-0" data-node="true" data-id="attendee" transform="translate(218.8203125, 328.162109375)"><rect class="basic label-container" style="" rx="0" ry="0" x="-72.45703125" y="-17" width="144.9140625" height="34"></rect><g class="label" style="" transform="translate(0, -9.5)"><rect></rect><text style=""><tspan xml:space="preserve" dy="1em" x="0" class="row">External Attendee</tspan></text></g></g><g class="node default default flowchart-label" id="flowchart-admin-1" data-node="true" data-id="admin" transform="translate(218.8203125, 1372.373046875)"><rect class="basic label-container" style="" rx="0" ry="0" x="-115.125" y="-17" width="230.25" height="34"></rect><g class="label" style="" transform="translate(0, -9.5)"><rect></rect><text style=""><tspan xml:space="preserve" dy="1em" x="0" class="row">Super Admin / Program Admin</tspan></text></g></g><g class="node default note flowchart-label" id="flowchart-note_template-2" data-node="true" data-id="note_template" transform="translate(218.8203125, 1456.373046875)"><rect class="basic label-container" style="" rx="0" ry="0" x="-218.8203125" y="-17" width="437.640625" height="34"></rect><g class="label" style="" transform="translate(0, -9.5)"><rect></rect><text style=""><tspan xml:space="preserve" dy="1em" x="0" class="row">Note: Formatting uses fixed DICT attendance sheet layout.</tspan></text></g></g><g class="node default default flowchart-label" id="flowchart-p51-3" data-node="true" data-id="p51" transform="translate(949.70703125, 713.52734375)"><circle style="" rx="0" ry="0" r="124.85546875" width="249.7109375" height="34"></circle><g class="label" style="" transform="translate(0, -9.5)"><rect></rect><text style=""><tspan xml:space="preserve" dy="1em" x="0" class="row">5.1 Open Public Attendance Link</tspan></text></g></g><g class="node default default flowchart-label" id="flowchart-p52-4" data-node="true" data-id="p52" transform="translate(1414.5625, 621.119140625)"><circle style="" rx="0" ry="0" r="130.68359375" width="261.3671875" height="34"></circle><g class="label" style="" transform="translate(0, -9.5)"><rect></rect><text style=""><tspan xml:space="preserve" dy="1em" x="0" class="row">5.2 Display Fixed Attendance Page</tspan></text></g></g><g class="node default default flowchart-label" id="flowchart-p53-5" data-node="true" data-id="p53" transform="translate(949.70703125, 345.982421875)"><circle style="" rx="0" ry="0" r="116.32421875" width="232.6484375" height="34"></circle><g class="label" style="" transform="translate(0, -9.5)"><rect></rect><text style=""><tspan xml:space="preserve" dy="1em" x="0" class="row">5.3 Submit Attendance Details</tspan></text></g></g><g class="node default default flowchart-label" id="flowchart-p61-6" data-node="true" data-id="p61" transform="translate(1414.5625, 342.892578125)"><circle style="" rx="0" ry="0" r="97.54296875" width="195.0859375" height="34"></circle><g class="label" style="" transform="translate(0, -9.5)"><rect></rect><text style=""><tspan xml:space="preserve" dy="1em" x="0" class="row">6.1 Validate Event Status</tspan></text></g></g><g class="node default default flowchart-label" id="flowchart-p62-7" data-node="true" data-id="p62" transform="translate(1758.6953125, 332.892578125)"><circle style="" rx="0" ry="0" r="108.0625" width="216.125" height="34"></circle><g class="label" style="" transform="translate(0, -9.5)"><rect></rect><text style=""><tspan xml:space="preserve" dy="1em" x="0" class="row">6.2 Validate Required Fields</tspan></text></g></g><g class="node default default flowchart-label" id="flowchart-p63-8" data-node="true" data-id="p63" transform="translate(2341.0859375, 332.892578125)"><circle style="" rx="0" ry="0" r="125.171875" width="250.34375" height="34"></circle><g class="label" style="" transform="translate(0, -9.5)"><rect></rect><text style=""><tspan xml:space="preserve" dy="1em" x="0" class="row">6.3 Validate Contact Information</tspan></text></g></g><g class="node default default flowchart-label" id="flowchart-p64-9" data-node="true" data-id="p64" transform="translate(2665.40234375, 332.892578125)"><circle style="" rx="0" ry="0" r="149.14453125" width="298.2890625" height="34"></circle><g class="label" style="" transform="translate(0, -9.5)"><rect></rect><text style=""><tspan xml:space="preserve" dy="1em" x="0" class="row">6.4 Check Duplicate Within Same Event</tspan></text></g></g><g class="node default default flowchart-label" id="flowchart-p65-10" data-node="true" data-id="p65" transform="translate(2974.66015625, 260.3359375)"><circle style="" rx="0" ry="0" r="110.11328125" width="220.2265625" height="34"></circle><g class="label" style="" transform="translate(0, -9.5)"><rect></rect><text style=""><tspan xml:space="preserve" dy="1em" x="0" class="row">6.5 Store Attendance Record</tspan></text></g></g><g class="node default default flowchart-label" id="flowchart-p66-11" data-node="true" data-id="p66" transform="translate(3240.48046875, 105.70703125)"><circle style="" rx="0" ry="0" r="105.70703125" width="211.4140625" height="34"></circle><g class="label" style="" transform="translate(0, -9.5)"><rect></rect><text style=""><tspan xml:space="preserve" dy="1em" x="0" class="row">6.6 Show Submission Result</tspan></text></g></g><g class="node default default flowchart-label" id="flowchart-p67-12" data-node="true" data-id="p67" transform="translate(1414.5625, 1581.8912029266357)"><circle style="" rx="0" ry="0" r="141.171875" width="282.34375" height="34"></circle><g class="label" style="" transform="translate(0, -9.5)"><rect></rect><text style=""><tspan xml:space="preserve" dy="1em" x="0" class="row">6.7 Review Attendance Record Status</tspan></text></g></g><g class="node default default flowchart-label" id="flowchart-p71-13" data-node="true" data-id="p71" transform="translate(949.70703125, 1455.3560466766357)"><circle style="" rx="0" ry="0" r="144.5703125" width="289.140625" height="34"></circle><g class="label" style="" transform="translate(0, -9.5)"><rect></rect><text style=""><tspan xml:space="preserve" dy="1em" x="0" class="row">7.1 Select Event for Attendance Sheet</tspan></text></g></g><g class="node default default flowchart-label" id="flowchart-p72-14" data-node="true" data-id="p72" transform="translate(1414.5625, 1188.29296875)"><circle style="" rx="0" ry="0" r="124.6875" width="249.375" height="34"></circle><g class="label" style="" transform="translate(0, -9.5)"><rect></rect><text style=""><tspan xml:space="preserve" dy="1em" x="0" class="row">7.2 Retrieve Attendance Records</tspan></text></g></g><g class="node default default flowchart-label" id="flowchart-p73-15" data-node="true" data-id="p73" transform="translate(1758.6953125, 1094.3125)"><circle style="" rx="0" ry="0" r="152.9609375" width="305.921875" height="34"></circle><g class="label" style="" transform="translate(0, -9.5)"><rect></rect><text style=""><tspan xml:space="preserve" dy="1em" x="0" class="row">7.3 Format Records Using DICT Template</tspan></text></g></g><g class="node default default flowchart-label" id="flowchart-p74-16" data-node="true" data-id="p74" transform="translate(2341.0859375, 985.02734375)"><circle style="" rx="0" ry="0" r="122.97265625" width="245.9453125" height="34"></circle><g class="label" style="" transform="translate(0, -9.5)"><rect></rect><text style=""><tspan xml:space="preserve" dy="1em" x="0" class="row">7.4 Generate Downloadable File</tspan></text></g></g><g class="node default default flowchart-label" id="flowchart-p75-17" data-node="true" data-id="p75" transform="translate(2665.40234375, 719.482421875)"><circle style="" rx="0" ry="0" r="81.4921875" width="162.984375" height="34"></circle><g class="label" style="" transform="translate(0, -9.5)"><rect></rect><text style=""><tspan xml:space="preserve" dy="1em" x="0" class="row">7.5 Record Audit Log</tspan></text></g></g><g class="node default default flowchart-label" id="flowchart-d2-18" label-offset-y="16.91608900386007" data-node="true" data-id="d2" transform="translate(1758.6953125, 1748.0630779266357)"><path style="" d="M 0,16.91608900386007 a 130.78515625,16.91608900386007 0,0,0 261.5703125 0 a 130.78515625,16.91608900386007 0,0,0 -261.5703125 0 l 0,50.916089003860066 a 130.78515625,16.91608900386007 0,0,0 261.5703125 0 l 0,-50.916089003860066" transform="translate(-130.78515625,-42.3741335057901)"></path><g class="label" style="" transform="translate(0, -9.5)"><rect></rect><text style=""><tspan xml:space="preserve" dy="1em" x="0" class="row">D2 Roles and Program Assignments</tspan></text></g></g><g class="node default default flowchart-label" id="flowchart-d4-19" label-offset-y="10.136189662219909" data-node="true" data-id="d4" transform="translate(1758.6953125, 1395.7193279266357)"><path style="" d="M 0,10.136189662219909 a 42.62109375,10.136189662219909 0,0,0 85.2421875 0 a 42.62109375,10.136189662219909 0,0,0 -85.2421875 0 l 0,44.136189662219905 a 42.62109375,10.136189662219909 0,0,0 85.2421875 0 l 0,-44.136189662219905" transform="translate(-42.62109375,-32.204284493329865)"></path><g class="label" style="" transform="translate(0, -9.5)"><rect></rect><text style=""><tspan xml:space="preserve" dy="1em" x="0" class="row">D4 Events</tspan></text></g></g><g class="node default default flowchart-label" id="flowchart-d5-20" label-offset-y="14.764061620349047" data-node="true" data-id="d5" transform="translate(3240.48046875, 1097.6420001983643)"><path style="" d="M 0,14.764061620349047 a 90.1484375,14.764061620349047 0,0,0 180.296875 0 a 90.1484375,14.764061620349047 0,0,0 -180.296875 0 l 0,48.76406162034905 a 90.1484375,14.764061620349047 0,0,0 180.296875 0 l 0,-48.76406162034905" transform="translate(-90.1484375,-39.14609243052357)"></path><g class="label" style="" transform="translate(0, -9.5)"><rect></rect><text style=""><tspan xml:space="preserve" dy="1em" x="0" class="row">D5 Attendance Records</tspan></text></g></g><g class="node default default flowchart-label" id="flowchart-d6-21" label-offset-y="16.01930848675348" data-node="true" data-id="d6" transform="translate(2665.40234375, 1150.278486251831)"><path style="" d="M 0,16.01930848675348 a 111.484375,16.01930848675348 0,0,0 222.96875 0 a 111.484375,16.01930848675348 0,0,0 -222.96875 0 l 0,50.01930848675348 a 111.484375,16.01930848675348 0,0,0 222.96875 0 l 0,-50.01930848675348" transform="translate(-111.484375,-41.02896273013022)"></path><g class="label" style="" transform="translate(0, -9.5)"><rect></rect><text style=""><tspan xml:space="preserve" dy="1em" x="0" class="row">D6 Attendance Sheet Exports</tspan></text></g></g><g class="node default default flowchart-label" id="flowchart-d7-22" label-offset-y="11.796501072784288" data-node="true" data-id="d7" transform="translate(2974.66015625, 1527.4074058532715)"><path style="" d="M 0,11.796501072784288 a 55.83984375,11.796501072784288 0,0,0 111.6796875 0 a 55.83984375,11.796501072784288 0,0,0 -111.6796875 0 l 0,45.79650107278429 a 55.83984375,11.796501072784288 0,0,0 111.6796875 0 l 0,-45.79650107278429" transform="translate(-55.83984375,-34.694751609176436)"></path><g class="label" style="" transform="translate(0, -9.5)"><rect></rect><text style=""><tspan xml:space="preserve" dy="1em" x="0" class="row">D7 Audit Logs</tspan></text></g></g></g></g></g></svg>