<svg id="mermaid-1784041658230" width="3381.125" xmlns="http://www.w3.org/2000/svg" xmlns:xlink="http://www.w3.org/1999/xlink" height="1824.158935546875" viewBox="-8 -8 3381.125 1824.158935546875" role="graphics-document document" aria-roledescription="flowchart-v2">
<rect x="-100000" y="-100000" width="200000" height="200000" fill="#000000"/>
<style>#mermaid-1784041658230{font-family:"trebuchet ms",verdana,arial,sans-serif;font-size:16px;fill:#ccc;}#mermaid-1784041658230 .error-icon{fill:#a44141;}#mermaid-1784041658230 .error-text{fill:#ddd;stroke:#ddd;}#mermaid-1784041658230 .edge-thickness-normal{stroke-width:2px;}#mermaid-1784041658230 .edge-thickness-thick{stroke-width:3.5px;}#mermaid-1784041658230 .edge-pattern-solid{stroke-dasharray:0;}#mermaid-1784041658230 .edge-pattern-dashed{stroke-dasharray:3;}#mermaid-1784041658230 .edge-pattern-dotted{stroke-dasharray:2;}#mermaid-1784041658230 .marker{fill:lightgrey;stroke:lightgrey;}#mermaid-1784041658230 .marker.cross{stroke:lightgrey;}#mermaid-1784041658230 svg{font-family:"trebuchet ms",verdana,arial,sans-serif;font-size:16px;}#mermaid-1784041658230 .label{font-family:"trebuchet ms",verdana,arial,sans-serif;color:#ccc;}#mermaid-1784041658230 .cluster-label text{fill:#F9FFFE;}#mermaid-1784041658230 .cluster-label span,#mermaid-1784041658230 p{color:#F9FFFE;}#mermaid-1784041658230 .label text,#mermaid-1784041658230 span,#mermaid-1784041658230 p{fill:#ccc;color:#ccc;}#mermaid-1784041658230 .node rect,#mermaid-1784041658230 .node circle,#mermaid-1784041658230 .node ellipse,#mermaid-1784041658230 .node polygon,#mermaid-1784041658230 .node path{fill:#1f2020;stroke:#81B1DB;stroke-width:1px;}#mermaid-1784041658230 .flowchart-label text{text-anchor:middle;}#mermaid-1784041658230 .node .katex path{fill:#000;stroke:#000;stroke-width:1px;}#mermaid-1784041658230 .node .label{text-align:center;}#mermaid-1784041658230 .node.clickable{cursor:pointer;}#mermaid-1784041658230 .arrowheadPath{fill:lightgrey;}#mermaid-1784041658230 .edgePath .path{stroke:lightgrey;stroke-width:2.0px;}#mermaid-1784041658230 .flowchart-link{stroke:lightgrey;fill:none;}#mermaid-1784041658230 .edgeLabel{background-color:hsl(0, 0%, 34.4117647059%);text-align:center;}#mermaid-1784041658230 .edgeLabel rect{opacity:0.5;background-color:hsl(0, 0%, 34.4117647059%);fill:hsl(0, 0%, 34.4117647059%);}#mermaid-1784041658230 .labelBkg{background-color:rgba(87.75, 87.75, 87.75, 0.5);}#mermaid-1784041658230 .cluster rect{fill:hsl(180, 1.5873015873%, 28.3529411765%);stroke:rgba(255, 255, 255, 0.25);stroke-width:1px;}#mermaid-1784041658230 .cluster text{fill:#F9FFFE;}#mermaid-1784041658230 .cluster span,#mermaid-1784041658230 p{color:#F9FFFE;}#mermaid-1784041658230 div.mermaidTooltip{position:absolute;text-align:center;max-width:200px;padding:2px;font-family:"trebuchet ms",verdana,arial,sans-serif;font-size:12px;background:hsl(20, 1.5873015873%, 12.3529411765%);border:1px solid rgba(255, 255, 255, 0.25);border-radius:2px;pointer-events:none;z-index:100;}#mermaid-1784041658230 .flowchartTitleText{text-anchor:middle;font-size:18px;fill:#ccc;}#mermaid-1784041658230 :root{--mermaid-font-family:"trebuchet ms",verdana,arial,sans-serif;}#mermaid-1784041658230 .note rect{fill:#1f2020!important;stroke:#8CA6DB!important;color:#d4d4d4!important;stroke-dasharray:5 5!important;}#mermaid-1784041658230 .note polygon{fill:#1f2020!important;stroke:#8CA6DB!important;color:#d4d4d4!important;stroke-dasharray:5 5!important;}#mermaid-1784041658230 .note ellipse{fill:#1f2020!important;stroke:#8CA6DB!important;color:#d4d4d4!important;stroke-dasharray:5 5!important;}#mermaid-1784041658230 .note circle{fill:#1f2020!important;stroke:#8CA6DB!important;color:#d4d4d4!important;stroke-dasharray:5 5!important;}#mermaid-1784041658230 .note path{fill:#1f2020!important;stroke:#8CA6DB!important;color:#d4d4d4!important;stroke-dasharray:5 5!important;}#mermaid-1784041658230 .note tspan{fill:#d4d4d4!important;}</style><g><marker id="mermaid-1784041658230_flowchart-pointEnd" class="marker flowchart" viewBox="0 0 10 10" refX="6" refY="5" markerUnits="userSpaceOnUse" markerWidth="12" markerHeight="12" orient="auto"><path d="M 0 0 L 10 5 L 0 10 z" class="arrowMarkerPath" style="stroke-width: 1; stroke-dasharray: 1, 0;"></path></marker><marker id="mermaid-1784041658230_flowchart-pointStart" class="marker flowchart" viewBox="0 0 10 10" refX="4.5" refY="5" markerUnits="userSpaceOnUse" markerWidth="12" markerHeight="12" orient="auto"><path d="M 0 5 L 10 10 L 10 0 z" class="arrowMarkerPath" style="stroke-width: 1; stroke-dasharray: 1, 0;"></path></marker><marker id="mermaid-1784041658230_flowchart-circleEnd" class="marker flowchart" viewBox="0 0 10 10" refX="11" refY="5" markerUnits="userSpaceOnUse" markerWidth="11" markerHeight="11" orient="auto"><circle cx="5" cy="5" r="5" class="arrowMarkerPath" style="stroke-width: 1; stroke-dasharray: 1, 0;"></circle></marker><marker id="mermaid-1784041658230_flowchart-circleStart" class="marker flowchart" viewBox="0 0 10 10" refX="-1" refY="5" markerUnits="userSpaceOnUse" markerWidth="11" markerHeight="11" orient="auto"><circle cx="5" cy="5" r="5" class="arrowMarkerPath" style="stroke-width: 1; stroke-dasharray: 1, 0;"></circle></marker><marker id="mermaid-1784041658230_flowchart-crossEnd" class="marker cross flowchart" viewBox="0 0 11 11" refX="12" refY="5.2" markerUnits="userSpaceOnUse" markerWidth="11" markerHeight="11" orient="auto"><path d="M 1,1 l 9,9 M 10,1 l -9,9" class="arrowMarkerPath" style="stroke-width: 2; stroke-dasharray: 1, 0;"></path></marker><marker id="mermaid-1784041658230_flowchart-crossStart" class="marker cross flowchart" viewBox="0 0 11 11" refX="-1" refY="5.2" markerUnits="userSpaceOnUse" markerWidth="11" markerHeight="11" orient="auto"><path d="M 1,1 l 9,9 M 10,1 l -9,9" class="arrowMarkerPath" style="stroke-width: 2; stroke-dasharray: 1, 0;"></path></marker><g class="root"><g class="clusters"></g><g class="edgePaths"><path d="M237.051,354.662L302.041,415.265C367.031,475.867,497.012,597.072,597.251,657.675C697.491,718.277,767.99,718.277,803.24,718.277L838.489,718.277" id="L-attendee-p51-0" class=" edge-thickness-normal edge-pattern-solid flowchart-link LS-attendee LE-p51" style="fill:none;" marker-end="url(#mermaid-1784041658230_flowchart-pointEnd)"></path><path d="M1090.79,763.232L1110.098,770.338C1129.406,777.445,1168.021,791.657,1225.139,798.763C1282.258,805.869,1357.879,805.869,1423.385,805.869C1488.891,805.869,1544.281,805.869,1599.477,899.779C1654.673,993.688,1709.675,1181.508,1737.176,1275.417L1764.677,1369.327" id="L-p51-d4-0" class=" edge-thickness-normal edge-pattern-solid flowchart-link LS-p51 LE-d4" style="fill:none;" marker-start="url(#mermaid-1784041658230_flowchart-pointStart)" marker-end="url(#mermaid-1784041658230_flowchart-pointEnd)"></path><path d="M1085.816,675.153L1105.953,667.742C1126.09,660.33,1166.363,645.508,1201.667,637.457C1236.97,629.406,1267.304,628.127,1282.47,627.488L1297.637,626.848" id="L-p51-p52-0" class=" edge-thickness-normal edge-pattern-solid flowchart-link LS-p51 LE-p52" style="fill:none;" marker-end="url(#mermaid-1784041658230_flowchart-pointEnd)"></path><path d="M1379.135,502.28L1350.385,439.435C1321.636,376.589,1264.136,250.898,1195.721,188.053C1127.306,125.207,1047.975,125.207,951.368,125.207C854.76,125.207,740.876,125.207,622.133,157.375C503.389,189.543,379.786,253.879,317.984,286.047L256.182,318.215" id="L-p52-attendee-0" class=" edge-thickness-normal edge-pattern-solid flowchart-link LS-p52 LE-attendee" style="fill:none;" marker-end="url(#mermaid-1784041658230_flowchart-pointEnd)"></path><path d="M291.277,339.139L347.23,340.28C403.182,341.42,515.087,343.701,607.711,344.842C700.335,345.982,773.678,345.982,810.349,345.982L847.02,345.982" id="L-attendee-p53-0" class=" edge-thickness-normal edge-pattern-solid flowchart-link LS-attendee LE-p53" style="fill:none;" marker-end="url(#mermaid-1784041658230_flowchart-pointEnd)"></path><path d="M1084.969,345.982L1105.247,345.982C1125.525,345.982,1166.081,345.982,1207.03,345.701C1247.98,345.419,1289.323,344.856,1309.995,344.575L1330.667,344.293" id="L-p53-p61-0" class=" edge-thickness-normal edge-pattern-solid flowchart-link LS-p53 LE-p61" style="fill:none;" marker-end="url(#mermaid-1784041658230_flowchart-pointEnd)"></path><path d="M1494.375,425.784L1511.924,449.681C1529.474,473.577,1564.573,521.371,1610.225,678.602C1655.877,835.832,1712.083,1102.501,1740.185,1235.835L1768.288,1369.169" id="L-p61-d4-0" class=" edge-thickness-normal edge-pattern-solid flowchart-link LS-p61 LE-d4" style="fill:none;" marker-start="url(#mermaid-1784041658230_flowchart-pointStart)" marker-end="url(#mermaid-1784041658230_flowchart-pointEnd)"></path><path d="M1530.867,337.033L1542.334,336.343C1553.802,335.653,1576.737,334.273,1592.869,333.583C1609.002,332.893,1618.331,332.893,1622.996,332.893L1627.661,332.893" id="L-p61-p62-0" class=" edge-thickness-normal edge-pattern-solid flowchart-link LS-p61 LE-p62" style="fill:none;" marker-end="url(#mermaid-1784041658230_flowchart-pointEnd)"></path><path d="M1922.305,332.893L1949.041,332.893C1975.777,332.893,2029.25,332.893,2080.458,332.893C2131.666,332.893,2180.609,332.893,2205.08,332.893L2229.552,332.893" id="L-p62-p63-0" class=" edge-thickness-normal edge-pattern-solid flowchart-link LS-p62 LE-p63" style="fill:none;" marker-end="url(#mermaid-1784041658230_flowchart-pointEnd)"></path><path d="M2485.195,332.893L2489.362,332.893C2493.529,332.893,2501.862,332.893,2509.312,332.893C2516.762,332.893,2523.329,332.893,2526.612,332.893L2529.895,332.893" id="L-p63-p64-0" class=" edge-thickness-normal edge-pattern-solid flowchart-link LS-p63 LE-p64" style="fill:none;" marker-end="url(#mermaid-1784041658230_flowchart-pointEnd)"></path><path d="M2773.631,458.909L2787.773,478.869C2801.915,498.828,2830.2,538.746,2866.861,558.705C2903.522,578.664,2948.56,578.664,2993.598,578.664C3038.635,578.664,3083.673,578.664,3126.122,658.007C3168.571,737.35,3208.432,896.036,3228.362,975.379L3248.292,1054.722" id="L-p64-d5-0" class=" edge-thickness-normal edge-pattern-solid flowchart-link LS-p64 LE-d5" style="fill:none;" marker-start="url(#mermaid-1784041658230_flowchart-pointStart)" marker-end="url(#mermaid-1784041658230_flowchart-pointEnd)"></path><path d="M2822.013,275.532L2828.091,272.999C2834.17,270.466,2846.327,265.401,2855.689,262.869C2865.051,260.336,2871.618,260.336,2874.901,260.336L2878.184,260.336" id="L-p64-p65-0" class=" edge-thickness-normal edge-pattern-solid flowchart-link LS-p64 LE-p65" style="fill:none;" marker-end="url(#mermaid-1784041658230_flowchart-pointEnd)"></path><path d="M3048.347,355.873L3061.741,379.246C3075.135,402.618,3101.923,449.363,3135.5,565.827C3169.076,682.292,3209.442,868.476,3229.624,961.568L3249.807,1054.66" id="L-p65-d5-0" class=" edge-thickness-normal edge-pattern-solid flowchart-link LS-p65 LE-d5" style="fill:none;" marker-end="url(#mermaid-1784041658230_flowchart-pointEnd)"></path><path d="M3093.521,214.072L3099.386,211.357C3105.251,208.641,3116.981,203.21,3129.505,195.804C3142.029,188.398,3155.348,179.016,3162.007,174.325L3168.666,169.634" id="L-p65-p66-0" class=" edge-thickness-normal edge-pattern-solid flowchart-link LS-p65 LE-p66" style="fill:none;" marker-end="url(#mermaid-1784041658230_flowchart-pointEnd)"></path><path d="M3154.019,97.643L3149.801,97.321C3145.583,96.998,3137.147,96.352,3110.41,96.03C3083.673,95.707,3038.635,95.707,2993.598,95.707C2948.56,95.707,2903.522,95.707,2851.979,95.707C2800.436,95.707,2742.388,95.707,2684.34,95.707C2626.292,95.707,2568.243,95.707,2514.191,95.707C2460.138,95.707,2410.081,95.707,2338.835,95.707C2267.59,95.707,2175.156,95.707,2078.091,95.707C1981.026,95.707,1879.329,95.707,1798.821,95.707C1718.313,95.707,1658.992,95.707,1601.637,95.707C1544.281,95.707,1488.891,95.707,1423.385,95.707C1357.879,95.707,1282.258,95.707,1204.782,95.707C1127.306,95.707,1047.975,95.707,951.368,95.707C854.76,95.707,740.876,95.707,621.445,132.749C502.014,169.791,377.036,243.875,314.547,280.917L252.058,317.96" id="L-p66-attendee-0" class=" edge-thickness-normal edge-pattern-solid flowchart-link LS-p66 LE-attendee" style="fill:none;" marker-end="url(#mermaid-1784041658230_flowchart-pointEnd)"></path><path d="M235.394,1394.123L300.661,1461.067C365.927,1528.01,496.46,1661.898,618.668,1728.841C740.876,1795.785,854.76,1795.785,951.368,1795.785C1047.975,1795.785,1127.306,1795.785,1186.316,1779.057C1245.326,1762.329,1284.016,1728.874,1303.361,1712.146L1322.706,1695.418" id="L-admin-p67-0" class=" edge-thickness-normal edge-pattern-solid flowchart-link LS-admin LE-p67" style="fill:none;" marker-end="url(#mermaid-1784041658230_flowchart-pointEnd)"></path><path d="M1562.914,1668.214L1569.04,1671.461C1575.166,1674.709,1587.419,1681.204,1606.322,1690.922C1625.225,1700.641,1650.779,1713.583,1663.556,1720.054L1676.332,1726.525" id="L-p67-d2-0" class=" edge-thickness-normal edge-pattern-solid flowchart-link LS-p67 LE-d2" style="fill:none;" marker-start="url(#mermaid-1784041658230_flowchart-pointStart)" marker-end="url(#mermaid-1784041658230_flowchart-pointEnd)"></path><path d="M1569.036,1655.146L1574.142,1657.238C1579.248,1659.331,1589.46,1663.515,1619.154,1630.363C1648.848,1597.212,1698.024,1526.724,1722.612,1491.481L1747.2,1456.237" id="L-p67-d4-0" class=" edge-thickness-normal edge-pattern-solid flowchart-link LS-p67 LE-d4" style="fill:none;" marker-start="url(#mermaid-1784041658230_flowchart-pointStart)" marker-end="url(#mermaid-1784041658230_flowchart-pointEnd)"></path><path d="M1578.561,1619.894L1582.08,1620.385C1585.598,1620.877,1592.635,1621.861,1625.814,1622.353C1658.992,1622.845,1718.313,1622.845,1798.821,1622.845C1879.329,1622.845,1981.026,1622.845,2078.091,1622.845C2175.156,1622.845,2267.59,1622.845,2338.835,1622.845C2410.081,1622.845,2460.138,1622.845,2514.191,1622.845C2568.243,1622.845,2626.292,1622.845,2684.34,1622.845C2742.388,1622.845,2800.436,1622.845,2851.979,1622.845C2903.522,1622.845,2948.56,1622.845,2993.598,1622.845C3038.635,1622.845,3083.673,1622.845,3126.135,1542.891C3168.597,1462.937,3208.483,1303.03,3228.426,1223.076L3248.369,1143.122" id="L-p67-d5-0" class=" edge-thickness-normal edge-pattern-solid flowchart-link LS-p67 LE-d5" style="fill:none;" marker-start="url(#mermaid-1784041658230_flowchart-pointStart)" marker-end="url(#mermaid-1784041658230_flowchart-pointEnd)"></path><path d="M1568.456,1558.184L1573.659,1556.586C1578.861,1554.989,1589.267,1551.795,1624.129,1550.198C1658.992,1548.601,1718.313,1548.601,1798.821,1548.601C1879.329,1548.601,1981.026,1548.601,2078.091,1548.601C2175.156,1548.601,2267.59,1548.601,2338.835,1548.601C2410.081,1548.601,2460.138,1548.601,2514.191,1548.601C2568.243,1548.601,2626.292,1548.601,2684.34,1548.601C2742.388,1548.601,2800.436,1548.601,2841.789,1548.601C2883.142,1548.601,2907.8,1548.601,2920.129,1548.601L2932.458,1548.601" id="L-p67-d7-0" class=" edge-thickness-normal edge-pattern-solid flowchart-link LS-p67 LE-d7" style="fill:none;" marker-end="url(#mermaid-1784041658230_flowchart-pointEnd)"></path><path d="M1387.908,1466.006L1357.696,1377.471C1327.484,1288.936,1267.06,1111.867,1197.183,1023.332C1127.306,934.797,1047.975,934.797,951.368,934.797C854.76,934.797,740.876,934.797,619.119,1005.035C497.362,1075.274,367.732,1215.751,302.917,1285.989L238.102,1356.228" id="L-p67-admin-0" class=" edge-thickness-normal edge-pattern-solid flowchart-link LS-p67 LE-admin" style="fill:none;" marker-end="url(#mermaid-1784041658230_flowchart-pointEnd)"></path><path d="M291.135,1394.123L347.111,1407.282C403.087,1420.441,515.04,1446.76,602.98,1459.919C690.92,1473.078,754.847,1473.078,786.811,1473.078L818.774,1473.078" id="L-admin-p71-0" class=" edge-thickness-normal edge-pattern-solid flowchart-link LS-admin LE-p71" style="fill:none;" marker-end="url(#mermaid-1784041658230_flowchart-pointEnd)"></path><path d="M1061.274,1590.895L1085.501,1621.71C1109.728,1652.525,1158.182,1714.155,1220.22,1744.97C1282.258,1775.785,1357.879,1775.785,1423.385,1775.785C1488.891,1775.785,1544.281,1775.785,1578.957,1775.393C1613.633,1775,1627.595,1774.216,1634.575,1773.823L1641.556,1773.431" id="L-p71-d2-0" class=" edge-thickness-normal edge-pattern-solid flowchart-link LS-p71 LE-d2" style="fill:none;" marker-start="url(#mermaid-1784041658230_flowchart-pointStart)" marker-end="url(#mermaid-1784041658230_flowchart-pointEnd)"></path><path d="M1115.358,1442.479L1130.571,1439.306C1145.784,1436.133,1176.21,1429.787,1229.234,1426.614C1282.258,1423.441,1357.879,1423.441,1423.385,1423.441C1488.891,1423.441,1544.281,1423.441,1585.727,1422.668C1627.174,1421.896,1654.675,1420.35,1668.426,1419.578L1682.177,1418.805" id="L-p71-d4-0" class=" edge-thickness-normal edge-pattern-solid flowchart-link LS-p71 LE-d4" style="fill:none;" marker-start="url(#mermaid-1784041658230_flowchart-pointStart)" marker-end="url(#mermaid-1784041658230_flowchart-pointEnd)"></path><path d="M1064.134,1364.531L1087.884,1337.533C1111.635,1310.535,1159.136,1256.539,1199.032,1229.541C1238.929,1202.543,1271.221,1202.543,1287.367,1202.543L1303.513,1202.543" id="L-p71-p72-0" class=" edge-thickness-normal edge-pattern-solid flowchart-link LS-p71 LE-p72" style="fill:none;" marker-end="url(#mermaid-1784041658230_flowchart-pointEnd)"></path><path d="M1532.599,1286.663L1543.778,1296.152C1554.957,1305.641,1577.314,1324.619,1602.355,1341.88C1627.396,1359.141,1655.121,1374.684,1668.983,1382.456L1682.846,1390.228" id="L-p72-d4-0" class=" edge-thickness-normal edge-pattern-solid flowchart-link LS-p72 LE-d4" style="fill:none;" marker-start="url(#mermaid-1784041658230_flowchart-pointStart)" marker-end="url(#mermaid-1784041658230_flowchart-pointEnd)"></path><path d="M1546.646,1266.534L1555.483,1271.532C1564.321,1276.53,1581.996,1286.527,1620.494,1291.525C1658.992,1296.523,1718.313,1296.523,1798.821,1296.523C1879.329,1296.523,1981.026,1296.523,2078.091,1296.523C2175.156,1296.523,2267.59,1296.523,2338.835,1296.523C2410.081,1296.523,2460.138,1296.523,2514.191,1296.523C2568.243,1296.523,2626.292,1296.523,2684.34,1296.523C2742.388,1296.523,2800.436,1296.523,2851.979,1296.523C2903.522,1296.523,2948.56,1296.523,2993.598,1296.523C3038.635,1296.523,3083.673,1296.523,3123.175,1270.748C3162.677,1244.972,3196.643,1193.421,3213.625,1167.646L3230.608,1141.87" id="L-p72-d5-0" class=" edge-thickness-normal edge-pattern-solid flowchart-link LS-p72 LE-d5" style="fill:none;" marker-start="url(#mermaid-1784041658230_flowchart-pointStart)" marker-end="url(#mermaid-1784041658230_flowchart-pointEnd)"></path><path d="M1542.032,1141.161L1551.639,1135.728C1561.245,1130.295,1580.459,1119.429,1593.349,1113.996C1606.239,1108.563,1612.805,1108.563,1616.089,1108.563L1619.372,1108.563" id="L-p72-p73-0" class=" edge-thickness-normal edge-pattern-solid flowchart-link LS-p72 LE-p73" style="fill:none;" marker-end="url(#mermaid-1784041658230_flowchart-pointEnd)"></path><path d="M1930.594,1108.563L1955.949,1108.563C1981.303,1108.563,2032.013,1108.563,2083.695,1098.187C2135.376,1087.811,2188.03,1067.06,2214.357,1056.685L2240.684,1046.309" id="L-p73-p74-0" class=" edge-thickness-normal edge-pattern-solid flowchart-link LS-p73 LE-p74" style="fill:none;" marker-end="url(#mermaid-1784041658230_flowchart-pointEnd)"></path><path d="M2442.727,1090.285L2453.972,1102.659C2465.216,1115.033,2487.706,1139.781,2508.511,1152.155C2529.315,1164.528,2548.435,1164.528,2557.995,1164.528L2567.555,1164.528" id="L-p74-d6-0" class=" edge-thickness-normal edge-pattern-solid flowchart-link LS-p74 LE-d6" style="fill:none;" marker-end="url(#mermaid-1784041658230_flowchart-pointEnd)"></path><path d="M2243.558,959.806L2216.752,950.721C2189.946,941.636,2136.334,923.466,2058.68,914.382C1981.026,905.297,1879.329,905.297,1798.821,905.297C1718.313,905.297,1658.992,905.297,1601.637,905.297C1544.281,905.297,1488.891,905.297,1423.385,905.297C1357.879,905.297,1282.258,905.297,1204.782,905.297C1127.306,905.297,1047.975,905.297,951.368,905.297C854.76,905.297,740.876,905.297,618.935,980.433C496.993,1055.57,366.994,1205.842,301.994,1280.978L236.994,1356.115" id="L-p74-admin-0" class=" edge-thickness-normal edge-pattern-solid flowchart-link LS-p74 LE-admin" style="fill:none;" marker-end="url(#mermaid-1784041658230_flowchart-pointEnd)"></path><path d="M2419.747,891.781L2434.821,864.648C2449.896,837.515,2480.046,783.249,2509.679,756.116C2539.313,728.982,2568.43,728.982,2582.989,728.982L2597.548,728.982" id="L-p74-p75-0" class=" edge-thickness-normal edge-pattern-solid flowchart-link LS-p74 LE-p75" style="fill:none;" marker-end="url(#mermaid-1784041658230_flowchart-pointEnd)"></path><path d="M2765.832,728.982L2781.274,728.982C2796.716,728.982,2827.6,728.982,2864.464,858.942C2901.329,988.903,2944.173,1248.823,2965.595,1378.783L2987.017,1508.743" id="L-p75-d7-0" class=" edge-thickness-normal edge-pattern-solid flowchart-link LS-p75 LE-d7" style="fill:none;" marker-end="url(#mermaid-1784041658230_flowchart-pointEnd)"></path></g><g class="edgeLabels"><g class="edgeLabel" transform="translate(626.9921875, 718.27734375)"><g class="label" transform="translate(-105.2578125, -9.5)"><rect rx="0" ry="0" width="210.38973999023438" height="19.000028610229492"></rect><text style=""><tspan xml:space="preserve" dy="1em" x="0" class="row">Scans QR or opens public link</tspan></text></g></g><g class="edgeLabel" transform="translate(1433.5, 805.869140625)"><g class="label" transform="translate(-128.6953125, -9.5)"><rect rx="0" ry="0" width="257.2342224121094" height="19.000028610229492"></rect><text style=""><tspan xml:space="preserve" dy="1em" x="0" class="row">Event status and field requirements</tspan></text></g></g><g class="edgeLabel" transform="translate(1206.63671875, 630.685546875)"><g class="label" transform="translate(-60.69140625, -9.5)"><rect rx="0" ry="0" width="121.31201934814453" height="19.000028610229492"></rect><text style=""><tspan xml:space="preserve" dy="1em" x="0" class="row">Valid open event</tspan></text></g></g><g class="edgeLabel" transform="translate(968.64453125, 125.20703125)"><g class="label" transform="translate(-81.94140625, -9.5)"><rect rx="0" ry="0" width="163.78610229492188" height="19.000028610229492"></rect><text style=""><tspan xml:space="preserve" dy="1em" x="0" class="row">Fixed attendance page</tspan></text></g></g><g class="edgeLabel" transform="translate(626.9921875, 345.982421875)"><g class="label" transform="translate(-127.03125, -9.5)"><rect rx="0" ry="0" width="253.908203125" height="19.000028610229492"></rect><text style=""><tspan xml:space="preserve" dy="1em" x="0" class="row">Submitted fixed attendance details</tspan></text></g></g><g class="edgeLabel"><g class="label" transform="translate(0, 0)"><rect rx="0" ry="0" width="0" height="0"></rect><text style=""><tspan xml:space="preserve" dy="1em" x="0" class="row"></tspan></text></g></g><g class="edgeLabel"><g class="label" transform="translate(0, 0)"><rect rx="0" ry="0" width="0" height="0"></rect><text style=""><tspan xml:space="preserve" dy="1em" x="0" class="row"></tspan></text></g></g><g class="edgeLabel"><g class="label" transform="translate(0, 0)"><rect rx="0" ry="0" width="0" height="0"></rect><text style=""><tspan xml:space="preserve" dy="1em" x="0" class="row"></tspan></text></g></g><g class="edgeLabel"><g class="label" transform="translate(0, 0)"><rect rx="0" ry="0" width="0" height="0"></rect><text style=""><tspan xml:space="preserve" dy="1em" x="0" class="row"></tspan></text></g></g><g class="edgeLabel"><g class="label" transform="translate(0, 0)"><rect rx="0" ry="0" width="0" height="0"></rect><text style=""><tspan xml:space="preserve" dy="1em" x="0" class="row"></tspan></text></g></g><g class="edgeLabel"><g class="label" transform="translate(0, 0)"><rect rx="0" ry="0" width="0" height="0"></rect><text style=""><tspan xml:space="preserve" dy="1em" x="0" class="row"></tspan></text></g></g><g class="edgeLabel"><g class="label" transform="translate(0, 0)"><rect rx="0" ry="0" width="0" height="0"></rect><text style=""><tspan xml:space="preserve" dy="1em" x="0" class="row"></tspan></text></g></g><g class="edgeLabel"><g class="label" transform="translate(0, 0)"><rect rx="0" ry="0" width="0" height="0"></rect><text style=""><tspan xml:space="preserve" dy="1em" x="0" class="row"></tspan></text></g></g><g class="edgeLabel"><g class="label" transform="translate(0, 0)"><rect rx="0" ry="0" width="0" height="0"></rect><text style=""><tspan xml:space="preserve" dy="1em" x="0" class="row"></tspan></text></g></g><g class="edgeLabel" transform="translate(2082.72265625, 95.70703125)"><g class="label" transform="translate(-127.12890625, -9.5)"><rect rx="0" ry="0" width="254.10470581054688" height="19.000028610229492"></rect><text style=""><tspan xml:space="preserve" dy="1em" x="0" class="row">Confirmation or validation message</tspan></text></g></g><g class="edgeLabel" transform="translate(968.64453125, 1795.7847709655762)"><g class="label" transform="translate(-152.30078125, -9.5)"><rect rx="0" ry="0" width="304.4169616699219" height="19.000028610229492"></rect><text style=""><tspan xml:space="preserve" dy="1em" x="0" class="row">Search, view, or submit status with reason</tspan></text></g></g><g class="edgeLabel"><g class="label" transform="translate(0, 0)"><rect rx="0" ry="0" width="0" height="0"></rect><text style=""><tspan xml:space="preserve" dy="1em" x="0" class="row"></tspan></text></g></g><g class="edgeLabel"><g class="label" transform="translate(0, 0)"><rect rx="0" ry="0" width="0" height="0"></rect><text style=""><tspan xml:space="preserve" dy="1em" x="0" class="row"></tspan></text></g></g><g class="edgeLabel"><g class="label" transform="translate(0, 0)"><rect rx="0" ry="0" width="0" height="0"></rect><text style=""><tspan xml:space="preserve" dy="1em" x="0" class="row"></tspan></text></g></g><g class="edgeLabel"><g class="label" transform="translate(0, 0)"><rect rx="0" ry="0" width="0" height="0"></rect><text style=""><tspan xml:space="preserve" dy="1em" x="0" class="row"></tspan></text></g></g><g class="edgeLabel" transform="translate(968.64453125, 934.796875)"><g class="label" transform="translate(-150.18359375, -9.5)"><rect rx="0" ry="0" width="300.1839599609375" height="19.000028610229492"></rect><text style=""><tspan xml:space="preserve" dy="1em" x="0" class="row">Paginated records, detail, or status result</tspan></text></g></g><g class="edgeLabel" transform="translate(626.9921875, 1473.0777397155762)"><g class="label" transform="translate(-164.3515625, -9.5)"><rect rx="0" ry="0" width="328.5034484863281" height="19.000028610229492"></rect><text style=""><tspan xml:space="preserve" dy="1em" x="0" class="row">Select one event and request attendance PDF</tspan></text></g></g><g class="edgeLabel"><g class="label" transform="translate(0, 0)"><rect rx="0" ry="0" width="0" height="0"></rect><text style=""><tspan xml:space="preserve" dy="1em" x="0" class="row"></tspan></text></g></g><g class="edgeLabel"><g class="label" transform="translate(0, 0)"><rect rx="0" ry="0" width="0" height="0"></rect><text style=""><tspan xml:space="preserve" dy="1em" x="0" class="row"></tspan></text></g></g><g class="edgeLabel"><g class="label" transform="translate(0, 0)"><rect rx="0" ry="0" width="0" height="0"></rect><text style=""><tspan xml:space="preserve" dy="1em" x="0" class="row"></tspan></text></g></g><g class="edgeLabel"><g class="label" transform="translate(0, 0)"><rect rx="0" ry="0" width="0" height="0"></rect><text style=""><tspan xml:space="preserve" dy="1em" x="0" class="row"></tspan></text></g></g><g class="edgeLabel"><g class="label" transform="translate(0, 0)"><rect rx="0" ry="0" width="0" height="0"></rect><text style=""><tspan xml:space="preserve" dy="1em" x="0" class="row"></tspan></text></g></g><g class="edgeLabel"><g class="label" transform="translate(0, 0)"><rect rx="0" ry="0" width="0" height="0"></rect><text style=""><tspan xml:space="preserve" dy="1em" x="0" class="row"></tspan></text></g></g><g class="edgeLabel"><g class="label" transform="translate(0, 0)"><rect rx="0" ry="0" width="0" height="0"></rect><text style=""><tspan xml:space="preserve" dy="1em" x="0" class="row"></tspan></text></g></g><g class="edgeLabel"><g class="label" transform="translate(0, 0)"><rect rx="0" ry="0" width="0" height="0"></rect><text style=""><tspan xml:space="preserve" dy="1em" x="0" class="row"></tspan></text></g></g><g class="edgeLabel" transform="translate(1433.5, 905.296875)"><g class="label" transform="translate(-136.63671875, -9.5)"><rect rx="0" ry="0" width="273.1083984375" height="19.000028610229492"></rect><text style=""><tspan xml:space="preserve" dy="1em" x="0" class="row">Private downloadable attendance PDF</tspan></text></g></g><g class="edgeLabel"><g class="label" transform="translate(0, 0)"><rect rx="0" ry="0" width="0" height="0"></rect><text style=""><tspan xml:space="preserve" dy="1em" x="0" class="row"></tspan></text></g></g><g class="edgeLabel"><g class="label" transform="translate(0, 0)"><rect rx="0" ry="0" width="0" height="0"></rect><text style=""><tspan xml:space="preserve" dy="1em" x="0" class="row"></tspan></text></g></g></g><g class="nodes"><g class="node default default flowchart-label" id="flowchart-attendee-0" data-node="true" data-id="attendee" transform="translate(218.8203125, 337.662109375)"><rect class="basic label-container" style="" rx="0" ry="0" x="-72.45703125" y="-17" width="144.9140625" height="34"></rect><g class="label" style="" transform="translate(0, -9.5)"><rect></rect><text style=""><tspan xml:space="preserve" dy="1em" x="0" class="row">External Attendee</tspan></text></g></g><g class="node default default flowchart-label" id="flowchart-admin-1" data-node="true" data-id="admin" transform="translate(218.8203125, 1377.123046875)"><rect class="basic label-container" style="" rx="0" ry="0" x="-115.125" y="-17" width="230.25" height="34"></rect><g class="label" style="" transform="translate(0, -9.5)"><rect></rect><text style=""><tspan xml:space="preserve" dy="1em" x="0" class="row">Super Admin / Program Admin</tspan></text></g></g><g class="node default note flowchart-label" id="flowchart-note_template-2" data-node="true" data-id="note_template" transform="translate(218.8203125, 1461.123046875)"><rect class="basic label-container" style="" rx="0" ry="0" x="-218.8203125" y="-17" width="437.640625" height="34"></rect><g class="label" style="" transform="translate(0, -9.5)"><rect></rect><text style=""><tspan xml:space="preserve" dy="1em" x="0" class="row">Note: Formatting uses fixed DICT attendance sheet layout.</tspan></text></g></g><g class="node default default flowchart-label" id="flowchart-p51-3" data-node="true" data-id="p51" transform="translate(968.64453125, 718.27734375)"><circle style="" rx="0" ry="0" r="124.85546875" width="249.7109375" height="34"></circle><g class="label" style="" transform="translate(0, -9.5)"><rect></rect><text style=""><tspan xml:space="preserve" dy="1em" x="0" class="row">5.1 Open Public Attendance Link</tspan></text></g></g><g class="node default default flowchart-label" id="flowchart-p52-4" data-node="true" data-id="p52" transform="translate(1433.5, 621.119140625)"><circle style="" rx="0" ry="0" r="130.68359375" width="261.3671875" height="34"></circle><g class="label" style="" transform="translate(0, -9.5)"><rect></rect><text style=""><tspan xml:space="preserve" dy="1em" x="0" class="row">5.2 Display Fixed Attendance Page</tspan></text></g></g><g class="node default default flowchart-label" id="flowchart-p53-5" data-node="true" data-id="p53" transform="translate(968.64453125, 345.982421875)"><circle style="" rx="0" ry="0" r="116.32421875" width="232.6484375" height="34"></circle><g class="label" style="" transform="translate(0, -9.5)"><rect></rect><text style=""><tspan xml:space="preserve" dy="1em" x="0" class="row">5.3 Submit Attendance Details</tspan></text></g></g><g class="node default default flowchart-label" id="flowchart-p61-6" data-node="true" data-id="p61" transform="translate(1433.5, 342.892578125)"><circle style="" rx="0" ry="0" r="97.54296875" width="195.0859375" height="34"></circle><g class="label" style="" transform="translate(0, -9.5)"><rect></rect><text style=""><tspan xml:space="preserve" dy="1em" x="0" class="row">6.1 Validate Event Status</tspan></text></g></g><g class="node default default flowchart-label" id="flowchart-p62-7" data-node="true" data-id="p62" transform="translate(1777.6328125, 332.892578125)"><circle style="" rx="0" ry="0" r="144.671875" width="289.34375" height="34"></circle><g class="label" style="" transform="translate(0, -9.5)"><rect></rect><text style=""><tspan xml:space="preserve" dy="1em" x="0" class="row">6.2 Validate Event Field Requirements</tspan></text></g></g><g class="node default default flowchart-label" id="flowchart-p63-8" data-node="true" data-id="p63" transform="translate(2360.0234375, 332.892578125)"><circle style="" rx="0" ry="0" r="125.171875" width="250.34375" height="34"></circle><g class="label" style="" transform="translate(0, -9.5)"><rect></rect><text style=""><tspan xml:space="preserve" dy="1em" x="0" class="row">6.3 Validate Contact Information</tspan></text></g></g><g class="node default default flowchart-label" id="flowchart-p64-9" data-node="true" data-id="p64" transform="translate(2684.33984375, 332.892578125)"><circle style="" rx="0" ry="0" r="149.14453125" width="298.2890625" height="34"></circle><g class="label" style="" transform="translate(0, -9.5)"><rect></rect><text style=""><tspan xml:space="preserve" dy="1em" x="0" class="row">6.4 Check Duplicate Within Same Event</tspan></text></g></g><g class="node default default flowchart-label" id="flowchart-p65-10" data-node="true" data-id="p65" transform="translate(2993.59765625, 260.3359375)"><circle style="" rx="0" ry="0" r="110.11328125" width="220.2265625" height="34"></circle><g class="label" style="" transform="translate(0, -9.5)"><rect></rect><text style=""><tspan xml:space="preserve" dy="1em" x="0" class="row">6.5 Store Attendance Record</tspan></text></g></g><g class="node default default flowchart-label" id="flowchart-p66-11" data-node="true" data-id="p66" transform="translate(3259.41796875, 105.70703125)"><circle style="" rx="0" ry="0" r="105.70703125" width="211.4140625" height="34"></circle><g class="label" style="" transform="translate(0, -9.5)"><rect></rect><text style=""><tspan xml:space="preserve" dy="1em" x="0" class="row">6.6 Show Submission Result</tspan></text></g></g><g class="node default default flowchart-label" id="flowchart-p67-12" data-node="true" data-id="p67" transform="translate(1433.5, 1599.6128959655762)"><circle style="" rx="0" ry="0" r="141.171875" width="282.34375" height="34"></circle><g class="label" style="" transform="translate(0, -9.5)"><rect></rect><text style=""><tspan xml:space="preserve" dy="1em" x="0" class="row">6.7 Review Attendance Record Status</tspan></text></g></g><g class="node default default flowchart-label" id="flowchart-p71-13" data-node="true" data-id="p71" transform="translate(968.64453125, 1473.0777397155762)"><circle style="" rx="0" ry="0" r="144.5703125" width="289.140625" height="34"></circle><g class="label" style="" transform="translate(0, -9.5)"><rect></rect><text style=""><tspan xml:space="preserve" dy="1em" x="0" class="row">7.1 Select Event for Attendance Sheet</tspan></text></g></g><g class="node default default flowchart-label" id="flowchart-p72-14" data-node="true" data-id="p72" transform="translate(1433.5, 1202.54296875)"><circle style="" rx="0" ry="0" r="124.6875" width="249.375" height="34"></circle><g class="label" style="" transform="translate(0, -9.5)"><rect></rect><text style=""><tspan xml:space="preserve" dy="1em" x="0" class="row">7.2 Retrieve Attendance Records</tspan></text></g></g><g class="node default default flowchart-label" id="flowchart-p73-15" data-node="true" data-id="p73" transform="translate(1777.6328125, 1108.5625)"><circle style="" rx="0" ry="0" r="152.9609375" width="305.921875" height="34"></circle><g class="label" style="" transform="translate(0, -9.5)"><rect></rect><text style=""><tspan xml:space="preserve" dy="1em" x="0" class="row">7.3 Format Records Using DICT Template</tspan></text></g></g><g class="node default default flowchart-label" id="flowchart-p74-16" data-node="true" data-id="p74" transform="translate(2360.0234375, 999.27734375)"><circle style="" rx="0" ry="0" r="122.97265625" width="245.9453125" height="34"></circle><g class="label" style="" transform="translate(0, -9.5)"><rect></rect><text style=""><tspan xml:space="preserve" dy="1em" x="0" class="row">7.4 Generate Downloadable File</tspan></text></g></g><g class="node default default flowchart-label" id="flowchart-p75-17" data-node="true" data-id="p75" transform="translate(2684.33984375, 728.982421875)"><circle style="" rx="0" ry="0" r="81.4921875" width="162.984375" height="34"></circle><g class="label" style="" transform="translate(0, -9.5)"><rect></rect><text style=""><tspan xml:space="preserve" dy="1em" x="0" class="row">7.5 Record Audit Log</tspan></text></g></g><g class="node default default flowchart-label" id="flowchart-d2-18" label-offset-y="16.91608900386007" data-node="true" data-id="d2" transform="translate(1777.6328125, 1765.7847709655762)"><path style="" d="M 0,16.91608900386007 a 130.78515625,16.91608900386007 0,0,0 261.5703125 0 a 130.78515625,16.91608900386007 0,0,0 -261.5703125 0 l 0,50.916089003860066 a 130.78515625,16.91608900386007 0,0,0 261.5703125 0 l 0,-50.916089003860066" transform="translate(-130.78515625,-42.3741335057901)"></path><g class="label" style="" transform="translate(0, -9.5)"><rect></rect><text style=""><tspan xml:space="preserve" dy="1em" x="0" class="row">D2 Roles and Program Assignments</tspan></text></g></g><g class="node default default flowchart-label" id="flowchart-d4-19" label-offset-y="14.765109257458677" data-node="true" data-id="d4" transform="translate(1777.6328125, 1413.4410209655762)"><path style="" d="M 0,14.765109257458677 a 90.1640625,14.765109257458677 0,0,0 180.328125 0 a 90.1640625,14.765109257458677 0,0,0 -180.328125 0 l 0,48.765109257458676 a 90.1640625,14.765109257458677 0,0,0 180.328125 0 l 0,-48.765109257458676" transform="translate(-90.1640625,-39.14766388618801)"></path><g class="label" style="" transform="translate(0, -9.5)"><rect></rect><text style=""><tspan xml:space="preserve" dy="1em" x="0" class="row">D4 Event Configuration</tspan></text></g></g><g class="node default default flowchart-label" id="flowchart-d5-20" label-offset-y="14.764061620349047" data-node="true" data-id="d5" transform="translate(3259.41796875, 1098.9203071594238)"><path style="" d="M 0,14.764061620349047 a 90.1484375,14.764061620349047 0,0,0 180.296875 0 a 90.1484375,14.764061620349047 0,0,0 -180.296875 0 l 0,48.76406162034905 a 90.1484375,14.764061620349047 0,0,0 180.296875 0 l 0,-48.76406162034905" transform="translate(-90.1484375,-39.14609243052357)"></path><g class="label" style="" transform="translate(0, -9.5)"><rect></rect><text style=""><tspan xml:space="preserve" dy="1em" x="0" class="row">D5 Attendance Records</tspan></text></g></g><g class="node default default flowchart-label" id="flowchart-d6-21" label-offset-y="16.01930848675348" data-node="true" data-id="d6" transform="translate(2684.33984375, 1164.528486251831)"><path style="" d="M 0,16.01930848675348 a 111.484375,16.01930848675348 0,0,0 222.96875 0 a 111.484375,16.01930848675348 0,0,0 -222.96875 0 l 0,50.01930848675348 a 111.484375,16.01930848675348 0,0,0 222.96875 0 l 0,-50.01930848675348" transform="translate(-111.484375,-41.02896273013022)"></path><g class="label" style="" transform="translate(0, -9.5)"><rect></rect><text style=""><tspan xml:space="preserve" dy="1em" x="0" class="row">D6 Attendance Sheet Exports</tspan></text></g></g><g class="node default default flowchart-label" id="flowchart-d7-22" label-offset-y="11.796501072784288" data-node="true" data-id="d7" transform="translate(2993.59765625, 1548.6007919311523)"><path style="" d="M 0,11.796501072784288 a 55.83984375,11.796501072784288 0,0,0 111.6796875 0 a 55.83984375,11.796501072784288 0,0,0 -111.6796875 0 l 0,45.79650107278429 a 55.83984375,11.796501072784288 0,0,0 111.6796875 0 l 0,-45.79650107278429" transform="translate(-55.83984375,-34.694751609176436)"></path><g class="label" style="" transform="translate(0, -9.5)"><rect></rect><text style=""><tspan xml:space="preserve" dy="1em" x="0" class="row">D7 Audit Logs</tspan></text></g></g></g></g></g></svg>