<svg id="mermaid-1782973034917" width="3413.125" xmlns="http://www.w3.org/2000/svg" xmlns:xlink="http://www.w3.org/1999/xlink" height="1515.282958984375" viewBox="-8 -8 3413.125 1515.282958984375" role="graphics-document document" aria-roledescription="flowchart-v2">
<rect x="-100000" y="-100000" width="200000" height="200000" fill="#000000"/>
<style>#mermaid-1782973034917{font-family:"trebuchet ms",verdana,arial,sans-serif;font-size:16px;fill:#ccc;}#mermaid-1782973034917 .error-icon{fill:#a44141;}#mermaid-1782973034917 .error-text{fill:#ddd;stroke:#ddd;}#mermaid-1782973034917 .edge-thickness-normal{stroke-width:2px;}#mermaid-1782973034917 .edge-thickness-thick{stroke-width:3.5px;}#mermaid-1782973034917 .edge-pattern-solid{stroke-dasharray:0;}#mermaid-1782973034917 .edge-pattern-dashed{stroke-dasharray:3;}#mermaid-1782973034917 .edge-pattern-dotted{stroke-dasharray:2;}#mermaid-1782973034917 .marker{fill:lightgrey;stroke:lightgrey;}#mermaid-1782973034917 .marker.cross{stroke:lightgrey;}#mermaid-1782973034917 svg{font-family:"trebuchet ms",verdana,arial,sans-serif;font-size:16px;}#mermaid-1782973034917 .label{font-family:"trebuchet ms",verdana,arial,sans-serif;color:#ccc;}#mermaid-1782973034917 .cluster-label text{fill:#F9FFFE;}#mermaid-1782973034917 .cluster-label span,#mermaid-1782973034917 p{color:#F9FFFE;}#mermaid-1782973034917 .label text,#mermaid-1782973034917 span,#mermaid-1782973034917 p{fill:#ccc;color:#ccc;}#mermaid-1782973034917 .node rect,#mermaid-1782973034917 .node circle,#mermaid-1782973034917 .node ellipse,#mermaid-1782973034917 .node polygon,#mermaid-1782973034917 .node path{fill:#1f2020;stroke:#81B1DB;stroke-width:1px;}#mermaid-1782973034917 .flowchart-label text{text-anchor:middle;}#mermaid-1782973034917 .node .katex path{fill:#000;stroke:#000;stroke-width:1px;}#mermaid-1782973034917 .node .label{text-align:center;}#mermaid-1782973034917 .node.clickable{cursor:pointer;}#mermaid-1782973034917 .arrowheadPath{fill:lightgrey;}#mermaid-1782973034917 .edgePath .path{stroke:lightgrey;stroke-width:2.0px;}#mermaid-1782973034917 .flowchart-link{stroke:lightgrey;fill:none;}#mermaid-1782973034917 .edgeLabel{background-color:hsl(0, 0%, 34.4117647059%);text-align:center;}#mermaid-1782973034917 .edgeLabel rect{opacity:0.5;background-color:hsl(0, 0%, 34.4117647059%);fill:hsl(0, 0%, 34.4117647059%);}#mermaid-1782973034917 .labelBkg{background-color:rgba(87.75, 87.75, 87.75, 0.5);}#mermaid-1782973034917 .cluster rect{fill:hsl(180, 1.5873015873%, 28.3529411765%);stroke:rgba(255, 255, 255, 0.25);stroke-width:1px;}#mermaid-1782973034917 .cluster text{fill:#F9FFFE;}#mermaid-1782973034917 .cluster span,#mermaid-1782973034917 p{color:#F9FFFE;}#mermaid-1782973034917 div.mermaidTooltip{position:absolute;text-align:center;max-width:200px;padding:2px;font-family:"trebuchet ms",verdana,arial,sans-serif;font-size:12px;background:hsl(20, 1.5873015873%, 12.3529411765%);border:1px solid rgba(255, 255, 255, 0.25);border-radius:2px;pointer-events:none;z-index:100;}#mermaid-1782973034917 .flowchartTitleText{text-anchor:middle;font-size:18px;fill:#ccc;}#mermaid-1782973034917 :root{--mermaid-font-family:"trebuchet ms",verdana,arial,sans-serif;}</style><g><marker id="mermaid-1782973034917_flowchart-pointEnd" class="marker flowchart" viewBox="0 0 10 10" refX="6" refY="5" markerUnits="userSpaceOnUse" markerWidth="12" markerHeight="12" orient="auto"><path d="M 0 0 L 10 5 L 0 10 z" class="arrowMarkerPath" style="stroke-width: 1; stroke-dasharray: 1, 0;"></path></marker><marker id="mermaid-1782973034917_flowchart-pointStart" class="marker flowchart" viewBox="0 0 10 10" refX="4.5" refY="5" markerUnits="userSpaceOnUse" markerWidth="12" markerHeight="12" orient="auto"><path d="M 0 5 L 10 10 L 10 0 z" class="arrowMarkerPath" style="stroke-width: 1; stroke-dasharray: 1, 0;"></path></marker><marker id="mermaid-1782973034917_flowchart-circleEnd" class="marker flowchart" viewBox="0 0 10 10" refX="11" refY="5" markerUnits="userSpaceOnUse" markerWidth="11" markerHeight="11" orient="auto"><circle cx="5" cy="5" r="5" class="arrowMarkerPath" style="stroke-width: 1; stroke-dasharray: 1, 0;"></circle></marker><marker id="mermaid-1782973034917_flowchart-circleStart" class="marker flowchart" viewBox="0 0 10 10" refX="-1" refY="5" markerUnits="userSpaceOnUse" markerWidth="11" markerHeight="11" orient="auto"><circle cx="5" cy="5" r="5" class="arrowMarkerPath" style="stroke-width: 1; stroke-dasharray: 1, 0;"></circle></marker><marker id="mermaid-1782973034917_flowchart-crossEnd" class="marker cross flowchart" viewBox="0 0 11 11" refX="12" refY="5.2" markerUnits="userSpaceOnUse" markerWidth="11" markerHeight="11" orient="auto"><path d="M 1,1 l 9,9 M 10,1 l -9,9" class="arrowMarkerPath" style="stroke-width: 2; stroke-dasharray: 1, 0;"></path></marker><marker id="mermaid-1782973034917_flowchart-crossStart" class="marker cross flowchart" viewBox="0 0 11 11" refX="-1" refY="5.2" markerUnits="userSpaceOnUse" markerWidth="11" markerHeight="11" orient="auto"><path d="M 1,1 l 9,9 M 10,1 l -9,9" class="arrowMarkerPath" style="stroke-width: 2; stroke-dasharray: 1, 0;"></path></marker><g class="root"><g class="clusters"></g><g class="edgePaths"><path d="M136.535,1157.181L182.134,1193.389C227.734,1229.596,318.933,1302.012,396.916,1338.22C474.899,1374.427,539.665,1374.427,572.048,1374.427L604.43,1374.427" id="L-attendee-p51-0" class=" edge-thickness-normal edge-pattern-solid flowchart-link LS-attendee LE-p51" style="fill:none;" marker-end="url(#mermaid-1782973034917_flowchart-pointEnd)"></path><path d="M857.056,1418.489L875.022,1424.952C892.987,1431.416,928.917,1444.342,982.962,1450.806C1037.007,1457.269,1109.165,1457.269,1195.756,1457.269C1282.346,1457.269,1383.368,1457.269,1483.558,1390.357C1583.747,1323.446,1683.103,1189.622,1732.781,1122.71L1782.459,1055.798" id="L-p51-d4-0" class=" edge-thickness-normal edge-pattern-solid flowchart-link LS-p51 LE-d4" style="fill:none;" marker-start="url(#mermaid-1782973034917_flowchart-pointStart)" marker-end="url(#mermaid-1782973034917_flowchart-pointEnd)"></path><path d="M852.069,1332.16L870.866,1325.398C889.662,1318.635,927.255,1305.11,959.467,1298.348C991.679,1291.586,1018.51,1291.586,1031.925,1291.586L1045.341,1291.586" id="L-p51-p52-0" class=" edge-thickness-normal edge-pattern-solid flowchart-link LS-p51 LE-p52" style="fill:none;" marker-end="url(#mermaid-1782973034917_flowchart-pointEnd)"></path><path d="M1132.724,1170.275L1104.745,1100.435C1076.765,1030.596,1020.807,890.917,954.45,821.077C888.094,751.237,811.34,751.237,718.887,751.237C626.435,751.237,518.284,751.237,417.723,812.524C317.163,873.811,224.192,996.384,177.707,1057.671L131.222,1118.958" id="L-p52-attendee-0" class=" edge-thickness-normal edge-pattern-solid flowchart-link LS-p52 LE-attendee" style="fill:none;" marker-end="url(#mermaid-1782973034917_flowchart-pointEnd)"></path><path d="M152.748,1123.181L195.646,1103.798C238.543,1084.415,324.338,1045.649,401.04,1026.266C477.742,1006.883,545.352,1006.883,579.157,1006.883L612.962,1006.883" id="L-attendee-p53-0" class=" edge-thickness-normal edge-pattern-solid flowchart-link LS-attendee LE-p53" style="fill:none;" marker-end="url(#mermaid-1782973034917_flowchart-pointEnd)"></path><path d="M850.91,1006.883L869.9,1006.883C888.889,1006.883,926.868,1006.883,964.797,1006.883C1002.726,1006.883,1040.603,1006.883,1059.542,1006.883L1078.481,1006.883" id="L-p53-p61-0" class=" edge-thickness-normal edge-pattern-solid flowchart-link LS-p53 LE-p61" style="fill:none;" marker-end="url(#mermaid-1782973034917_flowchart-pointEnd)"></path><path d="M1284.111,1010.274L1317.491,1011.375C1350.871,1012.477,1417.631,1014.68,1497.231,1016.381C1576.831,1018.081,1669.272,1019.28,1715.492,1019.88L1761.712,1020.479" id="L-p61-d4-0" class=" edge-thickness-normal edge-pattern-solid flowchart-link LS-p61 LE-d4" style="fill:none;" marker-start="url(#mermaid-1782973034917_flowchart-pointStart)" marker-end="url(#mermaid-1782973034917_flowchart-pointEnd)"></path><path d="M1278.814,1003.666L1313.077,1002.535C1347.34,1001.405,1415.865,999.144,1488.562,1023.359C1561.259,1047.574,1638.128,1098.266,1676.562,1123.612L1714.996,1148.958" id="L-p61-p62-0" class=" edge-thickness-normal edge-pattern-solid flowchart-link LS-p61 LE-p62" style="fill:none;" marker-end="url(#mermaid-1782973034917_flowchart-pointEnd)"></path><path d="M1917.695,1211.368L1950.533,1211.368C1983.371,1211.368,2049.047,1211.368,2106.356,1211.368C2163.666,1211.368,2212.609,1211.368,2237.08,1211.368L2261.552,1211.368" id="L-p62-p63-0" class=" edge-thickness-normal edge-pattern-solid flowchart-link LS-p62 LE-p63" style="fill:none;" marker-end="url(#mermaid-1782973034917_flowchart-pointEnd)"></path><path d="M2517.195,1211.368L2521.362,1211.368C2525.529,1211.368,2533.862,1211.368,2541.312,1211.368C2548.762,1211.368,2555.329,1211.368,2558.612,1211.368L2561.895,1211.368" id="L-p63-p64-0" class=" edge-thickness-normal edge-pattern-solid flowchart-link LS-p63 LE-p64" style="fill:none;" marker-end="url(#mermaid-1782973034917_flowchart-pointEnd)"></path><path d="M2834.99,1310.238L2844.239,1317.945C2853.488,1325.652,2871.986,1341.066,2903.754,1348.774C2935.522,1356.481,2980.56,1356.481,3025.598,1356.481C3070.635,1356.481,3115.673,1356.481,3156.361,1319.662C3197.049,1282.844,3233.387,1209.207,3251.556,1172.389L3269.725,1135.571" id="L-p64-d5-0" class=" edge-thickness-normal edge-pattern-solid flowchart-link LS-p64 LE-d5" style="fill:none;" marker-start="url(#mermaid-1782973034917_flowchart-pointStart)" marker-end="url(#mermaid-1782973034917_flowchart-pointEnd)"></path><path d="M2819.477,1103.632L2831.311,1091.27C2843.146,1078.908,2866.815,1054.184,2881.933,1041.821C2897.051,1029.459,2903.618,1029.459,2906.901,1029.459L2910.184,1029.459" id="L-p64-p65-0" class=" edge-thickness-normal edge-pattern-solid flowchart-link LS-p64 LE-p65" style="fill:none;" marker-end="url(#mermaid-1782973034917_flowchart-pointEnd)"></path><path d="M3125.521,1075.723L3131.386,1078.438C3137.251,1081.154,3148.981,1086.585,3160.722,1089.3C3172.464,1092.016,3184.217,1092.016,3190.093,1092.016L3195.97,1092.016" id="L-p65-d5-0" class=" edge-thickness-normal edge-pattern-solid flowchart-link LS-p65 LE-d5" style="fill:none;" marker-end="url(#mermaid-1782973034917_flowchart-pointEnd)"></path><path d="M3114.913,965.056L3122.546,959.552C3130.179,954.049,3145.445,943.041,3167.012,907.798C3188.58,872.555,3216.449,813.077,3230.384,783.339L3244.318,753.6" id="L-p65-p66-0" class=" edge-thickness-normal edge-pattern-solid flowchart-link LS-p65 LE-p66" style="fill:none;" marker-end="url(#mermaid-1782973034917_flowchart-pointEnd)"></path><path d="M3197.836,702.237L3191.648,705.487C3185.461,708.737,3173.086,715.237,3144.38,718.487C3115.673,721.737,3070.635,721.737,3025.598,721.737C2980.56,721.737,2935.522,721.737,2883.979,721.737C2832.436,721.737,2774.388,721.737,2716.34,721.737C2658.292,721.737,2600.243,721.737,2546.191,721.737C2492.138,721.737,2442.081,721.737,2370.835,721.737C2299.59,721.737,2207.156,721.737,2110.091,721.737C2013.026,721.737,1911.329,721.737,1806.274,721.737C1701.219,721.737,1592.805,721.737,1488.087,721.737C1383.368,721.737,1282.346,721.737,1195.756,721.737C1109.165,721.737,1037.007,721.737,962.55,721.737C888.094,721.737,811.34,721.737,718.887,721.737C626.435,721.737,518.284,721.737,417.547,787.923C316.81,854.108,223.487,986.478,176.826,1052.664L130.164,1118.849" id="L-p66-attendee-0" class=" edge-thickness-normal edge-pattern-solid flowchart-link LS-p66 LE-attendee" style="fill:none;" marker-end="url(#mermaid-1782973034917_flowchart-pointEnd)"></path><path d="M161.906,363.305L203.277,378.339C244.648,393.373,327.39,423.442,397.859,438.476C468.327,453.51,526.521,453.51,555.618,453.51L584.716,453.51" id="L-admin-p71-0" class=" edge-thickness-normal edge-pattern-solid flowchart-link LS-admin LE-p71" style="fill:none;" marker-end="url(#mermaid-1782973034917_flowchart-pointEnd)"></path><path d="M853.126,545.212L871.746,559.617C890.367,574.022,927.607,602.831,959.626,617.235C991.645,631.64,1018.442,631.64,1031.84,631.64L1045.239,631.64" id="L-p71-d2-0" class=" edge-thickness-normal edge-pattern-solid flowchart-link LS-p71 LE-d2" style="fill:none;" marker-start="url(#mermaid-1782973034917_flowchart-pointStart)" marker-end="url(#mermaid-1782973034917_flowchart-pointEnd)"></path><path d="M871.887,513.589L887.381,520.368C902.874,527.148,933.861,540.707,985.434,547.486C1037.007,554.266,1109.165,554.266,1195.756,554.266C1282.346,554.266,1383.368,554.266,1483.843,626.232C1584.318,698.197,1684.246,842.129,1734.21,914.095L1784.174,986.061" id="L-p71-d4-0" class=" edge-thickness-normal edge-pattern-solid flowchart-link LS-p71 LE-d4" style="fill:none;" marker-start="url(#mermaid-1782973034917_flowchart-pointStart)" marker-end="url(#mermaid-1782973034917_flowchart-pointEnd)"></path><path d="M868.622,399.335L884.659,392.852C900.697,386.37,932.772,373.406,963.225,366.924C993.677,360.441,1022.507,360.441,1036.922,360.441L1051.337,360.441" id="L-p71-p72-0" class=" edge-thickness-normal edge-pattern-solid flowchart-link LS-p71 LE-p72" style="fill:none;" marker-end="url(#mermaid-1782973034917_flowchart-pointEnd)"></path><path d="M1302.992,406.199L1333.225,417.57C1363.458,428.94,1423.924,451.681,1504.72,548.218C1585.516,644.755,1686.642,815.088,1737.205,900.255L1787.767,985.421" id="L-p72-d4-0" class=" edge-thickness-normal edge-pattern-solid flowchart-link LS-p72 LE-d4" style="fill:none;" marker-start="url(#mermaid-1782973034917_flowchart-pointStart)" marker-end="url(#mermaid-1782973034917_flowchart-pointEnd)"></path><path d="M1305.479,398.942L1335.298,408.188C1365.116,417.435,1424.754,435.928,1508.779,445.175C1592.805,454.422,1701.219,454.422,1806.274,454.422C1911.329,454.422,2013.026,454.422,2110.091,454.422C2207.156,454.422,2299.59,454.422,2370.835,454.422C2442.081,454.422,2492.138,454.422,2546.191,454.422C2600.243,454.422,2658.292,454.422,2716.34,454.422C2774.388,454.422,2832.436,454.422,2883.979,454.422C2935.522,454.422,2980.56,454.422,3025.598,454.422C3070.635,454.422,3115.673,454.422,3158.462,553.308C3201.25,652.193,3241.789,849.965,3262.059,948.851L3282.329,1047.736" id="L-p72-d5-0" class=" edge-thickness-normal edge-pattern-solid flowchart-link LS-p72 LE-d5" style="fill:none;" marker-start="url(#mermaid-1782973034917_flowchart-pointStart)" marker-end="url(#mermaid-1782973034917_flowchart-pointEnd)"></path><path d="M1300.417,323.511L1331.079,314.003C1361.742,304.494,1423.066,285.478,1481.559,275.969C1540.051,266.461,1595.711,266.461,1623.542,266.461L1651.372,266.461" id="L-p72-p73-0" class=" edge-thickness-normal edge-pattern-solid flowchart-link LS-p72 LE-p73" style="fill:none;" marker-end="url(#mermaid-1782973034917_flowchart-pointEnd)"></path><path d="M1306.5,17L1336.148,17C1365.797,17,1425.094,17,1488.02,42.524C1550.946,68.048,1617.501,119.096,1650.779,144.62L1684.056,170.144" id="L-template-p73-0" class=" edge-thickness-normal edge-pattern-solid flowchart-link LS-template LE-p73" style="fill:none;" marker-end="url(#mermaid-1782973034917_flowchart-pointEnd)"></path><path d="M1962.594,266.461L1987.949,266.461C2013.303,266.461,2064.013,266.461,2115.337,257.66C2166.661,248.858,2218.6,231.256,2244.569,222.455L2270.538,213.653" id="L-p73-p74-0" class=" edge-thickness-normal edge-pattern-solid flowchart-link LS-p73 LE-p74" style="fill:none;" marker-end="url(#mermaid-1782973034917_flowchart-pointEnd)"></path><path d="M2479.044,259.37L2489.569,269.879C2500.094,280.389,2521.145,301.408,2541.23,311.917C2561.315,322.427,2580.435,322.427,2589.995,322.427L2599.555,322.427" id="L-p74-d6-0" class=" edge-thickness-normal edge-pattern-solid flowchart-link LS-p74 LE-d6" style="fill:none;" marker-end="url(#mermaid-1782973034917_flowchart-pointEnd)"></path><path d="M2275.558,133.009L2248.752,123.924C2221.946,114.839,2168.334,96.67,2090.68,87.585C2013.026,78.5,1911.329,78.5,1806.274,78.5C1701.219,78.5,1592.805,78.5,1488.087,78.5C1383.368,78.5,1282.346,78.5,1195.756,78.5C1109.165,78.5,1037.007,78.5,962.55,78.5C888.094,78.5,811.34,78.5,718.887,78.5C626.435,78.5,518.284,78.5,418.816,119.707C319.347,160.914,228.562,243.328,183.169,284.535L137.776,325.742" id="L-p74-admin-0" class=" edge-thickness-normal edge-pattern-solid flowchart-link LS-p74 LE-admin" style="fill:none;" marker-end="url(#mermaid-1782973034917_flowchart-pointEnd)"></path><path d="M2498.656,111.229L2505.913,107.061C2513.169,102.893,2527.682,94.556,2549.498,90.388C2571.313,86.22,2600.43,86.22,2614.989,86.22L2629.548,86.22" id="L-p74-p75-0" class=" edge-thickness-normal edge-pattern-solid flowchart-link LS-p74 LE-p75" style="fill:none;" marker-end="url(#mermaid-1782973034917_flowchart-pointEnd)"></path><path d="M2797.832,86.22L2813.274,86.22C2828.716,86.22,2859.6,86.22,2887.371,86.22C2915.142,86.22,2939.8,86.22,2952.129,86.22L2964.458,86.22" id="L-p75-d7-0" class=" edge-thickness-normal edge-pattern-solid flowchart-link LS-p75 LE-d7" style="fill:none;" marker-end="url(#mermaid-1782973034917_flowchart-pointEnd)"></path></g><g class="edgeLabels"><g class="edgeLabel" transform="translate(410.1328125, 1374.4274425506592)"><g class="label" transform="translate(-105.2578125, -9.5)"><rect rx="0" ry="0" width="210.38966369628906" height="19.000022888183594"></rect><text style=""><tspan xml:space="preserve" dy="1em" x="0" class="row">Scans QR or opens public link</tspan></text></g></g><g class="edgeLabel"><g class="label" transform="translate(0, 0)"><rect rx="0" ry="0" width="0" height="0"></rect><text style=""><tspan xml:space="preserve" dy="1em" x="0" class="row"></tspan></text></g></g><g class="edgeLabel" transform="translate(964.84765625, 1291.5856456756592)"><g class="label" transform="translate(-60.69140625, -9.5)"><rect rx="0" ry="0" width="121.31197357177734" height="19.000022888183594"></rect><text style=""><tspan xml:space="preserve" dy="1em" x="0" class="row">Valid open event</tspan></text></g></g><g class="edgeLabel" transform="translate(734.5859375, 751.2372093200684)"><g class="label" transform="translate(-81.94140625, -9.5)"><rect rx="0" ry="0" width="163.78604125976562" height="19.000022888183594"></rect><text style=""><tspan xml:space="preserve" dy="1em" x="0" class="row">Fixed attendance page</tspan></text></g></g><g class="edgeLabel" transform="translate(410.1328125, 1006.8825206756592)"><g class="label" transform="translate(-127.03125, -9.5)"><rect rx="0" ry="0" width="253.90811157226562" height="19.000022888183594"></rect><text style=""><tspan xml:space="preserve" dy="1em" x="0" class="row">Submitted fixed attendance details</tspan></text></g></g><g class="edgeLabel"><g class="label" transform="translate(0, 0)"><rect rx="0" ry="0" width="0" height="0"></rect><text style=""><tspan xml:space="preserve" dy="1em" x="0" class="row"></tspan></text></g></g><g class="edgeLabel"><g class="label" transform="translate(0, 0)"><rect rx="0" ry="0" width="0" height="0"></rect><text style=""><tspan xml:space="preserve" dy="1em" x="0" class="row"></tspan></text></g></g><g class="edgeLabel"><g class="label" transform="translate(0, 0)"><rect rx="0" ry="0" width="0" height="0"></rect><text style=""><tspan xml:space="preserve" dy="1em" x="0" class="row"></tspan></text></g></g><g class="edgeLabel"><g class="label" transform="translate(0, 0)"><rect rx="0" ry="0" width="0" height="0"></rect><text style=""><tspan xml:space="preserve" dy="1em" x="0" class="row"></tspan></text></g></g><g class="edgeLabel"><g class="label" transform="translate(0, 0)"><rect rx="0" ry="0" width="0" height="0"></rect><text style=""><tspan xml:space="preserve" dy="1em" x="0" class="row"></tspan></text></g></g><g class="edgeLabel"><g class="label" transform="translate(0, 0)"><rect rx="0" ry="0" width="0" height="0"></rect><text style=""><tspan xml:space="preserve" dy="1em" x="0" class="row"></tspan></text></g></g><g class="edgeLabel"><g class="label" transform="translate(0, 0)"><rect rx="0" ry="0" width="0" height="0"></rect><text style=""><tspan xml:space="preserve" dy="1em" x="0" class="row"></tspan></text></g></g><g class="edgeLabel"><g class="label" transform="translate(0, 0)"><rect rx="0" ry="0" width="0" height="0"></rect><text style=""><tspan xml:space="preserve" dy="1em" x="0" class="row"></tspan></text></g></g><g class="edgeLabel"><g class="label" transform="translate(0, 0)"><rect rx="0" ry="0" width="0" height="0"></rect><text style=""><tspan xml:space="preserve" dy="1em" x="0" class="row"></tspan></text></g></g><g class="edgeLabel" transform="translate(2114.72265625, 721.7372093200684)"><g class="label" transform="translate(-127.12890625, -9.5)"><rect rx="0" ry="0" width="254.1046142578125" height="19.000022888183594"></rect><text style=""><tspan xml:space="preserve" dy="1em" x="0" class="row">Confirmation or validation message</tspan></text></g></g><g class="edgeLabel" transform="translate(410.1328125, 453.5100688934326)"><g class="label" transform="translate(-154.8828125, -9.5)"><rect rx="0" ry="0" width="309.576416015625" height="19.000022888183594"></rect><text style=""><tspan xml:space="preserve" dy="1em" x="0" class="row">Select event and request attendance sheet</tspan></text></g></g><g class="edgeLabel"><g class="label" transform="translate(0, 0)"><rect rx="0" ry="0" width="0" height="0"></rect><text style=""><tspan xml:space="preserve" dy="1em" x="0" class="row"></tspan></text></g></g><g class="edgeLabel"><g class="label" transform="translate(0, 0)"><rect rx="0" ry="0" width="0" height="0"></rect><text style=""><tspan xml:space="preserve" dy="1em" x="0" class="row"></tspan></text></g></g><g class="edgeLabel"><g class="label" transform="translate(0, 0)"><rect rx="0" ry="0" width="0" height="0"></rect><text style=""><tspan xml:space="preserve" dy="1em" x="0" class="row"></tspan></text></g></g><g class="edgeLabel"><g class="label" transform="translate(0, 0)"><rect rx="0" ry="0" width="0" height="0"></rect><text style=""><tspan xml:space="preserve" dy="1em" x="0" class="row"></tspan></text></g></g><g class="edgeLabel"><g class="label" transform="translate(0, 0)"><rect rx="0" ry="0" width="0" height="0"></rect><text style=""><tspan xml:space="preserve" dy="1em" x="0" class="row"></tspan></text></g></g><g class="edgeLabel"><g class="label" transform="translate(0, 0)"><rect rx="0" ry="0" width="0" height="0"></rect><text style=""><tspan xml:space="preserve" dy="1em" x="0" class="row"></tspan></text></g></g><g class="edgeLabel" transform="translate(1484.390625, 17)"><g class="label" transform="translate(-147.28125, -9.5)"><rect rx="0" ry="0" width="294.3840637207031" height="19.000022888183594"></rect><text style=""><tspan xml:space="preserve" dy="1em" x="0" class="row">Required columns, layout, privacy notice</tspan></text></g></g><g class="edgeLabel"><g class="label" transform="translate(0, 0)"><rect rx="0" ry="0" width="0" height="0"></rect><text style=""><tspan xml:space="preserve" dy="1em" x="0" class="row"></tspan></text></g></g><g class="edgeLabel"><g class="label" transform="translate(0, 0)"><rect rx="0" ry="0" width="0" height="0"></rect><text style=""><tspan xml:space="preserve" dy="1em" x="0" class="row"></tspan></text></g></g><g class="edgeLabel" transform="translate(1181.32421875, 78.5)"><g class="label" transform="translate(-115.51171875, -9.5)"><rect rx="0" ry="0" width="230.88343811035156" height="19.000022888183594"></rect><text style=""><tspan xml:space="preserve" dy="1em" x="0" class="row">Downloadable attendance sheet</tspan></text></g></g><g class="edgeLabel"><g class="label" transform="translate(0, 0)"><rect rx="0" ry="0" width="0" height="0"></rect><text style=""><tspan xml:space="preserve" dy="1em" x="0" class="row"></tspan></text></g></g><g class="edgeLabel"><g class="label" transform="translate(0, 0)"><rect rx="0" ry="0" width="0" height="0"></rect><text style=""><tspan xml:space="preserve" dy="1em" x="0" class="row"></tspan></text></g></g></g><g class="nodes"><g class="node default default flowchart-label" id="flowchart-attendee-0" data-node="true" data-id="attendee" transform="translate(115.125, 1140.1807708740234)"><rect class="basic label-container" style="" rx="0" ry="0" x="-72.45703125" y="-17" width="144.9140625" height="34"></rect><g class="label" style="" transform="translate(0, -9.5)"><rect></rect><text style=""><tspan xml:space="preserve" dy="1em" x="0" class="row">External Attendee</tspan></text></g></g><g class="node default default flowchart-label" id="flowchart-admin-1" data-node="true" data-id="admin" transform="translate(115.125, 346.3046875)"><rect class="basic label-container" style="" rx="0" ry="0" x="-115.125" y="-17" width="230.25" height="34"></rect><g class="label" style="" transform="translate(0, -9.5)"><rect></rect><text style=""><tspan xml:space="preserve" dy="1em" x="0" class="row">Super Admin / Program Admin</tspan></text></g></g><g class="node default default flowchart-label" id="flowchart-template-2" data-node="true" data-id="template" transform="translate(1181.32421875, 17)"><rect class="basic label-container" style="" rx="0" ry="0" x="-125.17578125" y="-17" width="250.3515625" height="34"></rect><g class="label" style="" transform="translate(0, -9.5)"><rect></rect><text style=""><tspan xml:space="preserve" dy="1em" x="0" class="row">DICT Attendance Sheet Template</tspan></text></g></g><g class="node default default flowchart-label" id="flowchart-p51-3" data-node="true" data-id="p51" transform="translate(734.5859375, 1374.4274425506592)"><circle style="" rx="0" ry="0" r="124.85546875" width="249.7109375" height="34"></circle><g class="label" style="" transform="translate(0, -9.5)"><rect></rect><text style=""><tspan xml:space="preserve" dy="1em" x="0" class="row">5.1 Open Public Attendance Link</tspan></text></g></g><g class="node default default flowchart-label" id="flowchart-p52-4" data-node="true" data-id="p52" transform="translate(1181.32421875, 1291.5856456756592)"><circle style="" rx="0" ry="0" r="130.68359375" width="261.3671875" height="34"></circle><g class="label" style="" transform="translate(0, -9.5)"><rect></rect><text style=""><tspan xml:space="preserve" dy="1em" x="0" class="row">5.2 Display Fixed Attendance Page</tspan></text></g></g><g class="node default default flowchart-label" id="flowchart-p53-5" data-node="true" data-id="p53" transform="translate(734.5859375, 1006.8825206756592)"><circle style="" rx="0" ry="0" r="116.32421875" width="232.6484375" height="34"></circle><g class="label" style="" transform="translate(0, -9.5)"><rect></rect><text style=""><tspan xml:space="preserve" dy="1em" x="0" class="row">5.3 Submit Attendance Details</tspan></text></g></g><g class="node default default flowchart-label" id="flowchart-p61-6" data-node="true" data-id="p61" transform="translate(1181.32421875, 1006.8825206756592)"><circle style="" rx="0" ry="0" r="97.54296875" width="195.0859375" height="34"></circle><g class="label" style="" transform="translate(0, -9.5)"><rect></rect><text style=""><tspan xml:space="preserve" dy="1em" x="0" class="row">6.1 Validate Event Status</tspan></text></g></g><g class="node default default flowchart-label" id="flowchart-p62-7" data-node="true" data-id="p62" transform="translate(1809.6328125, 1211.367546081543)"><circle style="" rx="0" ry="0" r="108.0625" width="216.125" height="34"></circle><g class="label" style="" transform="translate(0, -9.5)"><rect></rect><text style=""><tspan xml:space="preserve" dy="1em" x="0" class="row">6.2 Validate Required Fields</tspan></text></g></g><g class="node default default flowchart-label" id="flowchart-p63-8" data-node="true" data-id="p63" transform="translate(2392.0234375, 1211.367546081543)"><circle style="" rx="0" ry="0" r="125.171875" width="250.34375" height="34"></circle><g class="label" style="" transform="translate(0, -9.5)"><rect></rect><text style=""><tspan xml:space="preserve" dy="1em" x="0" class="row">6.3 Validate Contact Information</tspan></text></g></g><g class="node default default flowchart-label" id="flowchart-p64-9" data-node="true" data-id="p64" transform="translate(2716.33984375, 1211.367546081543)"><circle style="" rx="0" ry="0" r="149.14453125" width="298.2890625" height="34"></circle><g class="label" style="" transform="translate(0, -9.5)"><rect></rect><text style=""><tspan xml:space="preserve" dy="1em" x="0" class="row">6.4 Check Duplicate Within Same Event</tspan></text></g></g><g class="node default default flowchart-label" id="flowchart-p65-10" data-node="true" data-id="p65" transform="translate(3025.59765625, 1029.459270477295)"><circle style="" rx="0" ry="0" r="110.11328125" width="220.2265625" height="34"></circle><g class="label" style="" transform="translate(0, -9.5)"><rect></rect><text style=""><tspan xml:space="preserve" dy="1em" x="0" class="row">6.5 Store Attendance Record</tspan></text></g></g><g class="node default default flowchart-label" id="flowchart-p66-11" data-node="true" data-id="p66" transform="translate(3291.41796875, 653.0803813934326)"><circle style="" rx="0" ry="0" r="105.70703125" width="211.4140625" height="34"></circle><g class="label" style="" transform="translate(0, -9.5)"><rect></rect><text style=""><tspan xml:space="preserve" dy="1em" x="0" class="row">6.6 Show Submission Result</tspan></text></g></g><g class="node default default flowchart-label" id="flowchart-p71-12" data-node="true" data-id="p71" transform="translate(734.5859375, 453.5100688934326)"><circle style="" rx="0" ry="0" r="144.5703125" width="289.140625" height="34"></circle><g class="label" style="" transform="translate(0, -9.5)"><rect></rect><text style=""><tspan xml:space="preserve" dy="1em" x="0" class="row">7.1 Select Event for Attendance Sheet</tspan></text></g></g><g class="node default default flowchart-label" id="flowchart-p72-13" data-node="true" data-id="p72" transform="translate(1181.32421875, 360.44140625)"><circle style="" rx="0" ry="0" r="124.6875" width="249.375" height="34"></circle><g class="label" style="" transform="translate(0, -9.5)"><rect></rect><text style=""><tspan xml:space="preserve" dy="1em" x="0" class="row">7.2 Retrieve Attendance Records</tspan></text></g></g><g class="node default default flowchart-label" id="flowchart-p73-14" data-node="true" data-id="p73" transform="translate(1809.6328125, 266.4609375)"><circle style="" rx="0" ry="0" r="152.9609375" width="305.921875" height="34"></circle><g class="label" style="" transform="translate(0, -9.5)"><rect></rect><text style=""><tspan xml:space="preserve" dy="1em" x="0" class="row">7.3 Format Records Using DICT Template</tspan></text></g></g><g class="node default default flowchart-label" id="flowchart-p74-15" data-node="true" data-id="p74" transform="translate(2392.0234375, 172.48046875)"><circle style="" rx="0" ry="0" r="122.97265625" width="245.9453125" height="34"></circle><g class="label" style="" transform="translate(0, -9.5)"><rect></rect><text style=""><tspan xml:space="preserve" dy="1em" x="0" class="row">7.4 Generate Downloadable File</tspan></text></g></g><g class="node default default flowchart-label" id="flowchart-p75-16" data-node="true" data-id="p75" transform="translate(2716.33984375, 86.21989250183105)"><circle style="" rx="0" ry="0" r="81.4921875" width="162.984375" height="34"></circle><g class="label" style="" transform="translate(0, -9.5)"><rect></rect><text style=""><tspan xml:space="preserve" dy="1em" x="0" class="row">7.5 Record Audit Log</tspan></text></g></g><g class="node default default flowchart-label" id="flowchart-d2-17" label-offset-y="16.91608900386007" data-node="true" data-id="d2" transform="translate(1181.32421875, 631.6397552490234)"><path style="" d="M 0,16.91608900386007 a 130.78515625,16.91608900386007 0,0,0 261.5703125 0 a 130.78515625,16.91608900386007 0,0,0 -261.5703125 0 l 0,50.916089003860066 a 130.78515625,16.91608900386007 0,0,0 261.5703125 0 l 0,-50.916089003860066" transform="translate(-130.78515625,-42.3741335057901)"></path><g class="label" style="" transform="translate(0, -9.5)"><rect></rect><text style=""><tspan xml:space="preserve" dy="1em" x="0" class="row">D2 Roles and Program Assignments</tspan></text></g></g><g class="node default default flowchart-label" id="flowchart-d4-18" label-offset-y="10.136189662219909" data-node="true" data-id="d4" transform="translate(1809.6328125, 1021.1007652282715)"><path style="" d="M 0,10.136189662219909 a 42.62109375,10.136189662219909 0,0,0 85.2421875 0 a 42.62109375,10.136189662219909 0,0,0 -85.2421875 0 l 0,44.136189662219905 a 42.62109375,10.136189662219909 0,0,0 85.2421875 0 l 0,-44.136189662219905" transform="translate(-42.62109375,-32.204284493329865)"></path><g class="label" style="" transform="translate(0, -9.5)"><rect></rect><text style=""><tspan xml:space="preserve" dy="1em" x="0" class="row">D4 Events</tspan></text></g></g><g class="node default default flowchart-label" id="flowchart-d5-19" label-offset-y="14.764061620349047" data-node="true" data-id="d5" transform="translate(3291.41796875, 1092.015911102295)"><path style="" d="M 0,14.764061620349047 a 90.1484375,14.764061620349047 0,0,0 180.296875 0 a 90.1484375,14.764061620349047 0,0,0 -180.296875 0 l 0,48.76406162034905 a 90.1484375,14.764061620349047 0,0,0 180.296875 0 l 0,-48.76406162034905" transform="translate(-90.1484375,-39.14609243052357)"></path><g class="label" style="" transform="translate(0, -9.5)"><rect></rect><text style=""><tspan xml:space="preserve" dy="1em" x="0" class="row">D5 Attendance Records</tspan></text></g></g><g class="node default default flowchart-label" id="flowchart-d6-20" label-offset-y="16.01930848675348" data-node="true" data-id="d6" transform="translate(2716.33984375, 322.42692375183105)"><path style="" d="M 0,16.01930848675348 a 111.484375,16.01930848675348 0,0,0 222.96875 0 a 111.484375,16.01930848675348 0,0,0 -222.96875 0 l 0,50.01930848675348 a 111.484375,16.01930848675348 0,0,0 222.96875 0 l 0,-50.01930848675348" transform="translate(-111.484375,-41.02896273013022)"></path><g class="label" style="" transform="translate(0, -9.5)"><rect></rect><text style=""><tspan xml:space="preserve" dy="1em" x="0" class="row">D6 Attendance Sheet Exports</tspan></text></g></g><g class="node default default flowchart-label" id="flowchart-d7-21" label-offset-y="11.796501072784288" data-node="true" data-id="d7" transform="translate(3025.59765625, 86.21989250183105)"><path style="" d="M 0,11.796501072784288 a 55.83984375,11.796501072784288 0,0,0 111.6796875 0 a 55.83984375,11.796501072784288 0,0,0 -111.6796875 0 l 0,45.79650107278429 a 55.83984375,11.796501072784288 0,0,0 111.6796875 0 l 0,-45.79650107278429" transform="translate(-55.83984375,-34.694751609176436)"></path><g class="label" style="" transform="translate(0, -9.5)"><rect></rect><text style=""><tspan xml:space="preserve" dy="1em" x="0" class="row">D7 Audit Logs</tspan></text></g></g></g></g></g></svg>